G04 #@! TF.GenerationSoftware,KiCad,Pcbnew,5.0.2-bee76a0~70~ubuntu18.04.1*
G04 #@! TF.CreationDate,2019-04-08T17:38:34+02:00*
G04 #@! TF.ProjectId,anotterwatch,616e6f74-7465-4727-9761-7463682e6b69,rev?*
G04 #@! TF.SameCoordinates,Original*
G04 #@! TF.FileFunction,Copper,L2,Inr*
G04 #@! TF.FilePolarity,Positive*
%FSLAX46Y46*%
G04 Gerber Fmt 4.6, Leading zero omitted, Abs format (unit mm)*
G04 Created by KiCad (PCBNEW 5.0.2-bee76a0~70~ubuntu18.04.1) date Mo 08 Apr 2019 17:38:34 CEST*
%MOMM*%
%LPD*%
G01*
G04 APERTURE LIST*
G04 #@! TA.AperFunction,ViaPad*
%ADD10O,1.000000X2.100000*%
G04 #@! TD*
G04 #@! TA.AperFunction,ViaPad*
%ADD11O,1.000000X1.600000*%
G04 #@! TD*
G04 #@! TA.AperFunction,ViaPad*
%ADD12R,0.900000X0.500000*%
G04 #@! TD*
G04 #@! TA.AperFunction,ViaPad*
%ADD13C,0.600000*%
G04 #@! TD*
G04 #@! TA.AperFunction,Conductor*
%ADD14C,0.150000*%
G04 #@! TD*
G04 #@! TA.AperFunction,Conductor*
%ADD15C,0.200000*%
G04 #@! TD*
G04 #@! TA.AperFunction,Conductor*
%ADD16C,0.500000*%
G04 #@! TD*
G04 APERTURE END LIST*
D10*
G04 #@! TO.N,GND*
G04 #@! TO.C,J4*
X107160600Y-75221500D03*
X115800600Y-75221500D03*
D11*
X107160600Y-71041500D03*
X115800600Y-71041500D03*
G04 #@! TD*
D12*
G04 #@! TO.N,GND*
G04 #@! TO.C,AE1*
X88679600Y-74015600D03*
G04 #@! TD*
D13*
G04 #@! TO.N,GND*
X80950000Y-88890000D03*
X93340000Y-81410000D03*
X93340000Y-80660000D03*
X92590000Y-80660000D03*
X92590000Y-81410000D03*
X92590000Y-82160000D03*
X93340000Y-82160000D03*
X94090000Y-82160000D03*
X94090000Y-81410000D03*
X94090000Y-80660000D03*
X94090000Y-79910000D03*
X93340000Y-79910000D03*
X92590000Y-79910000D03*
X91840000Y-79910000D03*
X91840000Y-80660000D03*
X91840000Y-81410000D03*
X91840000Y-82160000D03*
X91090000Y-82160000D03*
X91090000Y-81410000D03*
X91090000Y-80660000D03*
X91090000Y-79910000D03*
X91090000Y-79160000D03*
X91840000Y-79160000D03*
X92590000Y-79160000D03*
X93340000Y-79160000D03*
X94090000Y-79160000D03*
X94840000Y-79160000D03*
X94840000Y-79910000D03*
X94840000Y-80660000D03*
X94840000Y-81410000D03*
X94840000Y-82160000D03*
X94840000Y-82910000D03*
X94090000Y-82910000D03*
X93340000Y-82910000D03*
X92590000Y-82910000D03*
X91840000Y-82910000D03*
X91090000Y-82910000D03*
G04 #@! TO.N,PROBE1*
X115265200Y-95300800D03*
X116298130Y-96062800D03*
G04 #@! TO.N,GNDA*
X112522000Y-85648800D03*
X112776000Y-87630000D03*
X115265200Y-87630000D03*
X112217200Y-89154000D03*
X119684800Y-94494000D03*
X116789200Y-100939600D03*
X113741200Y-102463600D03*
X115569375Y-86005025D03*
G04 #@! TO.N,ADC_REF*
X116687600Y-102616000D03*
X120142000Y-90576400D03*
G04 #@! TO.N,AFE_ENABLE*
X116992400Y-95758000D03*
X115073259Y-86928795D03*
X107028041Y-91572506D03*
X106982600Y-93492507D03*
X108864400Y-93776800D03*
X106527600Y-89814400D03*
X98044000Y-91033600D03*
G04 #@! TO.N,SE_ENABLE*
X120599200Y-92049600D03*
X117602000Y-103581194D03*
X97282000Y-91643200D03*
G04 #@! TO.N,GND*
X101600000Y-92456000D03*
X101600000Y-93116400D03*
X99771200Y-91795600D03*
X101600000Y-91795600D03*
X111455200Y-87680800D03*
X110794800Y-88341200D03*
X110794800Y-86969600D03*
X81500000Y-77828400D03*
X82143600Y-77825600D03*
X81500000Y-78488800D03*
X82143600Y-78486000D03*
X83413600Y-78486000D03*
X82753200Y-78486000D03*
X81500000Y-77168000D03*
X82143600Y-77165200D03*
X83413600Y-77165200D03*
X82753200Y-77165200D03*
X83413600Y-77825600D03*
X82753200Y-77825600D03*
X82143600Y-76403200D03*
X82753200Y-76403200D03*
X83413600Y-79197200D03*
X81500000Y-76400000D03*
X81500000Y-79200000D03*
X83400000Y-76400000D03*
X81750000Y-88900000D03*
X81750000Y-88050000D03*
X80200000Y-88050000D03*
X80200000Y-88900000D03*
X79350000Y-82950000D03*
X88679600Y-74015600D03*
X78802010Y-83300000D03*
X80750000Y-93200000D03*
X81300000Y-92650000D03*
X82753200Y-79197200D03*
X82753200Y-79197200D03*
X82143600Y-79197200D03*
X110128410Y-87680800D03*
X80949800Y-88036400D03*
X81737200Y-80822800D03*
X81432400Y-82397600D03*
X78587600Y-88493600D03*
X100431600Y-92456000D03*
X118973600Y-77317600D03*
X118110000Y-77317600D03*
X124053600Y-82397600D03*
X122783600Y-82397600D03*
X121361200Y-81534000D03*
X121361200Y-80467200D03*
X118973600Y-79603600D03*
X118059200Y-79603600D03*
X114300000Y-69392800D03*
X108051600Y-69392800D03*
X108000800Y-72186800D03*
X113334800Y-73914000D03*
X107594400Y-79349600D03*
X107848400Y-73863200D03*
X119634000Y-74676000D03*
X110591600Y-79654400D03*
X112877600Y-91735389D03*
X115620800Y-85191600D03*
X102717600Y-75539600D03*
X102717600Y-76200000D03*
X83769200Y-74625200D03*
X85547200Y-81788000D03*
X94843600Y-107035600D03*
X94843600Y-106121200D03*
X94843600Y-105206800D03*
X93929200Y-107848400D03*
X91135200Y-107391200D03*
X88747600Y-107035600D03*
X91541600Y-102920800D03*
X90119200Y-104038400D03*
X94843600Y-104292400D03*
X107334410Y-84734400D03*
X119594958Y-99353042D03*
X118313200Y-95046800D03*
X111455200Y-97637600D03*
X107442000Y-97790000D03*
X110794800Y-89650977D03*
X109526768Y-93077789D03*
X113334800Y-104749600D03*
X114147600Y-107899200D03*
X114291995Y-99314567D03*
X96164400Y-90525600D03*
X105816400Y-87878010D03*
X89550000Y-86310002D03*
X91690000Y-86540000D03*
X88105097Y-77678887D03*
X95294810Y-90700000D03*
X93725579Y-96246523D03*
X92216153Y-94653223D03*
X96100000Y-91300000D03*
X93900000Y-99700000D03*
X95000000Y-99700000D03*
X96100000Y-99700000D03*
X89165763Y-75334844D03*
X79710000Y-96620000D03*
G04 #@! TO.N,BUF_ENABLE*
X109626400Y-94234000D03*
X97960553Y-91904182D03*
X95919559Y-87887070D03*
G04 #@! TO.N,MUX_ENABLE*
X115163600Y-105003600D03*
X97434400Y-94640400D03*
X115017190Y-99263200D03*
G04 #@! TO.N,MUX_CH1*
X113893600Y-96570800D03*
X98862407Y-94539628D03*
G04 #@! TO.N,MUX_CH2*
X116484400Y-104495600D03*
X98143262Y-94432969D03*
G04 #@! TO.N,VBUS*
X109626400Y-74777600D03*
X113334800Y-74777600D03*
X87630000Y-80568800D03*
X88290400Y-80619600D03*
X79908400Y-75234800D03*
X85191600Y-80314800D03*
X109067600Y-79857600D03*
X107238800Y-82296000D03*
G04 #@! TO.N,IPS_LED*
X91338400Y-105003600D03*
G04 #@! TO.N,+BATT*
X83000000Y-86950000D03*
X82905600Y-92557600D03*
X82905600Y-93268800D03*
X82397600Y-82397600D03*
X82448400Y-86512400D03*
G04 #@! TO.N,IPS_MOSI*
X89893403Y-84367362D03*
X91700000Y-92400000D03*
G04 #@! TO.N,IPS_LED*
X97088835Y-78076395D03*
G04 #@! TO.N,+BATT*
X85895979Y-80619608D03*
G04 #@! TO.N,TXD*
X108458000Y-79298800D03*
X88727664Y-82242010D03*
G04 #@! TO.N,RXD*
X109677200Y-79298800D03*
X88090000Y-81880000D03*
G04 #@! TO.N,BTN_UP*
X119278400Y-87934800D03*
X95870000Y-75712010D03*
G04 #@! TO.N,BTN_CNTR*
X119684800Y-86055200D03*
X100813542Y-81087514D03*
X97172964Y-77072384D03*
G04 #@! TO.N,BTN_DOWN*
X119430800Y-84480400D03*
X106375200Y-82606790D03*
X93714485Y-77020821D03*
G04 #@! TO.N,ADC_SCK*
X108559515Y-86709610D03*
X94810000Y-86050000D03*
X95800000Y-93400000D03*
G04 #@! TO.N,IPS_DC*
X98660456Y-78853585D03*
X92900000Y-94900000D03*
G04 #@! TO.N,WAKE1*
X90344983Y-87762068D03*
X96447570Y-77258480D03*
G04 #@! TO.N,I2C_SCL*
X124612400Y-77368400D03*
X108708722Y-90741476D03*
X96422786Y-88411769D03*
X88663450Y-88051464D03*
X87968525Y-84322005D03*
G04 #@! TO.N,I2C_SDA*
X124815600Y-74726800D03*
X96995997Y-88881781D03*
X109626400Y-90943022D03*
X89280002Y-88679941D03*
X87290000Y-81930000D03*
X88689696Y-84413978D03*
G04 #@! TO.N,SD_DATA2*
X99314000Y-96723200D03*
X97188547Y-80588538D03*
G04 #@! TO.N,SD_DATA3*
X100482400Y-96977200D03*
X97800000Y-81430000D03*
G04 #@! TO.N,SD_CMD*
X101041200Y-98196400D03*
X97653364Y-83157855D03*
G04 #@! TO.N,SD_DATA1*
X98756166Y-98405590D03*
X97120032Y-84650032D03*
G04 #@! TO.N,PARTY_ENABLE*
X88442800Y-101650800D03*
X87680800Y-105308400D03*
G04 #@! TO.N,ESP32_DAC*
X99466400Y-78678590D03*
X104901375Y-83617425D03*
G04 #@! TO.N,Net-(D2-Pad1)*
X85699600Y-71729600D03*
X86156800Y-109626400D03*
G04 #@! TO.N,ADC_MISO*
X109073590Y-85998410D03*
X95893487Y-86069575D03*
X91630000Y-88590000D03*
X88910000Y-83300000D03*
G04 #@! TO.N,ADC_CS*
X108345263Y-87404335D03*
X95002827Y-86760591D03*
G04 #@! TO.N,ADC_CH_SEL*
X101506349Y-79748051D03*
X109524800Y-89611200D03*
G04 #@! TO.N,Net-(D1-Pad1)*
X117449600Y-71475600D03*
X86817200Y-71831200D03*
G04 #@! TO.N,+BATT*
X94370000Y-75330000D03*
G04 #@! TO.N,ESP_ADC*
X103428800Y-82499200D03*
G04 #@! TO.N,+3V3*
X80009377Y-90906076D03*
X98644655Y-80576144D03*
X118211600Y-74574400D03*
G04 #@! TO.N,ESP_ADC*
X92230000Y-76870000D03*
G04 #@! TO.N,+3V3*
X84988400Y-74523600D03*
X84582000Y-105867200D03*
X114147600Y-108661200D03*
X115468400Y-98145600D03*
X117754400Y-99161600D03*
X118465600Y-101142800D03*
X105511600Y-97637600D03*
X106121200Y-91440000D03*
X79502000Y-86360000D03*
X79298800Y-86969600D03*
X97942400Y-95554800D03*
X112725200Y-92557600D03*
X115417600Y-106426000D03*
X106290621Y-84632800D03*
X102057200Y-80772000D03*
X91450000Y-77590000D03*
X87830000Y-87520000D03*
X90978546Y-88912730D03*
X87619988Y-84960023D03*
X89275793Y-83983820D03*
X85360000Y-83580000D03*
X88660092Y-77123892D03*
X88700000Y-80000000D03*
X93728107Y-96973531D03*
G04 #@! TO.N,Net-(C28-Pad1)*
X79350000Y-90250000D03*
X80975200Y-90830400D03*
G04 #@! TO.N,Net-(J3-Pad1)*
X124002800Y-94843600D03*
X116840000Y-97485200D03*
X102565200Y-89154000D03*
G04 #@! TO.N,Net-(J3-Pad2)*
X118973600Y-97897600D03*
X104343200Y-91744800D03*
G04 #@! TO.N,Net-(J3-Pad3)*
X124002800Y-97942400D03*
X102819200Y-94538789D03*
G04 #@! TO.N,Net-(C15-Pad1)*
X108818632Y-92913200D03*
X107537610Y-92853528D03*
G04 #@! TO.N,Net-(BT1-Pad1)*
X79705200Y-80467200D03*
X82804000Y-102565200D03*
X82245200Y-102006400D03*
X79756000Y-81788000D03*
G04 #@! TO.N,Net-(D3-Pad1)*
X89255600Y-108051600D03*
X117703600Y-109778800D03*
G04 #@! TO.N,Net-(J1-Pad5)*
X98755200Y-79857596D03*
X99760178Y-98398116D03*
G04 #@! TO.N,Net-(J1-Pad7)*
X99629972Y-97682859D03*
X99850000Y-82310000D03*
G04 #@! TO.N,Net-(C31-Pad1)*
X115163600Y-72847200D03*
X113944400Y-109982000D03*
X87014410Y-75031600D03*
X87642261Y-74206539D03*
X87155123Y-108801791D03*
G04 #@! TD*
D14*
G04 #@! TO.N,PROBE1*
X116027200Y-96062800D02*
X116298130Y-96062800D01*
X115265200Y-95300800D02*
X116027200Y-96062800D01*
G04 #@! TO.N,ADC_REF*
X116687600Y-102616000D02*
X116687600Y-103124000D01*
X116687600Y-103124000D02*
X116687600Y-103632000D01*
X117138795Y-104083195D02*
X118979605Y-104083195D01*
X116687600Y-103632000D02*
X117138795Y-104083195D01*
X118979605Y-104083195D02*
X120497600Y-102565200D01*
X120497600Y-102565200D02*
X120548400Y-102616000D01*
X120548400Y-102616000D02*
X123647200Y-102616000D01*
X123647200Y-102616000D02*
X125120400Y-101142800D01*
X125120400Y-101142800D02*
X125120400Y-93218000D01*
X125120400Y-93218000D02*
X122478800Y-90576400D01*
X122478800Y-90576400D02*
X120142000Y-90576400D01*
G04 #@! TO.N,AFE_ENABLE*
X106982600Y-93492507D02*
X108580107Y-93492507D01*
X108580107Y-93492507D02*
X108864400Y-93776800D01*
X115983449Y-96762011D02*
X111018943Y-91797505D01*
X107253039Y-91797505D02*
X107028041Y-91572506D01*
X116412653Y-96762011D02*
X115983449Y-96762011D01*
X116992400Y-96182264D02*
X116412653Y-96762011D01*
X116992400Y-95758000D02*
X116992400Y-96182264D01*
X111018943Y-91797505D02*
X107253039Y-91797505D01*
X114706400Y-88188800D02*
X112731199Y-90164001D01*
X114706400Y-87295654D02*
X114706400Y-88188800D01*
X106951864Y-89814400D02*
X106527600Y-89814400D01*
X107911065Y-90164001D02*
X107561464Y-89814400D01*
X115073259Y-86928795D02*
X114706400Y-87295654D01*
X112731199Y-90164001D02*
X107911065Y-90164001D01*
X107561464Y-89814400D02*
X106951864Y-89814400D01*
X98343999Y-91333599D02*
X98044000Y-91033600D01*
X106982600Y-93492507D02*
X106558336Y-93492507D01*
X106558336Y-93492507D02*
X106324843Y-93726000D01*
X100736400Y-93726000D02*
X98343999Y-91333599D01*
X106324843Y-93726000D02*
X100736400Y-93726000D01*
G04 #@! TO.N,SE_ENABLE*
X124612400Y-99466400D02*
X124002800Y-100076000D01*
X121107194Y-100076000D02*
X117901999Y-103281195D01*
X117901999Y-103281195D02*
X117602000Y-103581194D01*
X124612400Y-93573600D02*
X124612400Y-99466400D01*
X124002800Y-100076000D02*
X121107194Y-100076000D01*
X123088400Y-92049600D02*
X124612400Y-93573600D01*
X120599200Y-92049600D02*
X123088400Y-92049600D01*
X105024583Y-90870421D02*
X102647762Y-88493600D01*
X119684800Y-91135200D02*
X110504150Y-91135200D01*
X110118856Y-91520494D02*
X107776483Y-91520494D01*
X97282000Y-90932000D02*
X97282000Y-91218936D01*
X107126410Y-90870421D02*
X105024583Y-90870421D01*
X102647762Y-88493600D02*
X99720400Y-88493600D01*
X120599200Y-92049600D02*
X119684800Y-91135200D01*
X110504150Y-91135200D02*
X110118856Y-91520494D01*
X99720400Y-88493600D02*
X97282000Y-90932000D01*
X107776483Y-91520494D02*
X107126410Y-90870421D01*
X97282000Y-91218936D02*
X97282000Y-91643200D01*
G04 #@! TO.N,BUF_ENABLE*
X108998936Y-94437200D02*
X103835200Y-94437200D01*
X98260552Y-92204181D02*
X97960553Y-91904182D01*
X103835200Y-94437200D02*
X103428800Y-94030800D01*
X103428800Y-94030800D02*
X100087171Y-94030800D01*
X109202136Y-94234000D02*
X108998936Y-94437200D01*
X100087171Y-94030800D02*
X98260552Y-92204181D01*
X109626400Y-94234000D02*
X109202136Y-94234000D01*
X94792800Y-89013829D02*
X95619560Y-88187069D01*
X95619560Y-88187069D02*
X95919559Y-87887070D01*
X97660554Y-92204181D02*
X95495933Y-92204181D01*
X95495933Y-92204181D02*
X94792800Y-91501048D01*
X94792800Y-91501048D02*
X94792800Y-89013829D01*
X97960553Y-91904182D02*
X97660554Y-92204181D01*
G04 #@! TO.N,MUX_ENABLE*
X97734399Y-94940399D02*
X98089999Y-94940399D01*
X97434400Y-94640400D02*
X97734399Y-94940399D01*
X114717191Y-98963201D02*
X115017190Y-99263200D01*
X115163600Y-99409610D02*
X115017190Y-99263200D01*
X98089999Y-94940399D02*
X98755200Y-95605600D01*
X98755200Y-95605600D02*
X111359590Y-95605600D01*
X111359590Y-95605600D02*
X114717191Y-98963201D01*
X115163600Y-105003600D02*
X115163600Y-99409610D01*
G04 #@! TO.N,MUX_CH1*
X99363580Y-95040801D02*
X99162406Y-94839627D01*
X112617601Y-95040801D02*
X99363580Y-95040801D01*
X99162406Y-94839627D02*
X98862407Y-94539628D01*
X113893600Y-96570800D02*
X113593601Y-96270801D01*
X113593601Y-96016801D02*
X112617601Y-95040801D01*
X113593601Y-96270801D02*
X113593601Y-96016801D01*
G04 #@! TO.N,MUX_CH2*
X98143262Y-94536462D02*
X98143262Y-94432969D01*
X101769411Y-95317811D02*
X98924611Y-95317811D01*
X98924611Y-95317811D02*
X98143262Y-94536462D01*
X113284000Y-96113600D02*
X112488210Y-95317810D01*
X113284000Y-96704162D02*
X113284000Y-96113600D01*
X115519200Y-98939362D02*
X113284000Y-96704162D01*
X115519200Y-103530400D02*
X115519200Y-98939362D01*
X116484400Y-104495600D02*
X115519200Y-103530400D01*
X103803540Y-95317810D02*
X101735390Y-95317810D01*
X112488210Y-95317810D02*
X103803540Y-95317810D01*
G04 #@! TO.N,VBUS*
X80975200Y-80314800D02*
X84767336Y-80314800D01*
X84767336Y-80314800D02*
X85191600Y-80314800D01*
X79908400Y-79248000D02*
X80975200Y-80314800D01*
X79908400Y-75234800D02*
X79908400Y-79248000D01*
X107238800Y-82245200D02*
X107238800Y-82296000D01*
X109067600Y-79857600D02*
X109067600Y-80416400D01*
X109067600Y-80416400D02*
X107238800Y-82245200D01*
G04 #@! TO.N,IPS_MOSI*
X89593404Y-84667361D02*
X89893403Y-84367362D01*
X91700000Y-92500000D02*
X91700000Y-90390000D01*
X91700000Y-90390000D02*
X89450000Y-88140000D01*
X89017999Y-85242766D02*
X89593404Y-84667361D01*
X89017999Y-87054796D02*
X89017999Y-85242766D01*
X89450000Y-87486797D02*
X89017999Y-87054796D01*
X89450000Y-88140000D02*
X89450000Y-87486797D01*
G04 #@! TO.N,IPS_LED*
X92270000Y-87250000D02*
X92272990Y-87247010D01*
X92270000Y-87250000D02*
X92270001Y-85048249D01*
X95970000Y-83460000D02*
X93860000Y-83460000D01*
X96401387Y-83028613D02*
X95970000Y-83460000D01*
X96401387Y-78758811D02*
X96401387Y-83028613D01*
X96538635Y-78621365D02*
X96538635Y-78621563D01*
X93860000Y-83460000D02*
X92270000Y-85050000D01*
X96538635Y-78621563D02*
X96401387Y-78758811D01*
X96920000Y-78240000D02*
X96538635Y-78621365D01*
X92270000Y-92650000D02*
X92270000Y-87250000D01*
X91038401Y-93881599D02*
X92270000Y-92650000D01*
X91338400Y-105003600D02*
X91038401Y-104703601D01*
X91038401Y-104703601D02*
X91038401Y-93881599D01*
G04 #@! TO.N,TXD*
X94446308Y-76491022D02*
X94042297Y-76087011D01*
X89592989Y-77852299D02*
X89592989Y-81367011D01*
X108458000Y-79298800D02*
X107645200Y-78486000D01*
X107645200Y-78486000D02*
X101346000Y-78486000D01*
X91358277Y-76087011D02*
X89592989Y-77852299D01*
X89592989Y-81367011D02*
X88720000Y-82240000D01*
X96225702Y-76491022D02*
X94446308Y-76491022D01*
X96423351Y-76293373D02*
X96225702Y-76491022D01*
X94042297Y-76087011D02*
X91358277Y-76087011D01*
X99153373Y-76293373D02*
X96423351Y-76293373D01*
X101346000Y-78486000D02*
X99153373Y-76293373D01*
G04 #@! TO.N,RXD*
X109677200Y-79298800D02*
X108559600Y-78181200D01*
X89315978Y-80654022D02*
X88100000Y-81870000D01*
X94561049Y-76214011D02*
X94157038Y-75810000D01*
X89315978Y-77737558D02*
X89315978Y-80654022D01*
X96110961Y-76214011D02*
X94561049Y-76214011D01*
X101432952Y-78181200D02*
X99268114Y-76016362D01*
X91243536Y-75810000D02*
X89315978Y-77737558D01*
X99268114Y-76016362D02*
X96308609Y-76016363D01*
X108559600Y-78181200D02*
X101432952Y-78181200D01*
X94157038Y-75810000D02*
X91243536Y-75810000D01*
X96308609Y-76016363D02*
X96110961Y-76214011D01*
G04 #@! TO.N,BTN_UP*
X101418302Y-77774800D02*
X99355512Y-75712010D01*
X96294264Y-75712010D02*
X95870000Y-75712010D01*
X120192800Y-87020400D02*
X120192800Y-84499438D01*
X119278400Y-87934800D02*
X120192800Y-87020400D01*
X113468162Y-77774800D02*
X101418302Y-77774800D01*
X120192800Y-84499438D02*
X113468162Y-77774800D01*
X99355512Y-75712010D02*
X96294264Y-75712010D01*
G04 #@! TO.N,BTN_CNTR*
X100813542Y-80663250D02*
X100813542Y-81087514D01*
X101119722Y-79197200D02*
X100813542Y-79503380D01*
X100813542Y-79503380D02*
X100813542Y-80663250D01*
X101119722Y-79197200D02*
X102238150Y-79197200D01*
X119384801Y-85755201D02*
X119684800Y-86055200D01*
X106149750Y-83108800D02*
X116738400Y-83108800D01*
X116738400Y-83108800D02*
X119384801Y-85755201D01*
X102238150Y-79197200D02*
X106149750Y-83108800D01*
X98994906Y-77072384D02*
X97597228Y-77072384D01*
X97597228Y-77072384D02*
X97172964Y-77072384D01*
X101119722Y-79197200D02*
X98994906Y-77072384D01*
G04 #@! TO.N,BTN_DOWN*
X106426000Y-82651600D02*
X106420010Y-82651600D01*
X106420010Y-82651600D02*
X106375200Y-82606790D01*
X102565200Y-78841600D02*
X101155874Y-78841600D01*
X119430800Y-84480400D02*
X117754400Y-82804000D01*
X106527600Y-82804000D02*
X102565200Y-78841600D01*
X96538092Y-76570384D02*
X96340443Y-76768033D01*
X117754400Y-82804000D02*
X106527600Y-82804000D01*
X101155874Y-78841600D02*
X98884658Y-76570384D01*
X96340443Y-76768033D02*
X94391537Y-76768033D01*
X94138749Y-77020821D02*
X93714485Y-77020821D01*
X94391537Y-76768033D02*
X94138749Y-77020821D01*
X98884658Y-76570384D02*
X96538092Y-76570384D01*
G04 #@! TO.N,ADC_SCK*
X103714800Y-86961600D02*
X103670295Y-86956586D01*
X103558433Y-86886298D02*
X103534606Y-86848377D01*
X100159304Y-86466615D02*
X100114800Y-86461600D01*
X101670295Y-86466615D02*
X101628023Y-86481407D01*
X104694993Y-86848377D02*
X104671166Y-86886298D01*
X103270295Y-86466615D02*
X103228023Y-86481407D01*
X101228023Y-86941794D02*
X101190102Y-86917967D01*
X103934606Y-86574824D02*
X103919814Y-86617096D01*
X105628023Y-86481407D02*
X105590102Y-86505234D01*
X101494993Y-86848377D02*
X101471166Y-86886298D01*
X101914800Y-86761600D02*
X101914800Y-86661600D01*
X100671166Y-86886298D02*
X100639497Y-86917967D01*
X102828023Y-86941794D02*
X102790102Y-86917967D01*
X100639497Y-86917967D02*
X100601576Y-86941794D01*
X103494993Y-86574824D02*
X103471166Y-86536903D01*
X101471166Y-86886298D02*
X101439497Y-86917967D01*
X100294993Y-86574824D02*
X100271166Y-86536903D01*
X104159304Y-86466615D02*
X104114800Y-86461600D01*
X105071166Y-86536903D02*
X105039497Y-86505234D01*
X101919814Y-86806105D02*
X101914800Y-86761600D01*
X100334606Y-86848377D02*
X100319814Y-86806105D01*
X102714800Y-86661600D02*
X102709785Y-86617096D01*
X100070295Y-86466615D02*
X100028023Y-86481407D01*
X105119814Y-86806105D02*
X105114800Y-86761600D01*
X102114800Y-86961600D02*
X102070295Y-86956586D01*
X100601576Y-86941794D02*
X100559304Y-86956586D01*
X100790102Y-86505234D02*
X100758433Y-86536903D01*
X105114800Y-86661600D02*
X105109785Y-86617096D01*
X101590102Y-86505234D02*
X101558433Y-86536903D01*
X102070295Y-86956586D02*
X102028023Y-86941794D01*
X101039497Y-86505234D02*
X101001576Y-86481407D01*
X103514800Y-86761600D02*
X103514800Y-86661600D01*
X108508800Y-86664800D02*
X108305600Y-86461600D01*
X108305600Y-86461600D02*
X105714800Y-86461600D01*
X104114800Y-86461600D02*
X104070295Y-86466615D01*
X105714800Y-86461600D02*
X105670295Y-86466615D01*
X100828023Y-86481407D02*
X100790102Y-86505234D01*
X105670295Y-86466615D02*
X105628023Y-86481407D01*
X103039497Y-86917967D02*
X103001576Y-86941794D01*
X101001576Y-86481407D02*
X100959304Y-86466615D01*
X105590102Y-86505234D02*
X105558433Y-86536903D01*
X103114800Y-86661600D02*
X103114800Y-86761600D01*
X101114800Y-86661600D02*
X101109785Y-86617096D01*
X105558433Y-86536903D02*
X105534606Y-86574824D01*
X105270295Y-86956586D02*
X105228023Y-86941794D01*
X105534606Y-86574824D02*
X105519814Y-86617096D01*
X105519814Y-86617096D02*
X105514800Y-86661600D01*
X105514800Y-86661600D02*
X105514800Y-86761600D01*
X105514800Y-86761600D02*
X105509785Y-86806105D01*
X105094993Y-86574824D02*
X105071166Y-86536903D01*
X104334606Y-86848377D02*
X104319814Y-86806105D01*
X105509785Y-86806105D02*
X105494993Y-86848377D01*
X99934606Y-86574824D02*
X99919814Y-86617096D01*
X105494993Y-86848377D02*
X105471166Y-86886298D01*
X105471166Y-86886298D02*
X105439497Y-86917967D01*
X103894993Y-86848377D02*
X103871166Y-86886298D01*
X100358433Y-86886298D02*
X100334606Y-86848377D01*
X105439497Y-86917967D02*
X105401576Y-86941794D01*
X100314800Y-86661600D02*
X100309785Y-86617096D01*
X105401576Y-86941794D02*
X105359304Y-86956586D01*
X100201576Y-86481407D02*
X100159304Y-86466615D01*
X105359304Y-86956586D02*
X105314800Y-86961600D01*
X105314800Y-86961600D02*
X105270295Y-86956586D01*
X105228023Y-86941794D02*
X105190102Y-86917967D01*
X105190102Y-86917967D02*
X105158433Y-86886298D01*
X105158433Y-86886298D02*
X105134606Y-86848377D01*
X105134606Y-86848377D02*
X105119814Y-86806105D01*
X105114800Y-86761600D02*
X105114800Y-86661600D01*
X105109785Y-86617096D02*
X105094993Y-86574824D01*
X103514800Y-86661600D02*
X103509785Y-86617096D01*
X104714800Y-86761600D02*
X104709785Y-86806105D01*
X102694993Y-86574824D02*
X102671166Y-86536903D01*
X102671166Y-86536903D02*
X102639497Y-86505234D01*
X101914800Y-86661600D02*
X101909785Y-86617096D01*
X102334606Y-86574824D02*
X102319814Y-86617096D01*
X102319814Y-86617096D02*
X102314800Y-86661600D01*
X102709785Y-86617096D02*
X102694993Y-86574824D01*
X100694993Y-86848377D02*
X100671166Y-86886298D01*
X101401576Y-86941794D02*
X101359304Y-86956586D01*
X102390102Y-86505234D02*
X102358433Y-86536903D01*
X102358433Y-86536903D02*
X102334606Y-86574824D01*
X102314800Y-86761600D02*
X102309785Y-86806105D01*
X102309785Y-86806105D02*
X102294993Y-86848377D01*
X101519814Y-86617096D02*
X101514800Y-86661600D01*
X102294993Y-86848377D02*
X102271166Y-86886298D01*
X101514800Y-86661600D02*
X101514800Y-86761600D01*
X102201576Y-86941794D02*
X102159304Y-86956586D01*
X102870295Y-86956586D02*
X102828023Y-86941794D01*
X102159304Y-86956586D02*
X102114800Y-86961600D01*
X102028023Y-86941794D02*
X101990102Y-86917967D01*
X101990102Y-86917967D02*
X101958433Y-86886298D01*
X102719814Y-86806105D02*
X102714800Y-86761600D01*
X101934606Y-86848377D02*
X101919814Y-86806105D01*
X102601576Y-86481407D02*
X102559304Y-86466615D01*
X101894993Y-86574824D02*
X101871166Y-86536903D01*
X104428023Y-86941794D02*
X104390102Y-86917967D01*
X99894993Y-86848377D02*
X99871166Y-86886298D01*
X102470295Y-86466615D02*
X102428023Y-86481407D01*
X101801576Y-86481407D02*
X101759304Y-86466615D01*
X101871166Y-86536903D02*
X101839497Y-86505234D01*
X99871166Y-86886298D02*
X95992336Y-86886298D01*
X102428023Y-86481407D02*
X102390102Y-86505234D01*
X101839497Y-86505234D02*
X101801576Y-86481407D01*
X99909785Y-86806105D02*
X99894993Y-86848377D01*
X102514800Y-86461600D02*
X102470295Y-86466615D01*
X101909785Y-86617096D02*
X101894993Y-86574824D01*
X104470295Y-86956586D02*
X104428023Y-86941794D01*
X101759304Y-86466615D02*
X101714800Y-86461600D01*
X100271166Y-86536903D02*
X100239497Y-86505234D01*
X99919814Y-86617096D02*
X99914800Y-86661600D01*
X100239497Y-86505234D02*
X100201576Y-86481407D01*
X95992336Y-86886298D02*
X95156038Y-86050000D01*
X100309785Y-86617096D02*
X100294993Y-86574824D01*
X100314800Y-86761600D02*
X100314800Y-86661600D01*
X101509785Y-86806105D02*
X101494993Y-86848377D01*
X102239497Y-86917967D02*
X102201576Y-86941794D01*
X100114800Y-86461600D02*
X100070295Y-86466615D01*
X101714800Y-86461600D02*
X101670295Y-86466615D01*
X101628023Y-86481407D02*
X101590102Y-86505234D01*
X102314800Y-86661600D02*
X102314800Y-86761600D01*
X99914800Y-86661600D02*
X99914800Y-86761600D01*
X104319814Y-86806105D02*
X104314800Y-86761600D01*
X101071166Y-86536903D02*
X101039497Y-86505234D01*
X99914800Y-86761600D02*
X99909785Y-86806105D01*
X102559304Y-86466615D02*
X102514800Y-86461600D01*
X100514800Y-86961600D02*
X100470295Y-86956586D01*
X101190102Y-86917967D02*
X101158433Y-86886298D01*
X100390102Y-86917967D02*
X100358433Y-86886298D01*
X100319814Y-86806105D02*
X100314800Y-86761600D01*
X101514800Y-86761600D02*
X101509785Y-86806105D01*
X102271166Y-86886298D02*
X102239497Y-86917967D01*
X101958433Y-86886298D02*
X101934606Y-86848377D01*
X102714800Y-86761600D02*
X102714800Y-86661600D01*
X95156038Y-86050000D02*
X94810000Y-86050000D01*
X102790102Y-86917967D02*
X102758433Y-86886298D01*
X100559304Y-86956586D02*
X100514800Y-86961600D01*
X100428023Y-86941794D02*
X100390102Y-86917967D01*
X100709785Y-86806105D02*
X100694993Y-86848377D01*
X101359304Y-86956586D02*
X101314800Y-86961600D01*
X100714800Y-86661600D02*
X100714800Y-86761600D01*
X100734606Y-86574824D02*
X100719814Y-86617096D01*
X100758433Y-86536903D02*
X100734606Y-86574824D01*
X100470295Y-86956586D02*
X100428023Y-86941794D01*
X101094993Y-86574824D02*
X101071166Y-86536903D01*
X100714800Y-86761600D02*
X100709785Y-86806105D01*
X102734606Y-86848377D02*
X102719814Y-86806105D01*
X100719814Y-86617096D02*
X100714800Y-86661600D01*
X102758433Y-86886298D02*
X102734606Y-86848377D01*
X100870295Y-86466615D02*
X100828023Y-86481407D01*
X102914800Y-86961600D02*
X102870295Y-86956586D01*
X100914800Y-86461600D02*
X100870295Y-86466615D01*
X102959304Y-86956586D02*
X102914800Y-86961600D01*
X104201576Y-86481407D02*
X104159304Y-86466615D01*
X103628023Y-86941794D02*
X103590102Y-86917967D01*
X104601576Y-86941794D02*
X104559304Y-86956586D01*
X100959304Y-86466615D02*
X100914800Y-86461600D01*
X103001576Y-86941794D02*
X102959304Y-86956586D01*
X103670295Y-86956586D02*
X103628023Y-86941794D01*
X103919814Y-86617096D02*
X103914800Y-86661600D01*
X103071166Y-86886298D02*
X103039497Y-86917967D01*
X103759304Y-86956586D02*
X103714800Y-86961600D01*
X103958433Y-86536903D02*
X103934606Y-86574824D01*
X103109785Y-86806105D02*
X103094993Y-86848377D01*
X101109785Y-86617096D02*
X101094993Y-86574824D01*
X103114800Y-86761600D02*
X103109785Y-86806105D01*
X103871166Y-86886298D02*
X103839497Y-86917967D01*
X104070295Y-86466615D02*
X104028023Y-86481407D01*
X103119814Y-86617096D02*
X103114800Y-86661600D01*
X101114800Y-86761600D02*
X101114800Y-86661600D01*
X101534606Y-86574824D02*
X101519814Y-86617096D01*
X104309785Y-86617096D02*
X104294993Y-86574824D01*
X101119814Y-86806105D02*
X101114800Y-86761600D01*
X103134606Y-86574824D02*
X103119814Y-86617096D01*
X101134606Y-86848377D02*
X101119814Y-86806105D01*
X103158433Y-86536903D02*
X103134606Y-86574824D01*
X104959304Y-86466615D02*
X104914800Y-86461600D01*
X101158433Y-86886298D02*
X101134606Y-86848377D01*
X103190102Y-86505234D02*
X103158433Y-86536903D01*
X103228023Y-86481407D02*
X103190102Y-86505234D01*
X101270295Y-86956586D02*
X101228023Y-86941794D01*
X103314800Y-86461600D02*
X103270295Y-86466615D01*
X101314800Y-86961600D02*
X101270295Y-86956586D01*
X103359304Y-86466615D02*
X103314800Y-86461600D01*
X103401576Y-86481407D02*
X103359304Y-86466615D01*
X101439497Y-86917967D02*
X101401576Y-86941794D01*
X103471166Y-86536903D02*
X103439497Y-86505234D01*
X104714800Y-86661600D02*
X104714800Y-86761600D01*
X103509785Y-86617096D02*
X103494993Y-86574824D01*
X103519814Y-86806105D02*
X103514800Y-86761600D01*
X103534606Y-86848377D02*
X103519814Y-86806105D01*
X103590102Y-86917967D02*
X103558433Y-86886298D01*
X103914800Y-86761600D02*
X103909785Y-86806105D01*
X103801576Y-86941794D02*
X103759304Y-86956586D01*
X103990102Y-86505234D02*
X103958433Y-86536903D01*
X102639497Y-86505234D02*
X102601576Y-86481407D01*
X104514800Y-86961600D02*
X104470295Y-86956586D01*
X105039497Y-86505234D02*
X105001576Y-86481407D01*
X103094993Y-86848377D02*
X103071166Y-86886298D01*
X103839497Y-86917967D02*
X103801576Y-86941794D01*
X104028023Y-86481407D02*
X103990102Y-86505234D01*
X103909785Y-86806105D02*
X103894993Y-86848377D01*
X103914800Y-86661600D02*
X103914800Y-86761600D01*
X105001576Y-86481407D02*
X104959304Y-86466615D01*
X104239497Y-86505234D02*
X104201576Y-86481407D01*
X104271166Y-86536903D02*
X104239497Y-86505234D01*
X103439497Y-86505234D02*
X103401576Y-86481407D01*
X104559304Y-86956586D02*
X104514800Y-86961600D01*
X104294993Y-86574824D02*
X104271166Y-86536903D01*
X104314800Y-86661600D02*
X104309785Y-86617096D01*
X101558433Y-86536903D02*
X101534606Y-86574824D01*
X104314800Y-86761600D02*
X104314800Y-86661600D01*
X104358433Y-86886298D02*
X104334606Y-86848377D01*
X104390102Y-86917967D02*
X104358433Y-86886298D01*
X104914800Y-86461600D02*
X104870295Y-86466615D01*
X99958433Y-86536903D02*
X99934606Y-86574824D01*
X104639497Y-86917967D02*
X104601576Y-86941794D01*
X104671166Y-86886298D02*
X104639497Y-86917967D01*
X104709785Y-86806105D02*
X104694993Y-86848377D01*
X104719814Y-86617096D02*
X104714800Y-86661600D01*
X104734606Y-86574824D02*
X104719814Y-86617096D01*
X104758433Y-86536903D02*
X104734606Y-86574824D01*
X104790102Y-86505234D02*
X104758433Y-86536903D01*
X104828023Y-86481407D02*
X104790102Y-86505234D01*
X99990102Y-86505234D02*
X99958433Y-86536903D01*
X104870295Y-86466615D02*
X104828023Y-86481407D01*
X100028023Y-86481407D02*
X99990102Y-86505234D01*
D15*
X95900000Y-93500000D02*
X95800000Y-93400000D01*
D14*
X94510001Y-86349999D02*
X94810000Y-86050000D01*
X94500001Y-86359999D02*
X94510001Y-86349999D01*
X94500001Y-92100001D02*
X94500001Y-86359999D01*
X95969200Y-93569200D02*
X94500001Y-92100001D01*
G04 #@! TO.N,IPS_DC*
X96678398Y-80327838D02*
X98152651Y-78853585D01*
X96678398Y-81796650D02*
X96678398Y-80327838D01*
X98236192Y-78853585D02*
X98660456Y-78853585D01*
X98152651Y-78853585D02*
X98236192Y-78853585D01*
X96680000Y-81750000D02*
X96680000Y-83150000D01*
X93968760Y-83742992D02*
X92550000Y-85161752D01*
X96087008Y-83742992D02*
X93968760Y-83742992D01*
X92900000Y-94475736D02*
X92900000Y-94900000D01*
X92900000Y-94375736D02*
X92900000Y-94475736D01*
X92550000Y-94025736D02*
X92900000Y-94375736D01*
X92550000Y-85161752D02*
X92550000Y-94025736D01*
X96680000Y-83150000D02*
X96087008Y-83742992D01*
G04 #@! TO.N,WAKE1*
X90525600Y-87426800D02*
X90525600Y-87581451D01*
X90525600Y-87581451D02*
X90344983Y-87762068D01*
X90672416Y-87279984D02*
X90271600Y-87680800D01*
X90672416Y-84011659D02*
X90672416Y-87279984D01*
X89870000Y-83209243D02*
X90672416Y-84011659D01*
X89870000Y-78050000D02*
X89870000Y-83209243D01*
X91460000Y-76460000D02*
X89870000Y-78050000D01*
X93100000Y-76997038D02*
X92466984Y-76364022D01*
X93473524Y-77522822D02*
X93100000Y-77149298D01*
X96447570Y-77258480D02*
X96023306Y-77258480D01*
X92466984Y-76364022D02*
X91555978Y-76364022D01*
X96023306Y-77258480D02*
X95758964Y-77522822D01*
X95758964Y-77522822D02*
X93473524Y-77522822D01*
X93100000Y-77149298D02*
X93100000Y-76997038D01*
X91555978Y-76364022D02*
X91370000Y-76550000D01*
G04 #@! TO.N,I2C_SCL*
X109829702Y-90441012D02*
X109009186Y-90441012D01*
X109914290Y-90525600D02*
X109829702Y-90441012D01*
X124612400Y-77368400D02*
X124612400Y-77792664D01*
X124815600Y-83007200D02*
X120091200Y-87731600D01*
X109009186Y-90441012D02*
X109008721Y-90441477D01*
X120091200Y-89098420D02*
X118664020Y-90525600D01*
X124815600Y-77995864D02*
X124815600Y-83007200D01*
X120091200Y-87731600D02*
X120091200Y-89098420D01*
X109008721Y-90441477D02*
X108708722Y-90741476D01*
X118664020Y-90525600D02*
X109914290Y-90525600D01*
X124612400Y-77792664D02*
X124815600Y-77995864D01*
X107780980Y-90741476D02*
X107355905Y-90316401D01*
X96722785Y-88111770D02*
X96422786Y-88411769D01*
X105254067Y-90316401D02*
X102872466Y-87934800D01*
X108708722Y-90741476D02*
X107780980Y-90741476D01*
X107355905Y-90316401D02*
X105254067Y-90316401D01*
X102872466Y-87934800D02*
X96899755Y-87934800D01*
X96899755Y-87934800D02*
X96722785Y-88111770D01*
X88663450Y-88051464D02*
X88663450Y-87483751D01*
X88122001Y-84475481D02*
X87968525Y-84322005D01*
X88122001Y-86942302D02*
X88122001Y-84475481D01*
X88663450Y-87483751D02*
X88122001Y-86942302D01*
G04 #@! TO.N,I2C_SDA*
X110050664Y-90943022D02*
X109626400Y-90943022D01*
X120396000Y-89255600D02*
X118821200Y-90830400D01*
X120396000Y-87833200D02*
X120396000Y-89255600D01*
X125115599Y-83113601D02*
X120396000Y-87833200D01*
X118821200Y-90830400D02*
X110163286Y-90830400D01*
X124815600Y-74726800D02*
X125115599Y-75026799D01*
X125115599Y-75026799D02*
X125115599Y-83113601D01*
X110163286Y-90830400D02*
X110050664Y-90943022D01*
X96995997Y-88881781D02*
X97665967Y-88211811D01*
X107241159Y-90593412D02*
X107891230Y-91243483D01*
X105139326Y-90593412D02*
X107241159Y-90593412D01*
X102757725Y-88211811D02*
X105139326Y-90593412D01*
X109325939Y-91243483D02*
X109326401Y-91243021D01*
X97665967Y-88211811D02*
X102757725Y-88211811D01*
X109326401Y-91243021D02*
X109626400Y-90943022D01*
X107891230Y-91243483D02*
X109325939Y-91243483D01*
X88560000Y-86988549D02*
X88560000Y-84400000D01*
X89172989Y-87601538D02*
X88560000Y-86988549D01*
X89280002Y-88679941D02*
X89172989Y-88572928D01*
X89172989Y-88572928D02*
X89172989Y-87601538D01*
X87290000Y-81960000D02*
X87290000Y-82590018D01*
X88689696Y-83989714D02*
X88689696Y-84413978D01*
X87290000Y-82590018D02*
X88689696Y-83989714D01*
G04 #@! TO.N,SD_DATA2*
X98620000Y-81517038D02*
X98620000Y-82930000D01*
X97188547Y-80588538D02*
X97691500Y-80588538D01*
X97691500Y-80588538D02*
X98620000Y-81517038D01*
X93385966Y-85510541D02*
X93389459Y-85510541D01*
X98254165Y-98233843D02*
X93385966Y-93365644D01*
X98254165Y-98646551D02*
X98254165Y-98233843D01*
X99613999Y-97023199D02*
X99697866Y-97023199D01*
X99314000Y-96723200D02*
X99613999Y-97023199D01*
X100052218Y-98908698D02*
X98516312Y-98908698D01*
X100262188Y-98698728D02*
X100052218Y-98908698D01*
X93389459Y-85510541D02*
X94320000Y-84580000D01*
X100262188Y-97587521D02*
X100262188Y-98698728D01*
X93385966Y-93365644D02*
X93385966Y-85510541D01*
X99697866Y-97023199D02*
X100262188Y-97587521D01*
X98516312Y-98908698D02*
X98254165Y-98646551D01*
X94320000Y-84580000D02*
X96440000Y-84580000D01*
X96440000Y-84580000D02*
X97060000Y-83960000D01*
X97060000Y-83960000D02*
X98130000Y-83960000D01*
X98130000Y-83960000D02*
X98610000Y-83480000D01*
X98610000Y-83480000D02*
X98610000Y-82770000D01*
G04 #@! TO.N,SD_DATA3*
X98157775Y-81787775D02*
X98157775Y-83396406D01*
X98157775Y-83396406D02*
X97884181Y-83670000D01*
X96958249Y-83670001D02*
X96328250Y-84300000D01*
X94200000Y-84300000D02*
X93130000Y-85370000D01*
X98099999Y-81729999D02*
X97800000Y-81430000D01*
X98157775Y-81787775D02*
X98099999Y-81729999D01*
X96328250Y-84300000D02*
X94200000Y-84300000D01*
X97884181Y-83670000D02*
X96958249Y-83670001D01*
X93108955Y-93480385D02*
X93108955Y-85395801D01*
X97977156Y-98825794D02*
X97977155Y-98348585D01*
X97977155Y-98348585D02*
X93108955Y-93480385D01*
X100539199Y-97458263D02*
X100539199Y-98901601D01*
X100539199Y-98901601D02*
X100251411Y-99189389D01*
X100482400Y-97401464D02*
X100539199Y-97458263D01*
X98340751Y-99189389D02*
X97977156Y-98825794D01*
X100251411Y-99189389D02*
X98340751Y-99189389D01*
X100482400Y-96977200D02*
X100482400Y-97401464D01*
G04 #@! TO.N,SD_CMD*
X97653364Y-83157855D02*
X97072145Y-83157855D01*
X97072145Y-83157855D02*
X96210000Y-84020000D01*
X96210000Y-84020000D02*
X94088249Y-84020001D01*
X94088249Y-84020001D02*
X92830000Y-85278250D01*
X92830000Y-85278250D02*
X92830000Y-85310000D01*
X98226010Y-99466400D02*
X97700145Y-98940535D01*
X101041200Y-98823864D02*
X100398664Y-99466400D01*
X97700145Y-98463327D02*
X92831938Y-93595120D01*
X100398664Y-99466400D02*
X98226010Y-99466400D01*
X97700145Y-98940535D02*
X97700145Y-98463327D01*
X101041200Y-98196400D02*
X101041200Y-98823864D01*
X92831938Y-93595120D02*
X92831935Y-85281069D01*
G04 #@! TO.N,SD_DATA1*
X97120032Y-84679968D02*
X97120032Y-84650032D01*
X98756166Y-98343759D02*
X98756166Y-98405590D01*
X93662967Y-85909583D02*
X93662968Y-85633531D01*
X96930000Y-84870000D02*
X97120032Y-84679968D01*
X94426499Y-84870000D02*
X96930000Y-84870000D01*
X93662968Y-85633531D02*
X94426499Y-84870000D01*
X93662967Y-85909583D02*
X93662967Y-93250560D01*
X93662967Y-93250560D02*
X98756166Y-98343759D01*
G04 #@! TO.N,PARTY_ENABLE*
X88442800Y-101650800D02*
X88442800Y-104546400D01*
X88442800Y-104546400D02*
X87680800Y-105308400D01*
G04 #@! TO.N,ESP32_DAC*
X99766399Y-78978589D02*
X99766399Y-81173629D01*
X99466400Y-78678590D02*
X99766399Y-78978589D01*
X102210195Y-83617425D02*
X104477111Y-83617425D01*
X99766399Y-81173629D02*
X102210195Y-83617425D01*
X104477111Y-83617425D02*
X104901375Y-83617425D01*
G04 #@! TO.N,Net-(D2-Pad1)*
X86156800Y-109202136D02*
X86156800Y-109626400D01*
X86397989Y-108960947D02*
X86156800Y-109202136D01*
X85699600Y-71729600D02*
X86397989Y-72427989D01*
X86397989Y-72427989D02*
X86397989Y-108960947D01*
G04 #@! TO.N,ADC_MISO*
X105676000Y-85998410D02*
X106900464Y-85998410D01*
X105589223Y-85978604D02*
X105631495Y-85993396D01*
X105519633Y-85923108D02*
X105551302Y-85954777D01*
X105495806Y-85885187D02*
X105519633Y-85923108D01*
X105481014Y-85842915D02*
X105495806Y-85885187D01*
X105476000Y-85798410D02*
X105481014Y-85842915D01*
X105476000Y-85698410D02*
X105476000Y-85798410D01*
X105456193Y-85611634D02*
X105470985Y-85653906D01*
X105400697Y-85542044D02*
X105432366Y-85573713D01*
X105362776Y-85518217D02*
X105400697Y-85542044D01*
X105320504Y-85503425D02*
X105362776Y-85518217D01*
X105276000Y-85498410D02*
X105320504Y-85503425D01*
X105151302Y-85542044D02*
X105189223Y-85518217D01*
X105119633Y-85573713D02*
X105151302Y-85542044D01*
X105081014Y-85653906D02*
X105095806Y-85611634D01*
X105076000Y-85698410D02*
X105081014Y-85653906D01*
X105076000Y-85798410D02*
X105076000Y-85698410D01*
X105070985Y-85842915D02*
X105076000Y-85798410D01*
X105056193Y-85885187D02*
X105070985Y-85842915D01*
X104962776Y-85978604D02*
X105000697Y-85954777D01*
X104920504Y-85993396D02*
X104962776Y-85978604D01*
X104876000Y-85998410D02*
X104920504Y-85993396D01*
X104831495Y-85993396D02*
X104876000Y-85998410D01*
X104789223Y-85978604D02*
X104831495Y-85993396D01*
X104719633Y-85923108D02*
X104751302Y-85954777D01*
X104681014Y-85842915D02*
X104695806Y-85885187D01*
X104676000Y-85798410D02*
X104681014Y-85842915D01*
X104670985Y-85653906D02*
X104676000Y-85698410D01*
X104656193Y-85611634D02*
X104670985Y-85653906D01*
X104632366Y-85573713D02*
X104656193Y-85611634D01*
X104562776Y-85518217D02*
X104600697Y-85542044D01*
X104520504Y-85503425D02*
X104562776Y-85518217D01*
X104431495Y-85503425D02*
X104476000Y-85498410D01*
X103589223Y-85518217D02*
X103631495Y-85503425D01*
X101919633Y-85573713D02*
X101951302Y-85542044D01*
X103870985Y-85653906D02*
X103876000Y-85698410D01*
X101876000Y-85798410D02*
X101876000Y-85698410D01*
X102920504Y-85503425D02*
X102962776Y-85518217D01*
X101870985Y-85842915D02*
X101876000Y-85798410D01*
X100162776Y-85978604D02*
X100200697Y-85954777D01*
X106900464Y-85998410D02*
X109073590Y-85998410D01*
X104476000Y-85498410D02*
X104520504Y-85503425D01*
X101856193Y-85885187D02*
X101870985Y-85842915D01*
X101800697Y-85954777D02*
X101832366Y-85923108D01*
X104295806Y-85611634D02*
X104319633Y-85573713D01*
X101276000Y-85498410D02*
X101320504Y-85503425D01*
X101676000Y-85998410D02*
X101720504Y-85993396D01*
X100319633Y-85573713D02*
X100351302Y-85542044D01*
X100719633Y-85923108D02*
X100751302Y-85954777D01*
X105432366Y-85573713D02*
X105456193Y-85611634D01*
X102200697Y-85542044D02*
X102232366Y-85573713D01*
X101589223Y-85978604D02*
X101631495Y-85993396D01*
X101551302Y-85954777D02*
X101589223Y-85978604D01*
X100656193Y-85611634D02*
X100670985Y-85653906D01*
X101519633Y-85923108D02*
X101551302Y-85954777D01*
X104676000Y-85698410D02*
X104676000Y-85798410D01*
X101481014Y-85842915D02*
X101495806Y-85885187D01*
X104751302Y-85954777D02*
X104789223Y-85978604D01*
X101951302Y-85542044D02*
X101989223Y-85518217D01*
X101876000Y-85698410D02*
X101881014Y-85653906D01*
X101476000Y-85798410D02*
X101481014Y-85842915D01*
X101095806Y-85611634D02*
X101119633Y-85573713D01*
X101470985Y-85653906D02*
X101476000Y-85698410D01*
X103631495Y-85503425D02*
X103676000Y-85498410D01*
X101456193Y-85611634D02*
X101470985Y-85653906D01*
X102076000Y-85498410D02*
X102120504Y-85503425D01*
X104200697Y-85954777D02*
X104232366Y-85923108D01*
X101432366Y-85573713D02*
X101456193Y-85611634D01*
X104031495Y-85993396D02*
X104076000Y-85998410D01*
X101400697Y-85542044D02*
X101432366Y-85573713D01*
X101231495Y-85503425D02*
X101276000Y-85498410D01*
X102295806Y-85885187D02*
X102319633Y-85923108D01*
X101495806Y-85885187D02*
X101519633Y-85923108D01*
X101076000Y-85698410D02*
X101081014Y-85653906D01*
X105095806Y-85611634D02*
X105119633Y-85573713D01*
X101070985Y-85842915D02*
X101076000Y-85798410D01*
X103470985Y-85842915D02*
X103476000Y-85798410D01*
X100476000Y-85498410D02*
X100520504Y-85503425D01*
X101762776Y-85978604D02*
X101800697Y-85954777D01*
X103919633Y-85923108D02*
X103951302Y-85954777D01*
X101832366Y-85923108D02*
X101856193Y-85885187D01*
X100270985Y-85842915D02*
X100276000Y-85798410D01*
X105470985Y-85653906D02*
X105476000Y-85698410D01*
X100389223Y-85518217D02*
X100431495Y-85503425D01*
X102270985Y-85653906D02*
X102276000Y-85698410D01*
X103231495Y-85993396D02*
X103276000Y-85998410D01*
X100876000Y-85998410D02*
X100920504Y-85993396D01*
X103551302Y-85542044D02*
X103589223Y-85518217D01*
X95893487Y-86069575D02*
X95964652Y-85998410D01*
X100200697Y-85954777D02*
X100232366Y-85923108D01*
X101881014Y-85653906D02*
X101895806Y-85611634D01*
X103032366Y-85573713D02*
X103056193Y-85611634D01*
X100632366Y-85573713D02*
X100656193Y-85611634D01*
X100920504Y-85993396D02*
X100962776Y-85978604D01*
X100676000Y-85798410D02*
X100681014Y-85842915D01*
X102351302Y-85954777D02*
X102389223Y-85978604D01*
X101189223Y-85518217D02*
X101231495Y-85503425D01*
X104319633Y-85573713D02*
X104351302Y-85542044D01*
X100351302Y-85542044D02*
X100389223Y-85518217D01*
X105189223Y-85518217D02*
X105231495Y-85503425D01*
X100076000Y-85998410D02*
X100120504Y-85993396D01*
X101151302Y-85542044D02*
X101189223Y-85518217D01*
X101032366Y-85923108D02*
X101056193Y-85885187D01*
X103070985Y-85653906D02*
X103076000Y-85698410D01*
X103856193Y-85611634D02*
X103870985Y-85653906D01*
X101081014Y-85653906D02*
X101095806Y-85611634D01*
X100120504Y-85993396D02*
X100162776Y-85978604D01*
X103476000Y-85698410D02*
X103481014Y-85653906D01*
X104600697Y-85542044D02*
X104632366Y-85573713D01*
X95964652Y-85998410D02*
X100076000Y-85998410D01*
X102276000Y-85698410D02*
X102276000Y-85798410D01*
X104120504Y-85993396D02*
X104162776Y-85978604D01*
X100431495Y-85503425D02*
X100476000Y-85498410D01*
X102789223Y-85518217D02*
X102831495Y-85503425D01*
X105231495Y-85503425D02*
X105276000Y-85498410D01*
X103119633Y-85923108D02*
X103151302Y-85954777D01*
X100670985Y-85653906D02*
X100676000Y-85698410D01*
X101320504Y-85503425D02*
X101362776Y-85518217D01*
X105551302Y-85954777D02*
X105589223Y-85978604D01*
X100232366Y-85923108D02*
X100256193Y-85885187D01*
X102600697Y-85954777D02*
X102632366Y-85923108D01*
X101076000Y-85798410D02*
X101076000Y-85698410D01*
X100520504Y-85503425D02*
X100562776Y-85518217D01*
X104351302Y-85542044D02*
X104389223Y-85518217D01*
X100562776Y-85518217D02*
X100600697Y-85542044D01*
X103189223Y-85978604D02*
X103231495Y-85993396D01*
X100600697Y-85542044D02*
X100632366Y-85573713D01*
X105000697Y-85954777D02*
X105032366Y-85923108D01*
X100676000Y-85698410D02*
X100676000Y-85798410D01*
X102695806Y-85611634D02*
X102719633Y-85573713D01*
X101476000Y-85698410D02*
X101476000Y-85798410D01*
X101362776Y-85518217D02*
X101400697Y-85542044D01*
X102876000Y-85498410D02*
X102920504Y-85503425D01*
X105032366Y-85923108D02*
X105056193Y-85885187D01*
X100695806Y-85885187D02*
X100719633Y-85923108D01*
X101720504Y-85993396D02*
X101762776Y-85978604D01*
X100295806Y-85611634D02*
X100319633Y-85573713D01*
X100789223Y-85978604D02*
X100831495Y-85993396D01*
X100831495Y-85993396D02*
X100876000Y-85998410D01*
X100962776Y-85978604D02*
X101000697Y-85954777D01*
X100276000Y-85798410D02*
X100276000Y-85698410D01*
X103762776Y-85518217D02*
X103800697Y-85542044D01*
X100751302Y-85954777D02*
X100789223Y-85978604D01*
X100276000Y-85698410D02*
X100281014Y-85653906D01*
X101000697Y-85954777D02*
X101032366Y-85923108D01*
X102120504Y-85503425D02*
X102162776Y-85518217D01*
X103056193Y-85611634D02*
X103070985Y-85653906D01*
X101631495Y-85993396D02*
X101676000Y-85998410D01*
X102162776Y-85518217D02*
X102200697Y-85542044D01*
X100281014Y-85653906D02*
X100295806Y-85611634D01*
X102232366Y-85573713D02*
X102256193Y-85611634D01*
X102256193Y-85611634D02*
X102270985Y-85653906D01*
X102281014Y-85842915D02*
X102295806Y-85885187D01*
X100256193Y-85885187D02*
X100270985Y-85842915D01*
X102476000Y-85998410D02*
X102520504Y-85993396D01*
X102389223Y-85978604D02*
X102431495Y-85993396D01*
X102431495Y-85993396D02*
X102476000Y-85998410D01*
X102520504Y-85993396D02*
X102562776Y-85978604D01*
X101119633Y-85573713D02*
X101151302Y-85542044D01*
X102681014Y-85653906D02*
X102695806Y-85611634D01*
X102632366Y-85923108D02*
X102656193Y-85885187D01*
X102670985Y-85842915D02*
X102676000Y-85798410D01*
X103320504Y-85993396D02*
X103362776Y-85978604D01*
X103876000Y-85698410D02*
X103876000Y-85798410D01*
X103081014Y-85842915D02*
X103095806Y-85885187D01*
X102676000Y-85798410D02*
X102676000Y-85698410D01*
X104695806Y-85885187D02*
X104719633Y-85923108D01*
X102276000Y-85798410D02*
X102281014Y-85842915D01*
X103362776Y-85978604D02*
X103400697Y-85954777D01*
X102719633Y-85573713D02*
X102751302Y-85542044D01*
X103276000Y-85998410D02*
X103320504Y-85993396D01*
X103481014Y-85653906D02*
X103495806Y-85611634D01*
X102751302Y-85542044D02*
X102789223Y-85518217D01*
X102831495Y-85503425D02*
X102876000Y-85498410D01*
X103151302Y-85954777D02*
X103189223Y-85978604D01*
X102962776Y-85518217D02*
X103000697Y-85542044D01*
X103076000Y-85698410D02*
X103076000Y-85798410D01*
X102676000Y-85698410D02*
X102681014Y-85653906D01*
X103000697Y-85542044D02*
X103032366Y-85573713D01*
X101989223Y-85518217D02*
X102031495Y-85503425D01*
X103076000Y-85798410D02*
X103081014Y-85842915D01*
X104232366Y-85923108D02*
X104256193Y-85885187D01*
X103432366Y-85923108D02*
X103456193Y-85885187D01*
X104276000Y-85698410D02*
X104281014Y-85653906D01*
X103456193Y-85885187D02*
X103470985Y-85842915D01*
X102656193Y-85885187D02*
X102670985Y-85842915D01*
X103495806Y-85611634D02*
X103519633Y-85573713D01*
X103519633Y-85573713D02*
X103551302Y-85542044D01*
X102031495Y-85503425D02*
X102076000Y-85498410D01*
X103676000Y-85498410D02*
X103720504Y-85503425D01*
X103720504Y-85503425D02*
X103762776Y-85518217D01*
X103800697Y-85542044D02*
X103832366Y-85573713D01*
X101895806Y-85611634D02*
X101919633Y-85573713D01*
X103832366Y-85573713D02*
X103856193Y-85611634D01*
X103876000Y-85798410D02*
X103881014Y-85842915D01*
X103400697Y-85954777D02*
X103432366Y-85923108D01*
X103881014Y-85842915D02*
X103895806Y-85885187D01*
X103895806Y-85885187D02*
X103919633Y-85923108D01*
X103951302Y-85954777D02*
X103989223Y-85978604D01*
X103989223Y-85978604D02*
X104031495Y-85993396D01*
X103095806Y-85885187D02*
X103119633Y-85923108D01*
X104076000Y-85998410D02*
X104120504Y-85993396D01*
X104162776Y-85978604D02*
X104200697Y-85954777D01*
X102562776Y-85978604D02*
X102600697Y-85954777D01*
X104256193Y-85885187D02*
X104270985Y-85842915D01*
X100681014Y-85842915D02*
X100695806Y-85885187D01*
X104270985Y-85842915D02*
X104276000Y-85798410D01*
X104276000Y-85798410D02*
X104276000Y-85698410D01*
X104281014Y-85653906D02*
X104295806Y-85611634D01*
X105631495Y-85993396D02*
X105676000Y-85998410D01*
X101056193Y-85885187D02*
X101070985Y-85842915D01*
X102319633Y-85923108D02*
X102351302Y-85954777D01*
X103476000Y-85798410D02*
X103476000Y-85698410D01*
X104389223Y-85518217D02*
X104431495Y-85503425D01*
X91310001Y-88270001D02*
X90090001Y-88270001D01*
X90090001Y-88270001D02*
X89770000Y-87950000D01*
X90395405Y-84126400D02*
X89569005Y-83300000D01*
X89770000Y-87950000D02*
X89770000Y-86832964D01*
X89569005Y-83300000D02*
X89334264Y-83300000D01*
X90134365Y-86468599D02*
X90134365Y-84869364D01*
X90134365Y-84869364D02*
X90395405Y-84608324D01*
X89770000Y-86832964D02*
X90134365Y-86468599D01*
X89334264Y-83300000D02*
X88910000Y-83300000D01*
X90395405Y-84608324D02*
X90395405Y-84126400D01*
X91630000Y-88590000D02*
X91310001Y-88270001D01*
G04 #@! TO.N,ADC_CS*
X108345263Y-87404335D02*
X107920999Y-87404335D01*
X95302826Y-87060590D02*
X95002827Y-86760591D01*
X107920999Y-87404335D02*
X107841864Y-87325200D01*
X107841864Y-87325200D02*
X95567436Y-87325200D01*
X95567436Y-87325200D02*
X95302826Y-87060590D01*
G04 #@! TO.N,ADC_CH_SEL*
X109575600Y-85735752D02*
X109183848Y-85344000D01*
X109524800Y-89611200D02*
X109575600Y-89560400D01*
X109575600Y-89560400D02*
X109575600Y-85735752D01*
X109169200Y-85344000D02*
X107212061Y-85344000D01*
X106792622Y-84924561D02*
X106792622Y-84391839D01*
X106531582Y-84130799D02*
X106228799Y-84130799D01*
X102240193Y-79748051D02*
X101930613Y-79748051D01*
X106228799Y-84130799D02*
X103229809Y-81131809D01*
X103229809Y-81131809D02*
X103229809Y-80737667D01*
X103229809Y-80737667D02*
X102240193Y-79748051D01*
X101930613Y-79748051D02*
X101506349Y-79748051D01*
X107212061Y-85344000D02*
X106792622Y-84924561D01*
X106792622Y-84391839D02*
X106531582Y-84130799D01*
G04 #@! TO.N,Net-(D1-Pad1)*
X86817200Y-74091428D02*
X86817200Y-72255464D01*
X86817200Y-72255464D02*
X86817200Y-71831200D01*
X87570384Y-74844612D02*
X86817200Y-74091428D01*
X89057658Y-74844612D02*
X87570384Y-74844612D01*
X89518899Y-74712011D02*
X89436298Y-74794612D01*
X105308400Y-75031600D02*
X96076650Y-75031600D01*
X89436298Y-74794612D02*
X89107658Y-74794612D01*
X115570000Y-73355200D02*
X106984800Y-73355200D01*
X117449600Y-71475600D02*
X115570000Y-73355200D01*
X95757061Y-74712011D02*
X89518899Y-74712011D01*
X106984800Y-73355200D02*
X105308400Y-75031600D01*
X89107658Y-74794612D02*
X89057658Y-74844612D01*
X96076650Y-75031600D02*
X95757061Y-74712011D01*
G04 #@! TO.N,ESP_ADC*
X103004536Y-82499200D02*
X103428800Y-82499200D01*
X101483722Y-82499200D02*
X103004536Y-82499200D01*
X100076000Y-81091478D02*
X101483722Y-82499200D01*
X93190000Y-77810000D02*
X93490000Y-77810000D01*
X99105166Y-77574394D02*
X100076000Y-78545228D01*
X92240000Y-76860000D02*
X93190000Y-77810000D01*
X96847874Y-77574394D02*
X99105166Y-77574394D01*
X100076000Y-78545228D02*
X100076000Y-81091478D01*
X93500000Y-77800000D02*
X96622268Y-77800000D01*
X93490000Y-77810000D02*
X93500000Y-77800000D01*
X96622268Y-77800000D02*
X96847874Y-77574394D01*
D15*
G04 #@! TO.N,+3V3*
X115468400Y-98145600D02*
X116484400Y-99161600D01*
X116484400Y-99161600D02*
X117754400Y-99161600D01*
X117754400Y-100431600D02*
X118165601Y-100842801D01*
X118165601Y-100842801D02*
X118465600Y-101142800D01*
X117754400Y-99161600D02*
X117754400Y-100431600D01*
D14*
G04 #@! TO.N,Net-(C28-Pad1)*
X80394800Y-90250000D02*
X80675201Y-90530401D01*
X79350000Y-90250000D02*
X80394800Y-90250000D01*
X80675201Y-90530401D02*
X80975200Y-90830400D01*
G04 #@! TO.N,Net-(J3-Pad1)*
X123578536Y-94843600D02*
X123426136Y-94996000D01*
X124002800Y-94843600D02*
X123578536Y-94843600D01*
X123426136Y-94996000D02*
X119329200Y-94996000D01*
X119329200Y-94996000D02*
X116840000Y-97485200D01*
X105485716Y-92074516D02*
X102865199Y-89453999D01*
X102865199Y-89453999D02*
X102565200Y-89154000D01*
X116302704Y-97485200D02*
X110892020Y-92074516D01*
X110892020Y-92074516D02*
X105485716Y-92074516D01*
X116840000Y-97485200D02*
X116302704Y-97485200D01*
G04 #@! TO.N,Net-(J3-Pad2)*
X110777279Y-92351527D02*
X104949927Y-92351527D01*
X104949927Y-92351527D02*
X104643199Y-92044799D01*
X118402936Y-98044000D02*
X116469752Y-98044000D01*
X104643199Y-92044799D02*
X104343200Y-91744800D01*
X116469752Y-98044000D02*
X110777279Y-92351527D01*
X118973600Y-97897600D02*
X118549336Y-97897600D01*
X118549336Y-97897600D02*
X118402936Y-98044000D01*
G04 #@! TO.N,Net-(J3-Pad3)*
X116433600Y-98399600D02*
X112770001Y-94736001D01*
X112770001Y-94736001D02*
X103440676Y-94736001D01*
X103440676Y-94736001D02*
X103243464Y-94538789D01*
X123702801Y-97642401D02*
X120187999Y-97642401D01*
X103243464Y-94538789D02*
X102819200Y-94538789D01*
X119430800Y-98399600D02*
X116433600Y-98399600D01*
X124002800Y-97942400D02*
X123702801Y-97642401D01*
X120187999Y-97642401D02*
X119430800Y-98399600D01*
G04 #@! TO.N,Net-(C15-Pad1)*
X107537610Y-92853528D02*
X108758960Y-92853528D01*
X108758960Y-92853528D02*
X108818632Y-92913200D01*
D16*
G04 #@! TO.N,Net-(BT1-Pad1)*
X79705200Y-80467200D02*
X79705200Y-81737200D01*
X79705200Y-81737200D02*
X79756000Y-81788000D01*
X80055999Y-82087999D02*
X79756000Y-81788000D01*
X81127600Y-83159600D02*
X80055999Y-82087999D01*
X81127600Y-86309200D02*
X81127600Y-83159600D01*
X82804000Y-102565200D02*
X82042000Y-101803200D01*
X82042000Y-101803200D02*
X82042000Y-92419238D01*
X82042000Y-92419238D02*
X82427001Y-92034237D01*
X82427001Y-92034237D02*
X82427001Y-87608601D01*
X82427001Y-87608601D02*
X81127600Y-86309200D01*
D14*
G04 #@! TO.N,Net-(D3-Pad1)*
X89255600Y-108051600D02*
X93167200Y-108051600D01*
X93167200Y-108051600D02*
X93929200Y-108813600D01*
X94417601Y-109302001D02*
X117226801Y-109302001D01*
X93929200Y-108813600D02*
X94417601Y-109302001D01*
X117226801Y-109302001D02*
X117703600Y-109778800D01*
G04 #@! TO.N,Net-(J1-Pad5)*
X98755200Y-79857596D02*
X99347999Y-80450395D01*
X93939977Y-85748272D02*
X94535259Y-85152990D01*
X99760178Y-98398116D02*
X99517310Y-98398116D01*
X99517310Y-98398116D02*
X93939978Y-92820784D01*
X97328762Y-85152990D02*
X99340000Y-83141752D01*
X99340000Y-83141752D02*
X99340000Y-80450000D01*
X93939978Y-92820784D02*
X93939977Y-85748272D01*
X94535259Y-85152990D02*
X97328762Y-85152990D01*
G04 #@! TO.N,Net-(J1-Pad7)*
X99205708Y-97682859D02*
X94216989Y-92694140D01*
X99629972Y-97682859D02*
X99205708Y-97682859D01*
X94216989Y-92694140D02*
X94216989Y-86139065D01*
X94650000Y-85430001D02*
X94220000Y-85860001D01*
X97443503Y-85430001D02*
X94650000Y-85430001D01*
X94220000Y-85860001D02*
X94220000Y-86150000D01*
X99850000Y-82310000D02*
X99850000Y-83023504D01*
X99850000Y-83023504D02*
X97443503Y-85430001D01*
D15*
G04 #@! TO.N,Net-(C31-Pad1)*
X88335332Y-109982000D02*
X87455122Y-109101790D01*
X87455122Y-109101790D02*
X87155123Y-108801791D01*
X113944400Y-109982000D02*
X88335332Y-109982000D01*
X86855124Y-108501792D02*
X87155123Y-108801791D01*
X86700000Y-108346668D02*
X86855124Y-108501792D01*
X87014410Y-75031600D02*
X86700000Y-75346010D01*
X86700000Y-75346010D02*
X86700000Y-108346668D01*
X115163600Y-72847200D02*
X106973842Y-72847200D01*
X106973842Y-72847200D02*
X105094032Y-74727010D01*
X88982560Y-74492602D02*
X88932561Y-74542601D01*
X105094032Y-74727010D02*
X96199168Y-74727010D01*
X95882158Y-74410000D02*
X89393802Y-74410000D01*
X96199168Y-74727010D02*
X95882158Y-74410000D01*
X89393802Y-74410000D02*
X89311201Y-74492601D01*
X89311201Y-74492601D02*
X88982560Y-74492602D01*
X88932561Y-74542601D02*
X87978323Y-74542601D01*
X87978323Y-74542601D02*
X87942260Y-74506538D01*
X87942260Y-74506538D02*
X87642261Y-74206539D01*
G04 #@! TD*
M02*
