G04 #@! TF.GenerationSoftware,KiCad,Pcbnew,5.0.2-bee76a0~70~ubuntu18.04.1*
G04 #@! TF.CreationDate,2019-04-08T17:38:34+02:00*
G04 #@! TF.ProjectId,anotterwatch,616e6f74-7465-4727-9761-7463682e6b69,rev?*
G04 #@! TF.SameCoordinates,Original*
G04 #@! TF.FileFunction,Soldermask,Top*
G04 #@! TF.FilePolarity,Negative*
%FSLAX46Y46*%
G04 Gerber Fmt 4.6, Leading zero omitted, Abs format (unit mm)*
G04 Created by KiCad (PCBNEW 5.0.2-bee76a0~70~ubuntu18.04.1) date Mo 08 Apr 2019 17:38:34 CEST*
%MOMM*%
%LPD*%
G01*
G04 APERTURE LIST*
%ADD10C,0.100000*%
G04 APERTURE END LIST*
D10*
G36*
X81835734Y-106893232D02*
X82045202Y-106979996D01*
X82233723Y-107105962D01*
X82394038Y-107266277D01*
X82520004Y-107454798D01*
X82606768Y-107664266D01*
X82651000Y-107886635D01*
X82651000Y-108113365D01*
X82606768Y-108335734D01*
X82520004Y-108545202D01*
X82394038Y-108733723D01*
X82233723Y-108894038D01*
X82045202Y-109020004D01*
X81835734Y-109106768D01*
X81613365Y-109151000D01*
X81386635Y-109151000D01*
X81164266Y-109106768D01*
X80954798Y-109020004D01*
X80766277Y-108894038D01*
X80605962Y-108733723D01*
X80479996Y-108545202D01*
X80393232Y-108335734D01*
X80349000Y-108113365D01*
X80349000Y-107886635D01*
X80393232Y-107664266D01*
X80479996Y-107454798D01*
X80605962Y-107266277D01*
X80766277Y-107105962D01*
X80954798Y-106979996D01*
X81164266Y-106893232D01*
X81386635Y-106849000D01*
X81613365Y-106849000D01*
X81835734Y-106893232D01*
X81835734Y-106893232D01*
G37*
G36*
X123335734Y-106893232D02*
X123545202Y-106979996D01*
X123733723Y-107105962D01*
X123894038Y-107266277D01*
X124020004Y-107454798D01*
X124106768Y-107664266D01*
X124151000Y-107886635D01*
X124151000Y-108113365D01*
X124106768Y-108335734D01*
X124020004Y-108545202D01*
X123894038Y-108733723D01*
X123733723Y-108894038D01*
X123545202Y-109020004D01*
X123335734Y-109106768D01*
X123113365Y-109151000D01*
X122886635Y-109151000D01*
X122664266Y-109106768D01*
X122454798Y-109020004D01*
X122266277Y-108894038D01*
X122105962Y-108733723D01*
X121979996Y-108545202D01*
X121893232Y-108335734D01*
X121849000Y-108113365D01*
X121849000Y-107886635D01*
X121893232Y-107664266D01*
X121979996Y-107454798D01*
X122105962Y-107266277D01*
X122266277Y-107105962D01*
X122454798Y-106979996D01*
X122664266Y-106893232D01*
X122886635Y-106849000D01*
X123113365Y-106849000D01*
X123335734Y-106893232D01*
X123335734Y-106893232D01*
G37*
G36*
X109998136Y-106415253D02*
X110089312Y-106453019D01*
X110171372Y-106507850D01*
X110241150Y-106577628D01*
X110295981Y-106659688D01*
X110333747Y-106750864D01*
X110353000Y-106847656D01*
X110353000Y-106946344D01*
X110333747Y-107043136D01*
X110295981Y-107134312D01*
X110241150Y-107216372D01*
X110171372Y-107286150D01*
X110089312Y-107340981D01*
X109998136Y-107378747D01*
X109901344Y-107398000D01*
X109802656Y-107398000D01*
X109705864Y-107378747D01*
X109614688Y-107340981D01*
X109532628Y-107286150D01*
X109462850Y-107216372D01*
X109408019Y-107134312D01*
X109370253Y-107043136D01*
X109351000Y-106946344D01*
X109351000Y-106847656D01*
X109370253Y-106750864D01*
X109408019Y-106659688D01*
X109462850Y-106577628D01*
X109532628Y-106507850D01*
X109614688Y-106453019D01*
X109705864Y-106415253D01*
X109802656Y-106396000D01*
X109901344Y-106396000D01*
X109998136Y-106415253D01*
X109998136Y-106415253D01*
G37*
G36*
X101998136Y-106415253D02*
X102089312Y-106453019D01*
X102171372Y-106507850D01*
X102241150Y-106577628D01*
X102295981Y-106659688D01*
X102333747Y-106750864D01*
X102353000Y-106847656D01*
X102353000Y-106946344D01*
X102333747Y-107043136D01*
X102295981Y-107134312D01*
X102241150Y-107216372D01*
X102171372Y-107286150D01*
X102089312Y-107340981D01*
X101998136Y-107378747D01*
X101901344Y-107398000D01*
X101802656Y-107398000D01*
X101705864Y-107378747D01*
X101614688Y-107340981D01*
X101532628Y-107286150D01*
X101462850Y-107216372D01*
X101408019Y-107134312D01*
X101370253Y-107043136D01*
X101351000Y-106946344D01*
X101351000Y-106847656D01*
X101370253Y-106750864D01*
X101408019Y-106659688D01*
X101462850Y-106577628D01*
X101532628Y-106507850D01*
X101614688Y-106453019D01*
X101705864Y-106415253D01*
X101802656Y-106396000D01*
X101901344Y-106396000D01*
X101998136Y-106415253D01*
X101998136Y-106415253D01*
G37*
G36*
X79826136Y-100238253D02*
X79917312Y-100276019D01*
X79999372Y-100330850D01*
X80069150Y-100400628D01*
X80123981Y-100482688D01*
X80161747Y-100573864D01*
X80181000Y-100670656D01*
X80181000Y-100769344D01*
X80161747Y-100866136D01*
X80123981Y-100957312D01*
X80069150Y-101039372D01*
X79999372Y-101109150D01*
X79917312Y-101163981D01*
X79826136Y-101201747D01*
X79729344Y-101221000D01*
X79630656Y-101221000D01*
X79533864Y-101201747D01*
X79442688Y-101163981D01*
X79360628Y-101109150D01*
X79290850Y-101039372D01*
X79236019Y-100957312D01*
X79198253Y-100866136D01*
X79179000Y-100769344D01*
X79179000Y-100670656D01*
X79198253Y-100573864D01*
X79236019Y-100482688D01*
X79290850Y-100400628D01*
X79360628Y-100330850D01*
X79442688Y-100276019D01*
X79533864Y-100238253D01*
X79630656Y-100219000D01*
X79729344Y-100219000D01*
X79826136Y-100238253D01*
X79826136Y-100238253D01*
G37*
G36*
X79826136Y-97238253D02*
X79917312Y-97276019D01*
X79999372Y-97330850D01*
X80069150Y-97400628D01*
X80123981Y-97482688D01*
X80161747Y-97573864D01*
X80181000Y-97670656D01*
X80181000Y-97769344D01*
X80161747Y-97866136D01*
X80123981Y-97957312D01*
X80069150Y-98039372D01*
X79999372Y-98109150D01*
X79917312Y-98163981D01*
X79826136Y-98201747D01*
X79729344Y-98221000D01*
X79630656Y-98221000D01*
X79533864Y-98201747D01*
X79442688Y-98163981D01*
X79360628Y-98109150D01*
X79290850Y-98039372D01*
X79236019Y-97957312D01*
X79198253Y-97866136D01*
X79179000Y-97769344D01*
X79179000Y-97670656D01*
X79198253Y-97573864D01*
X79236019Y-97482688D01*
X79290850Y-97400628D01*
X79360628Y-97330850D01*
X79442688Y-97276019D01*
X79533864Y-97238253D01*
X79630656Y-97219000D01*
X79729344Y-97219000D01*
X79826136Y-97238253D01*
X79826136Y-97238253D01*
G37*
G36*
X121835305Y-88028096D02*
X121944680Y-88073400D01*
X122043118Y-88139175D01*
X122126825Y-88222882D01*
X122192600Y-88321320D01*
X122237904Y-88430695D01*
X122261000Y-88546806D01*
X122261000Y-88665194D01*
X122237904Y-88781305D01*
X122192600Y-88890680D01*
X122126825Y-88989118D01*
X122043118Y-89072825D01*
X121944680Y-89138600D01*
X121835305Y-89183904D01*
X121719194Y-89207000D01*
X121600806Y-89207000D01*
X121484695Y-89183904D01*
X121375320Y-89138600D01*
X121276882Y-89072825D01*
X121193175Y-88989118D01*
X121127400Y-88890680D01*
X121082096Y-88781305D01*
X121059000Y-88665194D01*
X121059000Y-88546806D01*
X121082096Y-88430695D01*
X121127400Y-88321320D01*
X121193175Y-88222882D01*
X121276882Y-88139175D01*
X121375320Y-88073400D01*
X121484695Y-88028096D01*
X121600806Y-88005000D01*
X121719194Y-88005000D01*
X121835305Y-88028096D01*
X121835305Y-88028096D01*
G37*
G36*
X121835305Y-83028096D02*
X121944680Y-83073400D01*
X122043118Y-83139175D01*
X122126825Y-83222882D01*
X122192600Y-83321320D01*
X122237904Y-83430695D01*
X122261000Y-83546806D01*
X122261000Y-83665194D01*
X122237904Y-83781305D01*
X122192600Y-83890680D01*
X122126825Y-83989118D01*
X122043118Y-84072825D01*
X121944680Y-84138600D01*
X121835305Y-84183904D01*
X121719194Y-84207000D01*
X121600806Y-84207000D01*
X121484695Y-84183904D01*
X121375320Y-84138600D01*
X121276882Y-84072825D01*
X121193175Y-83989118D01*
X121127400Y-83890680D01*
X121082096Y-83781305D01*
X121059000Y-83665194D01*
X121059000Y-83546806D01*
X121082096Y-83430695D01*
X121127400Y-83321320D01*
X121193175Y-83222882D01*
X121276882Y-83139175D01*
X121375320Y-83073400D01*
X121484695Y-83028096D01*
X121600806Y-83005000D01*
X121719194Y-83005000D01*
X121835305Y-83028096D01*
X121835305Y-83028096D01*
G37*
G36*
X107268614Y-74128473D02*
X107372478Y-74159979D01*
X107468200Y-74211144D01*
X107552101Y-74279999D01*
X107620956Y-74363900D01*
X107672121Y-74459621D01*
X107703627Y-74563485D01*
X107711600Y-74644433D01*
X107711600Y-75798567D01*
X107703627Y-75879515D01*
X107672121Y-75983379D01*
X107620956Y-76079100D01*
X107552101Y-76163001D01*
X107468200Y-76231856D01*
X107372479Y-76283021D01*
X107268615Y-76314527D01*
X107160600Y-76325166D01*
X107052586Y-76314527D01*
X106948722Y-76283021D01*
X106853001Y-76231856D01*
X106769100Y-76163001D01*
X106700245Y-76079100D01*
X106649080Y-75983379D01*
X106617574Y-75879515D01*
X106609601Y-75798567D01*
X106609600Y-74644434D01*
X106617573Y-74563486D01*
X106649079Y-74459622D01*
X106700244Y-74363900D01*
X106769099Y-74279999D01*
X106853000Y-74211144D01*
X106948721Y-74159979D01*
X107052585Y-74128473D01*
X107160600Y-74117834D01*
X107268614Y-74128473D01*
X107268614Y-74128473D01*
G37*
G36*
X115908614Y-74128473D02*
X116012478Y-74159979D01*
X116108200Y-74211144D01*
X116192101Y-74279999D01*
X116260956Y-74363900D01*
X116312121Y-74459621D01*
X116343627Y-74563485D01*
X116351600Y-74644433D01*
X116351600Y-75798567D01*
X116343627Y-75879515D01*
X116312121Y-75983379D01*
X116260956Y-76079100D01*
X116192101Y-76163001D01*
X116108200Y-76231856D01*
X116012479Y-76283021D01*
X115908615Y-76314527D01*
X115800600Y-76325166D01*
X115692586Y-76314527D01*
X115588722Y-76283021D01*
X115493001Y-76231856D01*
X115409100Y-76163001D01*
X115340245Y-76079100D01*
X115289080Y-75983379D01*
X115257574Y-75879515D01*
X115249601Y-75798567D01*
X115249600Y-74644434D01*
X115257573Y-74563486D01*
X115289079Y-74459622D01*
X115340244Y-74363900D01*
X115409099Y-74279999D01*
X115493000Y-74211144D01*
X115588721Y-74159979D01*
X115692585Y-74128473D01*
X115800600Y-74117834D01*
X115908614Y-74128473D01*
X115908614Y-74128473D01*
G37*
G36*
X114480272Y-74329949D02*
X114480274Y-74329950D01*
X114480275Y-74329950D01*
X114548703Y-74358293D01*
X114610009Y-74399257D01*
X114610289Y-74399444D01*
X114662656Y-74451811D01*
X114662658Y-74451814D01*
X114703807Y-74513397D01*
X114732150Y-74581825D01*
X114732151Y-74581828D01*
X114746600Y-74654466D01*
X114746600Y-74728533D01*
X114732150Y-74801175D01*
X114703807Y-74869603D01*
X114662843Y-74930909D01*
X114662656Y-74931189D01*
X114610289Y-74983556D01*
X114610286Y-74983558D01*
X114548703Y-75024707D01*
X114480275Y-75053050D01*
X114480274Y-75053050D01*
X114480272Y-75053051D01*
X114407634Y-75067500D01*
X114333566Y-75067500D01*
X114260928Y-75053051D01*
X114260926Y-75053050D01*
X114260925Y-75053050D01*
X114192497Y-75024707D01*
X114130914Y-74983558D01*
X114130911Y-74983556D01*
X114078544Y-74931189D01*
X114078357Y-74930909D01*
X114037393Y-74869603D01*
X114009050Y-74801175D01*
X113994600Y-74728533D01*
X113994600Y-74654466D01*
X114009049Y-74581828D01*
X114009050Y-74581825D01*
X114037393Y-74513397D01*
X114078542Y-74451814D01*
X114078544Y-74451811D01*
X114130911Y-74399444D01*
X114131191Y-74399257D01*
X114192497Y-74358293D01*
X114260925Y-74329950D01*
X114260926Y-74329950D01*
X114260928Y-74329949D01*
X114333566Y-74315500D01*
X114407634Y-74315500D01*
X114480272Y-74329949D01*
X114480272Y-74329949D01*
G37*
G36*
X108700272Y-74329949D02*
X108700274Y-74329950D01*
X108700275Y-74329950D01*
X108768703Y-74358293D01*
X108830009Y-74399257D01*
X108830289Y-74399444D01*
X108882656Y-74451811D01*
X108882658Y-74451814D01*
X108923807Y-74513397D01*
X108952150Y-74581825D01*
X108952151Y-74581828D01*
X108966600Y-74654466D01*
X108966600Y-74728533D01*
X108952150Y-74801175D01*
X108923807Y-74869603D01*
X108882843Y-74930909D01*
X108882656Y-74931189D01*
X108830289Y-74983556D01*
X108830286Y-74983558D01*
X108768703Y-75024707D01*
X108700275Y-75053050D01*
X108700274Y-75053050D01*
X108700272Y-75053051D01*
X108627634Y-75067500D01*
X108553566Y-75067500D01*
X108480928Y-75053051D01*
X108480926Y-75053050D01*
X108480925Y-75053050D01*
X108412497Y-75024707D01*
X108350914Y-74983558D01*
X108350911Y-74983556D01*
X108298544Y-74931189D01*
X108298357Y-74930909D01*
X108257393Y-74869603D01*
X108229050Y-74801175D01*
X108214600Y-74728533D01*
X108214600Y-74654466D01*
X108229049Y-74581828D01*
X108229050Y-74581825D01*
X108257393Y-74513397D01*
X108298542Y-74451814D01*
X108298544Y-74451811D01*
X108350911Y-74399444D01*
X108351191Y-74399257D01*
X108412497Y-74358293D01*
X108480925Y-74329950D01*
X108480926Y-74329950D01*
X108480928Y-74329949D01*
X108553566Y-74315500D01*
X108627634Y-74315500D01*
X108700272Y-74329949D01*
X108700272Y-74329949D01*
G37*
G36*
X81835734Y-70893232D02*
X82045202Y-70979996D01*
X82233723Y-71105962D01*
X82394038Y-71266277D01*
X82520004Y-71454798D01*
X82606768Y-71664266D01*
X82651000Y-71886635D01*
X82651000Y-72113365D01*
X82606768Y-72335734D01*
X82520004Y-72545202D01*
X82394038Y-72733723D01*
X82233723Y-72894038D01*
X82045202Y-73020004D01*
X81835734Y-73106768D01*
X81613365Y-73151000D01*
X81386635Y-73151000D01*
X81164266Y-73106768D01*
X80954798Y-73020004D01*
X80766277Y-72894038D01*
X80605962Y-72733723D01*
X80479996Y-72545202D01*
X80393232Y-72335734D01*
X80349000Y-72113365D01*
X80349000Y-71886635D01*
X80393232Y-71664266D01*
X80479996Y-71454798D01*
X80605962Y-71266277D01*
X80766277Y-71105962D01*
X80954798Y-70979996D01*
X81164266Y-70893232D01*
X81386635Y-70849000D01*
X81613365Y-70849000D01*
X81835734Y-70893232D01*
X81835734Y-70893232D01*
G37*
G36*
X123335734Y-70893232D02*
X123545202Y-70979996D01*
X123733723Y-71105962D01*
X123894038Y-71266277D01*
X124020004Y-71454798D01*
X124106768Y-71664266D01*
X124151000Y-71886635D01*
X124151000Y-72113365D01*
X124106768Y-72335734D01*
X124020004Y-72545202D01*
X123894038Y-72733723D01*
X123733723Y-72894038D01*
X123545202Y-73020004D01*
X123335734Y-73106768D01*
X123113365Y-73151000D01*
X122886635Y-73151000D01*
X122664266Y-73106768D01*
X122454798Y-73020004D01*
X122266277Y-72894038D01*
X122105962Y-72733723D01*
X121979996Y-72545202D01*
X121893232Y-72335734D01*
X121849000Y-72113365D01*
X121849000Y-71886635D01*
X121893232Y-71664266D01*
X121979996Y-71454798D01*
X122105962Y-71266277D01*
X122266277Y-71105962D01*
X122454798Y-70979996D01*
X122664266Y-70893232D01*
X122886635Y-70849000D01*
X123113365Y-70849000D01*
X123335734Y-70893232D01*
X123335734Y-70893232D01*
G37*
G36*
X107268614Y-70198473D02*
X107372478Y-70229979D01*
X107468200Y-70281144D01*
X107552101Y-70349999D01*
X107620956Y-70433900D01*
X107672121Y-70529621D01*
X107703627Y-70633485D01*
X107711600Y-70714433D01*
X107711600Y-71368567D01*
X107703627Y-71449515D01*
X107672121Y-71553379D01*
X107620956Y-71649100D01*
X107552101Y-71733001D01*
X107468200Y-71801856D01*
X107372479Y-71853021D01*
X107268615Y-71884527D01*
X107160600Y-71895166D01*
X107052586Y-71884527D01*
X106948722Y-71853021D01*
X106853001Y-71801856D01*
X106769100Y-71733001D01*
X106700245Y-71649100D01*
X106649080Y-71553379D01*
X106617573Y-71449515D01*
X106609600Y-71368567D01*
X106609600Y-70714434D01*
X106617573Y-70633486D01*
X106649079Y-70529622D01*
X106700244Y-70433900D01*
X106769099Y-70349999D01*
X106853000Y-70281144D01*
X106948721Y-70229979D01*
X107052585Y-70198473D01*
X107160600Y-70187834D01*
X107268614Y-70198473D01*
X107268614Y-70198473D01*
G37*
G36*
X115908614Y-70198473D02*
X116012478Y-70229979D01*
X116108200Y-70281144D01*
X116192101Y-70349999D01*
X116260956Y-70433900D01*
X116312121Y-70529621D01*
X116343627Y-70633485D01*
X116351600Y-70714433D01*
X116351600Y-71368567D01*
X116343627Y-71449515D01*
X116312121Y-71553379D01*
X116260956Y-71649100D01*
X116192101Y-71733001D01*
X116108200Y-71801856D01*
X116012479Y-71853021D01*
X115908615Y-71884527D01*
X115800600Y-71895166D01*
X115692586Y-71884527D01*
X115588722Y-71853021D01*
X115493001Y-71801856D01*
X115409100Y-71733001D01*
X115340245Y-71649100D01*
X115289080Y-71553379D01*
X115257573Y-71449515D01*
X115249600Y-71368567D01*
X115249600Y-70714434D01*
X115257573Y-70633486D01*
X115289079Y-70529622D01*
X115340244Y-70433900D01*
X115409099Y-70349999D01*
X115493000Y-70281144D01*
X115588721Y-70229979D01*
X115692585Y-70198473D01*
X115800600Y-70187834D01*
X115908614Y-70198473D01*
X115908614Y-70198473D01*
G37*
M02*
