G04 #@! TF.GenerationSoftware,KiCad,Pcbnew,5.0.2-bee76a0~70~ubuntu18.04.1*
G04 #@! TF.CreationDate,2019-04-08T17:38:34+02:00*
G04 #@! TF.ProjectId,anotterwatch,616e6f74-7465-4727-9761-7463682e6b69,rev?*
G04 #@! TF.SameCoordinates,Original*
G04 #@! TF.FileFunction,Copper,L1,Top*
G04 #@! TF.FilePolarity,Positive*
%FSLAX46Y46*%
G04 Gerber Fmt 4.6, Leading zero omitted, Abs format (unit mm)*
G04 Created by KiCad (PCBNEW 5.0.2-bee76a0~70~ubuntu18.04.1) date Mo 08 Apr 2019 17:38:34 CEST*
%MOMM*%
%LPD*%
G01*
G04 APERTURE LIST*
G04 #@! TA.AperFunction,ComponentPad*
%ADD10O,1.000000X2.100000*%
G04 #@! TD*
G04 #@! TA.AperFunction,ComponentPad*
%ADD11O,1.000000X1.600000*%
G04 #@! TD*
G04 #@! TA.AperFunction,ViaPad*
%ADD12R,0.900000X0.500000*%
G04 #@! TD*
G04 #@! TA.AperFunction,ViaPad*
%ADD13C,0.600000*%
G04 #@! TD*
G04 #@! TA.AperFunction,Conductor*
%ADD14C,0.200000*%
G04 #@! TD*
G04 #@! TA.AperFunction,Conductor*
%ADD15C,0.150000*%
G04 #@! TD*
G04 APERTURE END LIST*
D10*
G04 #@! TO.P,J4,S1*
G04 #@! TO.N,GND*
X107160600Y-75221500D03*
X115800600Y-75221500D03*
D11*
X107160600Y-71041500D03*
X115800600Y-71041500D03*
G04 #@! TD*
D12*
G04 #@! TO.N,GND*
G04 #@! TO.C,AE1*
X88679600Y-74015600D03*
G04 #@! TD*
D13*
G04 #@! TO.N,GND*
X80950000Y-88890000D03*
X93340000Y-81410000D03*
X93340000Y-80660000D03*
X92590000Y-80660000D03*
X92590000Y-81410000D03*
X92590000Y-82160000D03*
X93340000Y-82160000D03*
X94090000Y-82160000D03*
X94090000Y-81410000D03*
X94090000Y-80660000D03*
X94090000Y-79910000D03*
X93340000Y-79910000D03*
X92590000Y-79910000D03*
X91840000Y-79910000D03*
X91840000Y-80660000D03*
X91840000Y-81410000D03*
X91840000Y-82160000D03*
X91090000Y-82160000D03*
X91090000Y-81410000D03*
X91090000Y-80660000D03*
X91090000Y-79910000D03*
X91090000Y-79160000D03*
X91840000Y-79160000D03*
X92590000Y-79160000D03*
X93340000Y-79160000D03*
X94090000Y-79160000D03*
X94840000Y-79160000D03*
X94840000Y-79910000D03*
X94840000Y-80660000D03*
X94840000Y-81410000D03*
X94840000Y-82160000D03*
X94840000Y-82910000D03*
X94090000Y-82910000D03*
X93340000Y-82910000D03*
X92590000Y-82910000D03*
X91840000Y-82910000D03*
X91090000Y-82910000D03*
G04 #@! TO.N,PROBE1*
X115265200Y-95300800D03*
X116298130Y-96062800D03*
G04 #@! TO.N,GNDA*
X112522000Y-85648800D03*
X112776000Y-87630000D03*
X115265200Y-87630000D03*
X112217200Y-89154000D03*
X119684800Y-94494000D03*
X116789200Y-100939600D03*
X113741200Y-102463600D03*
X115569375Y-86005025D03*
G04 #@! TO.N,ADC_REF*
X116687600Y-102616000D03*
X120142000Y-90576400D03*
G04 #@! TO.N,AFE_ENABLE*
X116992400Y-95758000D03*
X115073259Y-86928795D03*
X107028041Y-91572506D03*
X106982600Y-93492507D03*
X108864400Y-93776800D03*
X106527600Y-89814400D03*
X98044000Y-91033600D03*
G04 #@! TO.N,SE_ENABLE*
X120599200Y-92049600D03*
X117602000Y-103581194D03*
X97282000Y-91643200D03*
G04 #@! TO.N,GND*
X101600000Y-92456000D03*
X101600000Y-93116400D03*
X99771200Y-91795600D03*
X101600000Y-91795600D03*
X111455200Y-87680800D03*
X110794800Y-88341200D03*
X110794800Y-86969600D03*
X81500000Y-77828400D03*
X82143600Y-77825600D03*
X81500000Y-78488800D03*
X82143600Y-78486000D03*
X83413600Y-78486000D03*
X82753200Y-78486000D03*
X81500000Y-77168000D03*
X82143600Y-77165200D03*
X83413600Y-77165200D03*
X82753200Y-77165200D03*
X83413600Y-77825600D03*
X82753200Y-77825600D03*
X82143600Y-76403200D03*
X82753200Y-76403200D03*
X83413600Y-79197200D03*
X81500000Y-76400000D03*
X81500000Y-79200000D03*
X83400000Y-76400000D03*
X81750000Y-88900000D03*
X81750000Y-88050000D03*
X80200000Y-88050000D03*
X80200000Y-88900000D03*
X79350000Y-82950000D03*
X88679600Y-74015600D03*
X78802010Y-83300000D03*
X80750000Y-93200000D03*
X81300000Y-92650000D03*
X82753200Y-79197200D03*
X82753200Y-79197200D03*
X82143600Y-79197200D03*
X110128410Y-87680800D03*
X80949800Y-88036400D03*
X81737200Y-80822800D03*
X81432400Y-82397600D03*
X78587600Y-88493600D03*
X100431600Y-92456000D03*
X118973600Y-77317600D03*
X118110000Y-77317600D03*
X124053600Y-82397600D03*
X122783600Y-82397600D03*
X121361200Y-81534000D03*
X121361200Y-80467200D03*
X118973600Y-79603600D03*
X118059200Y-79603600D03*
X114300000Y-69392800D03*
X108051600Y-69392800D03*
X108000800Y-72186800D03*
X113334800Y-73914000D03*
X107594400Y-79349600D03*
X107848400Y-73863200D03*
X119634000Y-74676000D03*
X110591600Y-79654400D03*
X112877600Y-91735389D03*
X115620800Y-85191600D03*
X102717600Y-75539600D03*
X102717600Y-76200000D03*
X83769200Y-74625200D03*
X85547200Y-81788000D03*
X94843600Y-107035600D03*
X94843600Y-106121200D03*
X94843600Y-105206800D03*
X93929200Y-107848400D03*
X91135200Y-107391200D03*
X88747600Y-107035600D03*
X91541600Y-102920800D03*
X90119200Y-104038400D03*
X94843600Y-104292400D03*
X107334410Y-84734400D03*
X119594958Y-99353042D03*
X118313200Y-95046800D03*
X111455200Y-97637600D03*
X107442000Y-97790000D03*
X110794800Y-89650977D03*
X109526768Y-93077789D03*
X113334800Y-104749600D03*
X114147600Y-107899200D03*
X114291995Y-99314567D03*
X96164400Y-90525600D03*
X105816400Y-87878010D03*
X89550000Y-86310002D03*
X91690000Y-86540000D03*
X88105097Y-77678887D03*
X95294810Y-90700000D03*
X93725579Y-96246523D03*
X92216153Y-94653223D03*
X96100000Y-91300000D03*
X93900000Y-99700000D03*
X95000000Y-99700000D03*
X96100000Y-99700000D03*
X89165763Y-75334844D03*
X79710000Y-96620000D03*
G04 #@! TO.N,BUF_ENABLE*
X109626400Y-94234000D03*
X97960553Y-91904182D03*
X95919559Y-87887070D03*
G04 #@! TO.N,MUX_ENABLE*
X115163600Y-105003600D03*
X97434400Y-94640400D03*
X115017190Y-99263200D03*
G04 #@! TO.N,MUX_CH1*
X113893600Y-96570800D03*
X98862407Y-94539628D03*
G04 #@! TO.N,MUX_CH2*
X116484400Y-104495600D03*
X98143262Y-94432969D03*
G04 #@! TO.N,VBUS*
X109626400Y-74777600D03*
X113334800Y-74777600D03*
X87630000Y-80568800D03*
X88290400Y-80619600D03*
X79908400Y-75234800D03*
X85191600Y-80314800D03*
X109067600Y-79857600D03*
X107238800Y-82296000D03*
G04 #@! TO.N,IPS_LED*
X91338400Y-105003600D03*
G04 #@! TO.N,+BATT*
X83000000Y-86950000D03*
X82905600Y-92557600D03*
X82905600Y-93268800D03*
X82397600Y-82397600D03*
X82448400Y-86512400D03*
G04 #@! TO.N,IPS_MOSI*
X89893403Y-84367362D03*
X91700000Y-92400000D03*
G04 #@! TO.N,IPS_LED*
X97088835Y-78076395D03*
G04 #@! TO.N,+BATT*
X85895979Y-80619608D03*
G04 #@! TO.N,TXD*
X108458000Y-79298800D03*
X88727664Y-82242010D03*
G04 #@! TO.N,RXD*
X109677200Y-79298800D03*
X88090000Y-81880000D03*
G04 #@! TO.N,BTN_UP*
X119278400Y-87934800D03*
X95870000Y-75712010D03*
G04 #@! TO.N,BTN_CNTR*
X119684800Y-86055200D03*
X100813542Y-81087514D03*
X97172964Y-77072384D03*
G04 #@! TO.N,BTN_DOWN*
X119430800Y-84480400D03*
X106375200Y-82606790D03*
X93714485Y-77020821D03*
G04 #@! TO.N,ADC_SCK*
X108559515Y-86709610D03*
X94810000Y-86050000D03*
X95800000Y-93400000D03*
G04 #@! TO.N,IPS_DC*
X98660456Y-78853585D03*
X92900000Y-94900000D03*
G04 #@! TO.N,WAKE1*
X90344983Y-87762068D03*
X96447570Y-77258480D03*
G04 #@! TO.N,I2C_SCL*
X124612400Y-77368400D03*
X108708722Y-90741476D03*
X96422786Y-88411769D03*
X88663450Y-88051464D03*
X87968525Y-84322005D03*
G04 #@! TO.N,I2C_SDA*
X124815600Y-74726800D03*
X96995997Y-88881781D03*
X109626400Y-90943022D03*
X89280002Y-88679941D03*
X87290000Y-81930000D03*
X88689696Y-84413978D03*
G04 #@! TO.N,SD_DATA2*
X99314000Y-96723200D03*
X97188547Y-80588538D03*
G04 #@! TO.N,SD_DATA3*
X100482400Y-96977200D03*
X97800000Y-81430000D03*
G04 #@! TO.N,SD_CMD*
X101041200Y-98196400D03*
X97653364Y-83157855D03*
G04 #@! TO.N,SD_DATA1*
X98756166Y-98405590D03*
X97120032Y-84650032D03*
G04 #@! TO.N,PARTY_ENABLE*
X88442800Y-101650800D03*
X87680800Y-105308400D03*
G04 #@! TO.N,ESP32_DAC*
X99466400Y-78678590D03*
X104901375Y-83617425D03*
G04 #@! TO.N,Net-(D2-Pad1)*
X85699600Y-71729600D03*
X86156800Y-109626400D03*
G04 #@! TO.N,ADC_MISO*
X109073590Y-85998410D03*
X95893487Y-86069575D03*
X91630000Y-88590000D03*
X88910000Y-83300000D03*
G04 #@! TO.N,ADC_CS*
X108345263Y-87404335D03*
X95002827Y-86760591D03*
G04 #@! TO.N,ADC_CH_SEL*
X101506349Y-79748051D03*
X109524800Y-89611200D03*
G04 #@! TO.N,Net-(D1-Pad1)*
X117449600Y-71475600D03*
X86817200Y-71831200D03*
G04 #@! TO.N,+BATT*
X94370000Y-75330000D03*
G04 #@! TO.N,ESP_ADC*
X103428800Y-82499200D03*
G04 #@! TO.N,+3V3*
X80009377Y-90906076D03*
X98644655Y-80576144D03*
X118211600Y-74574400D03*
G04 #@! TO.N,ESP_ADC*
X92230000Y-76870000D03*
G04 #@! TO.N,+3V3*
X84988400Y-74523600D03*
X84582000Y-105867200D03*
X114147600Y-108661200D03*
X115468400Y-98145600D03*
X117754400Y-99161600D03*
X118465600Y-101142800D03*
X105511600Y-97637600D03*
X106121200Y-91440000D03*
X79502000Y-86360000D03*
X79298800Y-86969600D03*
X97942400Y-95554800D03*
X112725200Y-92557600D03*
X115417600Y-106426000D03*
X106290621Y-84632800D03*
X102057200Y-80772000D03*
X91450000Y-77590000D03*
X87830000Y-87520000D03*
X90978546Y-88912730D03*
X87619988Y-84960023D03*
X89275793Y-83983820D03*
X85360000Y-83580000D03*
X88660092Y-77123892D03*
X88700000Y-80000000D03*
X93728107Y-96973531D03*
G04 #@! TO.N,Net-(C28-Pad1)*
X79350000Y-90250000D03*
X80975200Y-90830400D03*
G04 #@! TO.N,Net-(J3-Pad1)*
X124002800Y-94843600D03*
X116840000Y-97485200D03*
X102565200Y-89154000D03*
G04 #@! TO.N,Net-(J3-Pad2)*
X118973600Y-97897600D03*
X104343200Y-91744800D03*
G04 #@! TO.N,Net-(J3-Pad3)*
X124002800Y-97942400D03*
X102819200Y-94538789D03*
G04 #@! TO.N,Net-(C15-Pad1)*
X108818632Y-92913200D03*
X107537610Y-92853528D03*
G04 #@! TO.N,Net-(BT1-Pad1)*
X79705200Y-80467200D03*
X82804000Y-102565200D03*
X82245200Y-102006400D03*
X79756000Y-81788000D03*
G04 #@! TO.N,Net-(D3-Pad1)*
X89255600Y-108051600D03*
X117703600Y-109778800D03*
G04 #@! TO.N,Net-(J1-Pad5)*
X98755200Y-79857596D03*
X99760178Y-98398116D03*
G04 #@! TO.N,Net-(J1-Pad7)*
X99629972Y-97682859D03*
X99850000Y-82310000D03*
G04 #@! TO.N,Net-(C31-Pad1)*
X115163600Y-72847200D03*
X113944400Y-109982000D03*
X87014410Y-75031600D03*
X87642261Y-74206539D03*
X87155123Y-108801791D03*
G04 #@! TD*
D14*
G04 #@! TO.N,ADC_REF*
X116687600Y-102616000D02*
X116687600Y-102666800D01*
D15*
G04 #@! TO.N,ESP32_DAC*
X99466400Y-78678590D02*
X99466400Y-78689200D01*
G04 #@! TD*
G04 #@! TO.N,GND*
G36*
X87425000Y-72500000D02*
X87431036Y-72529479D01*
X87447567Y-72553626D01*
X89101567Y-74170826D01*
X89125299Y-74186491D01*
X89154000Y-74192200D01*
X95879334Y-74192200D01*
X96212967Y-74525833D01*
X96238173Y-74542447D01*
X96266943Y-74547794D01*
X97204284Y-74536002D01*
X104999625Y-74574999D01*
X105028701Y-74569291D01*
X105053033Y-74553033D01*
X105109566Y-74496500D01*
X106435600Y-74496500D01*
X106435600Y-75046500D01*
X106985600Y-75046500D01*
X106985600Y-74026053D01*
X107335600Y-74026053D01*
X107335600Y-75046500D01*
X107885600Y-75046500D01*
X107885600Y-74586673D01*
X108063600Y-74586673D01*
X108063600Y-74796327D01*
X108143831Y-74990022D01*
X108292078Y-75138269D01*
X108485773Y-75218500D01*
X108695427Y-75218500D01*
X108889122Y-75138269D01*
X109037369Y-74990022D01*
X109117600Y-74796327D01*
X109117600Y-74677746D01*
X109124400Y-74677746D01*
X109124400Y-74877454D01*
X109200825Y-75061960D01*
X109342040Y-75203175D01*
X109526546Y-75279600D01*
X109726254Y-75279600D01*
X109910760Y-75203175D01*
X110051975Y-75061960D01*
X110128400Y-74877454D01*
X110128400Y-74677746D01*
X112832800Y-74677746D01*
X112832800Y-74877454D01*
X112909225Y-75061960D01*
X113050440Y-75203175D01*
X113234946Y-75279600D01*
X113434654Y-75279600D01*
X113619160Y-75203175D01*
X113760375Y-75061960D01*
X113836800Y-74877454D01*
X113836800Y-74677746D01*
X113799077Y-74586673D01*
X113843600Y-74586673D01*
X113843600Y-74796327D01*
X113923831Y-74990022D01*
X114072078Y-75138269D01*
X114265773Y-75218500D01*
X114475427Y-75218500D01*
X114669122Y-75138269D01*
X114817369Y-74990022D01*
X114897600Y-74796327D01*
X114897600Y-74586673D01*
X114860250Y-74496500D01*
X115075600Y-74496500D01*
X115075600Y-75046500D01*
X115625600Y-75046500D01*
X115625600Y-74026053D01*
X115975600Y-74026053D01*
X115975600Y-75046500D01*
X116525600Y-75046500D01*
X116525600Y-74496500D01*
X116515447Y-74474546D01*
X117709600Y-74474546D01*
X117709600Y-74674254D01*
X117786025Y-74858760D01*
X117927240Y-74999975D01*
X118111746Y-75076400D01*
X118311454Y-75076400D01*
X118495960Y-74999975D01*
X118637175Y-74858760D01*
X118713600Y-74674254D01*
X118713600Y-74626946D01*
X124313600Y-74626946D01*
X124313600Y-74826654D01*
X124390025Y-75011160D01*
X124531240Y-75152375D01*
X124715746Y-75228800D01*
X124915454Y-75228800D01*
X125099960Y-75152375D01*
X125241175Y-75011160D01*
X125317600Y-74826654D01*
X125317600Y-74626946D01*
X125241175Y-74442440D01*
X125099960Y-74301225D01*
X124915454Y-74224800D01*
X124715746Y-74224800D01*
X124531240Y-74301225D01*
X124390025Y-74442440D01*
X124313600Y-74626946D01*
X118713600Y-74626946D01*
X118713600Y-74474546D01*
X118637175Y-74290040D01*
X118495960Y-74148825D01*
X118311454Y-74072400D01*
X118111746Y-74072400D01*
X117927240Y-74148825D01*
X117786025Y-74290040D01*
X117709600Y-74474546D01*
X116515447Y-74474546D01*
X116403443Y-74232376D01*
X116189509Y-74035104D01*
X116083507Y-74003976D01*
X115975600Y-74026053D01*
X115625600Y-74026053D01*
X115517693Y-74003976D01*
X115411691Y-74035104D01*
X115197757Y-74232376D01*
X115075600Y-74496500D01*
X114860250Y-74496500D01*
X114817369Y-74392978D01*
X114669122Y-74244731D01*
X114475427Y-74164500D01*
X114265773Y-74164500D01*
X114072078Y-74244731D01*
X113923831Y-74392978D01*
X113843600Y-74586673D01*
X113799077Y-74586673D01*
X113760375Y-74493240D01*
X113619160Y-74352025D01*
X113434654Y-74275600D01*
X113234946Y-74275600D01*
X113050440Y-74352025D01*
X112909225Y-74493240D01*
X112832800Y-74677746D01*
X110128400Y-74677746D01*
X110051975Y-74493240D01*
X109910760Y-74352025D01*
X109726254Y-74275600D01*
X109526546Y-74275600D01*
X109342040Y-74352025D01*
X109200825Y-74493240D01*
X109124400Y-74677746D01*
X109117600Y-74677746D01*
X109117600Y-74586673D01*
X109037369Y-74392978D01*
X108889122Y-74244731D01*
X108695427Y-74164500D01*
X108485773Y-74164500D01*
X108292078Y-74244731D01*
X108143831Y-74392978D01*
X108063600Y-74586673D01*
X107885600Y-74586673D01*
X107885600Y-74496500D01*
X107763443Y-74232376D01*
X107549509Y-74035104D01*
X107443507Y-74003976D01*
X107335600Y-74026053D01*
X106985600Y-74026053D01*
X106877693Y-74003976D01*
X106771691Y-74035104D01*
X106557757Y-74232376D01*
X106435600Y-74496500D01*
X105109566Y-74496500D01*
X106553033Y-73053033D01*
X106569291Y-73028701D01*
X106575000Y-73000000D01*
X106575000Y-72747346D01*
X114661600Y-72747346D01*
X114661600Y-72947054D01*
X114738025Y-73131560D01*
X114879240Y-73272775D01*
X115063746Y-73349200D01*
X115263454Y-73349200D01*
X115447960Y-73272775D01*
X115589175Y-73131560D01*
X115665600Y-72947054D01*
X115665600Y-72747346D01*
X115589175Y-72562840D01*
X115447960Y-72421625D01*
X115263454Y-72345200D01*
X115063746Y-72345200D01*
X114879240Y-72421625D01*
X114738025Y-72562840D01*
X114661600Y-72747346D01*
X106575000Y-72747346D01*
X106575000Y-71790777D01*
X106624563Y-71866630D01*
X106877693Y-72009024D01*
X106985600Y-71986947D01*
X106985600Y-71216500D01*
X107335600Y-71216500D01*
X107335600Y-71986947D01*
X107443507Y-72009024D01*
X107696637Y-71866630D01*
X107856792Y-71621524D01*
X107910958Y-71333787D01*
X115050242Y-71333787D01*
X115104408Y-71621524D01*
X115264563Y-71866630D01*
X115517693Y-72009024D01*
X115625600Y-71986947D01*
X115625600Y-71216500D01*
X115975600Y-71216500D01*
X115975600Y-71986947D01*
X116083507Y-72009024D01*
X116336637Y-71866630D01*
X116496792Y-71621524D01*
X116543059Y-71375746D01*
X116947600Y-71375746D01*
X116947600Y-71575454D01*
X117024025Y-71759960D01*
X117165240Y-71901175D01*
X117349746Y-71977600D01*
X117549454Y-71977600D01*
X117733960Y-71901175D01*
X117875175Y-71759960D01*
X117883021Y-71741016D01*
X121698000Y-71741016D01*
X121698000Y-72258984D01*
X121896217Y-72737524D01*
X122262476Y-73103783D01*
X122741016Y-73302000D01*
X123258984Y-73302000D01*
X123737524Y-73103783D01*
X124103783Y-72737524D01*
X124302000Y-72258984D01*
X124302000Y-71741016D01*
X124103783Y-71262476D01*
X123737524Y-70896217D01*
X123258984Y-70698000D01*
X122741016Y-70698000D01*
X122262476Y-70896217D01*
X121896217Y-71262476D01*
X121698000Y-71741016D01*
X117883021Y-71741016D01*
X117951600Y-71575454D01*
X117951600Y-71375746D01*
X117875175Y-71191240D01*
X117733960Y-71050025D01*
X117549454Y-70973600D01*
X117349746Y-70973600D01*
X117165240Y-71050025D01*
X117024025Y-71191240D01*
X116947600Y-71375746D01*
X116543059Y-71375746D01*
X116550958Y-71333787D01*
X116484263Y-71216500D01*
X115975600Y-71216500D01*
X115625600Y-71216500D01*
X115116937Y-71216500D01*
X115050242Y-71333787D01*
X107910958Y-71333787D01*
X107844263Y-71216500D01*
X107335600Y-71216500D01*
X106985600Y-71216500D01*
X106965600Y-71216500D01*
X106965600Y-70866500D01*
X106985600Y-70866500D01*
X106985600Y-70096053D01*
X107335600Y-70096053D01*
X107335600Y-70866500D01*
X107844263Y-70866500D01*
X107910958Y-70749213D01*
X115050242Y-70749213D01*
X115116937Y-70866500D01*
X115625600Y-70866500D01*
X115625600Y-70096053D01*
X115975600Y-70096053D01*
X115975600Y-70866500D01*
X116484263Y-70866500D01*
X116550958Y-70749213D01*
X116496792Y-70461476D01*
X116336637Y-70216370D01*
X116083507Y-70073976D01*
X115975600Y-70096053D01*
X115625600Y-70096053D01*
X115517693Y-70073976D01*
X115264563Y-70216370D01*
X115104408Y-70461476D01*
X115050242Y-70749213D01*
X107910958Y-70749213D01*
X107856792Y-70461476D01*
X107696637Y-70216370D01*
X107443507Y-70073976D01*
X107335600Y-70096053D01*
X106985600Y-70096053D01*
X106877693Y-70073976D01*
X106624563Y-70216370D01*
X106575000Y-70292223D01*
X106575000Y-68777000D01*
X121487668Y-68777000D01*
X122336177Y-68852727D01*
X123145920Y-69074248D01*
X123903643Y-69435664D01*
X124585385Y-69925545D01*
X125169604Y-70528412D01*
X125637833Y-71225211D01*
X125975268Y-71993910D01*
X126171756Y-72812340D01*
X126223000Y-73510156D01*
X126223001Y-106487657D01*
X126147273Y-107336173D01*
X125925751Y-108145922D01*
X125564336Y-108903643D01*
X125074455Y-109585385D01*
X124471588Y-110169604D01*
X123774789Y-110637833D01*
X123006098Y-110975265D01*
X122187661Y-111171756D01*
X121489844Y-111223000D01*
X83012331Y-111223000D01*
X82163827Y-111147273D01*
X81354078Y-110925751D01*
X80596357Y-110564336D01*
X79914615Y-110074455D01*
X79383655Y-109526546D01*
X85654800Y-109526546D01*
X85654800Y-109726254D01*
X85731225Y-109910760D01*
X85872440Y-110051975D01*
X86056946Y-110128400D01*
X86256654Y-110128400D01*
X86441160Y-110051975D01*
X86582375Y-109910760D01*
X86594227Y-109882146D01*
X113442400Y-109882146D01*
X113442400Y-110081854D01*
X113518825Y-110266360D01*
X113660040Y-110407575D01*
X113844546Y-110484000D01*
X114044254Y-110484000D01*
X114228760Y-110407575D01*
X114369975Y-110266360D01*
X114446400Y-110081854D01*
X114446400Y-109882146D01*
X114369975Y-109697640D01*
X114351281Y-109678946D01*
X117201600Y-109678946D01*
X117201600Y-109878654D01*
X117278025Y-110063160D01*
X117419240Y-110204375D01*
X117603746Y-110280800D01*
X117803454Y-110280800D01*
X117987960Y-110204375D01*
X118129175Y-110063160D01*
X118205600Y-109878654D01*
X118205600Y-109678946D01*
X118129175Y-109494440D01*
X117987960Y-109353225D01*
X117803454Y-109276800D01*
X117603746Y-109276800D01*
X117419240Y-109353225D01*
X117278025Y-109494440D01*
X117201600Y-109678946D01*
X114351281Y-109678946D01*
X114228760Y-109556425D01*
X114044254Y-109480000D01*
X113844546Y-109480000D01*
X113660040Y-109556425D01*
X113518825Y-109697640D01*
X113442400Y-109882146D01*
X86594227Y-109882146D01*
X86658800Y-109726254D01*
X86658800Y-109526546D01*
X86582375Y-109342040D01*
X86441160Y-109200825D01*
X86256654Y-109124400D01*
X86056946Y-109124400D01*
X85872440Y-109200825D01*
X85731225Y-109342040D01*
X85654800Y-109526546D01*
X79383655Y-109526546D01*
X79330396Y-109471588D01*
X78862167Y-108774789D01*
X78524735Y-108006098D01*
X78461094Y-107741016D01*
X80198000Y-107741016D01*
X80198000Y-108258984D01*
X80396217Y-108737524D01*
X80762476Y-109103783D01*
X81241016Y-109302000D01*
X81758984Y-109302000D01*
X82237524Y-109103783D01*
X82603783Y-108737524D01*
X82618523Y-108701937D01*
X86653123Y-108701937D01*
X86653123Y-108901645D01*
X86729548Y-109086151D01*
X86870763Y-109227366D01*
X87055269Y-109303791D01*
X87254977Y-109303791D01*
X87439483Y-109227366D01*
X87580698Y-109086151D01*
X87657123Y-108901645D01*
X87657123Y-108701937D01*
X87598889Y-108561346D01*
X113645600Y-108561346D01*
X113645600Y-108761054D01*
X113722025Y-108945560D01*
X113863240Y-109086775D01*
X114047746Y-109163200D01*
X114247454Y-109163200D01*
X114431960Y-109086775D01*
X114573175Y-108945560D01*
X114649600Y-108761054D01*
X114649600Y-108561346D01*
X114573175Y-108376840D01*
X114431960Y-108235625D01*
X114247454Y-108159200D01*
X114047746Y-108159200D01*
X113863240Y-108235625D01*
X113722025Y-108376840D01*
X113645600Y-108561346D01*
X87598889Y-108561346D01*
X87580698Y-108517431D01*
X87439483Y-108376216D01*
X87254977Y-108299791D01*
X87055269Y-108299791D01*
X86870763Y-108376216D01*
X86729548Y-108517431D01*
X86653123Y-108701937D01*
X82618523Y-108701937D01*
X82802000Y-108258984D01*
X82802000Y-107951746D01*
X88753600Y-107951746D01*
X88753600Y-108151454D01*
X88830025Y-108335960D01*
X88971240Y-108477175D01*
X89155746Y-108553600D01*
X89355454Y-108553600D01*
X89539960Y-108477175D01*
X89681175Y-108335960D01*
X89757600Y-108151454D01*
X89757600Y-107951746D01*
X89681175Y-107767240D01*
X89654951Y-107741016D01*
X121698000Y-107741016D01*
X121698000Y-108258984D01*
X121896217Y-108737524D01*
X122262476Y-109103783D01*
X122741016Y-109302000D01*
X123258984Y-109302000D01*
X123737524Y-109103783D01*
X124103783Y-108737524D01*
X124302000Y-108258984D01*
X124302000Y-107741016D01*
X124103783Y-107262476D01*
X123737524Y-106896217D01*
X123258984Y-106698000D01*
X122741016Y-106698000D01*
X122262476Y-106896217D01*
X121896217Y-107262476D01*
X121698000Y-107741016D01*
X89654951Y-107741016D01*
X89539960Y-107626025D01*
X89355454Y-107549600D01*
X89155746Y-107549600D01*
X88971240Y-107626025D01*
X88830025Y-107767240D01*
X88753600Y-107951746D01*
X82802000Y-107951746D01*
X82802000Y-107741016D01*
X82603783Y-107262476D01*
X82237524Y-106896217D01*
X81926312Y-106767309D01*
X101200000Y-106767309D01*
X101200000Y-107026691D01*
X101299261Y-107266328D01*
X101482672Y-107449739D01*
X101722309Y-107549000D01*
X101981691Y-107549000D01*
X102221328Y-107449739D01*
X102404739Y-107266328D01*
X102504000Y-107026691D01*
X102504000Y-106767309D01*
X109200000Y-106767309D01*
X109200000Y-107026691D01*
X109299261Y-107266328D01*
X109482672Y-107449739D01*
X109722309Y-107549000D01*
X109981691Y-107549000D01*
X110221328Y-107449739D01*
X110404739Y-107266328D01*
X110504000Y-107026691D01*
X110504000Y-106767309D01*
X110404739Y-106527672D01*
X110221328Y-106344261D01*
X110177595Y-106326146D01*
X114915600Y-106326146D01*
X114915600Y-106525854D01*
X114992025Y-106710360D01*
X115133240Y-106851575D01*
X115317746Y-106928000D01*
X115517454Y-106928000D01*
X115701960Y-106851575D01*
X115843175Y-106710360D01*
X115919600Y-106525854D01*
X115919600Y-106326146D01*
X115843175Y-106141640D01*
X115701960Y-106000425D01*
X115517454Y-105924000D01*
X115317746Y-105924000D01*
X115133240Y-106000425D01*
X114992025Y-106141640D01*
X114915600Y-106326146D01*
X110177595Y-106326146D01*
X109981691Y-106245000D01*
X109722309Y-106245000D01*
X109482672Y-106344261D01*
X109299261Y-106527672D01*
X109200000Y-106767309D01*
X102504000Y-106767309D01*
X102404739Y-106527672D01*
X102221328Y-106344261D01*
X101981691Y-106245000D01*
X101722309Y-106245000D01*
X101482672Y-106344261D01*
X101299261Y-106527672D01*
X101200000Y-106767309D01*
X81926312Y-106767309D01*
X81758984Y-106698000D01*
X81241016Y-106698000D01*
X80762476Y-106896217D01*
X80396217Y-107262476D01*
X80198000Y-107741016D01*
X78461094Y-107741016D01*
X78328244Y-107187661D01*
X78277000Y-106489844D01*
X78277000Y-105767346D01*
X84080000Y-105767346D01*
X84080000Y-105967054D01*
X84156425Y-106151560D01*
X84297640Y-106292775D01*
X84482146Y-106369200D01*
X84681854Y-106369200D01*
X84866360Y-106292775D01*
X85007575Y-106151560D01*
X85084000Y-105967054D01*
X85084000Y-105767346D01*
X85007575Y-105582840D01*
X84866360Y-105441625D01*
X84681854Y-105365200D01*
X84482146Y-105365200D01*
X84297640Y-105441625D01*
X84156425Y-105582840D01*
X84080000Y-105767346D01*
X78277000Y-105767346D01*
X78277000Y-105208546D01*
X87178800Y-105208546D01*
X87178800Y-105408254D01*
X87255225Y-105592760D01*
X87396440Y-105733975D01*
X87580946Y-105810400D01*
X87780654Y-105810400D01*
X87965160Y-105733975D01*
X88106375Y-105592760D01*
X88182800Y-105408254D01*
X88182800Y-105208546D01*
X88106375Y-105024040D01*
X87986081Y-104903746D01*
X90836400Y-104903746D01*
X90836400Y-105103454D01*
X90912825Y-105287960D01*
X91054040Y-105429175D01*
X91238546Y-105505600D01*
X91438254Y-105505600D01*
X91622760Y-105429175D01*
X91763975Y-105287960D01*
X91840400Y-105103454D01*
X91840400Y-104903746D01*
X114661600Y-104903746D01*
X114661600Y-105103454D01*
X114738025Y-105287960D01*
X114879240Y-105429175D01*
X115063746Y-105505600D01*
X115263454Y-105505600D01*
X115447960Y-105429175D01*
X115589175Y-105287960D01*
X115665600Y-105103454D01*
X115665600Y-104903746D01*
X115589175Y-104719240D01*
X115447960Y-104578025D01*
X115263454Y-104501600D01*
X115063746Y-104501600D01*
X114879240Y-104578025D01*
X114738025Y-104719240D01*
X114661600Y-104903746D01*
X91840400Y-104903746D01*
X91763975Y-104719240D01*
X91622760Y-104578025D01*
X91438254Y-104501600D01*
X91238546Y-104501600D01*
X91054040Y-104578025D01*
X90912825Y-104719240D01*
X90836400Y-104903746D01*
X87986081Y-104903746D01*
X87965160Y-104882825D01*
X87780654Y-104806400D01*
X87580946Y-104806400D01*
X87396440Y-104882825D01*
X87255225Y-105024040D01*
X87178800Y-105208546D01*
X78277000Y-105208546D01*
X78277000Y-104395746D01*
X115982400Y-104395746D01*
X115982400Y-104595454D01*
X116058825Y-104779960D01*
X116200040Y-104921175D01*
X116384546Y-104997600D01*
X116584254Y-104997600D01*
X116768760Y-104921175D01*
X116909975Y-104779960D01*
X116986400Y-104595454D01*
X116986400Y-104395746D01*
X116909975Y-104211240D01*
X116768760Y-104070025D01*
X116584254Y-103993600D01*
X116384546Y-103993600D01*
X116200040Y-104070025D01*
X116058825Y-104211240D01*
X115982400Y-104395746D01*
X78277000Y-104395746D01*
X78277000Y-103481340D01*
X117100000Y-103481340D01*
X117100000Y-103681048D01*
X117176425Y-103865554D01*
X117317640Y-104006769D01*
X117502146Y-104083194D01*
X117701854Y-104083194D01*
X117886360Y-104006769D01*
X118007129Y-103886000D01*
X121754000Y-103886000D01*
X121814668Y-104190999D01*
X121987436Y-104449564D01*
X122246001Y-104622332D01*
X122551000Y-104683000D01*
X122855999Y-104622332D01*
X123114564Y-104449564D01*
X123287332Y-104190999D01*
X123348000Y-103886000D01*
X123287332Y-103581001D01*
X123114564Y-103322436D01*
X122855999Y-103149668D01*
X122551000Y-103089000D01*
X122246001Y-103149668D01*
X121987436Y-103322436D01*
X121814668Y-103581001D01*
X121754000Y-103886000D01*
X118007129Y-103886000D01*
X118027575Y-103865554D01*
X118104000Y-103681048D01*
X118104000Y-103481340D01*
X118027575Y-103296834D01*
X117886360Y-103155619D01*
X117701854Y-103079194D01*
X117502146Y-103079194D01*
X117317640Y-103155619D01*
X117176425Y-103296834D01*
X117100000Y-103481340D01*
X78277000Y-103481340D01*
X78277000Y-101906546D01*
X81743200Y-101906546D01*
X81743200Y-102106254D01*
X81819625Y-102290760D01*
X81960840Y-102431975D01*
X82145346Y-102508400D01*
X82302000Y-102508400D01*
X82302000Y-102665054D01*
X82378425Y-102849560D01*
X82519640Y-102990775D01*
X82704146Y-103067200D01*
X82903854Y-103067200D01*
X83088360Y-102990775D01*
X83229575Y-102849560D01*
X83306000Y-102665054D01*
X83306000Y-102465346D01*
X83229575Y-102280840D01*
X83088360Y-102139625D01*
X82903854Y-102063200D01*
X82747200Y-102063200D01*
X82747200Y-101906546D01*
X82670775Y-101722040D01*
X82529560Y-101580825D01*
X82345054Y-101504400D01*
X82145346Y-101504400D01*
X81960840Y-101580825D01*
X81819625Y-101722040D01*
X81743200Y-101906546D01*
X78277000Y-101906546D01*
X78277000Y-100590309D01*
X79028000Y-100590309D01*
X79028000Y-100849691D01*
X79127261Y-101089328D01*
X79310672Y-101272739D01*
X79550309Y-101372000D01*
X79809691Y-101372000D01*
X80049328Y-101272739D01*
X80232739Y-101089328D01*
X80332000Y-100849691D01*
X80332000Y-100590309D01*
X80232739Y-100350672D01*
X80049328Y-100167261D01*
X79809691Y-100068000D01*
X79550309Y-100068000D01*
X79310672Y-100167261D01*
X79127261Y-100350672D01*
X79028000Y-100590309D01*
X78277000Y-100590309D01*
X78277000Y-97590309D01*
X79028000Y-97590309D01*
X79028000Y-97849691D01*
X79127261Y-98089328D01*
X79310672Y-98272739D01*
X79550309Y-98372000D01*
X79809691Y-98372000D01*
X80049328Y-98272739D01*
X80232739Y-98089328D01*
X80332000Y-97849691D01*
X80332000Y-97590309D01*
X80232739Y-97350672D01*
X80049328Y-97167261D01*
X79809691Y-97068000D01*
X79550309Y-97068000D01*
X79310672Y-97167261D01*
X79127261Y-97350672D01*
X79028000Y-97590309D01*
X78277000Y-97590309D01*
X78277000Y-90150146D01*
X78848000Y-90150146D01*
X78848000Y-90349854D01*
X78924425Y-90534360D01*
X79065640Y-90675575D01*
X79250146Y-90752000D01*
X79449854Y-90752000D01*
X79546402Y-90712009D01*
X79507377Y-90806222D01*
X79507377Y-91005930D01*
X79583802Y-91190436D01*
X79725017Y-91331651D01*
X79909523Y-91408076D01*
X80109231Y-91408076D01*
X80293737Y-91331651D01*
X80434952Y-91190436D01*
X80507962Y-91014176D01*
X80549625Y-91114760D01*
X80690840Y-91255975D01*
X80875346Y-91332400D01*
X81075054Y-91332400D01*
X81259560Y-91255975D01*
X81400775Y-91114760D01*
X81477200Y-90930254D01*
X81477200Y-90730546D01*
X81400775Y-90546040D01*
X81259560Y-90404825D01*
X81075054Y-90328400D01*
X80875346Y-90328400D01*
X80690840Y-90404825D01*
X80549625Y-90546040D01*
X80476615Y-90722300D01*
X80434952Y-90621716D01*
X80293737Y-90480501D01*
X80109231Y-90404076D01*
X79909523Y-90404076D01*
X79812975Y-90444067D01*
X79852000Y-90349854D01*
X79852000Y-90150146D01*
X79775575Y-89965640D01*
X79634360Y-89824425D01*
X79449854Y-89748000D01*
X79250146Y-89748000D01*
X79065640Y-89824425D01*
X78924425Y-89965640D01*
X78848000Y-90150146D01*
X78277000Y-90150146D01*
X78277000Y-86869746D01*
X78796800Y-86869746D01*
X78796800Y-87069454D01*
X78873225Y-87253960D01*
X79014440Y-87395175D01*
X79198946Y-87471600D01*
X79398654Y-87471600D01*
X79583160Y-87395175D01*
X79724375Y-87253960D01*
X79800800Y-87069454D01*
X79800800Y-86869746D01*
X79768926Y-86792796D01*
X79786360Y-86785575D01*
X79927575Y-86644360D01*
X80004000Y-86459854D01*
X80004000Y-86412546D01*
X81946400Y-86412546D01*
X81946400Y-86612254D01*
X82022825Y-86796760D01*
X82164040Y-86937975D01*
X82348546Y-87014400D01*
X82498000Y-87014400D01*
X82498000Y-87049854D01*
X82574425Y-87234360D01*
X82715640Y-87375575D01*
X82900146Y-87452000D01*
X83099854Y-87452000D01*
X83223000Y-87400991D01*
X83223001Y-92165066D01*
X83189960Y-92132025D01*
X83005454Y-92055600D01*
X82805746Y-92055600D01*
X82621240Y-92132025D01*
X82480025Y-92273240D01*
X82403600Y-92457746D01*
X82403600Y-92657454D01*
X82480025Y-92841960D01*
X82551265Y-92913200D01*
X82480025Y-92984440D01*
X82403600Y-93168946D01*
X82403600Y-93368654D01*
X82480025Y-93553160D01*
X82621240Y-93694375D01*
X82805746Y-93770800D01*
X83005454Y-93770800D01*
X83189960Y-93694375D01*
X83223001Y-93661334D01*
X83223001Y-102027279D01*
X83228322Y-102054030D01*
X83228322Y-102054040D01*
X83266382Y-102245382D01*
X83307742Y-102345235D01*
X83307746Y-102345239D01*
X83416128Y-102507442D01*
X83416129Y-102507445D01*
X83492555Y-102583871D01*
X83492558Y-102583872D01*
X83654764Y-102692256D01*
X83654766Y-102692258D01*
X83754618Y-102733618D01*
X83945959Y-102771678D01*
X84054040Y-102771678D01*
X84245382Y-102733618D01*
X84345235Y-102692258D01*
X84345239Y-102692254D01*
X84507442Y-102583872D01*
X84507445Y-102583871D01*
X84583871Y-102507445D01*
X84583872Y-102507442D01*
X84679887Y-102363746D01*
X113239200Y-102363746D01*
X113239200Y-102563454D01*
X113315625Y-102747960D01*
X113456840Y-102889175D01*
X113641346Y-102965600D01*
X113841054Y-102965600D01*
X114025560Y-102889175D01*
X114166775Y-102747960D01*
X114243200Y-102563454D01*
X114243200Y-102516146D01*
X116185600Y-102516146D01*
X116185600Y-102715854D01*
X116262025Y-102900360D01*
X116403240Y-103041575D01*
X116587746Y-103118000D01*
X116787454Y-103118000D01*
X116971960Y-103041575D01*
X117113175Y-102900360D01*
X117189600Y-102715854D01*
X117189600Y-102516146D01*
X117113175Y-102331640D01*
X116971960Y-102190425D01*
X116787454Y-102114000D01*
X116587746Y-102114000D01*
X116403240Y-102190425D01*
X116262025Y-102331640D01*
X116185600Y-102516146D01*
X114243200Y-102516146D01*
X114243200Y-102363746D01*
X114166775Y-102179240D01*
X114025560Y-102038025D01*
X113841054Y-101961600D01*
X113641346Y-101961600D01*
X113456840Y-102038025D01*
X113315625Y-102179240D01*
X113239200Y-102363746D01*
X84679887Y-102363746D01*
X84692256Y-102345236D01*
X84692258Y-102345234D01*
X84733618Y-102245382D01*
X84771678Y-102054039D01*
X84771678Y-102054035D01*
X84777000Y-102027279D01*
X84777000Y-101550946D01*
X87940800Y-101550946D01*
X87940800Y-101750654D01*
X88017225Y-101935160D01*
X88158440Y-102076375D01*
X88342946Y-102152800D01*
X88542654Y-102152800D01*
X88727160Y-102076375D01*
X88868375Y-101935160D01*
X88944800Y-101750654D01*
X88944800Y-101550946D01*
X88868375Y-101366440D01*
X88727160Y-101225225D01*
X88542654Y-101148800D01*
X88342946Y-101148800D01*
X88158440Y-101225225D01*
X88017225Y-101366440D01*
X87940800Y-101550946D01*
X84777000Y-101550946D01*
X84777000Y-100839746D01*
X116287200Y-100839746D01*
X116287200Y-101039454D01*
X116363625Y-101223960D01*
X116504840Y-101365175D01*
X116689346Y-101441600D01*
X116889054Y-101441600D01*
X117073560Y-101365175D01*
X117214775Y-101223960D01*
X117289753Y-101042946D01*
X117963600Y-101042946D01*
X117963600Y-101242654D01*
X118040025Y-101427160D01*
X118181240Y-101568375D01*
X118365746Y-101644800D01*
X118565454Y-101644800D01*
X118749960Y-101568375D01*
X118891175Y-101427160D01*
X118924792Y-101346000D01*
X121762000Y-101346000D01*
X121822668Y-101650999D01*
X121995436Y-101909564D01*
X122254001Y-102082332D01*
X122559000Y-102143000D01*
X122863999Y-102082332D01*
X123122564Y-101909564D01*
X123295332Y-101650999D01*
X123356000Y-101346000D01*
X123295332Y-101041001D01*
X123122564Y-100782436D01*
X122863999Y-100609668D01*
X122559000Y-100549000D01*
X122254001Y-100609668D01*
X121995436Y-100782436D01*
X121822668Y-101041001D01*
X121762000Y-101346000D01*
X118924792Y-101346000D01*
X118967600Y-101242654D01*
X118967600Y-101042946D01*
X118891175Y-100858440D01*
X118749960Y-100717225D01*
X118565454Y-100640800D01*
X118365746Y-100640800D01*
X118181240Y-100717225D01*
X118040025Y-100858440D01*
X117963600Y-101042946D01*
X117289753Y-101042946D01*
X117291200Y-101039454D01*
X117291200Y-100839746D01*
X117214775Y-100655240D01*
X117073560Y-100514025D01*
X116889054Y-100437600D01*
X116689346Y-100437600D01*
X116504840Y-100514025D01*
X116363625Y-100655240D01*
X116287200Y-100839746D01*
X84777000Y-100839746D01*
X84777000Y-99163346D01*
X114515190Y-99163346D01*
X114515190Y-99363054D01*
X114591615Y-99547560D01*
X114732830Y-99688775D01*
X114917336Y-99765200D01*
X115117044Y-99765200D01*
X115301550Y-99688775D01*
X115442765Y-99547560D01*
X115519190Y-99363054D01*
X115519190Y-99163346D01*
X115477106Y-99061746D01*
X117252400Y-99061746D01*
X117252400Y-99261454D01*
X117328825Y-99445960D01*
X117470040Y-99587175D01*
X117654546Y-99663600D01*
X117854254Y-99663600D01*
X118038760Y-99587175D01*
X118179975Y-99445960D01*
X118256400Y-99261454D01*
X118256400Y-99061746D01*
X118179975Y-98877240D01*
X118108735Y-98806000D01*
X121758000Y-98806000D01*
X121818668Y-99110999D01*
X121991436Y-99369564D01*
X122250001Y-99542332D01*
X122555000Y-99603000D01*
X122859999Y-99542332D01*
X123118564Y-99369564D01*
X123291332Y-99110999D01*
X123352000Y-98806000D01*
X123291332Y-98501001D01*
X123118564Y-98242436D01*
X122859999Y-98069668D01*
X122555000Y-98009000D01*
X122250001Y-98069668D01*
X121991436Y-98242436D01*
X121818668Y-98501001D01*
X121758000Y-98806000D01*
X118108735Y-98806000D01*
X118038760Y-98736025D01*
X117854254Y-98659600D01*
X117654546Y-98659600D01*
X117470040Y-98736025D01*
X117328825Y-98877240D01*
X117252400Y-99061746D01*
X115477106Y-99061746D01*
X115442765Y-98978840D01*
X115301550Y-98837625D01*
X115117044Y-98761200D01*
X114917336Y-98761200D01*
X114732830Y-98837625D01*
X114591615Y-98978840D01*
X114515190Y-99163346D01*
X84777000Y-99163346D01*
X84777000Y-98305736D01*
X98254166Y-98305736D01*
X98254166Y-98505444D01*
X98330591Y-98689950D01*
X98471806Y-98831165D01*
X98656312Y-98907590D01*
X98856020Y-98907590D01*
X99040526Y-98831165D01*
X99181741Y-98689950D01*
X99258166Y-98505444D01*
X99258166Y-98305736D01*
X99181741Y-98121230D01*
X99040526Y-97980015D01*
X98856020Y-97903590D01*
X98656312Y-97903590D01*
X98471806Y-97980015D01*
X98330591Y-98121230D01*
X98254166Y-98305736D01*
X84777000Y-98305736D01*
X84777000Y-97583005D01*
X99127972Y-97583005D01*
X99127972Y-97782713D01*
X99204397Y-97967219D01*
X99342769Y-98105591D01*
X99334603Y-98113756D01*
X99258178Y-98298262D01*
X99258178Y-98497970D01*
X99334603Y-98682476D01*
X99475818Y-98823691D01*
X99660324Y-98900116D01*
X99860032Y-98900116D01*
X100044538Y-98823691D01*
X100185753Y-98682476D01*
X100262178Y-98497970D01*
X100262178Y-98298262D01*
X100185753Y-98113756D01*
X100168543Y-98096546D01*
X100539200Y-98096546D01*
X100539200Y-98296254D01*
X100615625Y-98480760D01*
X100756840Y-98621975D01*
X100941346Y-98698400D01*
X101141054Y-98698400D01*
X101325560Y-98621975D01*
X101466775Y-98480760D01*
X101543200Y-98296254D01*
X101543200Y-98096546D01*
X101466775Y-97912040D01*
X101325560Y-97770825D01*
X101141054Y-97694400D01*
X100941346Y-97694400D01*
X100756840Y-97770825D01*
X100615625Y-97912040D01*
X100539200Y-98096546D01*
X100168543Y-98096546D01*
X100047382Y-97975385D01*
X100055547Y-97967219D01*
X100131972Y-97782713D01*
X100131972Y-97583005D01*
X100113226Y-97537746D01*
X105009600Y-97537746D01*
X105009600Y-97737454D01*
X105086025Y-97921960D01*
X105227240Y-98063175D01*
X105411746Y-98139600D01*
X105611454Y-98139600D01*
X105795960Y-98063175D01*
X105813389Y-98045746D01*
X114966400Y-98045746D01*
X114966400Y-98245454D01*
X115042825Y-98429960D01*
X115184040Y-98571175D01*
X115368546Y-98647600D01*
X115568254Y-98647600D01*
X115752760Y-98571175D01*
X115893975Y-98429960D01*
X115970400Y-98245454D01*
X115970400Y-98045746D01*
X115893975Y-97861240D01*
X115752760Y-97720025D01*
X115568254Y-97643600D01*
X115368546Y-97643600D01*
X115184040Y-97720025D01*
X115042825Y-97861240D01*
X114966400Y-98045746D01*
X105813389Y-98045746D01*
X105937175Y-97921960D01*
X106013600Y-97737454D01*
X106013600Y-97537746D01*
X105950474Y-97385346D01*
X116338000Y-97385346D01*
X116338000Y-97585054D01*
X116414425Y-97769560D01*
X116555640Y-97910775D01*
X116740146Y-97987200D01*
X116939854Y-97987200D01*
X117124360Y-97910775D01*
X117237389Y-97797746D01*
X118471600Y-97797746D01*
X118471600Y-97997454D01*
X118548025Y-98181960D01*
X118689240Y-98323175D01*
X118873746Y-98399600D01*
X119073454Y-98399600D01*
X119257960Y-98323175D01*
X119399175Y-98181960D01*
X119475600Y-97997454D01*
X119475600Y-97842546D01*
X123500800Y-97842546D01*
X123500800Y-98042254D01*
X123577225Y-98226760D01*
X123718440Y-98367975D01*
X123902946Y-98444400D01*
X124102654Y-98444400D01*
X124287160Y-98367975D01*
X124428375Y-98226760D01*
X124504800Y-98042254D01*
X124504800Y-97842546D01*
X124428375Y-97658040D01*
X124287160Y-97516825D01*
X124102654Y-97440400D01*
X123902946Y-97440400D01*
X123718440Y-97516825D01*
X123577225Y-97658040D01*
X123500800Y-97842546D01*
X119475600Y-97842546D01*
X119475600Y-97797746D01*
X119399175Y-97613240D01*
X119257960Y-97472025D01*
X119073454Y-97395600D01*
X118873746Y-97395600D01*
X118689240Y-97472025D01*
X118548025Y-97613240D01*
X118471600Y-97797746D01*
X117237389Y-97797746D01*
X117265575Y-97769560D01*
X117342000Y-97585054D01*
X117342000Y-97385346D01*
X117265575Y-97200840D01*
X117124360Y-97059625D01*
X116939854Y-96983200D01*
X116740146Y-96983200D01*
X116555640Y-97059625D01*
X116414425Y-97200840D01*
X116338000Y-97385346D01*
X105950474Y-97385346D01*
X105937175Y-97353240D01*
X105795960Y-97212025D01*
X105611454Y-97135600D01*
X105411746Y-97135600D01*
X105227240Y-97212025D01*
X105086025Y-97353240D01*
X105009600Y-97537746D01*
X100113226Y-97537746D01*
X100055547Y-97398499D01*
X99914332Y-97257284D01*
X99729826Y-97180859D01*
X99530118Y-97180859D01*
X99345612Y-97257284D01*
X99204397Y-97398499D01*
X99127972Y-97583005D01*
X84777000Y-97583005D01*
X84777000Y-96873677D01*
X93226107Y-96873677D01*
X93226107Y-97073385D01*
X93302532Y-97257891D01*
X93443747Y-97399106D01*
X93628253Y-97475531D01*
X93827961Y-97475531D01*
X94012467Y-97399106D01*
X94153682Y-97257891D01*
X94230107Y-97073385D01*
X94230107Y-96873677D01*
X94153682Y-96689171D01*
X94087857Y-96623346D01*
X98812000Y-96623346D01*
X98812000Y-96823054D01*
X98888425Y-97007560D01*
X99029640Y-97148775D01*
X99214146Y-97225200D01*
X99413854Y-97225200D01*
X99598360Y-97148775D01*
X99739575Y-97007560D01*
X99793511Y-96877346D01*
X99980400Y-96877346D01*
X99980400Y-97077054D01*
X100056825Y-97261560D01*
X100198040Y-97402775D01*
X100382546Y-97479200D01*
X100582254Y-97479200D01*
X100766760Y-97402775D01*
X100907975Y-97261560D01*
X100984400Y-97077054D01*
X100984400Y-96877346D01*
X100907975Y-96692840D01*
X100766760Y-96551625D01*
X100582254Y-96475200D01*
X100382546Y-96475200D01*
X100198040Y-96551625D01*
X100056825Y-96692840D01*
X99980400Y-96877346D01*
X99793511Y-96877346D01*
X99816000Y-96823054D01*
X99816000Y-96623346D01*
X99752874Y-96470946D01*
X113391600Y-96470946D01*
X113391600Y-96670654D01*
X113468025Y-96855160D01*
X113609240Y-96996375D01*
X113793746Y-97072800D01*
X113993454Y-97072800D01*
X114177960Y-96996375D01*
X114319175Y-96855160D01*
X114395600Y-96670654D01*
X114395600Y-96470946D01*
X114319175Y-96286440D01*
X114177960Y-96145225D01*
X113993454Y-96068800D01*
X113793746Y-96068800D01*
X113609240Y-96145225D01*
X113468025Y-96286440D01*
X113391600Y-96470946D01*
X99752874Y-96470946D01*
X99739575Y-96438840D01*
X99598360Y-96297625D01*
X99413854Y-96221200D01*
X99214146Y-96221200D01*
X99029640Y-96297625D01*
X98888425Y-96438840D01*
X98812000Y-96623346D01*
X94087857Y-96623346D01*
X94012467Y-96547956D01*
X93827961Y-96471531D01*
X93628253Y-96471531D01*
X93443747Y-96547956D01*
X93302532Y-96689171D01*
X93226107Y-96873677D01*
X84777000Y-96873677D01*
X84777000Y-95454946D01*
X97440400Y-95454946D01*
X97440400Y-95654654D01*
X97516825Y-95839160D01*
X97658040Y-95980375D01*
X97842546Y-96056800D01*
X98042254Y-96056800D01*
X98226760Y-95980375D01*
X98244189Y-95962946D01*
X115796130Y-95962946D01*
X115796130Y-96162654D01*
X115872555Y-96347160D01*
X116013770Y-96488375D01*
X116198276Y-96564800D01*
X116397984Y-96564800D01*
X116582490Y-96488375D01*
X116723705Y-96347160D01*
X116757322Y-96266000D01*
X121762000Y-96266000D01*
X121822668Y-96570999D01*
X121995436Y-96829564D01*
X122254001Y-97002332D01*
X122559000Y-97063000D01*
X122863999Y-97002332D01*
X123122564Y-96829564D01*
X123295332Y-96570999D01*
X123356000Y-96266000D01*
X123295332Y-95961001D01*
X123122564Y-95702436D01*
X122863999Y-95529668D01*
X122559000Y-95469000D01*
X122254001Y-95529668D01*
X121995436Y-95702436D01*
X121822668Y-95961001D01*
X121762000Y-96266000D01*
X116757322Y-96266000D01*
X116779247Y-96213070D01*
X116892546Y-96260000D01*
X117092254Y-96260000D01*
X117276760Y-96183575D01*
X117417975Y-96042360D01*
X117494400Y-95857854D01*
X117494400Y-95658146D01*
X117417975Y-95473640D01*
X117276760Y-95332425D01*
X117092254Y-95256000D01*
X116892546Y-95256000D01*
X116708040Y-95332425D01*
X116566825Y-95473640D01*
X116511283Y-95607730D01*
X116397984Y-95560800D01*
X116198276Y-95560800D01*
X116013770Y-95637225D01*
X115872555Y-95778440D01*
X115796130Y-95962946D01*
X98244189Y-95962946D01*
X98367975Y-95839160D01*
X98444400Y-95654654D01*
X98444400Y-95454946D01*
X98367975Y-95270440D01*
X98298481Y-95200946D01*
X114763200Y-95200946D01*
X114763200Y-95400654D01*
X114839625Y-95585160D01*
X114980840Y-95726375D01*
X115165346Y-95802800D01*
X115365054Y-95802800D01*
X115549560Y-95726375D01*
X115690775Y-95585160D01*
X115767200Y-95400654D01*
X115767200Y-95200946D01*
X115690775Y-95016440D01*
X115549560Y-94875225D01*
X115365054Y-94798800D01*
X115165346Y-94798800D01*
X114980840Y-94875225D01*
X114839625Y-95016440D01*
X114763200Y-95200946D01*
X98298481Y-95200946D01*
X98226760Y-95129225D01*
X98042254Y-95052800D01*
X97842546Y-95052800D01*
X97658040Y-95129225D01*
X97516825Y-95270440D01*
X97440400Y-95454946D01*
X84777000Y-95454946D01*
X84777000Y-94800146D01*
X92398000Y-94800146D01*
X92398000Y-94999854D01*
X92474425Y-95184360D01*
X92615640Y-95325575D01*
X92800146Y-95402000D01*
X92999854Y-95402000D01*
X93184360Y-95325575D01*
X93325575Y-95184360D01*
X93402000Y-94999854D01*
X93402000Y-94800146D01*
X93325575Y-94615640D01*
X93250481Y-94540546D01*
X96932400Y-94540546D01*
X96932400Y-94740254D01*
X97008825Y-94924760D01*
X97150040Y-95065975D01*
X97334546Y-95142400D01*
X97534254Y-95142400D01*
X97718760Y-95065975D01*
X97859975Y-94924760D01*
X97883229Y-94868620D01*
X98043408Y-94934969D01*
X98243116Y-94934969D01*
X98427622Y-94858544D01*
X98449505Y-94836661D01*
X98578047Y-94965203D01*
X98762553Y-95041628D01*
X98962261Y-95041628D01*
X99146767Y-94965203D01*
X99287982Y-94823988D01*
X99364407Y-94639482D01*
X99364407Y-94439774D01*
X99364060Y-94438935D01*
X102317200Y-94438935D01*
X102317200Y-94638643D01*
X102393625Y-94823149D01*
X102534840Y-94964364D01*
X102719346Y-95040789D01*
X102919054Y-95040789D01*
X103103560Y-94964364D01*
X103244775Y-94823149D01*
X103321200Y-94638643D01*
X103321200Y-94438935D01*
X103244775Y-94254429D01*
X103103560Y-94113214D01*
X102919054Y-94036789D01*
X102719346Y-94036789D01*
X102534840Y-94113214D01*
X102393625Y-94254429D01*
X102317200Y-94438935D01*
X99364060Y-94438935D01*
X99287982Y-94255268D01*
X99146767Y-94114053D01*
X98962261Y-94037628D01*
X98762553Y-94037628D01*
X98578047Y-94114053D01*
X98556164Y-94135936D01*
X98427622Y-94007394D01*
X98243116Y-93930969D01*
X98043408Y-93930969D01*
X97858902Y-94007394D01*
X97717687Y-94148609D01*
X97694433Y-94204749D01*
X97534254Y-94138400D01*
X97334546Y-94138400D01*
X97150040Y-94214825D01*
X97008825Y-94356040D01*
X96932400Y-94540546D01*
X93250481Y-94540546D01*
X93184360Y-94474425D01*
X92999854Y-94398000D01*
X92800146Y-94398000D01*
X92615640Y-94474425D01*
X92474425Y-94615640D01*
X92398000Y-94800146D01*
X84777000Y-94800146D01*
X84777000Y-93300146D01*
X95298000Y-93300146D01*
X95298000Y-93499854D01*
X95374425Y-93684360D01*
X95515640Y-93825575D01*
X95700146Y-93902000D01*
X95899854Y-93902000D01*
X96084360Y-93825575D01*
X96225575Y-93684360D01*
X96302000Y-93499854D01*
X96302000Y-93392653D01*
X106480600Y-93392653D01*
X106480600Y-93592361D01*
X106557025Y-93776867D01*
X106698240Y-93918082D01*
X106882746Y-93994507D01*
X107082454Y-93994507D01*
X107266960Y-93918082D01*
X107408175Y-93776867D01*
X107484600Y-93592361D01*
X107484600Y-93392653D01*
X107469222Y-93355528D01*
X107637464Y-93355528D01*
X107821970Y-93279103D01*
X107963185Y-93137888D01*
X108039610Y-92953382D01*
X108039610Y-92813346D01*
X108316632Y-92813346D01*
X108316632Y-93013054D01*
X108393057Y-93197560D01*
X108534272Y-93338775D01*
X108575438Y-93355827D01*
X108438825Y-93492440D01*
X108362400Y-93676946D01*
X108362400Y-93876654D01*
X108438825Y-94061160D01*
X108580040Y-94202375D01*
X108764546Y-94278800D01*
X108964254Y-94278800D01*
X109124400Y-94212465D01*
X109124400Y-94333854D01*
X109200825Y-94518360D01*
X109342040Y-94659575D01*
X109526546Y-94736000D01*
X109726254Y-94736000D01*
X109910760Y-94659575D01*
X110051975Y-94518360D01*
X110103426Y-94394146D01*
X119182800Y-94394146D01*
X119182800Y-94593854D01*
X119259225Y-94778360D01*
X119400440Y-94919575D01*
X119584946Y-94996000D01*
X119784654Y-94996000D01*
X119969160Y-94919575D01*
X120110375Y-94778360D01*
X120124712Y-94743746D01*
X123500800Y-94743746D01*
X123500800Y-94943454D01*
X123577225Y-95127960D01*
X123718440Y-95269175D01*
X123902946Y-95345600D01*
X124102654Y-95345600D01*
X124287160Y-95269175D01*
X124428375Y-95127960D01*
X124504800Y-94943454D01*
X124504800Y-94743746D01*
X124428375Y-94559240D01*
X124287160Y-94418025D01*
X124102654Y-94341600D01*
X123902946Y-94341600D01*
X123718440Y-94418025D01*
X123577225Y-94559240D01*
X123500800Y-94743746D01*
X120124712Y-94743746D01*
X120186800Y-94593854D01*
X120186800Y-94394146D01*
X120110375Y-94209640D01*
X119969160Y-94068425D01*
X119784654Y-93992000D01*
X119584946Y-93992000D01*
X119400440Y-94068425D01*
X119259225Y-94209640D01*
X119182800Y-94394146D01*
X110103426Y-94394146D01*
X110128400Y-94333854D01*
X110128400Y-94134146D01*
X110051975Y-93949640D01*
X109910760Y-93808425D01*
X109726254Y-93732000D01*
X109526546Y-93732000D01*
X109366400Y-93798335D01*
X109366400Y-93726000D01*
X121754000Y-93726000D01*
X121814668Y-94030999D01*
X121987436Y-94289564D01*
X122246001Y-94462332D01*
X122551000Y-94523000D01*
X122855999Y-94462332D01*
X123114564Y-94289564D01*
X123287332Y-94030999D01*
X123348000Y-93726000D01*
X123287332Y-93421001D01*
X123114564Y-93162436D01*
X122855999Y-92989668D01*
X122551000Y-92929000D01*
X122246001Y-92989668D01*
X121987436Y-93162436D01*
X121814668Y-93421001D01*
X121754000Y-93726000D01*
X109366400Y-93726000D01*
X109366400Y-93676946D01*
X109289975Y-93492440D01*
X109148760Y-93351225D01*
X109107594Y-93334173D01*
X109244207Y-93197560D01*
X109320632Y-93013054D01*
X109320632Y-92813346D01*
X109244207Y-92628840D01*
X109102992Y-92487625D01*
X109030858Y-92457746D01*
X112223200Y-92457746D01*
X112223200Y-92657454D01*
X112299625Y-92841960D01*
X112440840Y-92983175D01*
X112625346Y-93059600D01*
X112825054Y-93059600D01*
X113009560Y-92983175D01*
X113150775Y-92841960D01*
X113227200Y-92657454D01*
X113227200Y-92457746D01*
X113150775Y-92273240D01*
X113009560Y-92132025D01*
X112825054Y-92055600D01*
X112625346Y-92055600D01*
X112440840Y-92132025D01*
X112299625Y-92273240D01*
X112223200Y-92457746D01*
X109030858Y-92457746D01*
X108918486Y-92411200D01*
X108718778Y-92411200D01*
X108534272Y-92487625D01*
X108393057Y-92628840D01*
X108316632Y-92813346D01*
X108039610Y-92813346D01*
X108039610Y-92753674D01*
X107963185Y-92569168D01*
X107821970Y-92427953D01*
X107637464Y-92351528D01*
X107437756Y-92351528D01*
X107253250Y-92427953D01*
X107112035Y-92569168D01*
X107035610Y-92753674D01*
X107035610Y-92953382D01*
X107050988Y-92990507D01*
X106882746Y-92990507D01*
X106698240Y-93066932D01*
X106557025Y-93208147D01*
X106480600Y-93392653D01*
X96302000Y-93392653D01*
X96302000Y-93300146D01*
X96225575Y-93115640D01*
X96084360Y-92974425D01*
X95899854Y-92898000D01*
X95700146Y-92898000D01*
X95515640Y-92974425D01*
X95374425Y-93115640D01*
X95298000Y-93300146D01*
X84777000Y-93300146D01*
X84777000Y-92300146D01*
X91198000Y-92300146D01*
X91198000Y-92499854D01*
X91274425Y-92684360D01*
X91415640Y-92825575D01*
X91600146Y-92902000D01*
X91799854Y-92902000D01*
X91984360Y-92825575D01*
X92125575Y-92684360D01*
X92202000Y-92499854D01*
X92202000Y-92300146D01*
X92125575Y-92115640D01*
X91984360Y-91974425D01*
X91799854Y-91898000D01*
X91600146Y-91898000D01*
X91415640Y-91974425D01*
X91274425Y-92115640D01*
X91198000Y-92300146D01*
X84777000Y-92300146D01*
X84777000Y-91543346D01*
X96780000Y-91543346D01*
X96780000Y-91743054D01*
X96856425Y-91927560D01*
X96997640Y-92068775D01*
X97182146Y-92145200D01*
X97381854Y-92145200D01*
X97497230Y-92097410D01*
X97534978Y-92188542D01*
X97676193Y-92329757D01*
X97860699Y-92406182D01*
X98060407Y-92406182D01*
X98244913Y-92329757D01*
X98386128Y-92188542D01*
X98462553Y-92004036D01*
X98462553Y-91804328D01*
X98396535Y-91644946D01*
X103841200Y-91644946D01*
X103841200Y-91844654D01*
X103917625Y-92029160D01*
X104058840Y-92170375D01*
X104243346Y-92246800D01*
X104443054Y-92246800D01*
X104627560Y-92170375D01*
X104768775Y-92029160D01*
X104845200Y-91844654D01*
X104845200Y-91644946D01*
X104768775Y-91460440D01*
X104648481Y-91340146D01*
X105619200Y-91340146D01*
X105619200Y-91539854D01*
X105695625Y-91724360D01*
X105836840Y-91865575D01*
X106021346Y-91942000D01*
X106221054Y-91942000D01*
X106405560Y-91865575D01*
X106546775Y-91724360D01*
X106547178Y-91723388D01*
X106602466Y-91856866D01*
X106743681Y-91998081D01*
X106928187Y-92074506D01*
X107127895Y-92074506D01*
X107312401Y-91998081D01*
X107360736Y-91949746D01*
X120097200Y-91949746D01*
X120097200Y-92149454D01*
X120173625Y-92333960D01*
X120314840Y-92475175D01*
X120499346Y-92551600D01*
X120699054Y-92551600D01*
X120883560Y-92475175D01*
X121024775Y-92333960D01*
X121101200Y-92149454D01*
X121101200Y-91949746D01*
X121024775Y-91765240D01*
X120883560Y-91624025D01*
X120699054Y-91547600D01*
X120499346Y-91547600D01*
X120314840Y-91624025D01*
X120173625Y-91765240D01*
X120097200Y-91949746D01*
X107360736Y-91949746D01*
X107453616Y-91856866D01*
X107530041Y-91672360D01*
X107530041Y-91472652D01*
X107453616Y-91288146D01*
X107312401Y-91146931D01*
X107127895Y-91070506D01*
X106928187Y-91070506D01*
X106743681Y-91146931D01*
X106602466Y-91288146D01*
X106602063Y-91289118D01*
X106546775Y-91155640D01*
X106405560Y-91014425D01*
X106221054Y-90938000D01*
X106021346Y-90938000D01*
X105836840Y-91014425D01*
X105695625Y-91155640D01*
X105619200Y-91340146D01*
X104648481Y-91340146D01*
X104627560Y-91319225D01*
X104443054Y-91242800D01*
X104243346Y-91242800D01*
X104058840Y-91319225D01*
X103917625Y-91460440D01*
X103841200Y-91644946D01*
X98396535Y-91644946D01*
X98386128Y-91619822D01*
X98255614Y-91489308D01*
X98328360Y-91459175D01*
X98469575Y-91317960D01*
X98546000Y-91133454D01*
X98546000Y-90933746D01*
X98469575Y-90749240D01*
X98361957Y-90641622D01*
X108206722Y-90641622D01*
X108206722Y-90841330D01*
X108283147Y-91025836D01*
X108424362Y-91167051D01*
X108608868Y-91243476D01*
X108808576Y-91243476D01*
X108993082Y-91167051D01*
X109124400Y-91035733D01*
X109124400Y-91042876D01*
X109200825Y-91227382D01*
X109342040Y-91368597D01*
X109526546Y-91445022D01*
X109726254Y-91445022D01*
X109910760Y-91368597D01*
X110051975Y-91227382D01*
X110128400Y-91042876D01*
X110128400Y-90843168D01*
X110051975Y-90658662D01*
X109910760Y-90517447D01*
X109812017Y-90476546D01*
X119640000Y-90476546D01*
X119640000Y-90676254D01*
X119716425Y-90860760D01*
X119857640Y-91001975D01*
X120042146Y-91078400D01*
X120241854Y-91078400D01*
X120426360Y-91001975D01*
X120567575Y-90860760D01*
X120644000Y-90676254D01*
X120644000Y-90476546D01*
X120567575Y-90292040D01*
X120426360Y-90150825D01*
X120241854Y-90074400D01*
X120042146Y-90074400D01*
X119857640Y-90150825D01*
X119716425Y-90292040D01*
X119640000Y-90476546D01*
X109812017Y-90476546D01*
X109726254Y-90441022D01*
X109526546Y-90441022D01*
X109342040Y-90517447D01*
X109210722Y-90648765D01*
X109210722Y-90641622D01*
X109134297Y-90457116D01*
X108993082Y-90315901D01*
X108808576Y-90239476D01*
X108608868Y-90239476D01*
X108424362Y-90315901D01*
X108283147Y-90457116D01*
X108206722Y-90641622D01*
X98361957Y-90641622D01*
X98328360Y-90608025D01*
X98143854Y-90531600D01*
X97944146Y-90531600D01*
X97759640Y-90608025D01*
X97618425Y-90749240D01*
X97542000Y-90933746D01*
X97542000Y-91133454D01*
X97584293Y-91235558D01*
X97566360Y-91217625D01*
X97381854Y-91141200D01*
X97182146Y-91141200D01*
X96997640Y-91217625D01*
X96856425Y-91358840D01*
X96780000Y-91543346D01*
X84777000Y-91543346D01*
X84777000Y-89714546D01*
X106025600Y-89714546D01*
X106025600Y-89914254D01*
X106102025Y-90098760D01*
X106243240Y-90239975D01*
X106427746Y-90316400D01*
X106627454Y-90316400D01*
X106811960Y-90239975D01*
X106953175Y-90098760D01*
X107029600Y-89914254D01*
X107029600Y-89714546D01*
X106953175Y-89530040D01*
X106934481Y-89511346D01*
X109022800Y-89511346D01*
X109022800Y-89711054D01*
X109099225Y-89895560D01*
X109240440Y-90036775D01*
X109424946Y-90113200D01*
X109624654Y-90113200D01*
X109809160Y-90036775D01*
X109950375Y-89895560D01*
X110026800Y-89711054D01*
X110026800Y-89511346D01*
X109950375Y-89326840D01*
X109809160Y-89185625D01*
X109624654Y-89109200D01*
X109424946Y-89109200D01*
X109240440Y-89185625D01*
X109099225Y-89326840D01*
X109022800Y-89511346D01*
X106934481Y-89511346D01*
X106811960Y-89388825D01*
X106627454Y-89312400D01*
X106427746Y-89312400D01*
X106243240Y-89388825D01*
X106102025Y-89530040D01*
X106025600Y-89714546D01*
X84777000Y-89714546D01*
X84777000Y-87420146D01*
X87328000Y-87420146D01*
X87328000Y-87619854D01*
X87404425Y-87804360D01*
X87545640Y-87945575D01*
X87730146Y-88022000D01*
X87929854Y-88022000D01*
X88114360Y-87945575D01*
X88199015Y-87860920D01*
X88161450Y-87951610D01*
X88161450Y-88151318D01*
X88237875Y-88335824D01*
X88379090Y-88477039D01*
X88563596Y-88553464D01*
X88763304Y-88553464D01*
X88794358Y-88540601D01*
X88778002Y-88580087D01*
X88778002Y-88779795D01*
X88854427Y-88964301D01*
X88995642Y-89105516D01*
X89180148Y-89181941D01*
X89379856Y-89181941D01*
X89564362Y-89105516D01*
X89705577Y-88964301D01*
X89768299Y-88812876D01*
X90476546Y-88812876D01*
X90476546Y-89012584D01*
X90552971Y-89197090D01*
X90694186Y-89338305D01*
X90878692Y-89414730D01*
X91078400Y-89414730D01*
X91262906Y-89338305D01*
X91404121Y-89197090D01*
X91459732Y-89062834D01*
X91530146Y-89092000D01*
X91729854Y-89092000D01*
X91914360Y-89015575D01*
X92055575Y-88874360D01*
X92132000Y-88689854D01*
X92132000Y-88490146D01*
X92055575Y-88305640D01*
X91914360Y-88164425D01*
X91729854Y-88088000D01*
X91530146Y-88088000D01*
X91345640Y-88164425D01*
X91204425Y-88305640D01*
X91148814Y-88439896D01*
X91078400Y-88410730D01*
X90878692Y-88410730D01*
X90694186Y-88487155D01*
X90552971Y-88628370D01*
X90476546Y-88812876D01*
X89768299Y-88812876D01*
X89782002Y-88779795D01*
X89782002Y-88580087D01*
X89705577Y-88395581D01*
X89564362Y-88254366D01*
X89379856Y-88177941D01*
X89180148Y-88177941D01*
X89149094Y-88190804D01*
X89165450Y-88151318D01*
X89165450Y-87951610D01*
X89089025Y-87767104D01*
X88984135Y-87662214D01*
X89842983Y-87662214D01*
X89842983Y-87861922D01*
X89919408Y-88046428D01*
X90060623Y-88187643D01*
X90245129Y-88264068D01*
X90444837Y-88264068D01*
X90629343Y-88187643D01*
X90770558Y-88046428D01*
X90846983Y-87861922D01*
X90846983Y-87787216D01*
X95417559Y-87787216D01*
X95417559Y-87986924D01*
X95493984Y-88171430D01*
X95635199Y-88312645D01*
X95819705Y-88389070D01*
X95920786Y-88389070D01*
X95920786Y-88511623D01*
X95997211Y-88696129D01*
X96138426Y-88837344D01*
X96322932Y-88913769D01*
X96493997Y-88913769D01*
X96493997Y-88981635D01*
X96570422Y-89166141D01*
X96711637Y-89307356D01*
X96896143Y-89383781D01*
X97095851Y-89383781D01*
X97280357Y-89307356D01*
X97421572Y-89166141D01*
X97467961Y-89054146D01*
X102063200Y-89054146D01*
X102063200Y-89253854D01*
X102139625Y-89438360D01*
X102280840Y-89579575D01*
X102465346Y-89656000D01*
X102665054Y-89656000D01*
X102849560Y-89579575D01*
X102990775Y-89438360D01*
X103067200Y-89253854D01*
X103067200Y-89054146D01*
X111715200Y-89054146D01*
X111715200Y-89253854D01*
X111791625Y-89438360D01*
X111932840Y-89579575D01*
X112117346Y-89656000D01*
X112317054Y-89656000D01*
X112501560Y-89579575D01*
X112642775Y-89438360D01*
X112719200Y-89253854D01*
X112719200Y-89054146D01*
X112642775Y-88869640D01*
X112501560Y-88728425D01*
X112317054Y-88652000D01*
X112117346Y-88652000D01*
X111932840Y-88728425D01*
X111791625Y-88869640D01*
X111715200Y-89054146D01*
X103067200Y-89054146D01*
X102990775Y-88869640D01*
X102849560Y-88728425D01*
X102665054Y-88652000D01*
X102465346Y-88652000D01*
X102280840Y-88728425D01*
X102139625Y-88869640D01*
X102063200Y-89054146D01*
X97467961Y-89054146D01*
X97497997Y-88981635D01*
X97497997Y-88781927D01*
X97421572Y-88597421D01*
X97280569Y-88456418D01*
X120908000Y-88456418D01*
X120908000Y-88755582D01*
X121022485Y-89031974D01*
X121234026Y-89243515D01*
X121510418Y-89358000D01*
X121809582Y-89358000D01*
X122085974Y-89243515D01*
X122297515Y-89031974D01*
X122412000Y-88755582D01*
X122412000Y-88456418D01*
X122297515Y-88180026D01*
X122085974Y-87968485D01*
X121809582Y-87854000D01*
X121510418Y-87854000D01*
X121234026Y-87968485D01*
X121022485Y-88180026D01*
X120908000Y-88456418D01*
X97280569Y-88456418D01*
X97280357Y-88456206D01*
X97095851Y-88379781D01*
X96924786Y-88379781D01*
X96924786Y-88311915D01*
X96848361Y-88127409D01*
X96707146Y-87986194D01*
X96522640Y-87909769D01*
X96421559Y-87909769D01*
X96421559Y-87787216D01*
X96345134Y-87602710D01*
X96203919Y-87461495D01*
X96019413Y-87385070D01*
X95819705Y-87385070D01*
X95635199Y-87461495D01*
X95493984Y-87602710D01*
X95417559Y-87787216D01*
X90846983Y-87787216D01*
X90846983Y-87662214D01*
X90770558Y-87477708D01*
X90629343Y-87336493D01*
X90552060Y-87304481D01*
X107843263Y-87304481D01*
X107843263Y-87504189D01*
X107919688Y-87688695D01*
X108060903Y-87829910D01*
X108245409Y-87906335D01*
X108445117Y-87906335D01*
X108629623Y-87829910D01*
X108770838Y-87688695D01*
X108836511Y-87530146D01*
X112274000Y-87530146D01*
X112274000Y-87729854D01*
X112350425Y-87914360D01*
X112491640Y-88055575D01*
X112676146Y-88132000D01*
X112875854Y-88132000D01*
X113060360Y-88055575D01*
X113201575Y-87914360D01*
X113278000Y-87729854D01*
X113278000Y-87530146D01*
X113201575Y-87345640D01*
X113060360Y-87204425D01*
X112875854Y-87128000D01*
X112676146Y-87128000D01*
X112491640Y-87204425D01*
X112350425Y-87345640D01*
X112274000Y-87530146D01*
X108836511Y-87530146D01*
X108847263Y-87504189D01*
X108847263Y-87304481D01*
X108786912Y-87158780D01*
X108843875Y-87135185D01*
X108985090Y-86993970D01*
X109053447Y-86828941D01*
X114571259Y-86828941D01*
X114571259Y-87028649D01*
X114647684Y-87213155D01*
X114788899Y-87354370D01*
X114829110Y-87371026D01*
X114763200Y-87530146D01*
X114763200Y-87729854D01*
X114839625Y-87914360D01*
X114980840Y-88055575D01*
X115165346Y-88132000D01*
X115365054Y-88132000D01*
X115549560Y-88055575D01*
X115690775Y-87914360D01*
X115723669Y-87834946D01*
X118776400Y-87834946D01*
X118776400Y-88034654D01*
X118852825Y-88219160D01*
X118994040Y-88360375D01*
X119178546Y-88436800D01*
X119378254Y-88436800D01*
X119562760Y-88360375D01*
X119703975Y-88219160D01*
X119780400Y-88034654D01*
X119780400Y-87834946D01*
X119703975Y-87650440D01*
X119562760Y-87509225D01*
X119378254Y-87432800D01*
X119178546Y-87432800D01*
X118994040Y-87509225D01*
X118852825Y-87650440D01*
X118776400Y-87834946D01*
X115723669Y-87834946D01*
X115767200Y-87729854D01*
X115767200Y-87530146D01*
X115690775Y-87345640D01*
X115549560Y-87204425D01*
X115509349Y-87187769D01*
X115575259Y-87028649D01*
X115575259Y-86828941D01*
X115498834Y-86644435D01*
X115357619Y-86503220D01*
X115173113Y-86426795D01*
X114973405Y-86426795D01*
X114788899Y-86503220D01*
X114647684Y-86644435D01*
X114571259Y-86828941D01*
X109053447Y-86828941D01*
X109061515Y-86809464D01*
X109061515Y-86609756D01*
X109016222Y-86500410D01*
X109173444Y-86500410D01*
X109357950Y-86423985D01*
X109499165Y-86282770D01*
X109575590Y-86098264D01*
X109575590Y-85898556D01*
X109499165Y-85714050D01*
X109357950Y-85572835D01*
X109300277Y-85548946D01*
X112020000Y-85548946D01*
X112020000Y-85748654D01*
X112096425Y-85933160D01*
X112237640Y-86074375D01*
X112422146Y-86150800D01*
X112621854Y-86150800D01*
X112806360Y-86074375D01*
X112947575Y-85933160D01*
X112959168Y-85905171D01*
X115067375Y-85905171D01*
X115067375Y-86104879D01*
X115143800Y-86289385D01*
X115285015Y-86430600D01*
X115469521Y-86507025D01*
X115669229Y-86507025D01*
X115853735Y-86430600D01*
X115994950Y-86289385D01*
X116071375Y-86104879D01*
X116071375Y-85955346D01*
X119182800Y-85955346D01*
X119182800Y-86155054D01*
X119259225Y-86339560D01*
X119400440Y-86480775D01*
X119584946Y-86557200D01*
X119784654Y-86557200D01*
X119969160Y-86480775D01*
X120110375Y-86339560D01*
X120186800Y-86155054D01*
X120186800Y-85955346D01*
X120110375Y-85770840D01*
X119969160Y-85629625D01*
X119784654Y-85553200D01*
X119584946Y-85553200D01*
X119400440Y-85629625D01*
X119259225Y-85770840D01*
X119182800Y-85955346D01*
X116071375Y-85955346D01*
X116071375Y-85905171D01*
X115994950Y-85720665D01*
X115853735Y-85579450D01*
X115669229Y-85503025D01*
X115469521Y-85503025D01*
X115285015Y-85579450D01*
X115143800Y-85720665D01*
X115067375Y-85905171D01*
X112959168Y-85905171D01*
X113024000Y-85748654D01*
X113024000Y-85548946D01*
X112947575Y-85364440D01*
X112806360Y-85223225D01*
X112621854Y-85146800D01*
X112422146Y-85146800D01*
X112237640Y-85223225D01*
X112096425Y-85364440D01*
X112020000Y-85548946D01*
X109300277Y-85548946D01*
X109173444Y-85496410D01*
X108973736Y-85496410D01*
X108789230Y-85572835D01*
X108648015Y-85714050D01*
X108571590Y-85898556D01*
X108571590Y-86098264D01*
X108616883Y-86207610D01*
X108459661Y-86207610D01*
X108275155Y-86284035D01*
X108133940Y-86425250D01*
X108057515Y-86609756D01*
X108057515Y-86809464D01*
X108117866Y-86955165D01*
X108060903Y-86978760D01*
X107919688Y-87119975D01*
X107843263Y-87304481D01*
X90552060Y-87304481D01*
X90444837Y-87260068D01*
X90245129Y-87260068D01*
X90060623Y-87336493D01*
X89919408Y-87477708D01*
X89842983Y-87662214D01*
X88984135Y-87662214D01*
X88947810Y-87625889D01*
X88763304Y-87549464D01*
X88563596Y-87549464D01*
X88379090Y-87625889D01*
X88294435Y-87710544D01*
X88332000Y-87619854D01*
X88332000Y-87420146D01*
X88255575Y-87235640D01*
X88114360Y-87094425D01*
X87929854Y-87018000D01*
X87730146Y-87018000D01*
X87545640Y-87094425D01*
X87404425Y-87235640D01*
X87328000Y-87420146D01*
X84777000Y-87420146D01*
X84777000Y-85950146D01*
X94308000Y-85950146D01*
X94308000Y-86149854D01*
X94384425Y-86334360D01*
X94525640Y-86475575D01*
X94569926Y-86493919D01*
X94500827Y-86660737D01*
X94500827Y-86860445D01*
X94577252Y-87044951D01*
X94718467Y-87186166D01*
X94902973Y-87262591D01*
X95102681Y-87262591D01*
X95287187Y-87186166D01*
X95428402Y-87044951D01*
X95504827Y-86860445D01*
X95504827Y-86660737D01*
X95428402Y-86476231D01*
X95287187Y-86335016D01*
X95242901Y-86316672D01*
X95312000Y-86149854D01*
X95312000Y-85969721D01*
X95391487Y-85969721D01*
X95391487Y-86169429D01*
X95467912Y-86353935D01*
X95609127Y-86495150D01*
X95793633Y-86571575D01*
X95993341Y-86571575D01*
X96177847Y-86495150D01*
X96319062Y-86353935D01*
X96395487Y-86169429D01*
X96395487Y-85969721D01*
X96319062Y-85785215D01*
X96177847Y-85644000D01*
X95993341Y-85567575D01*
X95793633Y-85567575D01*
X95609127Y-85644000D01*
X95467912Y-85785215D01*
X95391487Y-85969721D01*
X95312000Y-85969721D01*
X95312000Y-85950146D01*
X95235575Y-85765640D01*
X95094360Y-85624425D01*
X94909854Y-85548000D01*
X94710146Y-85548000D01*
X94525640Y-85624425D01*
X94384425Y-85765640D01*
X94308000Y-85950146D01*
X84777000Y-85950146D01*
X84777000Y-84860169D01*
X87117988Y-84860169D01*
X87117988Y-85059877D01*
X87194413Y-85244383D01*
X87335628Y-85385598D01*
X87520134Y-85462023D01*
X87719842Y-85462023D01*
X87904348Y-85385598D01*
X88045563Y-85244383D01*
X88121988Y-85059877D01*
X88121988Y-84860169D01*
X88101351Y-84810347D01*
X88252885Y-84747580D01*
X88283124Y-84717341D01*
X88405336Y-84839553D01*
X88589842Y-84915978D01*
X88789550Y-84915978D01*
X88974056Y-84839553D01*
X89115271Y-84698338D01*
X89191696Y-84513832D01*
X89191696Y-84485820D01*
X89375647Y-84485820D01*
X89395673Y-84477525D01*
X89467828Y-84651722D01*
X89609043Y-84792937D01*
X89793549Y-84869362D01*
X89993257Y-84869362D01*
X90177763Y-84792937D01*
X90318978Y-84651722D01*
X90361038Y-84550178D01*
X96618032Y-84550178D01*
X96618032Y-84749886D01*
X96694457Y-84934392D01*
X96835672Y-85075607D01*
X97020178Y-85152032D01*
X97219886Y-85152032D01*
X97404392Y-85075607D01*
X97545607Y-84934392D01*
X97622032Y-84749886D01*
X97622032Y-84550178D01*
X97614895Y-84532946D01*
X105788621Y-84532946D01*
X105788621Y-84732654D01*
X105865046Y-84917160D01*
X106006261Y-85058375D01*
X106190767Y-85134800D01*
X106390475Y-85134800D01*
X106574981Y-85058375D01*
X106716196Y-84917160D01*
X106792621Y-84732654D01*
X106792621Y-84532946D01*
X106729495Y-84380546D01*
X118928800Y-84380546D01*
X118928800Y-84580254D01*
X119005225Y-84764760D01*
X119146440Y-84905975D01*
X119330946Y-84982400D01*
X119530654Y-84982400D01*
X119715160Y-84905975D01*
X119856375Y-84764760D01*
X119932800Y-84580254D01*
X119932800Y-84380546D01*
X119856375Y-84196040D01*
X119715160Y-84054825D01*
X119530654Y-83978400D01*
X119330946Y-83978400D01*
X119146440Y-84054825D01*
X119005225Y-84196040D01*
X118928800Y-84380546D01*
X106729495Y-84380546D01*
X106716196Y-84348440D01*
X106574981Y-84207225D01*
X106390475Y-84130800D01*
X106190767Y-84130800D01*
X106006261Y-84207225D01*
X105865046Y-84348440D01*
X105788621Y-84532946D01*
X97614895Y-84532946D01*
X97545607Y-84365672D01*
X97404392Y-84224457D01*
X97219886Y-84148032D01*
X97020178Y-84148032D01*
X96835672Y-84224457D01*
X96694457Y-84365672D01*
X96618032Y-84550178D01*
X90361038Y-84550178D01*
X90395403Y-84467216D01*
X90395403Y-84267508D01*
X90318978Y-84083002D01*
X90177763Y-83941787D01*
X89993257Y-83865362D01*
X89793549Y-83865362D01*
X89773523Y-83873657D01*
X89701368Y-83699460D01*
X89560153Y-83558245D01*
X89377697Y-83482669D01*
X89412000Y-83399854D01*
X89412000Y-83200146D01*
X89353122Y-83058001D01*
X97151364Y-83058001D01*
X97151364Y-83257709D01*
X97227789Y-83442215D01*
X97369004Y-83583430D01*
X97553510Y-83659855D01*
X97753218Y-83659855D01*
X97937724Y-83583430D01*
X98003583Y-83517571D01*
X104399375Y-83517571D01*
X104399375Y-83717279D01*
X104475800Y-83901785D01*
X104617015Y-84043000D01*
X104801521Y-84119425D01*
X105001229Y-84119425D01*
X105185735Y-84043000D01*
X105326950Y-83901785D01*
X105403375Y-83717279D01*
X105403375Y-83517571D01*
X105378045Y-83456418D01*
X120908000Y-83456418D01*
X120908000Y-83755582D01*
X121022485Y-84031974D01*
X121234026Y-84243515D01*
X121510418Y-84358000D01*
X121809582Y-84358000D01*
X122085974Y-84243515D01*
X122297515Y-84031974D01*
X122412000Y-83755582D01*
X122412000Y-83456418D01*
X122297515Y-83180026D01*
X122085974Y-82968485D01*
X121809582Y-82854000D01*
X121510418Y-82854000D01*
X121234026Y-82968485D01*
X121022485Y-83180026D01*
X120908000Y-83456418D01*
X105378045Y-83456418D01*
X105326950Y-83333065D01*
X105185735Y-83191850D01*
X105001229Y-83115425D01*
X104801521Y-83115425D01*
X104617015Y-83191850D01*
X104475800Y-83333065D01*
X104399375Y-83517571D01*
X98003583Y-83517571D01*
X98078939Y-83442215D01*
X98155364Y-83257709D01*
X98155364Y-83058001D01*
X98078939Y-82873495D01*
X97937724Y-82732280D01*
X97753218Y-82655855D01*
X97553510Y-82655855D01*
X97369004Y-82732280D01*
X97227789Y-82873495D01*
X97151364Y-83058001D01*
X89353122Y-83058001D01*
X89335575Y-83015640D01*
X89194360Y-82874425D01*
X89009854Y-82798000D01*
X88810146Y-82798000D01*
X88625640Y-82874425D01*
X88484425Y-83015640D01*
X88408000Y-83200146D01*
X88408000Y-83399854D01*
X88484425Y-83584360D01*
X88625640Y-83725575D01*
X88808096Y-83801151D01*
X88773793Y-83883966D01*
X88773793Y-83911978D01*
X88589842Y-83911978D01*
X88405336Y-83988403D01*
X88375097Y-84018642D01*
X88252885Y-83896430D01*
X88068379Y-83820005D01*
X87868671Y-83820005D01*
X87684165Y-83896430D01*
X87542950Y-84037645D01*
X87466525Y-84222151D01*
X87466525Y-84421859D01*
X87487162Y-84471681D01*
X87335628Y-84534448D01*
X87194413Y-84675663D01*
X87117988Y-84860169D01*
X84777000Y-84860169D01*
X84777000Y-83480146D01*
X84858000Y-83480146D01*
X84858000Y-83679854D01*
X84934425Y-83864360D01*
X85075640Y-84005575D01*
X85260146Y-84082000D01*
X85459854Y-84082000D01*
X85644360Y-84005575D01*
X85785575Y-83864360D01*
X85862000Y-83679854D01*
X85862000Y-83480146D01*
X85785575Y-83295640D01*
X85644360Y-83154425D01*
X85459854Y-83078000D01*
X85260146Y-83078000D01*
X85075640Y-83154425D01*
X84934425Y-83295640D01*
X84858000Y-83480146D01*
X84777000Y-83480146D01*
X84777000Y-81972721D01*
X84771678Y-81945965D01*
X84771678Y-81945961D01*
X84748642Y-81830146D01*
X86788000Y-81830146D01*
X86788000Y-82029854D01*
X86864425Y-82214360D01*
X87005640Y-82355575D01*
X87190146Y-82432000D01*
X87389854Y-82432000D01*
X87574360Y-82355575D01*
X87715000Y-82214935D01*
X87805640Y-82305575D01*
X87990146Y-82382000D01*
X88189854Y-82382000D01*
X88234610Y-82363461D01*
X88302089Y-82526370D01*
X88443304Y-82667585D01*
X88627810Y-82744010D01*
X88827518Y-82744010D01*
X89012024Y-82667585D01*
X89153239Y-82526370D01*
X89229664Y-82341864D01*
X89229664Y-82210146D01*
X99348000Y-82210146D01*
X99348000Y-82409854D01*
X99424425Y-82594360D01*
X99565640Y-82735575D01*
X99750146Y-82812000D01*
X99949854Y-82812000D01*
X100134360Y-82735575D01*
X100275575Y-82594360D01*
X100352000Y-82409854D01*
X100352000Y-82399346D01*
X102926800Y-82399346D01*
X102926800Y-82599054D01*
X103003225Y-82783560D01*
X103144440Y-82924775D01*
X103328946Y-83001200D01*
X103528654Y-83001200D01*
X103713160Y-82924775D01*
X103854375Y-82783560D01*
X103930800Y-82599054D01*
X103930800Y-82506936D01*
X105873200Y-82506936D01*
X105873200Y-82706644D01*
X105949625Y-82891150D01*
X106090840Y-83032365D01*
X106275346Y-83108790D01*
X106475054Y-83108790D01*
X106659560Y-83032365D01*
X106800775Y-82891150D01*
X106877200Y-82706644D01*
X106877200Y-82644335D01*
X106954440Y-82721575D01*
X107138946Y-82798000D01*
X107338654Y-82798000D01*
X107523160Y-82721575D01*
X107664375Y-82580360D01*
X107740800Y-82395854D01*
X107740800Y-82196146D01*
X107664375Y-82011640D01*
X107523160Y-81870425D01*
X107338654Y-81794000D01*
X107138946Y-81794000D01*
X106954440Y-81870425D01*
X106813225Y-82011640D01*
X106736800Y-82196146D01*
X106736800Y-82258455D01*
X106659560Y-82181215D01*
X106475054Y-82104790D01*
X106275346Y-82104790D01*
X106090840Y-82181215D01*
X105949625Y-82322430D01*
X105873200Y-82506936D01*
X103930800Y-82506936D01*
X103930800Y-82399346D01*
X103854375Y-82214840D01*
X103713160Y-82073625D01*
X103528654Y-81997200D01*
X103328946Y-81997200D01*
X103144440Y-82073625D01*
X103003225Y-82214840D01*
X102926800Y-82399346D01*
X100352000Y-82399346D01*
X100352000Y-82210146D01*
X100275575Y-82025640D01*
X100134360Y-81884425D01*
X99949854Y-81808000D01*
X99750146Y-81808000D01*
X99565640Y-81884425D01*
X99424425Y-82025640D01*
X99348000Y-82210146D01*
X89229664Y-82210146D01*
X89229664Y-82142156D01*
X89153239Y-81957650D01*
X89012024Y-81816435D01*
X88827518Y-81740010D01*
X88627810Y-81740010D01*
X88583054Y-81758549D01*
X88515575Y-81595640D01*
X88374360Y-81454425D01*
X88189854Y-81378000D01*
X87990146Y-81378000D01*
X87805640Y-81454425D01*
X87665000Y-81595065D01*
X87574360Y-81504425D01*
X87389854Y-81428000D01*
X87190146Y-81428000D01*
X87005640Y-81504425D01*
X86864425Y-81645640D01*
X86788000Y-81830146D01*
X84748642Y-81830146D01*
X84733618Y-81754618D01*
X84692258Y-81654766D01*
X84692256Y-81654764D01*
X84583872Y-81492558D01*
X84583871Y-81492555D01*
X84507445Y-81416129D01*
X84507442Y-81416128D01*
X84378763Y-81330146D01*
X97298000Y-81330146D01*
X97298000Y-81529854D01*
X97374425Y-81714360D01*
X97515640Y-81855575D01*
X97700146Y-81932000D01*
X97899854Y-81932000D01*
X98084360Y-81855575D01*
X98225575Y-81714360D01*
X98302000Y-81529854D01*
X98302000Y-81330146D01*
X98225575Y-81145640D01*
X98084360Y-81004425D01*
X97899854Y-80928000D01*
X97700146Y-80928000D01*
X97515640Y-81004425D01*
X97374425Y-81145640D01*
X97298000Y-81330146D01*
X84378763Y-81330146D01*
X84345239Y-81307746D01*
X84345235Y-81307742D01*
X84245382Y-81266382D01*
X84054040Y-81228322D01*
X83945959Y-81228322D01*
X83754618Y-81266382D01*
X83654766Y-81307742D01*
X83654764Y-81307744D01*
X83492558Y-81416128D01*
X83492555Y-81416129D01*
X83416129Y-81492555D01*
X83416128Y-81492558D01*
X83307746Y-81654761D01*
X83307742Y-81654765D01*
X83266382Y-81754618D01*
X83228322Y-81945960D01*
X83228322Y-81945966D01*
X83223000Y-81972722D01*
X83223000Y-86499009D01*
X83099854Y-86448000D01*
X82950400Y-86448000D01*
X82950400Y-86412546D01*
X82873975Y-86228040D01*
X82732760Y-86086825D01*
X82548254Y-86010400D01*
X82348546Y-86010400D01*
X82164040Y-86086825D01*
X82022825Y-86228040D01*
X81946400Y-86412546D01*
X80004000Y-86412546D01*
X80004000Y-86260146D01*
X79927575Y-86075640D01*
X79786360Y-85934425D01*
X79601854Y-85858000D01*
X79402146Y-85858000D01*
X79217640Y-85934425D01*
X79076425Y-86075640D01*
X79000000Y-86260146D01*
X79000000Y-86459854D01*
X79031874Y-86536804D01*
X79014440Y-86544025D01*
X78873225Y-86685240D01*
X78796800Y-86869746D01*
X78277000Y-86869746D01*
X78277000Y-82297746D01*
X81895600Y-82297746D01*
X81895600Y-82497454D01*
X81972025Y-82681960D01*
X82113240Y-82823175D01*
X82297746Y-82899600D01*
X82497454Y-82899600D01*
X82681960Y-82823175D01*
X82823175Y-82681960D01*
X82899600Y-82497454D01*
X82899600Y-82297746D01*
X82823175Y-82113240D01*
X82681960Y-81972025D01*
X82497454Y-81895600D01*
X82297746Y-81895600D01*
X82113240Y-81972025D01*
X81972025Y-82113240D01*
X81895600Y-82297746D01*
X78277000Y-82297746D01*
X78277000Y-81688146D01*
X79254000Y-81688146D01*
X79254000Y-81887854D01*
X79330425Y-82072360D01*
X79471640Y-82213575D01*
X79656146Y-82290000D01*
X79855854Y-82290000D01*
X80040360Y-82213575D01*
X80181575Y-82072360D01*
X80258000Y-81887854D01*
X80258000Y-81688146D01*
X80181575Y-81503640D01*
X80040360Y-81362425D01*
X79855854Y-81286000D01*
X79656146Y-81286000D01*
X79471640Y-81362425D01*
X79330425Y-81503640D01*
X79254000Y-81688146D01*
X78277000Y-81688146D01*
X78277000Y-80367346D01*
X79203200Y-80367346D01*
X79203200Y-80567054D01*
X79279625Y-80751560D01*
X79420840Y-80892775D01*
X79605346Y-80969200D01*
X79805054Y-80969200D01*
X79989560Y-80892775D01*
X80130775Y-80751560D01*
X80207200Y-80567054D01*
X80207200Y-80367346D01*
X80144074Y-80214946D01*
X84689600Y-80214946D01*
X84689600Y-80414654D01*
X84766025Y-80599160D01*
X84907240Y-80740375D01*
X85091746Y-80816800D01*
X85291454Y-80816800D01*
X85413379Y-80766297D01*
X85470404Y-80903968D01*
X85611619Y-81045183D01*
X85796125Y-81121608D01*
X85995833Y-81121608D01*
X86180339Y-81045183D01*
X86321554Y-80903968D01*
X86397979Y-80719462D01*
X86397979Y-80519754D01*
X86376934Y-80468946D01*
X87128000Y-80468946D01*
X87128000Y-80668654D01*
X87204425Y-80853160D01*
X87345640Y-80994375D01*
X87530146Y-81070800D01*
X87729854Y-81070800D01*
X87914360Y-80994375D01*
X87934800Y-80973935D01*
X88006040Y-81045175D01*
X88190546Y-81121600D01*
X88390254Y-81121600D01*
X88574760Y-81045175D01*
X88715975Y-80903960D01*
X88792400Y-80719454D01*
X88792400Y-80519746D01*
X88785049Y-80502000D01*
X88799854Y-80502000D01*
X88832001Y-80488684D01*
X96686547Y-80488684D01*
X96686547Y-80688392D01*
X96762972Y-80872898D01*
X96904187Y-81014113D01*
X97088693Y-81090538D01*
X97288401Y-81090538D01*
X97472907Y-81014113D01*
X97614122Y-80872898D01*
X97690547Y-80688392D01*
X97690547Y-80488684D01*
X97685414Y-80476290D01*
X98142655Y-80476290D01*
X98142655Y-80675998D01*
X98219080Y-80860504D01*
X98360295Y-81001719D01*
X98544801Y-81078144D01*
X98744509Y-81078144D01*
X98929015Y-81001719D01*
X98943074Y-80987660D01*
X100311542Y-80987660D01*
X100311542Y-81187368D01*
X100387967Y-81371874D01*
X100529182Y-81513089D01*
X100713688Y-81589514D01*
X100913396Y-81589514D01*
X101097902Y-81513089D01*
X101239117Y-81371874D01*
X101315542Y-81187368D01*
X101315542Y-80987660D01*
X101239117Y-80803154D01*
X101108109Y-80672146D01*
X101555200Y-80672146D01*
X101555200Y-80871854D01*
X101631625Y-81056360D01*
X101772840Y-81197575D01*
X101957346Y-81274000D01*
X102157054Y-81274000D01*
X102341560Y-81197575D01*
X102482775Y-81056360D01*
X102559200Y-80871854D01*
X102559200Y-80672146D01*
X102482775Y-80487640D01*
X102341560Y-80346425D01*
X102157054Y-80270000D01*
X101957346Y-80270000D01*
X101772840Y-80346425D01*
X101631625Y-80487640D01*
X101555200Y-80672146D01*
X101108109Y-80672146D01*
X101097902Y-80661939D01*
X100913396Y-80585514D01*
X100713688Y-80585514D01*
X100529182Y-80661939D01*
X100387967Y-80803154D01*
X100311542Y-80987660D01*
X98943074Y-80987660D01*
X99070230Y-80860504D01*
X99146655Y-80675998D01*
X99146655Y-80476290D01*
X99070230Y-80291784D01*
X99050589Y-80272143D01*
X99180775Y-80141956D01*
X99257200Y-79957450D01*
X99257200Y-79757742D01*
X99211825Y-79648197D01*
X101004349Y-79648197D01*
X101004349Y-79847905D01*
X101080774Y-80032411D01*
X101221989Y-80173626D01*
X101406495Y-80250051D01*
X101606203Y-80250051D01*
X101790709Y-80173626D01*
X101931924Y-80032411D01*
X102008349Y-79847905D01*
X102008349Y-79648197D01*
X101931924Y-79463691D01*
X101790709Y-79322476D01*
X101606203Y-79246051D01*
X101406495Y-79246051D01*
X101221989Y-79322476D01*
X101080774Y-79463691D01*
X101004349Y-79648197D01*
X99211825Y-79648197D01*
X99180775Y-79573236D01*
X99039560Y-79432021D01*
X98855054Y-79355596D01*
X98655346Y-79355596D01*
X98470840Y-79432021D01*
X98329625Y-79573236D01*
X98253200Y-79757742D01*
X98253200Y-79957450D01*
X98329625Y-80141956D01*
X98349267Y-80161598D01*
X98219080Y-80291784D01*
X98142655Y-80476290D01*
X97685414Y-80476290D01*
X97614122Y-80304178D01*
X97472907Y-80162963D01*
X97288401Y-80086538D01*
X97088693Y-80086538D01*
X96904187Y-80162963D01*
X96762972Y-80304178D01*
X96686547Y-80488684D01*
X88832001Y-80488684D01*
X88984360Y-80425575D01*
X89125575Y-80284360D01*
X89202000Y-80099854D01*
X89202000Y-79900146D01*
X89125575Y-79715640D01*
X88984360Y-79574425D01*
X88799854Y-79498000D01*
X88600146Y-79498000D01*
X88415640Y-79574425D01*
X88274425Y-79715640D01*
X88198000Y-79900146D01*
X88198000Y-80099854D01*
X88205351Y-80117600D01*
X88190546Y-80117600D01*
X88006040Y-80194025D01*
X87985600Y-80214465D01*
X87914360Y-80143225D01*
X87729854Y-80066800D01*
X87530146Y-80066800D01*
X87345640Y-80143225D01*
X87204425Y-80284440D01*
X87128000Y-80468946D01*
X86376934Y-80468946D01*
X86321554Y-80335248D01*
X86180339Y-80194033D01*
X85995833Y-80117608D01*
X85796125Y-80117608D01*
X85674200Y-80168111D01*
X85617175Y-80030440D01*
X85475960Y-79889225D01*
X85291454Y-79812800D01*
X85091746Y-79812800D01*
X84907240Y-79889225D01*
X84766025Y-80030440D01*
X84689600Y-80214946D01*
X80144074Y-80214946D01*
X80130775Y-80182840D01*
X79989560Y-80041625D01*
X79805054Y-79965200D01*
X79605346Y-79965200D01*
X79420840Y-80041625D01*
X79279625Y-80182840D01*
X79203200Y-80367346D01*
X78277000Y-80367346D01*
X78277000Y-78753731D01*
X98158456Y-78753731D01*
X98158456Y-78953439D01*
X98234881Y-79137945D01*
X98376096Y-79279160D01*
X98560602Y-79355585D01*
X98760310Y-79355585D01*
X98944816Y-79279160D01*
X99025030Y-79198946D01*
X107956000Y-79198946D01*
X107956000Y-79398654D01*
X108032425Y-79583160D01*
X108173640Y-79724375D01*
X108358146Y-79800800D01*
X108557854Y-79800800D01*
X108565600Y-79797591D01*
X108565600Y-79957454D01*
X108642025Y-80141960D01*
X108783240Y-80283175D01*
X108967746Y-80359600D01*
X109167454Y-80359600D01*
X109351960Y-80283175D01*
X109493175Y-80141960D01*
X109569600Y-79957454D01*
X109569600Y-79797591D01*
X109577346Y-79800800D01*
X109777054Y-79800800D01*
X109961560Y-79724375D01*
X110102775Y-79583160D01*
X110179200Y-79398654D01*
X110179200Y-79198946D01*
X110102775Y-79014440D01*
X109961560Y-78873225D01*
X109777054Y-78796800D01*
X109577346Y-78796800D01*
X109392840Y-78873225D01*
X109251625Y-79014440D01*
X109175200Y-79198946D01*
X109175200Y-79358809D01*
X109167454Y-79355600D01*
X108967746Y-79355600D01*
X108960000Y-79358809D01*
X108960000Y-79198946D01*
X108883575Y-79014440D01*
X108742360Y-78873225D01*
X108557854Y-78796800D01*
X108358146Y-78796800D01*
X108173640Y-78873225D01*
X108032425Y-79014440D01*
X107956000Y-79198946D01*
X99025030Y-79198946D01*
X99086031Y-79137945D01*
X99124045Y-79046170D01*
X99182040Y-79104165D01*
X99366546Y-79180590D01*
X99566254Y-79180590D01*
X99750760Y-79104165D01*
X99891975Y-78962950D01*
X99968400Y-78778444D01*
X99968400Y-78578736D01*
X99929988Y-78486000D01*
X119863400Y-78486000D01*
X119924068Y-78790999D01*
X120096836Y-79049564D01*
X120355401Y-79222332D01*
X120660400Y-79283000D01*
X120965399Y-79222332D01*
X121223964Y-79049564D01*
X121396732Y-78790999D01*
X121457400Y-78486000D01*
X122403400Y-78486000D01*
X122464068Y-78790999D01*
X122636836Y-79049564D01*
X122895401Y-79222332D01*
X123200400Y-79283000D01*
X123505399Y-79222332D01*
X123763964Y-79049564D01*
X123936732Y-78790999D01*
X123997400Y-78486000D01*
X123936732Y-78181001D01*
X123763964Y-77922436D01*
X123505399Y-77749668D01*
X123200400Y-77689000D01*
X122895401Y-77749668D01*
X122636836Y-77922436D01*
X122464068Y-78181001D01*
X122403400Y-78486000D01*
X121457400Y-78486000D01*
X121396732Y-78181001D01*
X121223964Y-77922436D01*
X120965399Y-77749668D01*
X120660400Y-77689000D01*
X120355401Y-77749668D01*
X120096836Y-77922436D01*
X119924068Y-78181001D01*
X119863400Y-78486000D01*
X99929988Y-78486000D01*
X99891975Y-78394230D01*
X99750760Y-78253015D01*
X99566254Y-78176590D01*
X99366546Y-78176590D01*
X99182040Y-78253015D01*
X99040825Y-78394230D01*
X99002811Y-78486005D01*
X98944816Y-78428010D01*
X98760310Y-78351585D01*
X98560602Y-78351585D01*
X98376096Y-78428010D01*
X98234881Y-78569225D01*
X98158456Y-78753731D01*
X78277000Y-78753731D01*
X78277000Y-77024038D01*
X88158092Y-77024038D01*
X88158092Y-77223746D01*
X88234517Y-77408252D01*
X88375732Y-77549467D01*
X88560238Y-77625892D01*
X88759946Y-77625892D01*
X88944452Y-77549467D01*
X89003773Y-77490146D01*
X90948000Y-77490146D01*
X90948000Y-77689854D01*
X91024425Y-77874360D01*
X91165640Y-78015575D01*
X91350146Y-78092000D01*
X91549854Y-78092000D01*
X91734360Y-78015575D01*
X91773394Y-77976541D01*
X96586835Y-77976541D01*
X96586835Y-78176249D01*
X96663260Y-78360755D01*
X96804475Y-78501970D01*
X96988981Y-78578395D01*
X97188689Y-78578395D01*
X97373195Y-78501970D01*
X97514410Y-78360755D01*
X97590835Y-78176249D01*
X97590835Y-77976541D01*
X97514410Y-77792035D01*
X97373195Y-77650820D01*
X97188689Y-77574395D01*
X96988981Y-77574395D01*
X96804475Y-77650820D01*
X96663260Y-77792035D01*
X96586835Y-77976541D01*
X91773394Y-77976541D01*
X91875575Y-77874360D01*
X91952000Y-77689854D01*
X91952000Y-77490146D01*
X91875575Y-77305640D01*
X91734360Y-77164425D01*
X91549854Y-77088000D01*
X91350146Y-77088000D01*
X91165640Y-77164425D01*
X91024425Y-77305640D01*
X90948000Y-77490146D01*
X89003773Y-77490146D01*
X89085667Y-77408252D01*
X89162092Y-77223746D01*
X89162092Y-77024038D01*
X89085667Y-76839532D01*
X89016281Y-76770146D01*
X91728000Y-76770146D01*
X91728000Y-76969854D01*
X91804425Y-77154360D01*
X91945640Y-77295575D01*
X92130146Y-77372000D01*
X92329854Y-77372000D01*
X92514360Y-77295575D01*
X92655575Y-77154360D01*
X92732000Y-76969854D01*
X92732000Y-76920967D01*
X93212485Y-76920967D01*
X93212485Y-77120675D01*
X93288910Y-77305181D01*
X93430125Y-77446396D01*
X93614631Y-77522821D01*
X93814339Y-77522821D01*
X93998845Y-77446396D01*
X94140060Y-77305181D01*
X94200765Y-77158626D01*
X95945570Y-77158626D01*
X95945570Y-77358334D01*
X96021995Y-77542840D01*
X96163210Y-77684055D01*
X96347716Y-77760480D01*
X96547424Y-77760480D01*
X96731930Y-77684055D01*
X96873145Y-77542840D01*
X96891277Y-77499066D01*
X97073110Y-77574384D01*
X97272818Y-77574384D01*
X97457324Y-77497959D01*
X97598539Y-77356744D01*
X97635071Y-77268546D01*
X124110400Y-77268546D01*
X124110400Y-77468254D01*
X124186825Y-77652760D01*
X124328040Y-77793975D01*
X124512546Y-77870400D01*
X124712254Y-77870400D01*
X124896760Y-77793975D01*
X125037975Y-77652760D01*
X125114400Y-77468254D01*
X125114400Y-77268546D01*
X125037975Y-77084040D01*
X124896760Y-76942825D01*
X124712254Y-76866400D01*
X124512546Y-76866400D01*
X124328040Y-76942825D01*
X124186825Y-77084040D01*
X124110400Y-77268546D01*
X97635071Y-77268546D01*
X97674964Y-77172238D01*
X97674964Y-76972530D01*
X97598539Y-76788024D01*
X97457324Y-76646809D01*
X97272818Y-76570384D01*
X97073110Y-76570384D01*
X96888604Y-76646809D01*
X96747389Y-76788024D01*
X96729257Y-76831798D01*
X96547424Y-76756480D01*
X96347716Y-76756480D01*
X96163210Y-76832905D01*
X96021995Y-76974120D01*
X95945570Y-77158626D01*
X94200765Y-77158626D01*
X94216485Y-77120675D01*
X94216485Y-76920967D01*
X94140060Y-76736461D01*
X93998845Y-76595246D01*
X93814339Y-76518821D01*
X93614631Y-76518821D01*
X93430125Y-76595246D01*
X93288910Y-76736461D01*
X93212485Y-76920967D01*
X92732000Y-76920967D01*
X92732000Y-76770146D01*
X92655575Y-76585640D01*
X92514360Y-76444425D01*
X92329854Y-76368000D01*
X92130146Y-76368000D01*
X91945640Y-76444425D01*
X91804425Y-76585640D01*
X91728000Y-76770146D01*
X89016281Y-76770146D01*
X88944452Y-76698317D01*
X88759946Y-76621892D01*
X88560238Y-76621892D01*
X88375732Y-76698317D01*
X88234517Y-76839532D01*
X88158092Y-77024038D01*
X78277000Y-77024038D01*
X78277000Y-75134946D01*
X79406400Y-75134946D01*
X79406400Y-75334654D01*
X79482825Y-75519160D01*
X79624040Y-75660375D01*
X79808546Y-75736800D01*
X80008254Y-75736800D01*
X80192760Y-75660375D01*
X80333975Y-75519160D01*
X80410400Y-75334654D01*
X80410400Y-75134946D01*
X80333975Y-74950440D01*
X80192760Y-74809225D01*
X80008254Y-74732800D01*
X79808546Y-74732800D01*
X79624040Y-74809225D01*
X79482825Y-74950440D01*
X79406400Y-75134946D01*
X78277000Y-75134946D01*
X78277000Y-74423746D01*
X84486400Y-74423746D01*
X84486400Y-74623454D01*
X84562825Y-74807960D01*
X84704040Y-74949175D01*
X84888546Y-75025600D01*
X85088254Y-75025600D01*
X85272760Y-74949175D01*
X85290189Y-74931746D01*
X86512410Y-74931746D01*
X86512410Y-75131454D01*
X86588835Y-75315960D01*
X86730050Y-75457175D01*
X86914556Y-75533600D01*
X87114264Y-75533600D01*
X87298770Y-75457175D01*
X87439985Y-75315960D01*
X87475530Y-75230146D01*
X93868000Y-75230146D01*
X93868000Y-75429854D01*
X93944425Y-75614360D01*
X94085640Y-75755575D01*
X94270146Y-75832000D01*
X94469854Y-75832000D01*
X94654360Y-75755575D01*
X94795575Y-75614360D01*
X94796487Y-75612156D01*
X95368000Y-75612156D01*
X95368000Y-75811864D01*
X95444425Y-75996370D01*
X95585640Y-76137585D01*
X95770146Y-76214010D01*
X95969854Y-76214010D01*
X96154360Y-76137585D01*
X96295575Y-75996370D01*
X96372000Y-75811864D01*
X96372000Y-75612156D01*
X96295575Y-75427650D01*
X96264425Y-75396500D01*
X106435600Y-75396500D01*
X106435600Y-75946500D01*
X106557757Y-76210624D01*
X106771691Y-76407896D01*
X106877693Y-76439024D01*
X106985600Y-76416947D01*
X106985600Y-75396500D01*
X107335600Y-75396500D01*
X107335600Y-76416947D01*
X107443507Y-76439024D01*
X107549509Y-76407896D01*
X107763443Y-76210624D01*
X107885600Y-75946500D01*
X107885600Y-75396500D01*
X115075600Y-75396500D01*
X115075600Y-75946500D01*
X115197757Y-76210624D01*
X115411691Y-76407896D01*
X115517693Y-76439024D01*
X115625600Y-76416947D01*
X115625600Y-75396500D01*
X115975600Y-75396500D01*
X115975600Y-76416947D01*
X116083507Y-76439024D01*
X116189509Y-76407896D01*
X116403443Y-76210624D01*
X116525600Y-75946500D01*
X116525600Y-75946000D01*
X119855400Y-75946000D01*
X119916068Y-76250999D01*
X120088836Y-76509564D01*
X120347401Y-76682332D01*
X120652400Y-76743000D01*
X120957399Y-76682332D01*
X121215964Y-76509564D01*
X121388732Y-76250999D01*
X121449400Y-75946000D01*
X122395400Y-75946000D01*
X122456068Y-76250999D01*
X122628836Y-76509564D01*
X122887401Y-76682332D01*
X123192400Y-76743000D01*
X123497399Y-76682332D01*
X123755964Y-76509564D01*
X123928732Y-76250999D01*
X123989400Y-75946000D01*
X123928732Y-75641001D01*
X123755964Y-75382436D01*
X123497399Y-75209668D01*
X123192400Y-75149000D01*
X122887401Y-75209668D01*
X122628836Y-75382436D01*
X122456068Y-75641001D01*
X122395400Y-75946000D01*
X121449400Y-75946000D01*
X121388732Y-75641001D01*
X121215964Y-75382436D01*
X120957399Y-75209668D01*
X120652400Y-75149000D01*
X120347401Y-75209668D01*
X120088836Y-75382436D01*
X119916068Y-75641001D01*
X119855400Y-75946000D01*
X116525600Y-75946000D01*
X116525600Y-75396500D01*
X115975600Y-75396500D01*
X115625600Y-75396500D01*
X115075600Y-75396500D01*
X107885600Y-75396500D01*
X107335600Y-75396500D01*
X106985600Y-75396500D01*
X106435600Y-75396500D01*
X96264425Y-75396500D01*
X96154360Y-75286435D01*
X95969854Y-75210010D01*
X95770146Y-75210010D01*
X95585640Y-75286435D01*
X95444425Y-75427650D01*
X95368000Y-75612156D01*
X94796487Y-75612156D01*
X94872000Y-75429854D01*
X94872000Y-75230146D01*
X94795575Y-75045640D01*
X94654360Y-74904425D01*
X94469854Y-74828000D01*
X94270146Y-74828000D01*
X94085640Y-74904425D01*
X93944425Y-75045640D01*
X93868000Y-75230146D01*
X87475530Y-75230146D01*
X87516410Y-75131454D01*
X87516410Y-74931746D01*
X87439985Y-74747240D01*
X87298770Y-74606025D01*
X87114264Y-74529600D01*
X86914556Y-74529600D01*
X86730050Y-74606025D01*
X86588835Y-74747240D01*
X86512410Y-74931746D01*
X85290189Y-74931746D01*
X85413975Y-74807960D01*
X85490400Y-74623454D01*
X85490400Y-74423746D01*
X85413975Y-74239240D01*
X85281420Y-74106685D01*
X87140261Y-74106685D01*
X87140261Y-74306393D01*
X87216686Y-74490899D01*
X87357901Y-74632114D01*
X87542407Y-74708539D01*
X87742115Y-74708539D01*
X87926621Y-74632114D01*
X88067836Y-74490899D01*
X88144261Y-74306393D01*
X88144261Y-74106685D01*
X88067836Y-73922179D01*
X87926621Y-73780964D01*
X87742115Y-73704539D01*
X87542407Y-73704539D01*
X87357901Y-73780964D01*
X87216686Y-73922179D01*
X87140261Y-74106685D01*
X85281420Y-74106685D01*
X85272760Y-74098025D01*
X85088254Y-74021600D01*
X84888546Y-74021600D01*
X84704040Y-74098025D01*
X84562825Y-74239240D01*
X84486400Y-74423746D01*
X78277000Y-74423746D01*
X78277000Y-73512332D01*
X78352727Y-72663823D01*
X78574248Y-71854080D01*
X78628176Y-71741016D01*
X80198000Y-71741016D01*
X80198000Y-72258984D01*
X80396217Y-72737524D01*
X80762476Y-73103783D01*
X81241016Y-73302000D01*
X81758984Y-73302000D01*
X82237524Y-73103783D01*
X82603783Y-72737524D01*
X82802000Y-72258984D01*
X82802000Y-71741016D01*
X82755911Y-71629746D01*
X85197600Y-71629746D01*
X85197600Y-71829454D01*
X85274025Y-72013960D01*
X85415240Y-72155175D01*
X85599746Y-72231600D01*
X85799454Y-72231600D01*
X85983960Y-72155175D01*
X86125175Y-72013960D01*
X86201600Y-71829454D01*
X86201600Y-71731346D01*
X86315200Y-71731346D01*
X86315200Y-71931054D01*
X86391625Y-72115560D01*
X86532840Y-72256775D01*
X86717346Y-72333200D01*
X86917054Y-72333200D01*
X87101560Y-72256775D01*
X87242775Y-72115560D01*
X87319200Y-71931054D01*
X87319200Y-71731346D01*
X87242775Y-71546840D01*
X87101560Y-71405625D01*
X86917054Y-71329200D01*
X86717346Y-71329200D01*
X86532840Y-71405625D01*
X86391625Y-71546840D01*
X86315200Y-71731346D01*
X86201600Y-71731346D01*
X86201600Y-71629746D01*
X86125175Y-71445240D01*
X85983960Y-71304025D01*
X85799454Y-71227600D01*
X85599746Y-71227600D01*
X85415240Y-71304025D01*
X85274025Y-71445240D01*
X85197600Y-71629746D01*
X82755911Y-71629746D01*
X82603783Y-71262476D01*
X82237524Y-70896217D01*
X81758984Y-70698000D01*
X81241016Y-70698000D01*
X80762476Y-70896217D01*
X80396217Y-71262476D01*
X80198000Y-71741016D01*
X78628176Y-71741016D01*
X78935664Y-71096357D01*
X79425545Y-70414615D01*
X80028412Y-69830396D01*
X80725211Y-69362167D01*
X81493910Y-69024732D01*
X82312340Y-68828244D01*
X83010156Y-68777000D01*
X87425000Y-68777000D01*
X87425000Y-72500000D01*
X87425000Y-72500000D01*
G37*
X87425000Y-72500000D02*
X87431036Y-72529479D01*
X87447567Y-72553626D01*
X89101567Y-74170826D01*
X89125299Y-74186491D01*
X89154000Y-74192200D01*
X95879334Y-74192200D01*
X96212967Y-74525833D01*
X96238173Y-74542447D01*
X96266943Y-74547794D01*
X97204284Y-74536002D01*
X104999625Y-74574999D01*
X105028701Y-74569291D01*
X105053033Y-74553033D01*
X105109566Y-74496500D01*
X106435600Y-74496500D01*
X106435600Y-75046500D01*
X106985600Y-75046500D01*
X106985600Y-74026053D01*
X107335600Y-74026053D01*
X107335600Y-75046500D01*
X107885600Y-75046500D01*
X107885600Y-74586673D01*
X108063600Y-74586673D01*
X108063600Y-74796327D01*
X108143831Y-74990022D01*
X108292078Y-75138269D01*
X108485773Y-75218500D01*
X108695427Y-75218500D01*
X108889122Y-75138269D01*
X109037369Y-74990022D01*
X109117600Y-74796327D01*
X109117600Y-74677746D01*
X109124400Y-74677746D01*
X109124400Y-74877454D01*
X109200825Y-75061960D01*
X109342040Y-75203175D01*
X109526546Y-75279600D01*
X109726254Y-75279600D01*
X109910760Y-75203175D01*
X110051975Y-75061960D01*
X110128400Y-74877454D01*
X110128400Y-74677746D01*
X112832800Y-74677746D01*
X112832800Y-74877454D01*
X112909225Y-75061960D01*
X113050440Y-75203175D01*
X113234946Y-75279600D01*
X113434654Y-75279600D01*
X113619160Y-75203175D01*
X113760375Y-75061960D01*
X113836800Y-74877454D01*
X113836800Y-74677746D01*
X113799077Y-74586673D01*
X113843600Y-74586673D01*
X113843600Y-74796327D01*
X113923831Y-74990022D01*
X114072078Y-75138269D01*
X114265773Y-75218500D01*
X114475427Y-75218500D01*
X114669122Y-75138269D01*
X114817369Y-74990022D01*
X114897600Y-74796327D01*
X114897600Y-74586673D01*
X114860250Y-74496500D01*
X115075600Y-74496500D01*
X115075600Y-75046500D01*
X115625600Y-75046500D01*
X115625600Y-74026053D01*
X115975600Y-74026053D01*
X115975600Y-75046500D01*
X116525600Y-75046500D01*
X116525600Y-74496500D01*
X116515447Y-74474546D01*
X117709600Y-74474546D01*
X117709600Y-74674254D01*
X117786025Y-74858760D01*
X117927240Y-74999975D01*
X118111746Y-75076400D01*
X118311454Y-75076400D01*
X118495960Y-74999975D01*
X118637175Y-74858760D01*
X118713600Y-74674254D01*
X118713600Y-74626946D01*
X124313600Y-74626946D01*
X124313600Y-74826654D01*
X124390025Y-75011160D01*
X124531240Y-75152375D01*
X124715746Y-75228800D01*
X124915454Y-75228800D01*
X125099960Y-75152375D01*
X125241175Y-75011160D01*
X125317600Y-74826654D01*
X125317600Y-74626946D01*
X125241175Y-74442440D01*
X125099960Y-74301225D01*
X124915454Y-74224800D01*
X124715746Y-74224800D01*
X124531240Y-74301225D01*
X124390025Y-74442440D01*
X124313600Y-74626946D01*
X118713600Y-74626946D01*
X118713600Y-74474546D01*
X118637175Y-74290040D01*
X118495960Y-74148825D01*
X118311454Y-74072400D01*
X118111746Y-74072400D01*
X117927240Y-74148825D01*
X117786025Y-74290040D01*
X117709600Y-74474546D01*
X116515447Y-74474546D01*
X116403443Y-74232376D01*
X116189509Y-74035104D01*
X116083507Y-74003976D01*
X115975600Y-74026053D01*
X115625600Y-74026053D01*
X115517693Y-74003976D01*
X115411691Y-74035104D01*
X115197757Y-74232376D01*
X115075600Y-74496500D01*
X114860250Y-74496500D01*
X114817369Y-74392978D01*
X114669122Y-74244731D01*
X114475427Y-74164500D01*
X114265773Y-74164500D01*
X114072078Y-74244731D01*
X113923831Y-74392978D01*
X113843600Y-74586673D01*
X113799077Y-74586673D01*
X113760375Y-74493240D01*
X113619160Y-74352025D01*
X113434654Y-74275600D01*
X113234946Y-74275600D01*
X113050440Y-74352025D01*
X112909225Y-74493240D01*
X112832800Y-74677746D01*
X110128400Y-74677746D01*
X110051975Y-74493240D01*
X109910760Y-74352025D01*
X109726254Y-74275600D01*
X109526546Y-74275600D01*
X109342040Y-74352025D01*
X109200825Y-74493240D01*
X109124400Y-74677746D01*
X109117600Y-74677746D01*
X109117600Y-74586673D01*
X109037369Y-74392978D01*
X108889122Y-74244731D01*
X108695427Y-74164500D01*
X108485773Y-74164500D01*
X108292078Y-74244731D01*
X108143831Y-74392978D01*
X108063600Y-74586673D01*
X107885600Y-74586673D01*
X107885600Y-74496500D01*
X107763443Y-74232376D01*
X107549509Y-74035104D01*
X107443507Y-74003976D01*
X107335600Y-74026053D01*
X106985600Y-74026053D01*
X106877693Y-74003976D01*
X106771691Y-74035104D01*
X106557757Y-74232376D01*
X106435600Y-74496500D01*
X105109566Y-74496500D01*
X106553033Y-73053033D01*
X106569291Y-73028701D01*
X106575000Y-73000000D01*
X106575000Y-72747346D01*
X114661600Y-72747346D01*
X114661600Y-72947054D01*
X114738025Y-73131560D01*
X114879240Y-73272775D01*
X115063746Y-73349200D01*
X115263454Y-73349200D01*
X115447960Y-73272775D01*
X115589175Y-73131560D01*
X115665600Y-72947054D01*
X115665600Y-72747346D01*
X115589175Y-72562840D01*
X115447960Y-72421625D01*
X115263454Y-72345200D01*
X115063746Y-72345200D01*
X114879240Y-72421625D01*
X114738025Y-72562840D01*
X114661600Y-72747346D01*
X106575000Y-72747346D01*
X106575000Y-71790777D01*
X106624563Y-71866630D01*
X106877693Y-72009024D01*
X106985600Y-71986947D01*
X106985600Y-71216500D01*
X107335600Y-71216500D01*
X107335600Y-71986947D01*
X107443507Y-72009024D01*
X107696637Y-71866630D01*
X107856792Y-71621524D01*
X107910958Y-71333787D01*
X115050242Y-71333787D01*
X115104408Y-71621524D01*
X115264563Y-71866630D01*
X115517693Y-72009024D01*
X115625600Y-71986947D01*
X115625600Y-71216500D01*
X115975600Y-71216500D01*
X115975600Y-71986947D01*
X116083507Y-72009024D01*
X116336637Y-71866630D01*
X116496792Y-71621524D01*
X116543059Y-71375746D01*
X116947600Y-71375746D01*
X116947600Y-71575454D01*
X117024025Y-71759960D01*
X117165240Y-71901175D01*
X117349746Y-71977600D01*
X117549454Y-71977600D01*
X117733960Y-71901175D01*
X117875175Y-71759960D01*
X117883021Y-71741016D01*
X121698000Y-71741016D01*
X121698000Y-72258984D01*
X121896217Y-72737524D01*
X122262476Y-73103783D01*
X122741016Y-73302000D01*
X123258984Y-73302000D01*
X123737524Y-73103783D01*
X124103783Y-72737524D01*
X124302000Y-72258984D01*
X124302000Y-71741016D01*
X124103783Y-71262476D01*
X123737524Y-70896217D01*
X123258984Y-70698000D01*
X122741016Y-70698000D01*
X122262476Y-70896217D01*
X121896217Y-71262476D01*
X121698000Y-71741016D01*
X117883021Y-71741016D01*
X117951600Y-71575454D01*
X117951600Y-71375746D01*
X117875175Y-71191240D01*
X117733960Y-71050025D01*
X117549454Y-70973600D01*
X117349746Y-70973600D01*
X117165240Y-71050025D01*
X117024025Y-71191240D01*
X116947600Y-71375746D01*
X116543059Y-71375746D01*
X116550958Y-71333787D01*
X116484263Y-71216500D01*
X115975600Y-71216500D01*
X115625600Y-71216500D01*
X115116937Y-71216500D01*
X115050242Y-71333787D01*
X107910958Y-71333787D01*
X107844263Y-71216500D01*
X107335600Y-71216500D01*
X106985600Y-71216500D01*
X106965600Y-71216500D01*
X106965600Y-70866500D01*
X106985600Y-70866500D01*
X106985600Y-70096053D01*
X107335600Y-70096053D01*
X107335600Y-70866500D01*
X107844263Y-70866500D01*
X107910958Y-70749213D01*
X115050242Y-70749213D01*
X115116937Y-70866500D01*
X115625600Y-70866500D01*
X115625600Y-70096053D01*
X115975600Y-70096053D01*
X115975600Y-70866500D01*
X116484263Y-70866500D01*
X116550958Y-70749213D01*
X116496792Y-70461476D01*
X116336637Y-70216370D01*
X116083507Y-70073976D01*
X115975600Y-70096053D01*
X115625600Y-70096053D01*
X115517693Y-70073976D01*
X115264563Y-70216370D01*
X115104408Y-70461476D01*
X115050242Y-70749213D01*
X107910958Y-70749213D01*
X107856792Y-70461476D01*
X107696637Y-70216370D01*
X107443507Y-70073976D01*
X107335600Y-70096053D01*
X106985600Y-70096053D01*
X106877693Y-70073976D01*
X106624563Y-70216370D01*
X106575000Y-70292223D01*
X106575000Y-68777000D01*
X121487668Y-68777000D01*
X122336177Y-68852727D01*
X123145920Y-69074248D01*
X123903643Y-69435664D01*
X124585385Y-69925545D01*
X125169604Y-70528412D01*
X125637833Y-71225211D01*
X125975268Y-71993910D01*
X126171756Y-72812340D01*
X126223000Y-73510156D01*
X126223001Y-106487657D01*
X126147273Y-107336173D01*
X125925751Y-108145922D01*
X125564336Y-108903643D01*
X125074455Y-109585385D01*
X124471588Y-110169604D01*
X123774789Y-110637833D01*
X123006098Y-110975265D01*
X122187661Y-111171756D01*
X121489844Y-111223000D01*
X83012331Y-111223000D01*
X82163827Y-111147273D01*
X81354078Y-110925751D01*
X80596357Y-110564336D01*
X79914615Y-110074455D01*
X79383655Y-109526546D01*
X85654800Y-109526546D01*
X85654800Y-109726254D01*
X85731225Y-109910760D01*
X85872440Y-110051975D01*
X86056946Y-110128400D01*
X86256654Y-110128400D01*
X86441160Y-110051975D01*
X86582375Y-109910760D01*
X86594227Y-109882146D01*
X113442400Y-109882146D01*
X113442400Y-110081854D01*
X113518825Y-110266360D01*
X113660040Y-110407575D01*
X113844546Y-110484000D01*
X114044254Y-110484000D01*
X114228760Y-110407575D01*
X114369975Y-110266360D01*
X114446400Y-110081854D01*
X114446400Y-109882146D01*
X114369975Y-109697640D01*
X114351281Y-109678946D01*
X117201600Y-109678946D01*
X117201600Y-109878654D01*
X117278025Y-110063160D01*
X117419240Y-110204375D01*
X117603746Y-110280800D01*
X117803454Y-110280800D01*
X117987960Y-110204375D01*
X118129175Y-110063160D01*
X118205600Y-109878654D01*
X118205600Y-109678946D01*
X118129175Y-109494440D01*
X117987960Y-109353225D01*
X117803454Y-109276800D01*
X117603746Y-109276800D01*
X117419240Y-109353225D01*
X117278025Y-109494440D01*
X117201600Y-109678946D01*
X114351281Y-109678946D01*
X114228760Y-109556425D01*
X114044254Y-109480000D01*
X113844546Y-109480000D01*
X113660040Y-109556425D01*
X113518825Y-109697640D01*
X113442400Y-109882146D01*
X86594227Y-109882146D01*
X86658800Y-109726254D01*
X86658800Y-109526546D01*
X86582375Y-109342040D01*
X86441160Y-109200825D01*
X86256654Y-109124400D01*
X86056946Y-109124400D01*
X85872440Y-109200825D01*
X85731225Y-109342040D01*
X85654800Y-109526546D01*
X79383655Y-109526546D01*
X79330396Y-109471588D01*
X78862167Y-108774789D01*
X78524735Y-108006098D01*
X78461094Y-107741016D01*
X80198000Y-107741016D01*
X80198000Y-108258984D01*
X80396217Y-108737524D01*
X80762476Y-109103783D01*
X81241016Y-109302000D01*
X81758984Y-109302000D01*
X82237524Y-109103783D01*
X82603783Y-108737524D01*
X82618523Y-108701937D01*
X86653123Y-108701937D01*
X86653123Y-108901645D01*
X86729548Y-109086151D01*
X86870763Y-109227366D01*
X87055269Y-109303791D01*
X87254977Y-109303791D01*
X87439483Y-109227366D01*
X87580698Y-109086151D01*
X87657123Y-108901645D01*
X87657123Y-108701937D01*
X87598889Y-108561346D01*
X113645600Y-108561346D01*
X113645600Y-108761054D01*
X113722025Y-108945560D01*
X113863240Y-109086775D01*
X114047746Y-109163200D01*
X114247454Y-109163200D01*
X114431960Y-109086775D01*
X114573175Y-108945560D01*
X114649600Y-108761054D01*
X114649600Y-108561346D01*
X114573175Y-108376840D01*
X114431960Y-108235625D01*
X114247454Y-108159200D01*
X114047746Y-108159200D01*
X113863240Y-108235625D01*
X113722025Y-108376840D01*
X113645600Y-108561346D01*
X87598889Y-108561346D01*
X87580698Y-108517431D01*
X87439483Y-108376216D01*
X87254977Y-108299791D01*
X87055269Y-108299791D01*
X86870763Y-108376216D01*
X86729548Y-108517431D01*
X86653123Y-108701937D01*
X82618523Y-108701937D01*
X82802000Y-108258984D01*
X82802000Y-107951746D01*
X88753600Y-107951746D01*
X88753600Y-108151454D01*
X88830025Y-108335960D01*
X88971240Y-108477175D01*
X89155746Y-108553600D01*
X89355454Y-108553600D01*
X89539960Y-108477175D01*
X89681175Y-108335960D01*
X89757600Y-108151454D01*
X89757600Y-107951746D01*
X89681175Y-107767240D01*
X89654951Y-107741016D01*
X121698000Y-107741016D01*
X121698000Y-108258984D01*
X121896217Y-108737524D01*
X122262476Y-109103783D01*
X122741016Y-109302000D01*
X123258984Y-109302000D01*
X123737524Y-109103783D01*
X124103783Y-108737524D01*
X124302000Y-108258984D01*
X124302000Y-107741016D01*
X124103783Y-107262476D01*
X123737524Y-106896217D01*
X123258984Y-106698000D01*
X122741016Y-106698000D01*
X122262476Y-106896217D01*
X121896217Y-107262476D01*
X121698000Y-107741016D01*
X89654951Y-107741016D01*
X89539960Y-107626025D01*
X89355454Y-107549600D01*
X89155746Y-107549600D01*
X88971240Y-107626025D01*
X88830025Y-107767240D01*
X88753600Y-107951746D01*
X82802000Y-107951746D01*
X82802000Y-107741016D01*
X82603783Y-107262476D01*
X82237524Y-106896217D01*
X81926312Y-106767309D01*
X101200000Y-106767309D01*
X101200000Y-107026691D01*
X101299261Y-107266328D01*
X101482672Y-107449739D01*
X101722309Y-107549000D01*
X101981691Y-107549000D01*
X102221328Y-107449739D01*
X102404739Y-107266328D01*
X102504000Y-107026691D01*
X102504000Y-106767309D01*
X109200000Y-106767309D01*
X109200000Y-107026691D01*
X109299261Y-107266328D01*
X109482672Y-107449739D01*
X109722309Y-107549000D01*
X109981691Y-107549000D01*
X110221328Y-107449739D01*
X110404739Y-107266328D01*
X110504000Y-107026691D01*
X110504000Y-106767309D01*
X110404739Y-106527672D01*
X110221328Y-106344261D01*
X110177595Y-106326146D01*
X114915600Y-106326146D01*
X114915600Y-106525854D01*
X114992025Y-106710360D01*
X115133240Y-106851575D01*
X115317746Y-106928000D01*
X115517454Y-106928000D01*
X115701960Y-106851575D01*
X115843175Y-106710360D01*
X115919600Y-106525854D01*
X115919600Y-106326146D01*
X115843175Y-106141640D01*
X115701960Y-106000425D01*
X115517454Y-105924000D01*
X115317746Y-105924000D01*
X115133240Y-106000425D01*
X114992025Y-106141640D01*
X114915600Y-106326146D01*
X110177595Y-106326146D01*
X109981691Y-106245000D01*
X109722309Y-106245000D01*
X109482672Y-106344261D01*
X109299261Y-106527672D01*
X109200000Y-106767309D01*
X102504000Y-106767309D01*
X102404739Y-106527672D01*
X102221328Y-106344261D01*
X101981691Y-106245000D01*
X101722309Y-106245000D01*
X101482672Y-106344261D01*
X101299261Y-106527672D01*
X101200000Y-106767309D01*
X81926312Y-106767309D01*
X81758984Y-106698000D01*
X81241016Y-106698000D01*
X80762476Y-106896217D01*
X80396217Y-107262476D01*
X80198000Y-107741016D01*
X78461094Y-107741016D01*
X78328244Y-107187661D01*
X78277000Y-106489844D01*
X78277000Y-105767346D01*
X84080000Y-105767346D01*
X84080000Y-105967054D01*
X84156425Y-106151560D01*
X84297640Y-106292775D01*
X84482146Y-106369200D01*
X84681854Y-106369200D01*
X84866360Y-106292775D01*
X85007575Y-106151560D01*
X85084000Y-105967054D01*
X85084000Y-105767346D01*
X85007575Y-105582840D01*
X84866360Y-105441625D01*
X84681854Y-105365200D01*
X84482146Y-105365200D01*
X84297640Y-105441625D01*
X84156425Y-105582840D01*
X84080000Y-105767346D01*
X78277000Y-105767346D01*
X78277000Y-105208546D01*
X87178800Y-105208546D01*
X87178800Y-105408254D01*
X87255225Y-105592760D01*
X87396440Y-105733975D01*
X87580946Y-105810400D01*
X87780654Y-105810400D01*
X87965160Y-105733975D01*
X88106375Y-105592760D01*
X88182800Y-105408254D01*
X88182800Y-105208546D01*
X88106375Y-105024040D01*
X87986081Y-104903746D01*
X90836400Y-104903746D01*
X90836400Y-105103454D01*
X90912825Y-105287960D01*
X91054040Y-105429175D01*
X91238546Y-105505600D01*
X91438254Y-105505600D01*
X91622760Y-105429175D01*
X91763975Y-105287960D01*
X91840400Y-105103454D01*
X91840400Y-104903746D01*
X114661600Y-104903746D01*
X114661600Y-105103454D01*
X114738025Y-105287960D01*
X114879240Y-105429175D01*
X115063746Y-105505600D01*
X115263454Y-105505600D01*
X115447960Y-105429175D01*
X115589175Y-105287960D01*
X115665600Y-105103454D01*
X115665600Y-104903746D01*
X115589175Y-104719240D01*
X115447960Y-104578025D01*
X115263454Y-104501600D01*
X115063746Y-104501600D01*
X114879240Y-104578025D01*
X114738025Y-104719240D01*
X114661600Y-104903746D01*
X91840400Y-104903746D01*
X91763975Y-104719240D01*
X91622760Y-104578025D01*
X91438254Y-104501600D01*
X91238546Y-104501600D01*
X91054040Y-104578025D01*
X90912825Y-104719240D01*
X90836400Y-104903746D01*
X87986081Y-104903746D01*
X87965160Y-104882825D01*
X87780654Y-104806400D01*
X87580946Y-104806400D01*
X87396440Y-104882825D01*
X87255225Y-105024040D01*
X87178800Y-105208546D01*
X78277000Y-105208546D01*
X78277000Y-104395746D01*
X115982400Y-104395746D01*
X115982400Y-104595454D01*
X116058825Y-104779960D01*
X116200040Y-104921175D01*
X116384546Y-104997600D01*
X116584254Y-104997600D01*
X116768760Y-104921175D01*
X116909975Y-104779960D01*
X116986400Y-104595454D01*
X116986400Y-104395746D01*
X116909975Y-104211240D01*
X116768760Y-104070025D01*
X116584254Y-103993600D01*
X116384546Y-103993600D01*
X116200040Y-104070025D01*
X116058825Y-104211240D01*
X115982400Y-104395746D01*
X78277000Y-104395746D01*
X78277000Y-103481340D01*
X117100000Y-103481340D01*
X117100000Y-103681048D01*
X117176425Y-103865554D01*
X117317640Y-104006769D01*
X117502146Y-104083194D01*
X117701854Y-104083194D01*
X117886360Y-104006769D01*
X118007129Y-103886000D01*
X121754000Y-103886000D01*
X121814668Y-104190999D01*
X121987436Y-104449564D01*
X122246001Y-104622332D01*
X122551000Y-104683000D01*
X122855999Y-104622332D01*
X123114564Y-104449564D01*
X123287332Y-104190999D01*
X123348000Y-103886000D01*
X123287332Y-103581001D01*
X123114564Y-103322436D01*
X122855999Y-103149668D01*
X122551000Y-103089000D01*
X122246001Y-103149668D01*
X121987436Y-103322436D01*
X121814668Y-103581001D01*
X121754000Y-103886000D01*
X118007129Y-103886000D01*
X118027575Y-103865554D01*
X118104000Y-103681048D01*
X118104000Y-103481340D01*
X118027575Y-103296834D01*
X117886360Y-103155619D01*
X117701854Y-103079194D01*
X117502146Y-103079194D01*
X117317640Y-103155619D01*
X117176425Y-103296834D01*
X117100000Y-103481340D01*
X78277000Y-103481340D01*
X78277000Y-101906546D01*
X81743200Y-101906546D01*
X81743200Y-102106254D01*
X81819625Y-102290760D01*
X81960840Y-102431975D01*
X82145346Y-102508400D01*
X82302000Y-102508400D01*
X82302000Y-102665054D01*
X82378425Y-102849560D01*
X82519640Y-102990775D01*
X82704146Y-103067200D01*
X82903854Y-103067200D01*
X83088360Y-102990775D01*
X83229575Y-102849560D01*
X83306000Y-102665054D01*
X83306000Y-102465346D01*
X83229575Y-102280840D01*
X83088360Y-102139625D01*
X82903854Y-102063200D01*
X82747200Y-102063200D01*
X82747200Y-101906546D01*
X82670775Y-101722040D01*
X82529560Y-101580825D01*
X82345054Y-101504400D01*
X82145346Y-101504400D01*
X81960840Y-101580825D01*
X81819625Y-101722040D01*
X81743200Y-101906546D01*
X78277000Y-101906546D01*
X78277000Y-100590309D01*
X79028000Y-100590309D01*
X79028000Y-100849691D01*
X79127261Y-101089328D01*
X79310672Y-101272739D01*
X79550309Y-101372000D01*
X79809691Y-101372000D01*
X80049328Y-101272739D01*
X80232739Y-101089328D01*
X80332000Y-100849691D01*
X80332000Y-100590309D01*
X80232739Y-100350672D01*
X80049328Y-100167261D01*
X79809691Y-100068000D01*
X79550309Y-100068000D01*
X79310672Y-100167261D01*
X79127261Y-100350672D01*
X79028000Y-100590309D01*
X78277000Y-100590309D01*
X78277000Y-97590309D01*
X79028000Y-97590309D01*
X79028000Y-97849691D01*
X79127261Y-98089328D01*
X79310672Y-98272739D01*
X79550309Y-98372000D01*
X79809691Y-98372000D01*
X80049328Y-98272739D01*
X80232739Y-98089328D01*
X80332000Y-97849691D01*
X80332000Y-97590309D01*
X80232739Y-97350672D01*
X80049328Y-97167261D01*
X79809691Y-97068000D01*
X79550309Y-97068000D01*
X79310672Y-97167261D01*
X79127261Y-97350672D01*
X79028000Y-97590309D01*
X78277000Y-97590309D01*
X78277000Y-90150146D01*
X78848000Y-90150146D01*
X78848000Y-90349854D01*
X78924425Y-90534360D01*
X79065640Y-90675575D01*
X79250146Y-90752000D01*
X79449854Y-90752000D01*
X79546402Y-90712009D01*
X79507377Y-90806222D01*
X79507377Y-91005930D01*
X79583802Y-91190436D01*
X79725017Y-91331651D01*
X79909523Y-91408076D01*
X80109231Y-91408076D01*
X80293737Y-91331651D01*
X80434952Y-91190436D01*
X80507962Y-91014176D01*
X80549625Y-91114760D01*
X80690840Y-91255975D01*
X80875346Y-91332400D01*
X81075054Y-91332400D01*
X81259560Y-91255975D01*
X81400775Y-91114760D01*
X81477200Y-90930254D01*
X81477200Y-90730546D01*
X81400775Y-90546040D01*
X81259560Y-90404825D01*
X81075054Y-90328400D01*
X80875346Y-90328400D01*
X80690840Y-90404825D01*
X80549625Y-90546040D01*
X80476615Y-90722300D01*
X80434952Y-90621716D01*
X80293737Y-90480501D01*
X80109231Y-90404076D01*
X79909523Y-90404076D01*
X79812975Y-90444067D01*
X79852000Y-90349854D01*
X79852000Y-90150146D01*
X79775575Y-89965640D01*
X79634360Y-89824425D01*
X79449854Y-89748000D01*
X79250146Y-89748000D01*
X79065640Y-89824425D01*
X78924425Y-89965640D01*
X78848000Y-90150146D01*
X78277000Y-90150146D01*
X78277000Y-86869746D01*
X78796800Y-86869746D01*
X78796800Y-87069454D01*
X78873225Y-87253960D01*
X79014440Y-87395175D01*
X79198946Y-87471600D01*
X79398654Y-87471600D01*
X79583160Y-87395175D01*
X79724375Y-87253960D01*
X79800800Y-87069454D01*
X79800800Y-86869746D01*
X79768926Y-86792796D01*
X79786360Y-86785575D01*
X79927575Y-86644360D01*
X80004000Y-86459854D01*
X80004000Y-86412546D01*
X81946400Y-86412546D01*
X81946400Y-86612254D01*
X82022825Y-86796760D01*
X82164040Y-86937975D01*
X82348546Y-87014400D01*
X82498000Y-87014400D01*
X82498000Y-87049854D01*
X82574425Y-87234360D01*
X82715640Y-87375575D01*
X82900146Y-87452000D01*
X83099854Y-87452000D01*
X83223000Y-87400991D01*
X83223001Y-92165066D01*
X83189960Y-92132025D01*
X83005454Y-92055600D01*
X82805746Y-92055600D01*
X82621240Y-92132025D01*
X82480025Y-92273240D01*
X82403600Y-92457746D01*
X82403600Y-92657454D01*
X82480025Y-92841960D01*
X82551265Y-92913200D01*
X82480025Y-92984440D01*
X82403600Y-93168946D01*
X82403600Y-93368654D01*
X82480025Y-93553160D01*
X82621240Y-93694375D01*
X82805746Y-93770800D01*
X83005454Y-93770800D01*
X83189960Y-93694375D01*
X83223001Y-93661334D01*
X83223001Y-102027279D01*
X83228322Y-102054030D01*
X83228322Y-102054040D01*
X83266382Y-102245382D01*
X83307742Y-102345235D01*
X83307746Y-102345239D01*
X83416128Y-102507442D01*
X83416129Y-102507445D01*
X83492555Y-102583871D01*
X83492558Y-102583872D01*
X83654764Y-102692256D01*
X83654766Y-102692258D01*
X83754618Y-102733618D01*
X83945959Y-102771678D01*
X84054040Y-102771678D01*
X84245382Y-102733618D01*
X84345235Y-102692258D01*
X84345239Y-102692254D01*
X84507442Y-102583872D01*
X84507445Y-102583871D01*
X84583871Y-102507445D01*
X84583872Y-102507442D01*
X84679887Y-102363746D01*
X113239200Y-102363746D01*
X113239200Y-102563454D01*
X113315625Y-102747960D01*
X113456840Y-102889175D01*
X113641346Y-102965600D01*
X113841054Y-102965600D01*
X114025560Y-102889175D01*
X114166775Y-102747960D01*
X114243200Y-102563454D01*
X114243200Y-102516146D01*
X116185600Y-102516146D01*
X116185600Y-102715854D01*
X116262025Y-102900360D01*
X116403240Y-103041575D01*
X116587746Y-103118000D01*
X116787454Y-103118000D01*
X116971960Y-103041575D01*
X117113175Y-102900360D01*
X117189600Y-102715854D01*
X117189600Y-102516146D01*
X117113175Y-102331640D01*
X116971960Y-102190425D01*
X116787454Y-102114000D01*
X116587746Y-102114000D01*
X116403240Y-102190425D01*
X116262025Y-102331640D01*
X116185600Y-102516146D01*
X114243200Y-102516146D01*
X114243200Y-102363746D01*
X114166775Y-102179240D01*
X114025560Y-102038025D01*
X113841054Y-101961600D01*
X113641346Y-101961600D01*
X113456840Y-102038025D01*
X113315625Y-102179240D01*
X113239200Y-102363746D01*
X84679887Y-102363746D01*
X84692256Y-102345236D01*
X84692258Y-102345234D01*
X84733618Y-102245382D01*
X84771678Y-102054039D01*
X84771678Y-102054035D01*
X84777000Y-102027279D01*
X84777000Y-101550946D01*
X87940800Y-101550946D01*
X87940800Y-101750654D01*
X88017225Y-101935160D01*
X88158440Y-102076375D01*
X88342946Y-102152800D01*
X88542654Y-102152800D01*
X88727160Y-102076375D01*
X88868375Y-101935160D01*
X88944800Y-101750654D01*
X88944800Y-101550946D01*
X88868375Y-101366440D01*
X88727160Y-101225225D01*
X88542654Y-101148800D01*
X88342946Y-101148800D01*
X88158440Y-101225225D01*
X88017225Y-101366440D01*
X87940800Y-101550946D01*
X84777000Y-101550946D01*
X84777000Y-100839746D01*
X116287200Y-100839746D01*
X116287200Y-101039454D01*
X116363625Y-101223960D01*
X116504840Y-101365175D01*
X116689346Y-101441600D01*
X116889054Y-101441600D01*
X117073560Y-101365175D01*
X117214775Y-101223960D01*
X117289753Y-101042946D01*
X117963600Y-101042946D01*
X117963600Y-101242654D01*
X118040025Y-101427160D01*
X118181240Y-101568375D01*
X118365746Y-101644800D01*
X118565454Y-101644800D01*
X118749960Y-101568375D01*
X118891175Y-101427160D01*
X118924792Y-101346000D01*
X121762000Y-101346000D01*
X121822668Y-101650999D01*
X121995436Y-101909564D01*
X122254001Y-102082332D01*
X122559000Y-102143000D01*
X122863999Y-102082332D01*
X123122564Y-101909564D01*
X123295332Y-101650999D01*
X123356000Y-101346000D01*
X123295332Y-101041001D01*
X123122564Y-100782436D01*
X122863999Y-100609668D01*
X122559000Y-100549000D01*
X122254001Y-100609668D01*
X121995436Y-100782436D01*
X121822668Y-101041001D01*
X121762000Y-101346000D01*
X118924792Y-101346000D01*
X118967600Y-101242654D01*
X118967600Y-101042946D01*
X118891175Y-100858440D01*
X118749960Y-100717225D01*
X118565454Y-100640800D01*
X118365746Y-100640800D01*
X118181240Y-100717225D01*
X118040025Y-100858440D01*
X117963600Y-101042946D01*
X117289753Y-101042946D01*
X117291200Y-101039454D01*
X117291200Y-100839746D01*
X117214775Y-100655240D01*
X117073560Y-100514025D01*
X116889054Y-100437600D01*
X116689346Y-100437600D01*
X116504840Y-100514025D01*
X116363625Y-100655240D01*
X116287200Y-100839746D01*
X84777000Y-100839746D01*
X84777000Y-99163346D01*
X114515190Y-99163346D01*
X114515190Y-99363054D01*
X114591615Y-99547560D01*
X114732830Y-99688775D01*
X114917336Y-99765200D01*
X115117044Y-99765200D01*
X115301550Y-99688775D01*
X115442765Y-99547560D01*
X115519190Y-99363054D01*
X115519190Y-99163346D01*
X115477106Y-99061746D01*
X117252400Y-99061746D01*
X117252400Y-99261454D01*
X117328825Y-99445960D01*
X117470040Y-99587175D01*
X117654546Y-99663600D01*
X117854254Y-99663600D01*
X118038760Y-99587175D01*
X118179975Y-99445960D01*
X118256400Y-99261454D01*
X118256400Y-99061746D01*
X118179975Y-98877240D01*
X118108735Y-98806000D01*
X121758000Y-98806000D01*
X121818668Y-99110999D01*
X121991436Y-99369564D01*
X122250001Y-99542332D01*
X122555000Y-99603000D01*
X122859999Y-99542332D01*
X123118564Y-99369564D01*
X123291332Y-99110999D01*
X123352000Y-98806000D01*
X123291332Y-98501001D01*
X123118564Y-98242436D01*
X122859999Y-98069668D01*
X122555000Y-98009000D01*
X122250001Y-98069668D01*
X121991436Y-98242436D01*
X121818668Y-98501001D01*
X121758000Y-98806000D01*
X118108735Y-98806000D01*
X118038760Y-98736025D01*
X117854254Y-98659600D01*
X117654546Y-98659600D01*
X117470040Y-98736025D01*
X117328825Y-98877240D01*
X117252400Y-99061746D01*
X115477106Y-99061746D01*
X115442765Y-98978840D01*
X115301550Y-98837625D01*
X115117044Y-98761200D01*
X114917336Y-98761200D01*
X114732830Y-98837625D01*
X114591615Y-98978840D01*
X114515190Y-99163346D01*
X84777000Y-99163346D01*
X84777000Y-98305736D01*
X98254166Y-98305736D01*
X98254166Y-98505444D01*
X98330591Y-98689950D01*
X98471806Y-98831165D01*
X98656312Y-98907590D01*
X98856020Y-98907590D01*
X99040526Y-98831165D01*
X99181741Y-98689950D01*
X99258166Y-98505444D01*
X99258166Y-98305736D01*
X99181741Y-98121230D01*
X99040526Y-97980015D01*
X98856020Y-97903590D01*
X98656312Y-97903590D01*
X98471806Y-97980015D01*
X98330591Y-98121230D01*
X98254166Y-98305736D01*
X84777000Y-98305736D01*
X84777000Y-97583005D01*
X99127972Y-97583005D01*
X99127972Y-97782713D01*
X99204397Y-97967219D01*
X99342769Y-98105591D01*
X99334603Y-98113756D01*
X99258178Y-98298262D01*
X99258178Y-98497970D01*
X99334603Y-98682476D01*
X99475818Y-98823691D01*
X99660324Y-98900116D01*
X99860032Y-98900116D01*
X100044538Y-98823691D01*
X100185753Y-98682476D01*
X100262178Y-98497970D01*
X100262178Y-98298262D01*
X100185753Y-98113756D01*
X100168543Y-98096546D01*
X100539200Y-98096546D01*
X100539200Y-98296254D01*
X100615625Y-98480760D01*
X100756840Y-98621975D01*
X100941346Y-98698400D01*
X101141054Y-98698400D01*
X101325560Y-98621975D01*
X101466775Y-98480760D01*
X101543200Y-98296254D01*
X101543200Y-98096546D01*
X101466775Y-97912040D01*
X101325560Y-97770825D01*
X101141054Y-97694400D01*
X100941346Y-97694400D01*
X100756840Y-97770825D01*
X100615625Y-97912040D01*
X100539200Y-98096546D01*
X100168543Y-98096546D01*
X100047382Y-97975385D01*
X100055547Y-97967219D01*
X100131972Y-97782713D01*
X100131972Y-97583005D01*
X100113226Y-97537746D01*
X105009600Y-97537746D01*
X105009600Y-97737454D01*
X105086025Y-97921960D01*
X105227240Y-98063175D01*
X105411746Y-98139600D01*
X105611454Y-98139600D01*
X105795960Y-98063175D01*
X105813389Y-98045746D01*
X114966400Y-98045746D01*
X114966400Y-98245454D01*
X115042825Y-98429960D01*
X115184040Y-98571175D01*
X115368546Y-98647600D01*
X115568254Y-98647600D01*
X115752760Y-98571175D01*
X115893975Y-98429960D01*
X115970400Y-98245454D01*
X115970400Y-98045746D01*
X115893975Y-97861240D01*
X115752760Y-97720025D01*
X115568254Y-97643600D01*
X115368546Y-97643600D01*
X115184040Y-97720025D01*
X115042825Y-97861240D01*
X114966400Y-98045746D01*
X105813389Y-98045746D01*
X105937175Y-97921960D01*
X106013600Y-97737454D01*
X106013600Y-97537746D01*
X105950474Y-97385346D01*
X116338000Y-97385346D01*
X116338000Y-97585054D01*
X116414425Y-97769560D01*
X116555640Y-97910775D01*
X116740146Y-97987200D01*
X116939854Y-97987200D01*
X117124360Y-97910775D01*
X117237389Y-97797746D01*
X118471600Y-97797746D01*
X118471600Y-97997454D01*
X118548025Y-98181960D01*
X118689240Y-98323175D01*
X118873746Y-98399600D01*
X119073454Y-98399600D01*
X119257960Y-98323175D01*
X119399175Y-98181960D01*
X119475600Y-97997454D01*
X119475600Y-97842546D01*
X123500800Y-97842546D01*
X123500800Y-98042254D01*
X123577225Y-98226760D01*
X123718440Y-98367975D01*
X123902946Y-98444400D01*
X124102654Y-98444400D01*
X124287160Y-98367975D01*
X124428375Y-98226760D01*
X124504800Y-98042254D01*
X124504800Y-97842546D01*
X124428375Y-97658040D01*
X124287160Y-97516825D01*
X124102654Y-97440400D01*
X123902946Y-97440400D01*
X123718440Y-97516825D01*
X123577225Y-97658040D01*
X123500800Y-97842546D01*
X119475600Y-97842546D01*
X119475600Y-97797746D01*
X119399175Y-97613240D01*
X119257960Y-97472025D01*
X119073454Y-97395600D01*
X118873746Y-97395600D01*
X118689240Y-97472025D01*
X118548025Y-97613240D01*
X118471600Y-97797746D01*
X117237389Y-97797746D01*
X117265575Y-97769560D01*
X117342000Y-97585054D01*
X117342000Y-97385346D01*
X117265575Y-97200840D01*
X117124360Y-97059625D01*
X116939854Y-96983200D01*
X116740146Y-96983200D01*
X116555640Y-97059625D01*
X116414425Y-97200840D01*
X116338000Y-97385346D01*
X105950474Y-97385346D01*
X105937175Y-97353240D01*
X105795960Y-97212025D01*
X105611454Y-97135600D01*
X105411746Y-97135600D01*
X105227240Y-97212025D01*
X105086025Y-97353240D01*
X105009600Y-97537746D01*
X100113226Y-97537746D01*
X100055547Y-97398499D01*
X99914332Y-97257284D01*
X99729826Y-97180859D01*
X99530118Y-97180859D01*
X99345612Y-97257284D01*
X99204397Y-97398499D01*
X99127972Y-97583005D01*
X84777000Y-97583005D01*
X84777000Y-96873677D01*
X93226107Y-96873677D01*
X93226107Y-97073385D01*
X93302532Y-97257891D01*
X93443747Y-97399106D01*
X93628253Y-97475531D01*
X93827961Y-97475531D01*
X94012467Y-97399106D01*
X94153682Y-97257891D01*
X94230107Y-97073385D01*
X94230107Y-96873677D01*
X94153682Y-96689171D01*
X94087857Y-96623346D01*
X98812000Y-96623346D01*
X98812000Y-96823054D01*
X98888425Y-97007560D01*
X99029640Y-97148775D01*
X99214146Y-97225200D01*
X99413854Y-97225200D01*
X99598360Y-97148775D01*
X99739575Y-97007560D01*
X99793511Y-96877346D01*
X99980400Y-96877346D01*
X99980400Y-97077054D01*
X100056825Y-97261560D01*
X100198040Y-97402775D01*
X100382546Y-97479200D01*
X100582254Y-97479200D01*
X100766760Y-97402775D01*
X100907975Y-97261560D01*
X100984400Y-97077054D01*
X100984400Y-96877346D01*
X100907975Y-96692840D01*
X100766760Y-96551625D01*
X100582254Y-96475200D01*
X100382546Y-96475200D01*
X100198040Y-96551625D01*
X100056825Y-96692840D01*
X99980400Y-96877346D01*
X99793511Y-96877346D01*
X99816000Y-96823054D01*
X99816000Y-96623346D01*
X99752874Y-96470946D01*
X113391600Y-96470946D01*
X113391600Y-96670654D01*
X113468025Y-96855160D01*
X113609240Y-96996375D01*
X113793746Y-97072800D01*
X113993454Y-97072800D01*
X114177960Y-96996375D01*
X114319175Y-96855160D01*
X114395600Y-96670654D01*
X114395600Y-96470946D01*
X114319175Y-96286440D01*
X114177960Y-96145225D01*
X113993454Y-96068800D01*
X113793746Y-96068800D01*
X113609240Y-96145225D01*
X113468025Y-96286440D01*
X113391600Y-96470946D01*
X99752874Y-96470946D01*
X99739575Y-96438840D01*
X99598360Y-96297625D01*
X99413854Y-96221200D01*
X99214146Y-96221200D01*
X99029640Y-96297625D01*
X98888425Y-96438840D01*
X98812000Y-96623346D01*
X94087857Y-96623346D01*
X94012467Y-96547956D01*
X93827961Y-96471531D01*
X93628253Y-96471531D01*
X93443747Y-96547956D01*
X93302532Y-96689171D01*
X93226107Y-96873677D01*
X84777000Y-96873677D01*
X84777000Y-95454946D01*
X97440400Y-95454946D01*
X97440400Y-95654654D01*
X97516825Y-95839160D01*
X97658040Y-95980375D01*
X97842546Y-96056800D01*
X98042254Y-96056800D01*
X98226760Y-95980375D01*
X98244189Y-95962946D01*
X115796130Y-95962946D01*
X115796130Y-96162654D01*
X115872555Y-96347160D01*
X116013770Y-96488375D01*
X116198276Y-96564800D01*
X116397984Y-96564800D01*
X116582490Y-96488375D01*
X116723705Y-96347160D01*
X116757322Y-96266000D01*
X121762000Y-96266000D01*
X121822668Y-96570999D01*
X121995436Y-96829564D01*
X122254001Y-97002332D01*
X122559000Y-97063000D01*
X122863999Y-97002332D01*
X123122564Y-96829564D01*
X123295332Y-96570999D01*
X123356000Y-96266000D01*
X123295332Y-95961001D01*
X123122564Y-95702436D01*
X122863999Y-95529668D01*
X122559000Y-95469000D01*
X122254001Y-95529668D01*
X121995436Y-95702436D01*
X121822668Y-95961001D01*
X121762000Y-96266000D01*
X116757322Y-96266000D01*
X116779247Y-96213070D01*
X116892546Y-96260000D01*
X117092254Y-96260000D01*
X117276760Y-96183575D01*
X117417975Y-96042360D01*
X117494400Y-95857854D01*
X117494400Y-95658146D01*
X117417975Y-95473640D01*
X117276760Y-95332425D01*
X117092254Y-95256000D01*
X116892546Y-95256000D01*
X116708040Y-95332425D01*
X116566825Y-95473640D01*
X116511283Y-95607730D01*
X116397984Y-95560800D01*
X116198276Y-95560800D01*
X116013770Y-95637225D01*
X115872555Y-95778440D01*
X115796130Y-95962946D01*
X98244189Y-95962946D01*
X98367975Y-95839160D01*
X98444400Y-95654654D01*
X98444400Y-95454946D01*
X98367975Y-95270440D01*
X98298481Y-95200946D01*
X114763200Y-95200946D01*
X114763200Y-95400654D01*
X114839625Y-95585160D01*
X114980840Y-95726375D01*
X115165346Y-95802800D01*
X115365054Y-95802800D01*
X115549560Y-95726375D01*
X115690775Y-95585160D01*
X115767200Y-95400654D01*
X115767200Y-95200946D01*
X115690775Y-95016440D01*
X115549560Y-94875225D01*
X115365054Y-94798800D01*
X115165346Y-94798800D01*
X114980840Y-94875225D01*
X114839625Y-95016440D01*
X114763200Y-95200946D01*
X98298481Y-95200946D01*
X98226760Y-95129225D01*
X98042254Y-95052800D01*
X97842546Y-95052800D01*
X97658040Y-95129225D01*
X97516825Y-95270440D01*
X97440400Y-95454946D01*
X84777000Y-95454946D01*
X84777000Y-94800146D01*
X92398000Y-94800146D01*
X92398000Y-94999854D01*
X92474425Y-95184360D01*
X92615640Y-95325575D01*
X92800146Y-95402000D01*
X92999854Y-95402000D01*
X93184360Y-95325575D01*
X93325575Y-95184360D01*
X93402000Y-94999854D01*
X93402000Y-94800146D01*
X93325575Y-94615640D01*
X93250481Y-94540546D01*
X96932400Y-94540546D01*
X96932400Y-94740254D01*
X97008825Y-94924760D01*
X97150040Y-95065975D01*
X97334546Y-95142400D01*
X97534254Y-95142400D01*
X97718760Y-95065975D01*
X97859975Y-94924760D01*
X97883229Y-94868620D01*
X98043408Y-94934969D01*
X98243116Y-94934969D01*
X98427622Y-94858544D01*
X98449505Y-94836661D01*
X98578047Y-94965203D01*
X98762553Y-95041628D01*
X98962261Y-95041628D01*
X99146767Y-94965203D01*
X99287982Y-94823988D01*
X99364407Y-94639482D01*
X99364407Y-94439774D01*
X99364060Y-94438935D01*
X102317200Y-94438935D01*
X102317200Y-94638643D01*
X102393625Y-94823149D01*
X102534840Y-94964364D01*
X102719346Y-95040789D01*
X102919054Y-95040789D01*
X103103560Y-94964364D01*
X103244775Y-94823149D01*
X103321200Y-94638643D01*
X103321200Y-94438935D01*
X103244775Y-94254429D01*
X103103560Y-94113214D01*
X102919054Y-94036789D01*
X102719346Y-94036789D01*
X102534840Y-94113214D01*
X102393625Y-94254429D01*
X102317200Y-94438935D01*
X99364060Y-94438935D01*
X99287982Y-94255268D01*
X99146767Y-94114053D01*
X98962261Y-94037628D01*
X98762553Y-94037628D01*
X98578047Y-94114053D01*
X98556164Y-94135936D01*
X98427622Y-94007394D01*
X98243116Y-93930969D01*
X98043408Y-93930969D01*
X97858902Y-94007394D01*
X97717687Y-94148609D01*
X97694433Y-94204749D01*
X97534254Y-94138400D01*
X97334546Y-94138400D01*
X97150040Y-94214825D01*
X97008825Y-94356040D01*
X96932400Y-94540546D01*
X93250481Y-94540546D01*
X93184360Y-94474425D01*
X92999854Y-94398000D01*
X92800146Y-94398000D01*
X92615640Y-94474425D01*
X92474425Y-94615640D01*
X92398000Y-94800146D01*
X84777000Y-94800146D01*
X84777000Y-93300146D01*
X95298000Y-93300146D01*
X95298000Y-93499854D01*
X95374425Y-93684360D01*
X95515640Y-93825575D01*
X95700146Y-93902000D01*
X95899854Y-93902000D01*
X96084360Y-93825575D01*
X96225575Y-93684360D01*
X96302000Y-93499854D01*
X96302000Y-93392653D01*
X106480600Y-93392653D01*
X106480600Y-93592361D01*
X106557025Y-93776867D01*
X106698240Y-93918082D01*
X106882746Y-93994507D01*
X107082454Y-93994507D01*
X107266960Y-93918082D01*
X107408175Y-93776867D01*
X107484600Y-93592361D01*
X107484600Y-93392653D01*
X107469222Y-93355528D01*
X107637464Y-93355528D01*
X107821970Y-93279103D01*
X107963185Y-93137888D01*
X108039610Y-92953382D01*
X108039610Y-92813346D01*
X108316632Y-92813346D01*
X108316632Y-93013054D01*
X108393057Y-93197560D01*
X108534272Y-93338775D01*
X108575438Y-93355827D01*
X108438825Y-93492440D01*
X108362400Y-93676946D01*
X108362400Y-93876654D01*
X108438825Y-94061160D01*
X108580040Y-94202375D01*
X108764546Y-94278800D01*
X108964254Y-94278800D01*
X109124400Y-94212465D01*
X109124400Y-94333854D01*
X109200825Y-94518360D01*
X109342040Y-94659575D01*
X109526546Y-94736000D01*
X109726254Y-94736000D01*
X109910760Y-94659575D01*
X110051975Y-94518360D01*
X110103426Y-94394146D01*
X119182800Y-94394146D01*
X119182800Y-94593854D01*
X119259225Y-94778360D01*
X119400440Y-94919575D01*
X119584946Y-94996000D01*
X119784654Y-94996000D01*
X119969160Y-94919575D01*
X120110375Y-94778360D01*
X120124712Y-94743746D01*
X123500800Y-94743746D01*
X123500800Y-94943454D01*
X123577225Y-95127960D01*
X123718440Y-95269175D01*
X123902946Y-95345600D01*
X124102654Y-95345600D01*
X124287160Y-95269175D01*
X124428375Y-95127960D01*
X124504800Y-94943454D01*
X124504800Y-94743746D01*
X124428375Y-94559240D01*
X124287160Y-94418025D01*
X124102654Y-94341600D01*
X123902946Y-94341600D01*
X123718440Y-94418025D01*
X123577225Y-94559240D01*
X123500800Y-94743746D01*
X120124712Y-94743746D01*
X120186800Y-94593854D01*
X120186800Y-94394146D01*
X120110375Y-94209640D01*
X119969160Y-94068425D01*
X119784654Y-93992000D01*
X119584946Y-93992000D01*
X119400440Y-94068425D01*
X119259225Y-94209640D01*
X119182800Y-94394146D01*
X110103426Y-94394146D01*
X110128400Y-94333854D01*
X110128400Y-94134146D01*
X110051975Y-93949640D01*
X109910760Y-93808425D01*
X109726254Y-93732000D01*
X109526546Y-93732000D01*
X109366400Y-93798335D01*
X109366400Y-93726000D01*
X121754000Y-93726000D01*
X121814668Y-94030999D01*
X121987436Y-94289564D01*
X122246001Y-94462332D01*
X122551000Y-94523000D01*
X122855999Y-94462332D01*
X123114564Y-94289564D01*
X123287332Y-94030999D01*
X123348000Y-93726000D01*
X123287332Y-93421001D01*
X123114564Y-93162436D01*
X122855999Y-92989668D01*
X122551000Y-92929000D01*
X122246001Y-92989668D01*
X121987436Y-93162436D01*
X121814668Y-93421001D01*
X121754000Y-93726000D01*
X109366400Y-93726000D01*
X109366400Y-93676946D01*
X109289975Y-93492440D01*
X109148760Y-93351225D01*
X109107594Y-93334173D01*
X109244207Y-93197560D01*
X109320632Y-93013054D01*
X109320632Y-92813346D01*
X109244207Y-92628840D01*
X109102992Y-92487625D01*
X109030858Y-92457746D01*
X112223200Y-92457746D01*
X112223200Y-92657454D01*
X112299625Y-92841960D01*
X112440840Y-92983175D01*
X112625346Y-93059600D01*
X112825054Y-93059600D01*
X113009560Y-92983175D01*
X113150775Y-92841960D01*
X113227200Y-92657454D01*
X113227200Y-92457746D01*
X113150775Y-92273240D01*
X113009560Y-92132025D01*
X112825054Y-92055600D01*
X112625346Y-92055600D01*
X112440840Y-92132025D01*
X112299625Y-92273240D01*
X112223200Y-92457746D01*
X109030858Y-92457746D01*
X108918486Y-92411200D01*
X108718778Y-92411200D01*
X108534272Y-92487625D01*
X108393057Y-92628840D01*
X108316632Y-92813346D01*
X108039610Y-92813346D01*
X108039610Y-92753674D01*
X107963185Y-92569168D01*
X107821970Y-92427953D01*
X107637464Y-92351528D01*
X107437756Y-92351528D01*
X107253250Y-92427953D01*
X107112035Y-92569168D01*
X107035610Y-92753674D01*
X107035610Y-92953382D01*
X107050988Y-92990507D01*
X106882746Y-92990507D01*
X106698240Y-93066932D01*
X106557025Y-93208147D01*
X106480600Y-93392653D01*
X96302000Y-93392653D01*
X96302000Y-93300146D01*
X96225575Y-93115640D01*
X96084360Y-92974425D01*
X95899854Y-92898000D01*
X95700146Y-92898000D01*
X95515640Y-92974425D01*
X95374425Y-93115640D01*
X95298000Y-93300146D01*
X84777000Y-93300146D01*
X84777000Y-92300146D01*
X91198000Y-92300146D01*
X91198000Y-92499854D01*
X91274425Y-92684360D01*
X91415640Y-92825575D01*
X91600146Y-92902000D01*
X91799854Y-92902000D01*
X91984360Y-92825575D01*
X92125575Y-92684360D01*
X92202000Y-92499854D01*
X92202000Y-92300146D01*
X92125575Y-92115640D01*
X91984360Y-91974425D01*
X91799854Y-91898000D01*
X91600146Y-91898000D01*
X91415640Y-91974425D01*
X91274425Y-92115640D01*
X91198000Y-92300146D01*
X84777000Y-92300146D01*
X84777000Y-91543346D01*
X96780000Y-91543346D01*
X96780000Y-91743054D01*
X96856425Y-91927560D01*
X96997640Y-92068775D01*
X97182146Y-92145200D01*
X97381854Y-92145200D01*
X97497230Y-92097410D01*
X97534978Y-92188542D01*
X97676193Y-92329757D01*
X97860699Y-92406182D01*
X98060407Y-92406182D01*
X98244913Y-92329757D01*
X98386128Y-92188542D01*
X98462553Y-92004036D01*
X98462553Y-91804328D01*
X98396535Y-91644946D01*
X103841200Y-91644946D01*
X103841200Y-91844654D01*
X103917625Y-92029160D01*
X104058840Y-92170375D01*
X104243346Y-92246800D01*
X104443054Y-92246800D01*
X104627560Y-92170375D01*
X104768775Y-92029160D01*
X104845200Y-91844654D01*
X104845200Y-91644946D01*
X104768775Y-91460440D01*
X104648481Y-91340146D01*
X105619200Y-91340146D01*
X105619200Y-91539854D01*
X105695625Y-91724360D01*
X105836840Y-91865575D01*
X106021346Y-91942000D01*
X106221054Y-91942000D01*
X106405560Y-91865575D01*
X106546775Y-91724360D01*
X106547178Y-91723388D01*
X106602466Y-91856866D01*
X106743681Y-91998081D01*
X106928187Y-92074506D01*
X107127895Y-92074506D01*
X107312401Y-91998081D01*
X107360736Y-91949746D01*
X120097200Y-91949746D01*
X120097200Y-92149454D01*
X120173625Y-92333960D01*
X120314840Y-92475175D01*
X120499346Y-92551600D01*
X120699054Y-92551600D01*
X120883560Y-92475175D01*
X121024775Y-92333960D01*
X121101200Y-92149454D01*
X121101200Y-91949746D01*
X121024775Y-91765240D01*
X120883560Y-91624025D01*
X120699054Y-91547600D01*
X120499346Y-91547600D01*
X120314840Y-91624025D01*
X120173625Y-91765240D01*
X120097200Y-91949746D01*
X107360736Y-91949746D01*
X107453616Y-91856866D01*
X107530041Y-91672360D01*
X107530041Y-91472652D01*
X107453616Y-91288146D01*
X107312401Y-91146931D01*
X107127895Y-91070506D01*
X106928187Y-91070506D01*
X106743681Y-91146931D01*
X106602466Y-91288146D01*
X106602063Y-91289118D01*
X106546775Y-91155640D01*
X106405560Y-91014425D01*
X106221054Y-90938000D01*
X106021346Y-90938000D01*
X105836840Y-91014425D01*
X105695625Y-91155640D01*
X105619200Y-91340146D01*
X104648481Y-91340146D01*
X104627560Y-91319225D01*
X104443054Y-91242800D01*
X104243346Y-91242800D01*
X104058840Y-91319225D01*
X103917625Y-91460440D01*
X103841200Y-91644946D01*
X98396535Y-91644946D01*
X98386128Y-91619822D01*
X98255614Y-91489308D01*
X98328360Y-91459175D01*
X98469575Y-91317960D01*
X98546000Y-91133454D01*
X98546000Y-90933746D01*
X98469575Y-90749240D01*
X98361957Y-90641622D01*
X108206722Y-90641622D01*
X108206722Y-90841330D01*
X108283147Y-91025836D01*
X108424362Y-91167051D01*
X108608868Y-91243476D01*
X108808576Y-91243476D01*
X108993082Y-91167051D01*
X109124400Y-91035733D01*
X109124400Y-91042876D01*
X109200825Y-91227382D01*
X109342040Y-91368597D01*
X109526546Y-91445022D01*
X109726254Y-91445022D01*
X109910760Y-91368597D01*
X110051975Y-91227382D01*
X110128400Y-91042876D01*
X110128400Y-90843168D01*
X110051975Y-90658662D01*
X109910760Y-90517447D01*
X109812017Y-90476546D01*
X119640000Y-90476546D01*
X119640000Y-90676254D01*
X119716425Y-90860760D01*
X119857640Y-91001975D01*
X120042146Y-91078400D01*
X120241854Y-91078400D01*
X120426360Y-91001975D01*
X120567575Y-90860760D01*
X120644000Y-90676254D01*
X120644000Y-90476546D01*
X120567575Y-90292040D01*
X120426360Y-90150825D01*
X120241854Y-90074400D01*
X120042146Y-90074400D01*
X119857640Y-90150825D01*
X119716425Y-90292040D01*
X119640000Y-90476546D01*
X109812017Y-90476546D01*
X109726254Y-90441022D01*
X109526546Y-90441022D01*
X109342040Y-90517447D01*
X109210722Y-90648765D01*
X109210722Y-90641622D01*
X109134297Y-90457116D01*
X108993082Y-90315901D01*
X108808576Y-90239476D01*
X108608868Y-90239476D01*
X108424362Y-90315901D01*
X108283147Y-90457116D01*
X108206722Y-90641622D01*
X98361957Y-90641622D01*
X98328360Y-90608025D01*
X98143854Y-90531600D01*
X97944146Y-90531600D01*
X97759640Y-90608025D01*
X97618425Y-90749240D01*
X97542000Y-90933746D01*
X97542000Y-91133454D01*
X97584293Y-91235558D01*
X97566360Y-91217625D01*
X97381854Y-91141200D01*
X97182146Y-91141200D01*
X96997640Y-91217625D01*
X96856425Y-91358840D01*
X96780000Y-91543346D01*
X84777000Y-91543346D01*
X84777000Y-89714546D01*
X106025600Y-89714546D01*
X106025600Y-89914254D01*
X106102025Y-90098760D01*
X106243240Y-90239975D01*
X106427746Y-90316400D01*
X106627454Y-90316400D01*
X106811960Y-90239975D01*
X106953175Y-90098760D01*
X107029600Y-89914254D01*
X107029600Y-89714546D01*
X106953175Y-89530040D01*
X106934481Y-89511346D01*
X109022800Y-89511346D01*
X109022800Y-89711054D01*
X109099225Y-89895560D01*
X109240440Y-90036775D01*
X109424946Y-90113200D01*
X109624654Y-90113200D01*
X109809160Y-90036775D01*
X109950375Y-89895560D01*
X110026800Y-89711054D01*
X110026800Y-89511346D01*
X109950375Y-89326840D01*
X109809160Y-89185625D01*
X109624654Y-89109200D01*
X109424946Y-89109200D01*
X109240440Y-89185625D01*
X109099225Y-89326840D01*
X109022800Y-89511346D01*
X106934481Y-89511346D01*
X106811960Y-89388825D01*
X106627454Y-89312400D01*
X106427746Y-89312400D01*
X106243240Y-89388825D01*
X106102025Y-89530040D01*
X106025600Y-89714546D01*
X84777000Y-89714546D01*
X84777000Y-87420146D01*
X87328000Y-87420146D01*
X87328000Y-87619854D01*
X87404425Y-87804360D01*
X87545640Y-87945575D01*
X87730146Y-88022000D01*
X87929854Y-88022000D01*
X88114360Y-87945575D01*
X88199015Y-87860920D01*
X88161450Y-87951610D01*
X88161450Y-88151318D01*
X88237875Y-88335824D01*
X88379090Y-88477039D01*
X88563596Y-88553464D01*
X88763304Y-88553464D01*
X88794358Y-88540601D01*
X88778002Y-88580087D01*
X88778002Y-88779795D01*
X88854427Y-88964301D01*
X88995642Y-89105516D01*
X89180148Y-89181941D01*
X89379856Y-89181941D01*
X89564362Y-89105516D01*
X89705577Y-88964301D01*
X89768299Y-88812876D01*
X90476546Y-88812876D01*
X90476546Y-89012584D01*
X90552971Y-89197090D01*
X90694186Y-89338305D01*
X90878692Y-89414730D01*
X91078400Y-89414730D01*
X91262906Y-89338305D01*
X91404121Y-89197090D01*
X91459732Y-89062834D01*
X91530146Y-89092000D01*
X91729854Y-89092000D01*
X91914360Y-89015575D01*
X92055575Y-88874360D01*
X92132000Y-88689854D01*
X92132000Y-88490146D01*
X92055575Y-88305640D01*
X91914360Y-88164425D01*
X91729854Y-88088000D01*
X91530146Y-88088000D01*
X91345640Y-88164425D01*
X91204425Y-88305640D01*
X91148814Y-88439896D01*
X91078400Y-88410730D01*
X90878692Y-88410730D01*
X90694186Y-88487155D01*
X90552971Y-88628370D01*
X90476546Y-88812876D01*
X89768299Y-88812876D01*
X89782002Y-88779795D01*
X89782002Y-88580087D01*
X89705577Y-88395581D01*
X89564362Y-88254366D01*
X89379856Y-88177941D01*
X89180148Y-88177941D01*
X89149094Y-88190804D01*
X89165450Y-88151318D01*
X89165450Y-87951610D01*
X89089025Y-87767104D01*
X88984135Y-87662214D01*
X89842983Y-87662214D01*
X89842983Y-87861922D01*
X89919408Y-88046428D01*
X90060623Y-88187643D01*
X90245129Y-88264068D01*
X90444837Y-88264068D01*
X90629343Y-88187643D01*
X90770558Y-88046428D01*
X90846983Y-87861922D01*
X90846983Y-87787216D01*
X95417559Y-87787216D01*
X95417559Y-87986924D01*
X95493984Y-88171430D01*
X95635199Y-88312645D01*
X95819705Y-88389070D01*
X95920786Y-88389070D01*
X95920786Y-88511623D01*
X95997211Y-88696129D01*
X96138426Y-88837344D01*
X96322932Y-88913769D01*
X96493997Y-88913769D01*
X96493997Y-88981635D01*
X96570422Y-89166141D01*
X96711637Y-89307356D01*
X96896143Y-89383781D01*
X97095851Y-89383781D01*
X97280357Y-89307356D01*
X97421572Y-89166141D01*
X97467961Y-89054146D01*
X102063200Y-89054146D01*
X102063200Y-89253854D01*
X102139625Y-89438360D01*
X102280840Y-89579575D01*
X102465346Y-89656000D01*
X102665054Y-89656000D01*
X102849560Y-89579575D01*
X102990775Y-89438360D01*
X103067200Y-89253854D01*
X103067200Y-89054146D01*
X111715200Y-89054146D01*
X111715200Y-89253854D01*
X111791625Y-89438360D01*
X111932840Y-89579575D01*
X112117346Y-89656000D01*
X112317054Y-89656000D01*
X112501560Y-89579575D01*
X112642775Y-89438360D01*
X112719200Y-89253854D01*
X112719200Y-89054146D01*
X112642775Y-88869640D01*
X112501560Y-88728425D01*
X112317054Y-88652000D01*
X112117346Y-88652000D01*
X111932840Y-88728425D01*
X111791625Y-88869640D01*
X111715200Y-89054146D01*
X103067200Y-89054146D01*
X102990775Y-88869640D01*
X102849560Y-88728425D01*
X102665054Y-88652000D01*
X102465346Y-88652000D01*
X102280840Y-88728425D01*
X102139625Y-88869640D01*
X102063200Y-89054146D01*
X97467961Y-89054146D01*
X97497997Y-88981635D01*
X97497997Y-88781927D01*
X97421572Y-88597421D01*
X97280569Y-88456418D01*
X120908000Y-88456418D01*
X120908000Y-88755582D01*
X121022485Y-89031974D01*
X121234026Y-89243515D01*
X121510418Y-89358000D01*
X121809582Y-89358000D01*
X122085974Y-89243515D01*
X122297515Y-89031974D01*
X122412000Y-88755582D01*
X122412000Y-88456418D01*
X122297515Y-88180026D01*
X122085974Y-87968485D01*
X121809582Y-87854000D01*
X121510418Y-87854000D01*
X121234026Y-87968485D01*
X121022485Y-88180026D01*
X120908000Y-88456418D01*
X97280569Y-88456418D01*
X97280357Y-88456206D01*
X97095851Y-88379781D01*
X96924786Y-88379781D01*
X96924786Y-88311915D01*
X96848361Y-88127409D01*
X96707146Y-87986194D01*
X96522640Y-87909769D01*
X96421559Y-87909769D01*
X96421559Y-87787216D01*
X96345134Y-87602710D01*
X96203919Y-87461495D01*
X96019413Y-87385070D01*
X95819705Y-87385070D01*
X95635199Y-87461495D01*
X95493984Y-87602710D01*
X95417559Y-87787216D01*
X90846983Y-87787216D01*
X90846983Y-87662214D01*
X90770558Y-87477708D01*
X90629343Y-87336493D01*
X90552060Y-87304481D01*
X107843263Y-87304481D01*
X107843263Y-87504189D01*
X107919688Y-87688695D01*
X108060903Y-87829910D01*
X108245409Y-87906335D01*
X108445117Y-87906335D01*
X108629623Y-87829910D01*
X108770838Y-87688695D01*
X108836511Y-87530146D01*
X112274000Y-87530146D01*
X112274000Y-87729854D01*
X112350425Y-87914360D01*
X112491640Y-88055575D01*
X112676146Y-88132000D01*
X112875854Y-88132000D01*
X113060360Y-88055575D01*
X113201575Y-87914360D01*
X113278000Y-87729854D01*
X113278000Y-87530146D01*
X113201575Y-87345640D01*
X113060360Y-87204425D01*
X112875854Y-87128000D01*
X112676146Y-87128000D01*
X112491640Y-87204425D01*
X112350425Y-87345640D01*
X112274000Y-87530146D01*
X108836511Y-87530146D01*
X108847263Y-87504189D01*
X108847263Y-87304481D01*
X108786912Y-87158780D01*
X108843875Y-87135185D01*
X108985090Y-86993970D01*
X109053447Y-86828941D01*
X114571259Y-86828941D01*
X114571259Y-87028649D01*
X114647684Y-87213155D01*
X114788899Y-87354370D01*
X114829110Y-87371026D01*
X114763200Y-87530146D01*
X114763200Y-87729854D01*
X114839625Y-87914360D01*
X114980840Y-88055575D01*
X115165346Y-88132000D01*
X115365054Y-88132000D01*
X115549560Y-88055575D01*
X115690775Y-87914360D01*
X115723669Y-87834946D01*
X118776400Y-87834946D01*
X118776400Y-88034654D01*
X118852825Y-88219160D01*
X118994040Y-88360375D01*
X119178546Y-88436800D01*
X119378254Y-88436800D01*
X119562760Y-88360375D01*
X119703975Y-88219160D01*
X119780400Y-88034654D01*
X119780400Y-87834946D01*
X119703975Y-87650440D01*
X119562760Y-87509225D01*
X119378254Y-87432800D01*
X119178546Y-87432800D01*
X118994040Y-87509225D01*
X118852825Y-87650440D01*
X118776400Y-87834946D01*
X115723669Y-87834946D01*
X115767200Y-87729854D01*
X115767200Y-87530146D01*
X115690775Y-87345640D01*
X115549560Y-87204425D01*
X115509349Y-87187769D01*
X115575259Y-87028649D01*
X115575259Y-86828941D01*
X115498834Y-86644435D01*
X115357619Y-86503220D01*
X115173113Y-86426795D01*
X114973405Y-86426795D01*
X114788899Y-86503220D01*
X114647684Y-86644435D01*
X114571259Y-86828941D01*
X109053447Y-86828941D01*
X109061515Y-86809464D01*
X109061515Y-86609756D01*
X109016222Y-86500410D01*
X109173444Y-86500410D01*
X109357950Y-86423985D01*
X109499165Y-86282770D01*
X109575590Y-86098264D01*
X109575590Y-85898556D01*
X109499165Y-85714050D01*
X109357950Y-85572835D01*
X109300277Y-85548946D01*
X112020000Y-85548946D01*
X112020000Y-85748654D01*
X112096425Y-85933160D01*
X112237640Y-86074375D01*
X112422146Y-86150800D01*
X112621854Y-86150800D01*
X112806360Y-86074375D01*
X112947575Y-85933160D01*
X112959168Y-85905171D01*
X115067375Y-85905171D01*
X115067375Y-86104879D01*
X115143800Y-86289385D01*
X115285015Y-86430600D01*
X115469521Y-86507025D01*
X115669229Y-86507025D01*
X115853735Y-86430600D01*
X115994950Y-86289385D01*
X116071375Y-86104879D01*
X116071375Y-85955346D01*
X119182800Y-85955346D01*
X119182800Y-86155054D01*
X119259225Y-86339560D01*
X119400440Y-86480775D01*
X119584946Y-86557200D01*
X119784654Y-86557200D01*
X119969160Y-86480775D01*
X120110375Y-86339560D01*
X120186800Y-86155054D01*
X120186800Y-85955346D01*
X120110375Y-85770840D01*
X119969160Y-85629625D01*
X119784654Y-85553200D01*
X119584946Y-85553200D01*
X119400440Y-85629625D01*
X119259225Y-85770840D01*
X119182800Y-85955346D01*
X116071375Y-85955346D01*
X116071375Y-85905171D01*
X115994950Y-85720665D01*
X115853735Y-85579450D01*
X115669229Y-85503025D01*
X115469521Y-85503025D01*
X115285015Y-85579450D01*
X115143800Y-85720665D01*
X115067375Y-85905171D01*
X112959168Y-85905171D01*
X113024000Y-85748654D01*
X113024000Y-85548946D01*
X112947575Y-85364440D01*
X112806360Y-85223225D01*
X112621854Y-85146800D01*
X112422146Y-85146800D01*
X112237640Y-85223225D01*
X112096425Y-85364440D01*
X112020000Y-85548946D01*
X109300277Y-85548946D01*
X109173444Y-85496410D01*
X108973736Y-85496410D01*
X108789230Y-85572835D01*
X108648015Y-85714050D01*
X108571590Y-85898556D01*
X108571590Y-86098264D01*
X108616883Y-86207610D01*
X108459661Y-86207610D01*
X108275155Y-86284035D01*
X108133940Y-86425250D01*
X108057515Y-86609756D01*
X108057515Y-86809464D01*
X108117866Y-86955165D01*
X108060903Y-86978760D01*
X107919688Y-87119975D01*
X107843263Y-87304481D01*
X90552060Y-87304481D01*
X90444837Y-87260068D01*
X90245129Y-87260068D01*
X90060623Y-87336493D01*
X89919408Y-87477708D01*
X89842983Y-87662214D01*
X88984135Y-87662214D01*
X88947810Y-87625889D01*
X88763304Y-87549464D01*
X88563596Y-87549464D01*
X88379090Y-87625889D01*
X88294435Y-87710544D01*
X88332000Y-87619854D01*
X88332000Y-87420146D01*
X88255575Y-87235640D01*
X88114360Y-87094425D01*
X87929854Y-87018000D01*
X87730146Y-87018000D01*
X87545640Y-87094425D01*
X87404425Y-87235640D01*
X87328000Y-87420146D01*
X84777000Y-87420146D01*
X84777000Y-85950146D01*
X94308000Y-85950146D01*
X94308000Y-86149854D01*
X94384425Y-86334360D01*
X94525640Y-86475575D01*
X94569926Y-86493919D01*
X94500827Y-86660737D01*
X94500827Y-86860445D01*
X94577252Y-87044951D01*
X94718467Y-87186166D01*
X94902973Y-87262591D01*
X95102681Y-87262591D01*
X95287187Y-87186166D01*
X95428402Y-87044951D01*
X95504827Y-86860445D01*
X95504827Y-86660737D01*
X95428402Y-86476231D01*
X95287187Y-86335016D01*
X95242901Y-86316672D01*
X95312000Y-86149854D01*
X95312000Y-85969721D01*
X95391487Y-85969721D01*
X95391487Y-86169429D01*
X95467912Y-86353935D01*
X95609127Y-86495150D01*
X95793633Y-86571575D01*
X95993341Y-86571575D01*
X96177847Y-86495150D01*
X96319062Y-86353935D01*
X96395487Y-86169429D01*
X96395487Y-85969721D01*
X96319062Y-85785215D01*
X96177847Y-85644000D01*
X95993341Y-85567575D01*
X95793633Y-85567575D01*
X95609127Y-85644000D01*
X95467912Y-85785215D01*
X95391487Y-85969721D01*
X95312000Y-85969721D01*
X95312000Y-85950146D01*
X95235575Y-85765640D01*
X95094360Y-85624425D01*
X94909854Y-85548000D01*
X94710146Y-85548000D01*
X94525640Y-85624425D01*
X94384425Y-85765640D01*
X94308000Y-85950146D01*
X84777000Y-85950146D01*
X84777000Y-84860169D01*
X87117988Y-84860169D01*
X87117988Y-85059877D01*
X87194413Y-85244383D01*
X87335628Y-85385598D01*
X87520134Y-85462023D01*
X87719842Y-85462023D01*
X87904348Y-85385598D01*
X88045563Y-85244383D01*
X88121988Y-85059877D01*
X88121988Y-84860169D01*
X88101351Y-84810347D01*
X88252885Y-84747580D01*
X88283124Y-84717341D01*
X88405336Y-84839553D01*
X88589842Y-84915978D01*
X88789550Y-84915978D01*
X88974056Y-84839553D01*
X89115271Y-84698338D01*
X89191696Y-84513832D01*
X89191696Y-84485820D01*
X89375647Y-84485820D01*
X89395673Y-84477525D01*
X89467828Y-84651722D01*
X89609043Y-84792937D01*
X89793549Y-84869362D01*
X89993257Y-84869362D01*
X90177763Y-84792937D01*
X90318978Y-84651722D01*
X90361038Y-84550178D01*
X96618032Y-84550178D01*
X96618032Y-84749886D01*
X96694457Y-84934392D01*
X96835672Y-85075607D01*
X97020178Y-85152032D01*
X97219886Y-85152032D01*
X97404392Y-85075607D01*
X97545607Y-84934392D01*
X97622032Y-84749886D01*
X97622032Y-84550178D01*
X97614895Y-84532946D01*
X105788621Y-84532946D01*
X105788621Y-84732654D01*
X105865046Y-84917160D01*
X106006261Y-85058375D01*
X106190767Y-85134800D01*
X106390475Y-85134800D01*
X106574981Y-85058375D01*
X106716196Y-84917160D01*
X106792621Y-84732654D01*
X106792621Y-84532946D01*
X106729495Y-84380546D01*
X118928800Y-84380546D01*
X118928800Y-84580254D01*
X119005225Y-84764760D01*
X119146440Y-84905975D01*
X119330946Y-84982400D01*
X119530654Y-84982400D01*
X119715160Y-84905975D01*
X119856375Y-84764760D01*
X119932800Y-84580254D01*
X119932800Y-84380546D01*
X119856375Y-84196040D01*
X119715160Y-84054825D01*
X119530654Y-83978400D01*
X119330946Y-83978400D01*
X119146440Y-84054825D01*
X119005225Y-84196040D01*
X118928800Y-84380546D01*
X106729495Y-84380546D01*
X106716196Y-84348440D01*
X106574981Y-84207225D01*
X106390475Y-84130800D01*
X106190767Y-84130800D01*
X106006261Y-84207225D01*
X105865046Y-84348440D01*
X105788621Y-84532946D01*
X97614895Y-84532946D01*
X97545607Y-84365672D01*
X97404392Y-84224457D01*
X97219886Y-84148032D01*
X97020178Y-84148032D01*
X96835672Y-84224457D01*
X96694457Y-84365672D01*
X96618032Y-84550178D01*
X90361038Y-84550178D01*
X90395403Y-84467216D01*
X90395403Y-84267508D01*
X90318978Y-84083002D01*
X90177763Y-83941787D01*
X89993257Y-83865362D01*
X89793549Y-83865362D01*
X89773523Y-83873657D01*
X89701368Y-83699460D01*
X89560153Y-83558245D01*
X89377697Y-83482669D01*
X89412000Y-83399854D01*
X89412000Y-83200146D01*
X89353122Y-83058001D01*
X97151364Y-83058001D01*
X97151364Y-83257709D01*
X97227789Y-83442215D01*
X97369004Y-83583430D01*
X97553510Y-83659855D01*
X97753218Y-83659855D01*
X97937724Y-83583430D01*
X98003583Y-83517571D01*
X104399375Y-83517571D01*
X104399375Y-83717279D01*
X104475800Y-83901785D01*
X104617015Y-84043000D01*
X104801521Y-84119425D01*
X105001229Y-84119425D01*
X105185735Y-84043000D01*
X105326950Y-83901785D01*
X105403375Y-83717279D01*
X105403375Y-83517571D01*
X105378045Y-83456418D01*
X120908000Y-83456418D01*
X120908000Y-83755582D01*
X121022485Y-84031974D01*
X121234026Y-84243515D01*
X121510418Y-84358000D01*
X121809582Y-84358000D01*
X122085974Y-84243515D01*
X122297515Y-84031974D01*
X122412000Y-83755582D01*
X122412000Y-83456418D01*
X122297515Y-83180026D01*
X122085974Y-82968485D01*
X121809582Y-82854000D01*
X121510418Y-82854000D01*
X121234026Y-82968485D01*
X121022485Y-83180026D01*
X120908000Y-83456418D01*
X105378045Y-83456418D01*
X105326950Y-83333065D01*
X105185735Y-83191850D01*
X105001229Y-83115425D01*
X104801521Y-83115425D01*
X104617015Y-83191850D01*
X104475800Y-83333065D01*
X104399375Y-83517571D01*
X98003583Y-83517571D01*
X98078939Y-83442215D01*
X98155364Y-83257709D01*
X98155364Y-83058001D01*
X98078939Y-82873495D01*
X97937724Y-82732280D01*
X97753218Y-82655855D01*
X97553510Y-82655855D01*
X97369004Y-82732280D01*
X97227789Y-82873495D01*
X97151364Y-83058001D01*
X89353122Y-83058001D01*
X89335575Y-83015640D01*
X89194360Y-82874425D01*
X89009854Y-82798000D01*
X88810146Y-82798000D01*
X88625640Y-82874425D01*
X88484425Y-83015640D01*
X88408000Y-83200146D01*
X88408000Y-83399854D01*
X88484425Y-83584360D01*
X88625640Y-83725575D01*
X88808096Y-83801151D01*
X88773793Y-83883966D01*
X88773793Y-83911978D01*
X88589842Y-83911978D01*
X88405336Y-83988403D01*
X88375097Y-84018642D01*
X88252885Y-83896430D01*
X88068379Y-83820005D01*
X87868671Y-83820005D01*
X87684165Y-83896430D01*
X87542950Y-84037645D01*
X87466525Y-84222151D01*
X87466525Y-84421859D01*
X87487162Y-84471681D01*
X87335628Y-84534448D01*
X87194413Y-84675663D01*
X87117988Y-84860169D01*
X84777000Y-84860169D01*
X84777000Y-83480146D01*
X84858000Y-83480146D01*
X84858000Y-83679854D01*
X84934425Y-83864360D01*
X85075640Y-84005575D01*
X85260146Y-84082000D01*
X85459854Y-84082000D01*
X85644360Y-84005575D01*
X85785575Y-83864360D01*
X85862000Y-83679854D01*
X85862000Y-83480146D01*
X85785575Y-83295640D01*
X85644360Y-83154425D01*
X85459854Y-83078000D01*
X85260146Y-83078000D01*
X85075640Y-83154425D01*
X84934425Y-83295640D01*
X84858000Y-83480146D01*
X84777000Y-83480146D01*
X84777000Y-81972721D01*
X84771678Y-81945965D01*
X84771678Y-81945961D01*
X84748642Y-81830146D01*
X86788000Y-81830146D01*
X86788000Y-82029854D01*
X86864425Y-82214360D01*
X87005640Y-82355575D01*
X87190146Y-82432000D01*
X87389854Y-82432000D01*
X87574360Y-82355575D01*
X87715000Y-82214935D01*
X87805640Y-82305575D01*
X87990146Y-82382000D01*
X88189854Y-82382000D01*
X88234610Y-82363461D01*
X88302089Y-82526370D01*
X88443304Y-82667585D01*
X88627810Y-82744010D01*
X88827518Y-82744010D01*
X89012024Y-82667585D01*
X89153239Y-82526370D01*
X89229664Y-82341864D01*
X89229664Y-82210146D01*
X99348000Y-82210146D01*
X99348000Y-82409854D01*
X99424425Y-82594360D01*
X99565640Y-82735575D01*
X99750146Y-82812000D01*
X99949854Y-82812000D01*
X100134360Y-82735575D01*
X100275575Y-82594360D01*
X100352000Y-82409854D01*
X100352000Y-82399346D01*
X102926800Y-82399346D01*
X102926800Y-82599054D01*
X103003225Y-82783560D01*
X103144440Y-82924775D01*
X103328946Y-83001200D01*
X103528654Y-83001200D01*
X103713160Y-82924775D01*
X103854375Y-82783560D01*
X103930800Y-82599054D01*
X103930800Y-82506936D01*
X105873200Y-82506936D01*
X105873200Y-82706644D01*
X105949625Y-82891150D01*
X106090840Y-83032365D01*
X106275346Y-83108790D01*
X106475054Y-83108790D01*
X106659560Y-83032365D01*
X106800775Y-82891150D01*
X106877200Y-82706644D01*
X106877200Y-82644335D01*
X106954440Y-82721575D01*
X107138946Y-82798000D01*
X107338654Y-82798000D01*
X107523160Y-82721575D01*
X107664375Y-82580360D01*
X107740800Y-82395854D01*
X107740800Y-82196146D01*
X107664375Y-82011640D01*
X107523160Y-81870425D01*
X107338654Y-81794000D01*
X107138946Y-81794000D01*
X106954440Y-81870425D01*
X106813225Y-82011640D01*
X106736800Y-82196146D01*
X106736800Y-82258455D01*
X106659560Y-82181215D01*
X106475054Y-82104790D01*
X106275346Y-82104790D01*
X106090840Y-82181215D01*
X105949625Y-82322430D01*
X105873200Y-82506936D01*
X103930800Y-82506936D01*
X103930800Y-82399346D01*
X103854375Y-82214840D01*
X103713160Y-82073625D01*
X103528654Y-81997200D01*
X103328946Y-81997200D01*
X103144440Y-82073625D01*
X103003225Y-82214840D01*
X102926800Y-82399346D01*
X100352000Y-82399346D01*
X100352000Y-82210146D01*
X100275575Y-82025640D01*
X100134360Y-81884425D01*
X99949854Y-81808000D01*
X99750146Y-81808000D01*
X99565640Y-81884425D01*
X99424425Y-82025640D01*
X99348000Y-82210146D01*
X89229664Y-82210146D01*
X89229664Y-82142156D01*
X89153239Y-81957650D01*
X89012024Y-81816435D01*
X88827518Y-81740010D01*
X88627810Y-81740010D01*
X88583054Y-81758549D01*
X88515575Y-81595640D01*
X88374360Y-81454425D01*
X88189854Y-81378000D01*
X87990146Y-81378000D01*
X87805640Y-81454425D01*
X87665000Y-81595065D01*
X87574360Y-81504425D01*
X87389854Y-81428000D01*
X87190146Y-81428000D01*
X87005640Y-81504425D01*
X86864425Y-81645640D01*
X86788000Y-81830146D01*
X84748642Y-81830146D01*
X84733618Y-81754618D01*
X84692258Y-81654766D01*
X84692256Y-81654764D01*
X84583872Y-81492558D01*
X84583871Y-81492555D01*
X84507445Y-81416129D01*
X84507442Y-81416128D01*
X84378763Y-81330146D01*
X97298000Y-81330146D01*
X97298000Y-81529854D01*
X97374425Y-81714360D01*
X97515640Y-81855575D01*
X97700146Y-81932000D01*
X97899854Y-81932000D01*
X98084360Y-81855575D01*
X98225575Y-81714360D01*
X98302000Y-81529854D01*
X98302000Y-81330146D01*
X98225575Y-81145640D01*
X98084360Y-81004425D01*
X97899854Y-80928000D01*
X97700146Y-80928000D01*
X97515640Y-81004425D01*
X97374425Y-81145640D01*
X97298000Y-81330146D01*
X84378763Y-81330146D01*
X84345239Y-81307746D01*
X84345235Y-81307742D01*
X84245382Y-81266382D01*
X84054040Y-81228322D01*
X83945959Y-81228322D01*
X83754618Y-81266382D01*
X83654766Y-81307742D01*
X83654764Y-81307744D01*
X83492558Y-81416128D01*
X83492555Y-81416129D01*
X83416129Y-81492555D01*
X83416128Y-81492558D01*
X83307746Y-81654761D01*
X83307742Y-81654765D01*
X83266382Y-81754618D01*
X83228322Y-81945960D01*
X83228322Y-81945966D01*
X83223000Y-81972722D01*
X83223000Y-86499009D01*
X83099854Y-86448000D01*
X82950400Y-86448000D01*
X82950400Y-86412546D01*
X82873975Y-86228040D01*
X82732760Y-86086825D01*
X82548254Y-86010400D01*
X82348546Y-86010400D01*
X82164040Y-86086825D01*
X82022825Y-86228040D01*
X81946400Y-86412546D01*
X80004000Y-86412546D01*
X80004000Y-86260146D01*
X79927575Y-86075640D01*
X79786360Y-85934425D01*
X79601854Y-85858000D01*
X79402146Y-85858000D01*
X79217640Y-85934425D01*
X79076425Y-86075640D01*
X79000000Y-86260146D01*
X79000000Y-86459854D01*
X79031874Y-86536804D01*
X79014440Y-86544025D01*
X78873225Y-86685240D01*
X78796800Y-86869746D01*
X78277000Y-86869746D01*
X78277000Y-82297746D01*
X81895600Y-82297746D01*
X81895600Y-82497454D01*
X81972025Y-82681960D01*
X82113240Y-82823175D01*
X82297746Y-82899600D01*
X82497454Y-82899600D01*
X82681960Y-82823175D01*
X82823175Y-82681960D01*
X82899600Y-82497454D01*
X82899600Y-82297746D01*
X82823175Y-82113240D01*
X82681960Y-81972025D01*
X82497454Y-81895600D01*
X82297746Y-81895600D01*
X82113240Y-81972025D01*
X81972025Y-82113240D01*
X81895600Y-82297746D01*
X78277000Y-82297746D01*
X78277000Y-81688146D01*
X79254000Y-81688146D01*
X79254000Y-81887854D01*
X79330425Y-82072360D01*
X79471640Y-82213575D01*
X79656146Y-82290000D01*
X79855854Y-82290000D01*
X80040360Y-82213575D01*
X80181575Y-82072360D01*
X80258000Y-81887854D01*
X80258000Y-81688146D01*
X80181575Y-81503640D01*
X80040360Y-81362425D01*
X79855854Y-81286000D01*
X79656146Y-81286000D01*
X79471640Y-81362425D01*
X79330425Y-81503640D01*
X79254000Y-81688146D01*
X78277000Y-81688146D01*
X78277000Y-80367346D01*
X79203200Y-80367346D01*
X79203200Y-80567054D01*
X79279625Y-80751560D01*
X79420840Y-80892775D01*
X79605346Y-80969200D01*
X79805054Y-80969200D01*
X79989560Y-80892775D01*
X80130775Y-80751560D01*
X80207200Y-80567054D01*
X80207200Y-80367346D01*
X80144074Y-80214946D01*
X84689600Y-80214946D01*
X84689600Y-80414654D01*
X84766025Y-80599160D01*
X84907240Y-80740375D01*
X85091746Y-80816800D01*
X85291454Y-80816800D01*
X85413379Y-80766297D01*
X85470404Y-80903968D01*
X85611619Y-81045183D01*
X85796125Y-81121608D01*
X85995833Y-81121608D01*
X86180339Y-81045183D01*
X86321554Y-80903968D01*
X86397979Y-80719462D01*
X86397979Y-80519754D01*
X86376934Y-80468946D01*
X87128000Y-80468946D01*
X87128000Y-80668654D01*
X87204425Y-80853160D01*
X87345640Y-80994375D01*
X87530146Y-81070800D01*
X87729854Y-81070800D01*
X87914360Y-80994375D01*
X87934800Y-80973935D01*
X88006040Y-81045175D01*
X88190546Y-81121600D01*
X88390254Y-81121600D01*
X88574760Y-81045175D01*
X88715975Y-80903960D01*
X88792400Y-80719454D01*
X88792400Y-80519746D01*
X88785049Y-80502000D01*
X88799854Y-80502000D01*
X88832001Y-80488684D01*
X96686547Y-80488684D01*
X96686547Y-80688392D01*
X96762972Y-80872898D01*
X96904187Y-81014113D01*
X97088693Y-81090538D01*
X97288401Y-81090538D01*
X97472907Y-81014113D01*
X97614122Y-80872898D01*
X97690547Y-80688392D01*
X97690547Y-80488684D01*
X97685414Y-80476290D01*
X98142655Y-80476290D01*
X98142655Y-80675998D01*
X98219080Y-80860504D01*
X98360295Y-81001719D01*
X98544801Y-81078144D01*
X98744509Y-81078144D01*
X98929015Y-81001719D01*
X98943074Y-80987660D01*
X100311542Y-80987660D01*
X100311542Y-81187368D01*
X100387967Y-81371874D01*
X100529182Y-81513089D01*
X100713688Y-81589514D01*
X100913396Y-81589514D01*
X101097902Y-81513089D01*
X101239117Y-81371874D01*
X101315542Y-81187368D01*
X101315542Y-80987660D01*
X101239117Y-80803154D01*
X101108109Y-80672146D01*
X101555200Y-80672146D01*
X101555200Y-80871854D01*
X101631625Y-81056360D01*
X101772840Y-81197575D01*
X101957346Y-81274000D01*
X102157054Y-81274000D01*
X102341560Y-81197575D01*
X102482775Y-81056360D01*
X102559200Y-80871854D01*
X102559200Y-80672146D01*
X102482775Y-80487640D01*
X102341560Y-80346425D01*
X102157054Y-80270000D01*
X101957346Y-80270000D01*
X101772840Y-80346425D01*
X101631625Y-80487640D01*
X101555200Y-80672146D01*
X101108109Y-80672146D01*
X101097902Y-80661939D01*
X100913396Y-80585514D01*
X100713688Y-80585514D01*
X100529182Y-80661939D01*
X100387967Y-80803154D01*
X100311542Y-80987660D01*
X98943074Y-80987660D01*
X99070230Y-80860504D01*
X99146655Y-80675998D01*
X99146655Y-80476290D01*
X99070230Y-80291784D01*
X99050589Y-80272143D01*
X99180775Y-80141956D01*
X99257200Y-79957450D01*
X99257200Y-79757742D01*
X99211825Y-79648197D01*
X101004349Y-79648197D01*
X101004349Y-79847905D01*
X101080774Y-80032411D01*
X101221989Y-80173626D01*
X101406495Y-80250051D01*
X101606203Y-80250051D01*
X101790709Y-80173626D01*
X101931924Y-80032411D01*
X102008349Y-79847905D01*
X102008349Y-79648197D01*
X101931924Y-79463691D01*
X101790709Y-79322476D01*
X101606203Y-79246051D01*
X101406495Y-79246051D01*
X101221989Y-79322476D01*
X101080774Y-79463691D01*
X101004349Y-79648197D01*
X99211825Y-79648197D01*
X99180775Y-79573236D01*
X99039560Y-79432021D01*
X98855054Y-79355596D01*
X98655346Y-79355596D01*
X98470840Y-79432021D01*
X98329625Y-79573236D01*
X98253200Y-79757742D01*
X98253200Y-79957450D01*
X98329625Y-80141956D01*
X98349267Y-80161598D01*
X98219080Y-80291784D01*
X98142655Y-80476290D01*
X97685414Y-80476290D01*
X97614122Y-80304178D01*
X97472907Y-80162963D01*
X97288401Y-80086538D01*
X97088693Y-80086538D01*
X96904187Y-80162963D01*
X96762972Y-80304178D01*
X96686547Y-80488684D01*
X88832001Y-80488684D01*
X88984360Y-80425575D01*
X89125575Y-80284360D01*
X89202000Y-80099854D01*
X89202000Y-79900146D01*
X89125575Y-79715640D01*
X88984360Y-79574425D01*
X88799854Y-79498000D01*
X88600146Y-79498000D01*
X88415640Y-79574425D01*
X88274425Y-79715640D01*
X88198000Y-79900146D01*
X88198000Y-80099854D01*
X88205351Y-80117600D01*
X88190546Y-80117600D01*
X88006040Y-80194025D01*
X87985600Y-80214465D01*
X87914360Y-80143225D01*
X87729854Y-80066800D01*
X87530146Y-80066800D01*
X87345640Y-80143225D01*
X87204425Y-80284440D01*
X87128000Y-80468946D01*
X86376934Y-80468946D01*
X86321554Y-80335248D01*
X86180339Y-80194033D01*
X85995833Y-80117608D01*
X85796125Y-80117608D01*
X85674200Y-80168111D01*
X85617175Y-80030440D01*
X85475960Y-79889225D01*
X85291454Y-79812800D01*
X85091746Y-79812800D01*
X84907240Y-79889225D01*
X84766025Y-80030440D01*
X84689600Y-80214946D01*
X80144074Y-80214946D01*
X80130775Y-80182840D01*
X79989560Y-80041625D01*
X79805054Y-79965200D01*
X79605346Y-79965200D01*
X79420840Y-80041625D01*
X79279625Y-80182840D01*
X79203200Y-80367346D01*
X78277000Y-80367346D01*
X78277000Y-78753731D01*
X98158456Y-78753731D01*
X98158456Y-78953439D01*
X98234881Y-79137945D01*
X98376096Y-79279160D01*
X98560602Y-79355585D01*
X98760310Y-79355585D01*
X98944816Y-79279160D01*
X99025030Y-79198946D01*
X107956000Y-79198946D01*
X107956000Y-79398654D01*
X108032425Y-79583160D01*
X108173640Y-79724375D01*
X108358146Y-79800800D01*
X108557854Y-79800800D01*
X108565600Y-79797591D01*
X108565600Y-79957454D01*
X108642025Y-80141960D01*
X108783240Y-80283175D01*
X108967746Y-80359600D01*
X109167454Y-80359600D01*
X109351960Y-80283175D01*
X109493175Y-80141960D01*
X109569600Y-79957454D01*
X109569600Y-79797591D01*
X109577346Y-79800800D01*
X109777054Y-79800800D01*
X109961560Y-79724375D01*
X110102775Y-79583160D01*
X110179200Y-79398654D01*
X110179200Y-79198946D01*
X110102775Y-79014440D01*
X109961560Y-78873225D01*
X109777054Y-78796800D01*
X109577346Y-78796800D01*
X109392840Y-78873225D01*
X109251625Y-79014440D01*
X109175200Y-79198946D01*
X109175200Y-79358809D01*
X109167454Y-79355600D01*
X108967746Y-79355600D01*
X108960000Y-79358809D01*
X108960000Y-79198946D01*
X108883575Y-79014440D01*
X108742360Y-78873225D01*
X108557854Y-78796800D01*
X108358146Y-78796800D01*
X108173640Y-78873225D01*
X108032425Y-79014440D01*
X107956000Y-79198946D01*
X99025030Y-79198946D01*
X99086031Y-79137945D01*
X99124045Y-79046170D01*
X99182040Y-79104165D01*
X99366546Y-79180590D01*
X99566254Y-79180590D01*
X99750760Y-79104165D01*
X99891975Y-78962950D01*
X99968400Y-78778444D01*
X99968400Y-78578736D01*
X99929988Y-78486000D01*
X119863400Y-78486000D01*
X119924068Y-78790999D01*
X120096836Y-79049564D01*
X120355401Y-79222332D01*
X120660400Y-79283000D01*
X120965399Y-79222332D01*
X121223964Y-79049564D01*
X121396732Y-78790999D01*
X121457400Y-78486000D01*
X122403400Y-78486000D01*
X122464068Y-78790999D01*
X122636836Y-79049564D01*
X122895401Y-79222332D01*
X123200400Y-79283000D01*
X123505399Y-79222332D01*
X123763964Y-79049564D01*
X123936732Y-78790999D01*
X123997400Y-78486000D01*
X123936732Y-78181001D01*
X123763964Y-77922436D01*
X123505399Y-77749668D01*
X123200400Y-77689000D01*
X122895401Y-77749668D01*
X122636836Y-77922436D01*
X122464068Y-78181001D01*
X122403400Y-78486000D01*
X121457400Y-78486000D01*
X121396732Y-78181001D01*
X121223964Y-77922436D01*
X120965399Y-77749668D01*
X120660400Y-77689000D01*
X120355401Y-77749668D01*
X120096836Y-77922436D01*
X119924068Y-78181001D01*
X119863400Y-78486000D01*
X99929988Y-78486000D01*
X99891975Y-78394230D01*
X99750760Y-78253015D01*
X99566254Y-78176590D01*
X99366546Y-78176590D01*
X99182040Y-78253015D01*
X99040825Y-78394230D01*
X99002811Y-78486005D01*
X98944816Y-78428010D01*
X98760310Y-78351585D01*
X98560602Y-78351585D01*
X98376096Y-78428010D01*
X98234881Y-78569225D01*
X98158456Y-78753731D01*
X78277000Y-78753731D01*
X78277000Y-77024038D01*
X88158092Y-77024038D01*
X88158092Y-77223746D01*
X88234517Y-77408252D01*
X88375732Y-77549467D01*
X88560238Y-77625892D01*
X88759946Y-77625892D01*
X88944452Y-77549467D01*
X89003773Y-77490146D01*
X90948000Y-77490146D01*
X90948000Y-77689854D01*
X91024425Y-77874360D01*
X91165640Y-78015575D01*
X91350146Y-78092000D01*
X91549854Y-78092000D01*
X91734360Y-78015575D01*
X91773394Y-77976541D01*
X96586835Y-77976541D01*
X96586835Y-78176249D01*
X96663260Y-78360755D01*
X96804475Y-78501970D01*
X96988981Y-78578395D01*
X97188689Y-78578395D01*
X97373195Y-78501970D01*
X97514410Y-78360755D01*
X97590835Y-78176249D01*
X97590835Y-77976541D01*
X97514410Y-77792035D01*
X97373195Y-77650820D01*
X97188689Y-77574395D01*
X96988981Y-77574395D01*
X96804475Y-77650820D01*
X96663260Y-77792035D01*
X96586835Y-77976541D01*
X91773394Y-77976541D01*
X91875575Y-77874360D01*
X91952000Y-77689854D01*
X91952000Y-77490146D01*
X91875575Y-77305640D01*
X91734360Y-77164425D01*
X91549854Y-77088000D01*
X91350146Y-77088000D01*
X91165640Y-77164425D01*
X91024425Y-77305640D01*
X90948000Y-77490146D01*
X89003773Y-77490146D01*
X89085667Y-77408252D01*
X89162092Y-77223746D01*
X89162092Y-77024038D01*
X89085667Y-76839532D01*
X89016281Y-76770146D01*
X91728000Y-76770146D01*
X91728000Y-76969854D01*
X91804425Y-77154360D01*
X91945640Y-77295575D01*
X92130146Y-77372000D01*
X92329854Y-77372000D01*
X92514360Y-77295575D01*
X92655575Y-77154360D01*
X92732000Y-76969854D01*
X92732000Y-76920967D01*
X93212485Y-76920967D01*
X93212485Y-77120675D01*
X93288910Y-77305181D01*
X93430125Y-77446396D01*
X93614631Y-77522821D01*
X93814339Y-77522821D01*
X93998845Y-77446396D01*
X94140060Y-77305181D01*
X94200765Y-77158626D01*
X95945570Y-77158626D01*
X95945570Y-77358334D01*
X96021995Y-77542840D01*
X96163210Y-77684055D01*
X96347716Y-77760480D01*
X96547424Y-77760480D01*
X96731930Y-77684055D01*
X96873145Y-77542840D01*
X96891277Y-77499066D01*
X97073110Y-77574384D01*
X97272818Y-77574384D01*
X97457324Y-77497959D01*
X97598539Y-77356744D01*
X97635071Y-77268546D01*
X124110400Y-77268546D01*
X124110400Y-77468254D01*
X124186825Y-77652760D01*
X124328040Y-77793975D01*
X124512546Y-77870400D01*
X124712254Y-77870400D01*
X124896760Y-77793975D01*
X125037975Y-77652760D01*
X125114400Y-77468254D01*
X125114400Y-77268546D01*
X125037975Y-77084040D01*
X124896760Y-76942825D01*
X124712254Y-76866400D01*
X124512546Y-76866400D01*
X124328040Y-76942825D01*
X124186825Y-77084040D01*
X124110400Y-77268546D01*
X97635071Y-77268546D01*
X97674964Y-77172238D01*
X97674964Y-76972530D01*
X97598539Y-76788024D01*
X97457324Y-76646809D01*
X97272818Y-76570384D01*
X97073110Y-76570384D01*
X96888604Y-76646809D01*
X96747389Y-76788024D01*
X96729257Y-76831798D01*
X96547424Y-76756480D01*
X96347716Y-76756480D01*
X96163210Y-76832905D01*
X96021995Y-76974120D01*
X95945570Y-77158626D01*
X94200765Y-77158626D01*
X94216485Y-77120675D01*
X94216485Y-76920967D01*
X94140060Y-76736461D01*
X93998845Y-76595246D01*
X93814339Y-76518821D01*
X93614631Y-76518821D01*
X93430125Y-76595246D01*
X93288910Y-76736461D01*
X93212485Y-76920967D01*
X92732000Y-76920967D01*
X92732000Y-76770146D01*
X92655575Y-76585640D01*
X92514360Y-76444425D01*
X92329854Y-76368000D01*
X92130146Y-76368000D01*
X91945640Y-76444425D01*
X91804425Y-76585640D01*
X91728000Y-76770146D01*
X89016281Y-76770146D01*
X88944452Y-76698317D01*
X88759946Y-76621892D01*
X88560238Y-76621892D01*
X88375732Y-76698317D01*
X88234517Y-76839532D01*
X88158092Y-77024038D01*
X78277000Y-77024038D01*
X78277000Y-75134946D01*
X79406400Y-75134946D01*
X79406400Y-75334654D01*
X79482825Y-75519160D01*
X79624040Y-75660375D01*
X79808546Y-75736800D01*
X80008254Y-75736800D01*
X80192760Y-75660375D01*
X80333975Y-75519160D01*
X80410400Y-75334654D01*
X80410400Y-75134946D01*
X80333975Y-74950440D01*
X80192760Y-74809225D01*
X80008254Y-74732800D01*
X79808546Y-74732800D01*
X79624040Y-74809225D01*
X79482825Y-74950440D01*
X79406400Y-75134946D01*
X78277000Y-75134946D01*
X78277000Y-74423746D01*
X84486400Y-74423746D01*
X84486400Y-74623454D01*
X84562825Y-74807960D01*
X84704040Y-74949175D01*
X84888546Y-75025600D01*
X85088254Y-75025600D01*
X85272760Y-74949175D01*
X85290189Y-74931746D01*
X86512410Y-74931746D01*
X86512410Y-75131454D01*
X86588835Y-75315960D01*
X86730050Y-75457175D01*
X86914556Y-75533600D01*
X87114264Y-75533600D01*
X87298770Y-75457175D01*
X87439985Y-75315960D01*
X87475530Y-75230146D01*
X93868000Y-75230146D01*
X93868000Y-75429854D01*
X93944425Y-75614360D01*
X94085640Y-75755575D01*
X94270146Y-75832000D01*
X94469854Y-75832000D01*
X94654360Y-75755575D01*
X94795575Y-75614360D01*
X94796487Y-75612156D01*
X95368000Y-75612156D01*
X95368000Y-75811864D01*
X95444425Y-75996370D01*
X95585640Y-76137585D01*
X95770146Y-76214010D01*
X95969854Y-76214010D01*
X96154360Y-76137585D01*
X96295575Y-75996370D01*
X96372000Y-75811864D01*
X96372000Y-75612156D01*
X96295575Y-75427650D01*
X96264425Y-75396500D01*
X106435600Y-75396500D01*
X106435600Y-75946500D01*
X106557757Y-76210624D01*
X106771691Y-76407896D01*
X106877693Y-76439024D01*
X106985600Y-76416947D01*
X106985600Y-75396500D01*
X107335600Y-75396500D01*
X107335600Y-76416947D01*
X107443507Y-76439024D01*
X107549509Y-76407896D01*
X107763443Y-76210624D01*
X107885600Y-75946500D01*
X107885600Y-75396500D01*
X115075600Y-75396500D01*
X115075600Y-75946500D01*
X115197757Y-76210624D01*
X115411691Y-76407896D01*
X115517693Y-76439024D01*
X115625600Y-76416947D01*
X115625600Y-75396500D01*
X115975600Y-75396500D01*
X115975600Y-76416947D01*
X116083507Y-76439024D01*
X116189509Y-76407896D01*
X116403443Y-76210624D01*
X116525600Y-75946500D01*
X116525600Y-75946000D01*
X119855400Y-75946000D01*
X119916068Y-76250999D01*
X120088836Y-76509564D01*
X120347401Y-76682332D01*
X120652400Y-76743000D01*
X120957399Y-76682332D01*
X121215964Y-76509564D01*
X121388732Y-76250999D01*
X121449400Y-75946000D01*
X122395400Y-75946000D01*
X122456068Y-76250999D01*
X122628836Y-76509564D01*
X122887401Y-76682332D01*
X123192400Y-76743000D01*
X123497399Y-76682332D01*
X123755964Y-76509564D01*
X123928732Y-76250999D01*
X123989400Y-75946000D01*
X123928732Y-75641001D01*
X123755964Y-75382436D01*
X123497399Y-75209668D01*
X123192400Y-75149000D01*
X122887401Y-75209668D01*
X122628836Y-75382436D01*
X122456068Y-75641001D01*
X122395400Y-75946000D01*
X121449400Y-75946000D01*
X121388732Y-75641001D01*
X121215964Y-75382436D01*
X120957399Y-75209668D01*
X120652400Y-75149000D01*
X120347401Y-75209668D01*
X120088836Y-75382436D01*
X119916068Y-75641001D01*
X119855400Y-75946000D01*
X116525600Y-75946000D01*
X116525600Y-75396500D01*
X115975600Y-75396500D01*
X115625600Y-75396500D01*
X115075600Y-75396500D01*
X107885600Y-75396500D01*
X107335600Y-75396500D01*
X106985600Y-75396500D01*
X106435600Y-75396500D01*
X96264425Y-75396500D01*
X96154360Y-75286435D01*
X95969854Y-75210010D01*
X95770146Y-75210010D01*
X95585640Y-75286435D01*
X95444425Y-75427650D01*
X95368000Y-75612156D01*
X94796487Y-75612156D01*
X94872000Y-75429854D01*
X94872000Y-75230146D01*
X94795575Y-75045640D01*
X94654360Y-74904425D01*
X94469854Y-74828000D01*
X94270146Y-74828000D01*
X94085640Y-74904425D01*
X93944425Y-75045640D01*
X93868000Y-75230146D01*
X87475530Y-75230146D01*
X87516410Y-75131454D01*
X87516410Y-74931746D01*
X87439985Y-74747240D01*
X87298770Y-74606025D01*
X87114264Y-74529600D01*
X86914556Y-74529600D01*
X86730050Y-74606025D01*
X86588835Y-74747240D01*
X86512410Y-74931746D01*
X85290189Y-74931746D01*
X85413975Y-74807960D01*
X85490400Y-74623454D01*
X85490400Y-74423746D01*
X85413975Y-74239240D01*
X85281420Y-74106685D01*
X87140261Y-74106685D01*
X87140261Y-74306393D01*
X87216686Y-74490899D01*
X87357901Y-74632114D01*
X87542407Y-74708539D01*
X87742115Y-74708539D01*
X87926621Y-74632114D01*
X88067836Y-74490899D01*
X88144261Y-74306393D01*
X88144261Y-74106685D01*
X88067836Y-73922179D01*
X87926621Y-73780964D01*
X87742115Y-73704539D01*
X87542407Y-73704539D01*
X87357901Y-73780964D01*
X87216686Y-73922179D01*
X87140261Y-74106685D01*
X85281420Y-74106685D01*
X85272760Y-74098025D01*
X85088254Y-74021600D01*
X84888546Y-74021600D01*
X84704040Y-74098025D01*
X84562825Y-74239240D01*
X84486400Y-74423746D01*
X78277000Y-74423746D01*
X78277000Y-73512332D01*
X78352727Y-72663823D01*
X78574248Y-71854080D01*
X78628176Y-71741016D01*
X80198000Y-71741016D01*
X80198000Y-72258984D01*
X80396217Y-72737524D01*
X80762476Y-73103783D01*
X81241016Y-73302000D01*
X81758984Y-73302000D01*
X82237524Y-73103783D01*
X82603783Y-72737524D01*
X82802000Y-72258984D01*
X82802000Y-71741016D01*
X82755911Y-71629746D01*
X85197600Y-71629746D01*
X85197600Y-71829454D01*
X85274025Y-72013960D01*
X85415240Y-72155175D01*
X85599746Y-72231600D01*
X85799454Y-72231600D01*
X85983960Y-72155175D01*
X86125175Y-72013960D01*
X86201600Y-71829454D01*
X86201600Y-71731346D01*
X86315200Y-71731346D01*
X86315200Y-71931054D01*
X86391625Y-72115560D01*
X86532840Y-72256775D01*
X86717346Y-72333200D01*
X86917054Y-72333200D01*
X87101560Y-72256775D01*
X87242775Y-72115560D01*
X87319200Y-71931054D01*
X87319200Y-71731346D01*
X87242775Y-71546840D01*
X87101560Y-71405625D01*
X86917054Y-71329200D01*
X86717346Y-71329200D01*
X86532840Y-71405625D01*
X86391625Y-71546840D01*
X86315200Y-71731346D01*
X86201600Y-71731346D01*
X86201600Y-71629746D01*
X86125175Y-71445240D01*
X85983960Y-71304025D01*
X85799454Y-71227600D01*
X85599746Y-71227600D01*
X85415240Y-71304025D01*
X85274025Y-71445240D01*
X85197600Y-71629746D01*
X82755911Y-71629746D01*
X82603783Y-71262476D01*
X82237524Y-70896217D01*
X81758984Y-70698000D01*
X81241016Y-70698000D01*
X80762476Y-70896217D01*
X80396217Y-71262476D01*
X80198000Y-71741016D01*
X78628176Y-71741016D01*
X78935664Y-71096357D01*
X79425545Y-70414615D01*
X80028412Y-69830396D01*
X80725211Y-69362167D01*
X81493910Y-69024732D01*
X82312340Y-68828244D01*
X83010156Y-68777000D01*
X87425000Y-68777000D01*
X87425000Y-72500000D01*
G04 #@! TD*
M02*
