G04 #@! TF.GenerationSoftware,KiCad,Pcbnew,5.0.2-bee76a0~70~ubuntu18.04.1*
G04 #@! TF.CreationDate,2019-04-08T17:38:34+02:00*
G04 #@! TF.ProjectId,anotterwatch,616e6f74-7465-4727-9761-7463682e6b69,rev?*
G04 #@! TF.SameCoordinates,Original*
G04 #@! TF.FileFunction,Legend,Bot*
G04 #@! TF.FilePolarity,Positive*
%FSLAX46Y46*%
G04 Gerber Fmt 4.6, Leading zero omitted, Abs format (unit mm)*
G04 Created by KiCad (PCBNEW 5.0.2-bee76a0~70~ubuntu18.04.1) date Mo 08 Apr 2019 17:38:34 CEST*
%MOMM*%
%LPD*%
G01*
G04 APERTURE LIST*
%ADD10C,0.150000*%
%ADD11C,0.300000*%
%ADD12C,0.200000*%
%ADD13C,0.010000*%
%ADD14C,0.120000*%
%ADD15C,0.127000*%
%ADD16C,0.254000*%
%ADD17C,0.100000*%
%ADD18C,0.050000*%
G04 APERTURE END LIST*
D10*
X101222865Y-87596573D02*
X101131291Y-87561521D01*
X101039464Y-87452086D01*
X101039211Y-87377703D01*
X101057324Y-87325207D01*
X101111916Y-87242102D01*
X101184872Y-87180884D01*
X101276194Y-87141554D01*
X101331038Y-87132832D01*
X101404247Y-87145997D01*
X101514187Y-87202936D01*
X101587396Y-87216101D01*
X101642239Y-87207379D01*
X101733561Y-87168048D01*
X101806518Y-87106830D01*
X101861109Y-87023725D01*
X101879222Y-86971229D01*
X101878970Y-86896846D01*
X101787143Y-86787411D01*
X101695568Y-86752359D01*
X100800714Y-87167555D02*
X101566759Y-86524768D01*
X101419836Y-86349672D01*
X101346627Y-86336507D01*
X101291783Y-86345229D01*
X101200461Y-86384559D01*
X101091026Y-86476386D01*
X101036435Y-86559491D01*
X101018322Y-86611987D01*
X101018574Y-86686370D01*
X101165497Y-86861466D01*
X100816303Y-86371230D02*
X100687745Y-86218021D01*
X100231388Y-86489059D02*
X100415042Y-86707928D01*
X101181086Y-86065141D01*
X100997432Y-85846271D01*
X100303335Y-86130309D02*
X100119681Y-85911439D01*
X100121196Y-86357737D02*
X100758683Y-85561740D01*
X99864081Y-86051319D01*
X99735523Y-85898110D02*
X100501568Y-85255322D01*
X99515139Y-85635466D02*
X100118167Y-85465142D01*
X100281183Y-84992679D02*
X100063828Y-85622630D01*
X99751112Y-85101785D02*
X99622555Y-84948576D01*
X99166197Y-85219614D02*
X99349851Y-85438483D01*
X100115895Y-84795696D01*
X99932241Y-84576826D01*
X98780524Y-84759987D02*
X99273865Y-84607106D01*
X99000909Y-85022631D02*
X99766953Y-84379843D01*
X99620030Y-84204747D01*
X99546821Y-84191582D01*
X99491978Y-84200304D01*
X99400656Y-84239635D01*
X99291221Y-84331462D01*
X99236630Y-84414567D01*
X99218517Y-84467063D01*
X99218769Y-84541446D01*
X99365692Y-84716541D01*
D11*
X90118571Y-92398571D02*
X88618571Y-92398571D01*
X90118571Y-93112857D02*
X88618571Y-93112857D01*
X88618571Y-93684285D01*
X88690000Y-93827142D01*
X88761428Y-93898571D01*
X88904285Y-93970000D01*
X89118571Y-93970000D01*
X89261428Y-93898571D01*
X89332857Y-93827142D01*
X89404285Y-93684285D01*
X89404285Y-93112857D01*
X90047142Y-94541428D02*
X90118571Y-94755714D01*
X90118571Y-95112857D01*
X90047142Y-95255714D01*
X89975714Y-95327142D01*
X89832857Y-95398571D01*
X89690000Y-95398571D01*
X89547142Y-95327142D01*
X89475714Y-95255714D01*
X89404285Y-95112857D01*
X89332857Y-94827142D01*
X89261428Y-94684285D01*
X89190000Y-94612857D01*
X89047142Y-94541428D01*
X88904285Y-94541428D01*
X88761428Y-94612857D01*
X88690000Y-94684285D01*
X88618571Y-94827142D01*
X88618571Y-95184285D01*
X88690000Y-95398571D01*
X89332857Y-97684285D02*
X89332857Y-97184285D01*
X90118571Y-97184285D02*
X88618571Y-97184285D01*
X88618571Y-97898571D01*
X89332857Y-98970000D02*
X89332857Y-98470000D01*
X90118571Y-98470000D02*
X88618571Y-98470000D01*
X88618571Y-99184285D01*
X89975714Y-100612857D02*
X90047142Y-100541428D01*
X90118571Y-100327142D01*
X90118571Y-100184285D01*
X90047142Y-99970000D01*
X89904285Y-99827142D01*
X89761428Y-99755714D01*
X89475714Y-99684285D01*
X89261428Y-99684285D01*
X88975714Y-99755714D01*
X88832857Y-99827142D01*
X88690000Y-99970000D01*
X88618571Y-100184285D01*
X88618571Y-100327142D01*
X88690000Y-100541428D01*
X88761428Y-100612857D01*
D12*
X93400000Y-100600000D02*
X83870800Y-102438200D01*
X96700000Y-100600000D02*
X93200000Y-100600000D01*
X96647000Y-90271600D02*
X96700000Y-100600000D01*
X89027000Y-90144600D02*
X84353400Y-81686400D01*
X96697800Y-90220800D02*
X89001600Y-90220800D01*
D10*
G04 #@! TO.C,D5*
X98690000Y-75390000D02*
X92290000Y-75390000D01*
X92290000Y-75390000D02*
X92290000Y-73890000D01*
X98690000Y-75390000D02*
X98690000Y-73890000D01*
X98690000Y-73890000D02*
X92290000Y-73890000D01*
D13*
G04 #@! TO.C,U4*
X90950000Y-85070000D02*
G75*
G03X90950000Y-85070000I-100000J0D01*
G01*
X91050000Y-85270000D02*
X91050000Y-87270000D01*
X88050000Y-85270000D02*
X91050000Y-85270000D01*
X88050000Y-87270000D02*
X88050000Y-85270000D01*
X91050000Y-87270000D02*
X88050000Y-87270000D01*
D14*
G04 #@! TO.C,LS1*
X102310581Y-87032419D02*
X101088941Y-88057497D01*
X99469459Y-83646503D02*
X98247819Y-84671581D01*
G04 #@! TO.C,U3*
X89350000Y-84175000D02*
X89350000Y-84650000D01*
X89350000Y-84650000D02*
X89825000Y-84650000D01*
X96570000Y-77905000D02*
X96570000Y-77430000D01*
X96570000Y-77430000D02*
X96095000Y-77430000D01*
X96570000Y-84175000D02*
X96570000Y-84650000D01*
X96570000Y-84650000D02*
X96095000Y-84650000D01*
X89350000Y-77905000D02*
X89350000Y-77430000D01*
G04 #@! TO.C,BT1*
X90283800Y-108096400D02*
X90283800Y-106496400D01*
X90283800Y-106496400D02*
X92083800Y-106496400D01*
X92083800Y-106496400D02*
X92083800Y-105556400D01*
X96253800Y-108096400D02*
X96253800Y-106496400D01*
X96253800Y-106496400D02*
X94453800Y-106496400D01*
X91553800Y-110966400D02*
X94983800Y-110966400D01*
D15*
G04 #@! TO.C,J1*
X97473000Y-111383000D02*
X100004100Y-111383000D01*
X100006822Y-111382997D02*
G75*
G03X101004000Y-111199000I-2672J2808597D01*
G01*
X101015243Y-111194722D02*
G75*
G02X105525100Y-110367000I4509879J-11872278D01*
G01*
X105525100Y-110367000D02*
X112459000Y-110367000D01*
X99002000Y-96397000D02*
X102102000Y-96397000D01*
D14*
G04 #@! TO.C,R50*
X104798400Y-89346820D02*
X104798400Y-89672380D01*
X105818400Y-89346820D02*
X105818400Y-89672380D01*
G04 #@! TO.C,U14*
X82574800Y-86843200D02*
X82349800Y-86843200D01*
X82349800Y-90093200D02*
X82574800Y-90093200D01*
X79549800Y-90093200D02*
X79324800Y-90093200D01*
X82574800Y-86843200D02*
X82574800Y-87818200D01*
X79324800Y-89118200D02*
X79324800Y-90093200D01*
X79324800Y-86843200D02*
X79324800Y-87818200D01*
X82574800Y-89118200D02*
X82574800Y-90093200D01*
D16*
G04 #@! TO.C,U8*
X117662243Y-92383200D02*
G75*
G03X117662243Y-92383200I-282843J0D01*
G01*
X112956400Y-95933200D02*
X112956400Y-95583200D01*
X112956400Y-92783200D02*
X112956400Y-92433200D01*
X116456400Y-95933200D02*
X116456400Y-95583200D01*
X116456400Y-92783200D02*
X116456400Y-92433200D01*
X112956400Y-95933200D02*
X116456400Y-95933200D01*
X116456400Y-92433200D02*
X112956400Y-92433200D01*
G04 #@! TO.C,U7*
X111261443Y-91164000D02*
G75*
G03X111261443Y-91164000I-282843J0D01*
G01*
X106555600Y-94714000D02*
X106555600Y-94364000D01*
X106555600Y-91564000D02*
X106555600Y-91214000D01*
X110055600Y-94714000D02*
X110055600Y-94364000D01*
X110055600Y-91564000D02*
X110055600Y-91214000D01*
X106555600Y-94714000D02*
X110055600Y-94714000D01*
X110055600Y-91214000D02*
X106555600Y-91214000D01*
D14*
G04 #@! TO.C,R52*
X114443922Y-89745073D02*
X114674127Y-89975278D01*
X113722673Y-90466322D02*
X113952878Y-90696527D01*
G04 #@! TO.C,R53*
X113631122Y-90557873D02*
X113861327Y-90788078D01*
X112909873Y-91279122D02*
X113140078Y-91509327D01*
G04 #@! TO.C,D1*
X116892600Y-69377200D02*
X116892600Y-73877200D01*
X120292600Y-69277200D02*
X120292600Y-73877200D01*
X120292600Y-73877200D02*
X119492600Y-73877200D01*
G04 #@! TO.C,D3*
X88700000Y-107300000D02*
X84200000Y-107300000D01*
X88800000Y-110700000D02*
X84200000Y-110700000D01*
X84200000Y-110700000D02*
X84200000Y-109900000D01*
G04 #@! TO.C,D4*
X120200000Y-107266000D02*
X115700000Y-107266000D01*
X120300000Y-110666000D02*
X115700000Y-110666000D01*
X115700000Y-110666000D02*
X115700000Y-109866000D01*
G04 #@! TO.C,D2*
X84202800Y-69275600D02*
X84202800Y-73775600D01*
X87602800Y-69175600D02*
X87602800Y-73775600D01*
X87602800Y-73775600D02*
X86802800Y-73775600D01*
G04 #@! TO.C,R15*
X102453221Y-74991500D02*
X102778779Y-74991500D01*
X102453221Y-76011500D02*
X102778779Y-76011500D01*
G04 #@! TO.C,R9*
X98816379Y-80367600D02*
X98490821Y-80367600D01*
X98816379Y-79347600D02*
X98490821Y-79347600D01*
G04 #@! TO.C,R2*
X93563221Y-102360000D02*
X93888779Y-102360000D01*
X93563221Y-103380000D02*
X93888779Y-103380000D01*
G04 #@! TO.C,R14*
X102453221Y-76325000D02*
X102778779Y-76325000D01*
X102453221Y-77345000D02*
X102778779Y-77345000D01*
G04 #@! TO.C,C23*
X112257621Y-84529200D02*
X112583179Y-84529200D01*
X112257621Y-85549200D02*
X112583179Y-85549200D01*
D10*
G04 #@! TO.C,U1*
X93500000Y-99400000D02*
X93250000Y-99400000D01*
X95250000Y-99400000D02*
X95500000Y-99400000D01*
X95600000Y-91000000D02*
X95600000Y-91300000D01*
X95300000Y-91000000D02*
X95600000Y-91000000D01*
X93197458Y-91001961D02*
X93497458Y-91001961D01*
X93197458Y-91301961D02*
X93197458Y-91001961D01*
D14*
G04 #@! TO.C,J2*
X119320000Y-75186000D02*
X117960000Y-75186000D01*
X124520000Y-79246000D02*
X124520000Y-79816000D01*
X124520000Y-76706000D02*
X124520000Y-77726000D01*
X124520000Y-74616000D02*
X124520000Y-75186000D01*
X124520000Y-79816000D02*
X119320000Y-79816000D01*
X119320000Y-79246000D02*
X119320000Y-79816000D01*
X119320000Y-76706000D02*
X119320000Y-77726000D01*
X119320000Y-74616000D02*
X119320000Y-75186000D01*
X124520000Y-74616000D02*
X119320000Y-74616000D01*
G04 #@! TO.C,SW1*
X79290000Y-95770000D02*
X80080000Y-95770000D01*
X80080000Y-102670000D02*
X79290000Y-102670000D01*
X81130000Y-100820000D02*
X81130000Y-99120000D01*
X78280000Y-102070000D02*
X78280000Y-96370000D01*
X76990000Y-99320000D02*
X78280000Y-99320000D01*
X76780000Y-100420000D02*
X76780000Y-99520000D01*
X78280000Y-100620000D02*
X76990000Y-100620000D01*
X76990000Y-99320000D02*
X76780000Y-99520000D01*
X76990000Y-100620000D02*
X76780000Y-100420000D01*
X81130000Y-97820000D02*
X81130000Y-97620000D01*
G04 #@! TO.C,C30*
X78585600Y-85151179D02*
X78585600Y-84825621D01*
X79605600Y-85151179D02*
X79605600Y-84825621D01*
G04 #@! TO.C,C27*
X82153979Y-92254800D02*
X81828421Y-92254800D01*
X82153979Y-91234800D02*
X81828421Y-91234800D01*
G04 #@! TO.C,C26*
X79999621Y-80922400D02*
X80325179Y-80922400D01*
X79999621Y-81942400D02*
X80325179Y-81942400D01*
G04 #@! TO.C,C3*
X87610000Y-79102779D02*
X87610000Y-78777221D01*
X88630000Y-79102779D02*
X88630000Y-78777221D01*
G04 #@! TO.C,C25*
X86260000Y-79202779D02*
X86260000Y-78877221D01*
X87280000Y-79202779D02*
X87280000Y-78877221D01*
G04 #@! TO.C,C15*
X103579200Y-87691179D02*
X103579200Y-87365621D01*
X104599200Y-87691179D02*
X104599200Y-87365621D01*
G04 #@! TO.C,J3*
X123900000Y-99566000D02*
X123900000Y-103126000D01*
X123900000Y-94486000D02*
X123900000Y-98046000D01*
X121240000Y-102106000D02*
X121240000Y-105216000D01*
X121240000Y-97026000D02*
X121240000Y-100586000D01*
X121240000Y-104646000D02*
X121240000Y-105216000D01*
X123900000Y-92396000D02*
X123900000Y-92966000D01*
X123900000Y-92966000D02*
X125420000Y-92966000D01*
X121240000Y-92396000D02*
X121240000Y-95506000D01*
X123900000Y-105216000D02*
X121240000Y-105216000D01*
X123900000Y-92396000D02*
X121240000Y-92396000D01*
G04 #@! TO.C,FB1*
X109890779Y-85549200D02*
X109565221Y-85549200D01*
X109890779Y-84529200D02*
X109565221Y-84529200D01*
G04 #@! TO.C,L2*
X79983200Y-82931200D02*
X82983200Y-82931200D01*
X79983200Y-86131200D02*
X82983200Y-86131200D01*
D10*
G04 #@! TO.C,U12*
X108496703Y-87680800D02*
X108850256Y-87327247D01*
X110794800Y-89978897D02*
X111148353Y-89625344D01*
X113092897Y-87680800D02*
X112739344Y-88034353D01*
X110794800Y-85382703D02*
X110441247Y-85736256D01*
X110794800Y-89978897D02*
X110441247Y-89625344D01*
X113092897Y-87680800D02*
X112739344Y-87327247D01*
X108496703Y-87680800D02*
X108850256Y-88034353D01*
D14*
G04 #@! TO.C,U6*
X99063231Y-94819636D02*
X98588231Y-94819636D01*
X102808231Y-90599636D02*
X102808231Y-91074636D01*
X102333231Y-90599636D02*
X102808231Y-90599636D01*
X98588231Y-90599636D02*
X98588231Y-91074636D01*
X99063231Y-90599636D02*
X98588231Y-90599636D01*
X102808231Y-94819636D02*
X102808231Y-94344636D01*
X102333231Y-94819636D02*
X102808231Y-94819636D01*
D10*
G04 #@! TO.C,U13*
X84523400Y-75425200D02*
X85823400Y-75425200D01*
X84523400Y-80375200D02*
X80373400Y-80375200D01*
X84523400Y-75225200D02*
X80373400Y-75225200D01*
X84523400Y-80375200D02*
X84523400Y-80175200D01*
X80373400Y-80375200D02*
X80373400Y-80175200D01*
X80373400Y-75225200D02*
X80373400Y-75425200D01*
X84523400Y-75225200D02*
X84523400Y-75425200D01*
G04 #@! TO.C,U2*
X106608400Y-78697000D02*
X106608400Y-77322000D01*
X116733400Y-78697000D02*
X116733400Y-82847000D01*
X106583400Y-78697000D02*
X106583400Y-82847000D01*
X116733400Y-78697000D02*
X116628400Y-78697000D01*
X116733400Y-82847000D02*
X116628400Y-82847000D01*
X106583400Y-82847000D02*
X106688400Y-82847000D01*
X106583400Y-78697000D02*
X106608400Y-78697000D01*
D14*
G04 #@! TO.C,U11*
X114397000Y-104337000D02*
X116997000Y-104337000D01*
X116997000Y-104337000D02*
X116997000Y-104537000D01*
X116997000Y-106537000D02*
X116997000Y-106737000D01*
X116997000Y-106737000D02*
X114397000Y-106737000D01*
X114397000Y-106737000D02*
X114397000Y-106637000D01*
X114397000Y-106637000D02*
X113997000Y-106637000D01*
X114397000Y-104337000D02*
X114397000Y-104537000D01*
G04 #@! TO.C,U10*
X113735000Y-99915500D02*
X113735000Y-97315500D01*
X113735000Y-97315500D02*
X113935000Y-97315500D01*
X115935000Y-97315500D02*
X116135000Y-97315500D01*
X116135000Y-97315500D02*
X116135000Y-99915500D01*
X116135000Y-99915500D02*
X116035000Y-99915500D01*
X116035000Y-99915500D02*
X116035000Y-100315500D01*
X113735000Y-99915500D02*
X113935000Y-99915500D01*
G04 #@! TO.C,Q9*
X118552500Y-101036000D02*
X117092500Y-101036000D01*
X118552500Y-104196000D02*
X116392500Y-104196000D01*
X118552500Y-104196000D02*
X118552500Y-103266000D01*
X118552500Y-101036000D02*
X118552500Y-101966000D01*
G04 #@! TO.C,U5*
X116126800Y-84678400D02*
X114666800Y-84678400D01*
X116126800Y-87838400D02*
X113966800Y-87838400D01*
X116126800Y-87838400D02*
X116126800Y-86908400D01*
X116126800Y-84678400D02*
X116126800Y-85608400D01*
G04 #@! TO.C,Q5*
X98858800Y-78135600D02*
X100318800Y-78135600D01*
X98858800Y-74975600D02*
X101018800Y-74975600D01*
X98858800Y-74975600D02*
X98858800Y-75905600D01*
X98858800Y-78135600D02*
X98858800Y-77205600D01*
G04 #@! TO.C,Q7*
X108303600Y-87929600D02*
X106843600Y-87929600D01*
X108303600Y-91089600D02*
X106143600Y-91089600D01*
X108303600Y-91089600D02*
X108303600Y-90159600D01*
X108303600Y-87929600D02*
X108303600Y-88859600D01*
G04 #@! TO.C,Q8*
X118747000Y-95560000D02*
X120207000Y-95560000D01*
X118747000Y-92400000D02*
X120907000Y-92400000D01*
X118747000Y-92400000D02*
X118747000Y-93330000D01*
X118747000Y-95560000D02*
X118747000Y-94630000D01*
G04 #@! TO.C,Q6*
X94580000Y-86310000D02*
X93120000Y-86310000D01*
X94580000Y-89470000D02*
X92420000Y-89470000D01*
X94580000Y-89470000D02*
X94580000Y-88540000D01*
X94580000Y-86310000D02*
X94580000Y-87240000D01*
G04 #@! TO.C,Q4*
X86057200Y-106939200D02*
X87517200Y-106939200D01*
X86057200Y-103779200D02*
X88217200Y-103779200D01*
X86057200Y-103779200D02*
X86057200Y-104709200D01*
X86057200Y-106939200D02*
X86057200Y-106009200D01*
G04 #@! TO.C,Q3*
X92098400Y-102458400D02*
X90638400Y-102458400D01*
X92098400Y-105618400D02*
X89938400Y-105618400D01*
X92098400Y-105618400D02*
X92098400Y-104688400D01*
X92098400Y-102458400D02*
X92098400Y-103388400D01*
G04 #@! TO.C,Q2*
X106278800Y-82421000D02*
X106278800Y-80961000D01*
X103118800Y-82421000D02*
X103118800Y-80261000D01*
X103118800Y-82421000D02*
X104048800Y-82421000D01*
X106278800Y-82421000D02*
X105348800Y-82421000D01*
G04 #@! TO.C,Q1*
X103118800Y-77726000D02*
X103118800Y-79186000D01*
X106278800Y-77726000D02*
X106278800Y-79886000D01*
X106278800Y-77726000D02*
X105348800Y-77726000D01*
X103118800Y-77726000D02*
X104048800Y-77726000D01*
G04 #@! TO.C,U9*
X117083000Y-97577000D02*
X119533000Y-97577000D01*
X118883000Y-100797000D02*
X117083000Y-100797000D01*
G04 #@! TO.C,R33*
X125224000Y-96166721D02*
X125224000Y-96492279D01*
X124204000Y-96166721D02*
X124204000Y-96492279D01*
G04 #@! TO.C,R34*
X125224000Y-101183221D02*
X125224000Y-101508779D01*
X124204000Y-101183221D02*
X124204000Y-101508779D01*
G04 #@! TO.C,R35*
X120013000Y-99451379D02*
X120013000Y-99125821D01*
X121033000Y-99451379D02*
X121033000Y-99125821D01*
G04 #@! TO.C,R36*
X120779000Y-105056721D02*
X120779000Y-105382279D01*
X119759000Y-105056721D02*
X119759000Y-105382279D01*
D10*
G04 #@! TO.C,J4*
X115480600Y-76636500D02*
X115980600Y-76636500D01*
X106980600Y-76636500D02*
X107480600Y-76636500D01*
X106980600Y-74136500D02*
X106980600Y-72136500D01*
X115980600Y-72136500D02*
X115980600Y-74136500D01*
X115980600Y-70136500D02*
X115980600Y-68441500D01*
X106980600Y-68441500D02*
X106980600Y-70136500D01*
X115980600Y-68441500D02*
X106980600Y-68441500D01*
G04 #@! TO.C,S1*
X125960000Y-88606000D02*
X125960000Y-83606000D01*
X125210000Y-92106000D02*
X123960000Y-92106000D01*
X125210000Y-80106000D02*
X123960000Y-80106000D01*
X125960000Y-88606000D02*
X125210000Y-92106000D01*
X125210000Y-80106000D02*
X125960000Y-83606000D01*
X117210000Y-80106000D02*
X117210000Y-82356000D01*
X117210000Y-92106000D02*
X117210000Y-89856000D01*
X117210000Y-92106000D02*
X121710000Y-92106000D01*
X121710000Y-80106000D02*
X117210000Y-80106000D01*
D14*
G04 #@! TO.C,L1*
X90574400Y-75842779D02*
X90574400Y-75517221D01*
X91594400Y-75842779D02*
X91594400Y-75517221D01*
G04 #@! TO.C,D5*
D17*
X97959047Y-76066190D02*
X97959047Y-75566190D01*
X97840000Y-75566190D01*
X97768571Y-75590000D01*
X97720952Y-75637619D01*
X97697142Y-75685238D01*
X97673333Y-75780476D01*
X97673333Y-75851904D01*
X97697142Y-75947142D01*
X97720952Y-75994761D01*
X97768571Y-76042380D01*
X97840000Y-76066190D01*
X97959047Y-76066190D01*
X97220952Y-75566190D02*
X97459047Y-75566190D01*
X97482857Y-75804285D01*
X97459047Y-75780476D01*
X97411428Y-75756666D01*
X97292380Y-75756666D01*
X97244761Y-75780476D01*
X97220952Y-75804285D01*
X97197142Y-75851904D01*
X97197142Y-75970952D01*
X97220952Y-76018571D01*
X97244761Y-76042380D01*
X97292380Y-76066190D01*
X97411428Y-76066190D01*
X97459047Y-76042380D01*
X97482857Y-76018571D01*
G04 #@! TO.C,U4*
X89778552Y-87621790D02*
X89778552Y-88026552D01*
X89754742Y-88074171D01*
X89730933Y-88097980D01*
X89683314Y-88121790D01*
X89588076Y-88121790D01*
X89540457Y-88097980D01*
X89516647Y-88074171D01*
X89492838Y-88026552D01*
X89492838Y-87621790D01*
X89040457Y-87788457D02*
X89040457Y-88121790D01*
X89159504Y-87597980D02*
X89278552Y-87955123D01*
X88969028Y-87955123D01*
G04 #@! TO.C,R13*
X94391428Y-85946190D02*
X94558095Y-85708095D01*
X94677142Y-85946190D02*
X94677142Y-85446190D01*
X94486666Y-85446190D01*
X94439047Y-85470000D01*
X94415238Y-85493809D01*
X94391428Y-85541428D01*
X94391428Y-85612857D01*
X94415238Y-85660476D01*
X94439047Y-85684285D01*
X94486666Y-85708095D01*
X94677142Y-85708095D01*
X93915238Y-85946190D02*
X94200952Y-85946190D01*
X94058095Y-85946190D02*
X94058095Y-85446190D01*
X94105714Y-85517619D01*
X94153333Y-85565238D01*
X94200952Y-85589047D01*
X93748571Y-85446190D02*
X93439047Y-85446190D01*
X93605714Y-85636666D01*
X93534285Y-85636666D01*
X93486666Y-85660476D01*
X93462857Y-85684285D01*
X93439047Y-85731904D01*
X93439047Y-85850952D01*
X93462857Y-85898571D01*
X93486666Y-85922380D01*
X93534285Y-85946190D01*
X93677142Y-85946190D01*
X93724761Y-85922380D01*
X93748571Y-85898571D01*
G04 #@! TO.C,U3*
X89100952Y-84276190D02*
X89100952Y-84680952D01*
X89077142Y-84728571D01*
X89053333Y-84752380D01*
X89005714Y-84776190D01*
X88910476Y-84776190D01*
X88862857Y-84752380D01*
X88839047Y-84728571D01*
X88815238Y-84680952D01*
X88815238Y-84276190D01*
X88624761Y-84276190D02*
X88315238Y-84276190D01*
X88481904Y-84466666D01*
X88410476Y-84466666D01*
X88362857Y-84490476D01*
X88339047Y-84514285D01*
X88315238Y-84561904D01*
X88315238Y-84680952D01*
X88339047Y-84728571D01*
X88362857Y-84752380D01*
X88410476Y-84776190D01*
X88553333Y-84776190D01*
X88600952Y-84752380D01*
X88624761Y-84728571D01*
G04 #@! TO.C,BT1*
X93661657Y-112320685D02*
X93590228Y-112344495D01*
X93566419Y-112368304D01*
X93542609Y-112415923D01*
X93542609Y-112487352D01*
X93566419Y-112534971D01*
X93590228Y-112558780D01*
X93637847Y-112582590D01*
X93828323Y-112582590D01*
X93828323Y-112082590D01*
X93661657Y-112082590D01*
X93614038Y-112106400D01*
X93590228Y-112130209D01*
X93566419Y-112177828D01*
X93566419Y-112225447D01*
X93590228Y-112273066D01*
X93614038Y-112296876D01*
X93661657Y-112320685D01*
X93828323Y-112320685D01*
X93399752Y-112082590D02*
X93114038Y-112082590D01*
X93256895Y-112582590D02*
X93256895Y-112082590D01*
X92685466Y-112582590D02*
X92971180Y-112582590D01*
X92828323Y-112582590D02*
X92828323Y-112082590D01*
X92875942Y-112154019D01*
X92923561Y-112201638D01*
X92971180Y-112225447D01*
G04 #@! TO.C,J1*
X111551306Y-94064460D02*
X111551306Y-94421603D01*
X111575116Y-94493031D01*
X111622735Y-94540650D01*
X111694163Y-94564460D01*
X111741782Y-94564460D01*
X111051306Y-94564460D02*
X111337020Y-94564460D01*
X111194163Y-94564460D02*
X111194163Y-94064460D01*
X111241782Y-94135889D01*
X111289401Y-94183508D01*
X111337020Y-94207317D01*
D18*
X115979728Y-113065731D02*
X115979728Y-112063851D01*
X115645768Y-112779480D01*
X115311808Y-112063851D01*
X115311808Y-113065731D01*
X114834722Y-113065731D02*
X114834722Y-112397811D01*
X114834722Y-112063851D02*
X114882431Y-112111560D01*
X114834722Y-112159268D01*
X114787014Y-112111560D01*
X114834722Y-112063851D01*
X114834722Y-112159268D01*
X113928260Y-113018022D02*
X114023677Y-113065731D01*
X114214511Y-113065731D01*
X114309928Y-113018022D01*
X114357637Y-112970314D01*
X114405345Y-112874897D01*
X114405345Y-112588645D01*
X114357637Y-112493228D01*
X114309928Y-112445520D01*
X114214511Y-112397811D01*
X114023677Y-112397811D01*
X113928260Y-112445520D01*
X113498882Y-113065731D02*
X113498882Y-112397811D01*
X113498882Y-112588645D02*
X113451174Y-112493228D01*
X113403465Y-112445520D01*
X113308048Y-112397811D01*
X113212631Y-112397811D01*
X112735545Y-113065731D02*
X112830962Y-113018022D01*
X112878671Y-112970314D01*
X112926380Y-112874897D01*
X112926380Y-112588645D01*
X112878671Y-112493228D01*
X112830962Y-112445520D01*
X112735545Y-112397811D01*
X112592420Y-112397811D01*
X112497002Y-112445520D01*
X112449294Y-112493228D01*
X112401585Y-112588645D01*
X112401585Y-112874897D01*
X112449294Y-112970314D01*
X112497002Y-113018022D01*
X112592420Y-113065731D01*
X112735545Y-113065731D01*
X112210751Y-113161148D02*
X111447414Y-113161148D01*
X111256580Y-113018022D02*
X111113454Y-113065731D01*
X110874911Y-113065731D01*
X110779494Y-113018022D01*
X110731785Y-112970314D01*
X110684077Y-112874897D01*
X110684077Y-112779480D01*
X110731785Y-112684062D01*
X110779494Y-112636354D01*
X110874911Y-112588645D01*
X111065745Y-112540937D01*
X111161162Y-112493228D01*
X111208871Y-112445520D01*
X111256580Y-112350102D01*
X111256580Y-112254685D01*
X111208871Y-112159268D01*
X111161162Y-112111560D01*
X111065745Y-112063851D01*
X110827202Y-112063851D01*
X110684077Y-112111560D01*
X110254700Y-113065731D02*
X110254700Y-112063851D01*
X110016157Y-112063851D01*
X109873031Y-112111560D01*
X109777614Y-112206977D01*
X109729905Y-112302394D01*
X109682197Y-112493228D01*
X109682197Y-112636354D01*
X109729905Y-112827188D01*
X109777614Y-112922605D01*
X109873031Y-113018022D01*
X110016157Y-113065731D01*
X110254700Y-113065731D01*
X109491362Y-113161148D02*
X108728025Y-113161148D01*
X107916980Y-112970314D02*
X107964688Y-113018022D01*
X108107814Y-113065731D01*
X108203231Y-113065731D01*
X108346357Y-113018022D01*
X108441774Y-112922605D01*
X108489482Y-112827188D01*
X108537191Y-112636354D01*
X108537191Y-112493228D01*
X108489482Y-112302394D01*
X108441774Y-112206977D01*
X108346357Y-112111560D01*
X108203231Y-112063851D01*
X108107814Y-112063851D01*
X107964688Y-112111560D01*
X107916980Y-112159268D01*
X107058225Y-113065731D02*
X107058225Y-112540937D01*
X107105934Y-112445520D01*
X107201351Y-112397811D01*
X107392185Y-112397811D01*
X107487602Y-112445520D01*
X107058225Y-113018022D02*
X107153642Y-113065731D01*
X107392185Y-113065731D01*
X107487602Y-113018022D01*
X107535311Y-112922605D01*
X107535311Y-112827188D01*
X107487602Y-112731771D01*
X107392185Y-112684062D01*
X107153642Y-112684062D01*
X107058225Y-112636354D01*
X106581140Y-113065731D02*
X106581140Y-112397811D01*
X106581140Y-112588645D02*
X106533431Y-112493228D01*
X106485722Y-112445520D01*
X106390305Y-112397811D01*
X106294888Y-112397811D01*
X105531551Y-113065731D02*
X105531551Y-112063851D01*
X105531551Y-113018022D02*
X105626968Y-113065731D01*
X105817802Y-113065731D01*
X105913220Y-113018022D01*
X105960928Y-112970314D01*
X106008637Y-112874897D01*
X106008637Y-112588645D01*
X105960928Y-112493228D01*
X105913220Y-112445520D01*
X105817802Y-112397811D01*
X105626968Y-112397811D01*
X105531551Y-112445520D01*
G04 #@! TO.C,R50*
D17*
X105077390Y-91270971D02*
X104839295Y-91104304D01*
X105077390Y-90985257D02*
X104577390Y-90985257D01*
X104577390Y-91175733D01*
X104601200Y-91223352D01*
X104625009Y-91247161D01*
X104672628Y-91270971D01*
X104744057Y-91270971D01*
X104791676Y-91247161D01*
X104815485Y-91223352D01*
X104839295Y-91175733D01*
X104839295Y-90985257D01*
X104577390Y-91723352D02*
X104577390Y-91485257D01*
X104815485Y-91461447D01*
X104791676Y-91485257D01*
X104767866Y-91532876D01*
X104767866Y-91651923D01*
X104791676Y-91699542D01*
X104815485Y-91723352D01*
X104863104Y-91747161D01*
X104982152Y-91747161D01*
X105029771Y-91723352D01*
X105053580Y-91699542D01*
X105077390Y-91651923D01*
X105077390Y-91532876D01*
X105053580Y-91485257D01*
X105029771Y-91461447D01*
X104577390Y-92056685D02*
X104577390Y-92104304D01*
X104601200Y-92151923D01*
X104625009Y-92175733D01*
X104672628Y-92199542D01*
X104767866Y-92223352D01*
X104886914Y-92223352D01*
X104982152Y-92199542D01*
X105029771Y-92175733D01*
X105053580Y-92151923D01*
X105077390Y-92104304D01*
X105077390Y-92056685D01*
X105053580Y-92009066D01*
X105029771Y-91985257D01*
X104982152Y-91961447D01*
X104886914Y-91937638D01*
X104767866Y-91937638D01*
X104672628Y-91961447D01*
X104625009Y-91985257D01*
X104601200Y-92009066D01*
X104577390Y-92056685D01*
G04 #@! TO.C,U14*
X82682590Y-89144552D02*
X83087352Y-89144552D01*
X83134971Y-89168361D01*
X83158780Y-89192171D01*
X83182590Y-89239790D01*
X83182590Y-89335028D01*
X83158780Y-89382647D01*
X83134971Y-89406457D01*
X83087352Y-89430266D01*
X82682590Y-89430266D01*
X83182590Y-89930266D02*
X83182590Y-89644552D01*
X83182590Y-89787409D02*
X82682590Y-89787409D01*
X82754019Y-89739790D01*
X82801638Y-89692171D01*
X82825447Y-89644552D01*
X82849257Y-90358838D02*
X83182590Y-90358838D01*
X82658780Y-90239790D02*
X83015923Y-90120742D01*
X83015923Y-90430266D01*
G04 #@! TO.C,U8*
X115087352Y-93960190D02*
X115087352Y-94364952D01*
X115063542Y-94412571D01*
X115039733Y-94436380D01*
X114992114Y-94460190D01*
X114896876Y-94460190D01*
X114849257Y-94436380D01*
X114825447Y-94412571D01*
X114801638Y-94364952D01*
X114801638Y-93960190D01*
X114492114Y-94174476D02*
X114539733Y-94150666D01*
X114563542Y-94126857D01*
X114587352Y-94079238D01*
X114587352Y-94055428D01*
X114563542Y-94007809D01*
X114539733Y-93984000D01*
X114492114Y-93960190D01*
X114396876Y-93960190D01*
X114349257Y-93984000D01*
X114325447Y-94007809D01*
X114301638Y-94055428D01*
X114301638Y-94079238D01*
X114325447Y-94126857D01*
X114349257Y-94150666D01*
X114396876Y-94174476D01*
X114492114Y-94174476D01*
X114539733Y-94198285D01*
X114563542Y-94222095D01*
X114587352Y-94269714D01*
X114587352Y-94364952D01*
X114563542Y-94412571D01*
X114539733Y-94436380D01*
X114492114Y-94460190D01*
X114396876Y-94460190D01*
X114349257Y-94436380D01*
X114325447Y-94412571D01*
X114301638Y-94364952D01*
X114301638Y-94269714D01*
X114325447Y-94222095D01*
X114349257Y-94198285D01*
X114396876Y-94174476D01*
G04 #@! TO.C,U7*
X108686552Y-91826590D02*
X108686552Y-92231352D01*
X108662742Y-92278971D01*
X108638933Y-92302780D01*
X108591314Y-92326590D01*
X108496076Y-92326590D01*
X108448457Y-92302780D01*
X108424647Y-92278971D01*
X108400838Y-92231352D01*
X108400838Y-91826590D01*
X108210361Y-91826590D02*
X107877028Y-91826590D01*
X108091314Y-92326590D01*
G04 #@! TO.C,R52*
X116399427Y-91462990D02*
X116566094Y-91224895D01*
X116685141Y-91462990D02*
X116685141Y-90962990D01*
X116494665Y-90962990D01*
X116447046Y-90986800D01*
X116423237Y-91010609D01*
X116399427Y-91058228D01*
X116399427Y-91129657D01*
X116423237Y-91177276D01*
X116447046Y-91201085D01*
X116494665Y-91224895D01*
X116685141Y-91224895D01*
X115947046Y-90962990D02*
X116185141Y-90962990D01*
X116208951Y-91201085D01*
X116185141Y-91177276D01*
X116137522Y-91153466D01*
X116018475Y-91153466D01*
X115970856Y-91177276D01*
X115947046Y-91201085D01*
X115923237Y-91248704D01*
X115923237Y-91367752D01*
X115947046Y-91415371D01*
X115970856Y-91439180D01*
X116018475Y-91462990D01*
X116137522Y-91462990D01*
X116185141Y-91439180D01*
X116208951Y-91415371D01*
X115732760Y-91010609D02*
X115708951Y-90986800D01*
X115661332Y-90962990D01*
X115542284Y-90962990D01*
X115494665Y-90986800D01*
X115470856Y-91010609D01*
X115447046Y-91058228D01*
X115447046Y-91105847D01*
X115470856Y-91177276D01*
X115756570Y-91462990D01*
X115447046Y-91462990D01*
G04 #@! TO.C,R53*
X115688228Y-92174189D02*
X115854895Y-91936094D01*
X115973942Y-92174189D02*
X115973942Y-91674189D01*
X115783466Y-91674189D01*
X115735847Y-91697999D01*
X115712038Y-91721808D01*
X115688228Y-91769427D01*
X115688228Y-91840856D01*
X115712038Y-91888475D01*
X115735847Y-91912284D01*
X115783466Y-91936094D01*
X115973942Y-91936094D01*
X115235847Y-91674189D02*
X115473942Y-91674189D01*
X115497752Y-91912284D01*
X115473942Y-91888475D01*
X115426323Y-91864665D01*
X115307276Y-91864665D01*
X115259657Y-91888475D01*
X115235847Y-91912284D01*
X115212038Y-91959903D01*
X115212038Y-92078951D01*
X115235847Y-92126570D01*
X115259657Y-92150379D01*
X115307276Y-92174189D01*
X115426323Y-92174189D01*
X115473942Y-92150379D01*
X115497752Y-92126570D01*
X115045371Y-91674189D02*
X114735847Y-91674189D01*
X114902514Y-91864665D01*
X114831085Y-91864665D01*
X114783466Y-91888475D01*
X114759657Y-91912284D01*
X114735847Y-91959903D01*
X114735847Y-92078951D01*
X114759657Y-92126570D01*
X114783466Y-92150379D01*
X114831085Y-92174189D01*
X114973942Y-92174189D01*
X115021561Y-92150379D01*
X115045371Y-92126570D01*
G04 #@! TO.C,C35*
X116329953Y-90170584D02*
X116363625Y-90170584D01*
X116430968Y-90136912D01*
X116464640Y-90103241D01*
X116498312Y-90035897D01*
X116498312Y-89968554D01*
X116481476Y-89918046D01*
X116430968Y-89833867D01*
X116380461Y-89783359D01*
X116296281Y-89732851D01*
X116245774Y-89716016D01*
X116178430Y-89716016D01*
X116111087Y-89749687D01*
X116077415Y-89783359D01*
X116043743Y-89850703D01*
X116043743Y-89884374D01*
X115892220Y-89968554D02*
X115673354Y-90187420D01*
X115925892Y-90204256D01*
X115875384Y-90254764D01*
X115858548Y-90305271D01*
X115858548Y-90338943D01*
X115875384Y-90389451D01*
X115959564Y-90473630D01*
X116010071Y-90490466D01*
X116043743Y-90490466D01*
X116094251Y-90473630D01*
X116195266Y-90372615D01*
X116212102Y-90322107D01*
X116212102Y-90288435D01*
X115353472Y-90507302D02*
X115521831Y-90338943D01*
X115707025Y-90490466D01*
X115673354Y-90490466D01*
X115622846Y-90507302D01*
X115538667Y-90591481D01*
X115521831Y-90641989D01*
X115521831Y-90675661D01*
X115538667Y-90726168D01*
X115622846Y-90810348D01*
X115673354Y-90827183D01*
X115707025Y-90827183D01*
X115757533Y-90810348D01*
X115841712Y-90726168D01*
X115858548Y-90675661D01*
X115858548Y-90641989D01*
G04 #@! TO.C,C36*
X110335553Y-90272184D02*
X110369225Y-90272184D01*
X110436568Y-90238512D01*
X110470240Y-90204841D01*
X110503912Y-90137497D01*
X110503912Y-90070154D01*
X110487076Y-90019646D01*
X110436568Y-89935467D01*
X110386061Y-89884959D01*
X110301881Y-89834451D01*
X110251374Y-89817616D01*
X110184030Y-89817616D01*
X110116687Y-89851287D01*
X110083015Y-89884959D01*
X110049343Y-89952303D01*
X110049343Y-89985974D01*
X109897820Y-90070154D02*
X109678954Y-90289020D01*
X109931492Y-90305856D01*
X109880984Y-90356364D01*
X109864148Y-90406871D01*
X109864148Y-90440543D01*
X109880984Y-90491051D01*
X109965164Y-90575230D01*
X110015671Y-90592066D01*
X110049343Y-90592066D01*
X110099851Y-90575230D01*
X110200866Y-90474215D01*
X110217702Y-90423707D01*
X110217702Y-90390035D01*
X109375908Y-90592066D02*
X109443251Y-90524722D01*
X109493759Y-90507887D01*
X109527431Y-90507887D01*
X109611610Y-90524722D01*
X109695790Y-90575230D01*
X109830477Y-90709917D01*
X109847312Y-90760425D01*
X109847312Y-90794096D01*
X109830477Y-90844604D01*
X109763133Y-90911948D01*
X109712625Y-90928783D01*
X109678954Y-90928783D01*
X109628446Y-90911948D01*
X109544267Y-90827768D01*
X109527431Y-90777261D01*
X109527431Y-90743589D01*
X109544267Y-90693081D01*
X109611610Y-90625738D01*
X109662118Y-90608902D01*
X109695790Y-90608902D01*
X109746297Y-90625738D01*
G04 #@! TO.C,D1*
X116068790Y-71208152D02*
X115568790Y-71208152D01*
X115568790Y-71327200D01*
X115592600Y-71398628D01*
X115640219Y-71446247D01*
X115687838Y-71470057D01*
X115783076Y-71493866D01*
X115854504Y-71493866D01*
X115949742Y-71470057D01*
X115997361Y-71446247D01*
X116044980Y-71398628D01*
X116068790Y-71327200D01*
X116068790Y-71208152D01*
X116068790Y-71970057D02*
X116068790Y-71684342D01*
X116068790Y-71827200D02*
X115568790Y-71827200D01*
X115640219Y-71779580D01*
X115687838Y-71731961D01*
X115711647Y-71684342D01*
D10*
X118155980Y-71456514D02*
X118155980Y-70885085D01*
X118155980Y-71170800D02*
X117155980Y-71170800D01*
X117298838Y-71075561D01*
X117394076Y-70980323D01*
X117441695Y-70885085D01*
G04 #@! TO.C,D3*
D17*
X87287847Y-110411390D02*
X87287847Y-109911390D01*
X87168800Y-109911390D01*
X87097371Y-109935200D01*
X87049752Y-109982819D01*
X87025942Y-110030438D01*
X87002133Y-110125676D01*
X87002133Y-110197104D01*
X87025942Y-110292342D01*
X87049752Y-110339961D01*
X87097371Y-110387580D01*
X87168800Y-110411390D01*
X87287847Y-110411390D01*
X86835466Y-109911390D02*
X86525942Y-109911390D01*
X86692609Y-110101866D01*
X86621180Y-110101866D01*
X86573561Y-110125676D01*
X86549752Y-110149485D01*
X86525942Y-110197104D01*
X86525942Y-110316152D01*
X86549752Y-110363771D01*
X86573561Y-110387580D01*
X86621180Y-110411390D01*
X86764038Y-110411390D01*
X86811657Y-110387580D01*
X86835466Y-110363771D01*
D10*
X86734685Y-108503980D02*
X87306114Y-108503980D01*
X87020400Y-108503980D02*
X87020400Y-107503980D01*
X87115638Y-107646838D01*
X87210876Y-107742076D01*
X87306114Y-107789695D01*
G04 #@! TO.C,D4*
D17*
X118682247Y-110309790D02*
X118682247Y-109809790D01*
X118563200Y-109809790D01*
X118491771Y-109833600D01*
X118444152Y-109881219D01*
X118420342Y-109928838D01*
X118396533Y-110024076D01*
X118396533Y-110095504D01*
X118420342Y-110190742D01*
X118444152Y-110238361D01*
X118491771Y-110285980D01*
X118563200Y-110309790D01*
X118682247Y-110309790D01*
X117967961Y-109976457D02*
X117967961Y-110309790D01*
X118087009Y-109785980D02*
X118206057Y-110143123D01*
X117896533Y-110143123D01*
D10*
X118129085Y-108554780D02*
X118700514Y-108554780D01*
X118414800Y-108554780D02*
X118414800Y-107554780D01*
X118510038Y-107697638D01*
X118605276Y-107792876D01*
X118700514Y-107840495D01*
G04 #@! TO.C,D2*
D17*
X87237047Y-71193790D02*
X87237047Y-70693790D01*
X87118000Y-70693790D01*
X87046571Y-70717600D01*
X86998952Y-70765219D01*
X86975142Y-70812838D01*
X86951333Y-70908076D01*
X86951333Y-70979504D01*
X86975142Y-71074742D01*
X86998952Y-71122361D01*
X87046571Y-71169980D01*
X87118000Y-71193790D01*
X87237047Y-71193790D01*
X86760857Y-70741409D02*
X86737047Y-70717600D01*
X86689428Y-70693790D01*
X86570380Y-70693790D01*
X86522761Y-70717600D01*
X86498952Y-70741409D01*
X86475142Y-70789028D01*
X86475142Y-70836647D01*
X86498952Y-70908076D01*
X86784666Y-71193790D01*
X86475142Y-71193790D01*
D10*
X85440780Y-71304114D02*
X85440780Y-70732685D01*
X85440780Y-71018400D02*
X84440780Y-71018400D01*
X84583638Y-70923161D01*
X84678876Y-70827923D01*
X84726495Y-70732685D01*
G04 #@! TO.C,R15*
D17*
X102886628Y-74140190D02*
X103053295Y-73902095D01*
X103172342Y-74140190D02*
X103172342Y-73640190D01*
X102981866Y-73640190D01*
X102934247Y-73664000D01*
X102910438Y-73687809D01*
X102886628Y-73735428D01*
X102886628Y-73806857D01*
X102910438Y-73854476D01*
X102934247Y-73878285D01*
X102981866Y-73902095D01*
X103172342Y-73902095D01*
X102410438Y-74140190D02*
X102696152Y-74140190D01*
X102553295Y-74140190D02*
X102553295Y-73640190D01*
X102600914Y-73711619D01*
X102648533Y-73759238D01*
X102696152Y-73783047D01*
X101958057Y-73640190D02*
X102196152Y-73640190D01*
X102219961Y-73878285D01*
X102196152Y-73854476D01*
X102148533Y-73830666D01*
X102029485Y-73830666D01*
X101981866Y-73854476D01*
X101958057Y-73878285D01*
X101934247Y-73925904D01*
X101934247Y-74044952D01*
X101958057Y-74092571D01*
X101981866Y-74116380D01*
X102029485Y-74140190D01*
X102148533Y-74140190D01*
X102196152Y-74116380D01*
X102219961Y-74092571D01*
G04 #@! TO.C,R9*
X97924133Y-79169390D02*
X98090800Y-78931295D01*
X98209847Y-79169390D02*
X98209847Y-78669390D01*
X98019371Y-78669390D01*
X97971752Y-78693200D01*
X97947942Y-78717009D01*
X97924133Y-78764628D01*
X97924133Y-78836057D01*
X97947942Y-78883676D01*
X97971752Y-78907485D01*
X98019371Y-78931295D01*
X98209847Y-78931295D01*
X97686038Y-79169390D02*
X97590800Y-79169390D01*
X97543180Y-79145580D01*
X97519371Y-79121771D01*
X97471752Y-79050342D01*
X97447942Y-78955104D01*
X97447942Y-78764628D01*
X97471752Y-78717009D01*
X97495561Y-78693200D01*
X97543180Y-78669390D01*
X97638419Y-78669390D01*
X97686038Y-78693200D01*
X97709847Y-78717009D01*
X97733657Y-78764628D01*
X97733657Y-78883676D01*
X97709847Y-78931295D01*
X97686038Y-78955104D01*
X97638419Y-78978914D01*
X97543180Y-78978914D01*
X97495561Y-78955104D01*
X97471752Y-78931295D01*
X97447942Y-78883676D01*
G04 #@! TO.C,R2*
X93860133Y-104112190D02*
X94026800Y-103874095D01*
X94145847Y-104112190D02*
X94145847Y-103612190D01*
X93955371Y-103612190D01*
X93907752Y-103636000D01*
X93883942Y-103659809D01*
X93860133Y-103707428D01*
X93860133Y-103778857D01*
X93883942Y-103826476D01*
X93907752Y-103850285D01*
X93955371Y-103874095D01*
X94145847Y-103874095D01*
X93669657Y-103659809D02*
X93645847Y-103636000D01*
X93598228Y-103612190D01*
X93479180Y-103612190D01*
X93431561Y-103636000D01*
X93407752Y-103659809D01*
X93383942Y-103707428D01*
X93383942Y-103755047D01*
X93407752Y-103826476D01*
X93693466Y-104112190D01*
X93383942Y-104112190D01*
G04 #@! TO.C,R14*
X102886628Y-74800590D02*
X103053295Y-74562495D01*
X103172342Y-74800590D02*
X103172342Y-74300590D01*
X102981866Y-74300590D01*
X102934247Y-74324400D01*
X102910438Y-74348209D01*
X102886628Y-74395828D01*
X102886628Y-74467257D01*
X102910438Y-74514876D01*
X102934247Y-74538685D01*
X102981866Y-74562495D01*
X103172342Y-74562495D01*
X102410438Y-74800590D02*
X102696152Y-74800590D01*
X102553295Y-74800590D02*
X102553295Y-74300590D01*
X102600914Y-74372019D01*
X102648533Y-74419638D01*
X102696152Y-74443447D01*
X101981866Y-74467257D02*
X101981866Y-74800590D01*
X102100914Y-74276780D02*
X102219961Y-74633923D01*
X101910438Y-74633923D01*
G04 #@! TO.C,C23*
X112894228Y-82372971D02*
X112918038Y-82396780D01*
X112989466Y-82420590D01*
X113037085Y-82420590D01*
X113108514Y-82396780D01*
X113156133Y-82349161D01*
X113179942Y-82301542D01*
X113203752Y-82206304D01*
X113203752Y-82134876D01*
X113179942Y-82039638D01*
X113156133Y-81992019D01*
X113108514Y-81944400D01*
X113037085Y-81920590D01*
X112989466Y-81920590D01*
X112918038Y-81944400D01*
X112894228Y-81968209D01*
X112703752Y-81968209D02*
X112679942Y-81944400D01*
X112632323Y-81920590D01*
X112513276Y-81920590D01*
X112465657Y-81944400D01*
X112441847Y-81968209D01*
X112418038Y-82015828D01*
X112418038Y-82063447D01*
X112441847Y-82134876D01*
X112727561Y-82420590D01*
X112418038Y-82420590D01*
X112251371Y-81920590D02*
X111941847Y-81920590D01*
X112108514Y-82111066D01*
X112037085Y-82111066D01*
X111989466Y-82134876D01*
X111965657Y-82158685D01*
X111941847Y-82206304D01*
X111941847Y-82325352D01*
X111965657Y-82372971D01*
X111989466Y-82396780D01*
X112037085Y-82420590D01*
X112179942Y-82420590D01*
X112227561Y-82396780D01*
X112251371Y-82372971D01*
G04 #@! TO.C,C33*
X116204171Y-74862571D02*
X116227980Y-74838761D01*
X116251790Y-74767333D01*
X116251790Y-74719714D01*
X116227980Y-74648285D01*
X116180361Y-74600666D01*
X116132742Y-74576857D01*
X116037504Y-74553047D01*
X115966076Y-74553047D01*
X115870838Y-74576857D01*
X115823219Y-74600666D01*
X115775600Y-74648285D01*
X115751790Y-74719714D01*
X115751790Y-74767333D01*
X115775600Y-74838761D01*
X115799409Y-74862571D01*
X115751790Y-75029238D02*
X115751790Y-75338761D01*
X115942266Y-75172095D01*
X115942266Y-75243523D01*
X115966076Y-75291142D01*
X115989885Y-75314952D01*
X116037504Y-75338761D01*
X116156552Y-75338761D01*
X116204171Y-75314952D01*
X116227980Y-75291142D01*
X116251790Y-75243523D01*
X116251790Y-75100666D01*
X116227980Y-75053047D01*
X116204171Y-75029238D01*
X115751790Y-75505428D02*
X115751790Y-75814952D01*
X115942266Y-75648285D01*
X115942266Y-75719714D01*
X115966076Y-75767333D01*
X115989885Y-75791142D01*
X116037504Y-75814952D01*
X116156552Y-75814952D01*
X116204171Y-75791142D01*
X116227980Y-75767333D01*
X116251790Y-75719714D01*
X116251790Y-75576857D01*
X116227980Y-75529238D01*
X116204171Y-75505428D01*
G04 #@! TO.C,C13*
X109217953Y-86208184D02*
X109251625Y-86208184D01*
X109318968Y-86174512D01*
X109352640Y-86140841D01*
X109386312Y-86073497D01*
X109386312Y-86006154D01*
X109369476Y-85955646D01*
X109318968Y-85871467D01*
X109268461Y-85820959D01*
X109184281Y-85770451D01*
X109133774Y-85753616D01*
X109066430Y-85753616D01*
X108999087Y-85787287D01*
X108965415Y-85820959D01*
X108931743Y-85888303D01*
X108931743Y-85921974D01*
X108914907Y-86578574D02*
X109116938Y-86376543D01*
X109015922Y-86477558D02*
X108662369Y-86124005D01*
X108746548Y-86140841D01*
X108813892Y-86140841D01*
X108864399Y-86124005D01*
X108443503Y-86342871D02*
X108224636Y-86561738D01*
X108477174Y-86578574D01*
X108426667Y-86629081D01*
X108409831Y-86679589D01*
X108409831Y-86713261D01*
X108426667Y-86763768D01*
X108510846Y-86847948D01*
X108561354Y-86864783D01*
X108595025Y-86864783D01*
X108645533Y-86847948D01*
X108746548Y-86746932D01*
X108763384Y-86696425D01*
X108763384Y-86662753D01*
G04 #@! TO.C,C11*
X113665771Y-92998171D02*
X113689580Y-92974361D01*
X113713390Y-92902933D01*
X113713390Y-92855314D01*
X113689580Y-92783885D01*
X113641961Y-92736266D01*
X113594342Y-92712457D01*
X113499104Y-92688647D01*
X113427676Y-92688647D01*
X113332438Y-92712457D01*
X113284819Y-92736266D01*
X113237200Y-92783885D01*
X113213390Y-92855314D01*
X113213390Y-92902933D01*
X113237200Y-92974361D01*
X113261009Y-92998171D01*
X113713390Y-93474361D02*
X113713390Y-93188647D01*
X113713390Y-93331504D02*
X113213390Y-93331504D01*
X113284819Y-93283885D01*
X113332438Y-93236266D01*
X113356247Y-93188647D01*
X113713390Y-93950552D02*
X113713390Y-93664838D01*
X113713390Y-93807695D02*
X113213390Y-93807695D01*
X113284819Y-93760076D01*
X113332438Y-93712457D01*
X113356247Y-93664838D01*
G04 #@! TO.C,C10*
X91251428Y-89028571D02*
X91275238Y-89052380D01*
X91346666Y-89076190D01*
X91394285Y-89076190D01*
X91465714Y-89052380D01*
X91513333Y-89004761D01*
X91537142Y-88957142D01*
X91560952Y-88861904D01*
X91560952Y-88790476D01*
X91537142Y-88695238D01*
X91513333Y-88647619D01*
X91465714Y-88600000D01*
X91394285Y-88576190D01*
X91346666Y-88576190D01*
X91275238Y-88600000D01*
X91251428Y-88623809D01*
X90775238Y-89076190D02*
X91060952Y-89076190D01*
X90918095Y-89076190D02*
X90918095Y-88576190D01*
X90965714Y-88647619D01*
X91013333Y-88695238D01*
X91060952Y-88719047D01*
X90465714Y-88576190D02*
X90418095Y-88576190D01*
X90370476Y-88600000D01*
X90346666Y-88623809D01*
X90322857Y-88671428D01*
X90299047Y-88766666D01*
X90299047Y-88885714D01*
X90322857Y-88980952D01*
X90346666Y-89028571D01*
X90370476Y-89052380D01*
X90418095Y-89076190D01*
X90465714Y-89076190D01*
X90513333Y-89052380D01*
X90537142Y-89028571D01*
X90560952Y-88980952D01*
X90584761Y-88885714D01*
X90584761Y-88766666D01*
X90560952Y-88671428D01*
X90537142Y-88623809D01*
X90513333Y-88600000D01*
X90465714Y-88576190D01*
G04 #@! TO.C,C9*
X86718571Y-84376666D02*
X86742380Y-84352857D01*
X86766190Y-84281428D01*
X86766190Y-84233809D01*
X86742380Y-84162380D01*
X86694761Y-84114761D01*
X86647142Y-84090952D01*
X86551904Y-84067142D01*
X86480476Y-84067142D01*
X86385238Y-84090952D01*
X86337619Y-84114761D01*
X86290000Y-84162380D01*
X86266190Y-84233809D01*
X86266190Y-84281428D01*
X86290000Y-84352857D01*
X86313809Y-84376666D01*
X86766190Y-84614761D02*
X86766190Y-84710000D01*
X86742380Y-84757619D01*
X86718571Y-84781428D01*
X86647142Y-84829047D01*
X86551904Y-84852857D01*
X86361428Y-84852857D01*
X86313809Y-84829047D01*
X86290000Y-84805238D01*
X86266190Y-84757619D01*
X86266190Y-84662380D01*
X86290000Y-84614761D01*
X86313809Y-84590952D01*
X86361428Y-84567142D01*
X86480476Y-84567142D01*
X86528095Y-84590952D01*
X86551904Y-84614761D01*
X86575714Y-84662380D01*
X86575714Y-84757619D01*
X86551904Y-84805238D01*
X86528095Y-84829047D01*
X86480476Y-84852857D01*
G04 #@! TO.C,C2*
X97433333Y-91848571D02*
X97457142Y-91872380D01*
X97528571Y-91896190D01*
X97576190Y-91896190D01*
X97647619Y-91872380D01*
X97695238Y-91824761D01*
X97719047Y-91777142D01*
X97742857Y-91681904D01*
X97742857Y-91610476D01*
X97719047Y-91515238D01*
X97695238Y-91467619D01*
X97647619Y-91420000D01*
X97576190Y-91396190D01*
X97528571Y-91396190D01*
X97457142Y-91420000D01*
X97433333Y-91443809D01*
X97242857Y-91443809D02*
X97219047Y-91420000D01*
X97171428Y-91396190D01*
X97052380Y-91396190D01*
X97004761Y-91420000D01*
X96980952Y-91443809D01*
X96957142Y-91491428D01*
X96957142Y-91539047D01*
X96980952Y-91610476D01*
X97266666Y-91896190D01*
X96957142Y-91896190D01*
G04 #@! TO.C,C7*
X89846933Y-74498971D02*
X89870742Y-74522780D01*
X89942171Y-74546590D01*
X89989790Y-74546590D01*
X90061219Y-74522780D01*
X90108838Y-74475161D01*
X90132647Y-74427542D01*
X90156457Y-74332304D01*
X90156457Y-74260876D01*
X90132647Y-74165638D01*
X90108838Y-74118019D01*
X90061219Y-74070400D01*
X89989790Y-74046590D01*
X89942171Y-74046590D01*
X89870742Y-74070400D01*
X89846933Y-74094209D01*
X89680266Y-74046590D02*
X89346933Y-74046590D01*
X89561219Y-74546590D01*
G04 #@! TO.C,C6*
X89763333Y-75988571D02*
X89787142Y-76012380D01*
X89858571Y-76036190D01*
X89906190Y-76036190D01*
X89977619Y-76012380D01*
X90025238Y-75964761D01*
X90049047Y-75917142D01*
X90072857Y-75821904D01*
X90072857Y-75750476D01*
X90049047Y-75655238D01*
X90025238Y-75607619D01*
X89977619Y-75560000D01*
X89906190Y-75536190D01*
X89858571Y-75536190D01*
X89787142Y-75560000D01*
X89763333Y-75583809D01*
X89334761Y-75536190D02*
X89430000Y-75536190D01*
X89477619Y-75560000D01*
X89501428Y-75583809D01*
X89549047Y-75655238D01*
X89572857Y-75750476D01*
X89572857Y-75940952D01*
X89549047Y-75988571D01*
X89525238Y-76012380D01*
X89477619Y-76036190D01*
X89382380Y-76036190D01*
X89334761Y-76012380D01*
X89310952Y-75988571D01*
X89287142Y-75940952D01*
X89287142Y-75821904D01*
X89310952Y-75774285D01*
X89334761Y-75750476D01*
X89382380Y-75726666D01*
X89477619Y-75726666D01*
X89525238Y-75750476D01*
X89549047Y-75774285D01*
X89572857Y-75821904D01*
G04 #@! TO.C,C21*
X117018571Y-96350971D02*
X117042380Y-96327161D01*
X117066190Y-96255733D01*
X117066190Y-96208114D01*
X117042380Y-96136685D01*
X116994761Y-96089066D01*
X116947142Y-96065257D01*
X116851904Y-96041447D01*
X116780476Y-96041447D01*
X116685238Y-96065257D01*
X116637619Y-96089066D01*
X116590000Y-96136685D01*
X116566190Y-96208114D01*
X116566190Y-96255733D01*
X116590000Y-96327161D01*
X116613809Y-96350971D01*
X116613809Y-96541447D02*
X116590000Y-96565257D01*
X116566190Y-96612876D01*
X116566190Y-96731923D01*
X116590000Y-96779542D01*
X116613809Y-96803352D01*
X116661428Y-96827161D01*
X116709047Y-96827161D01*
X116780476Y-96803352D01*
X117066190Y-96517638D01*
X117066190Y-96827161D01*
X117066190Y-97303352D02*
X117066190Y-97017638D01*
X117066190Y-97160495D02*
X116566190Y-97160495D01*
X116637619Y-97112876D01*
X116685238Y-97065257D01*
X116709047Y-97017638D01*
G04 #@! TO.C,C4*
X105944171Y-78250266D02*
X105967980Y-78226457D01*
X105991790Y-78155028D01*
X105991790Y-78107409D01*
X105967980Y-78035980D01*
X105920361Y-77988361D01*
X105872742Y-77964552D01*
X105777504Y-77940742D01*
X105706076Y-77940742D01*
X105610838Y-77964552D01*
X105563219Y-77988361D01*
X105515600Y-78035980D01*
X105491790Y-78107409D01*
X105491790Y-78155028D01*
X105515600Y-78226457D01*
X105539409Y-78250266D01*
X105658457Y-78678838D02*
X105991790Y-78678838D01*
X105467980Y-78559790D02*
X105825123Y-78440742D01*
X105825123Y-78750266D01*
G04 #@! TO.C,C1*
X117526571Y-78961466D02*
X117550380Y-78937657D01*
X117574190Y-78866228D01*
X117574190Y-78818609D01*
X117550380Y-78747180D01*
X117502761Y-78699561D01*
X117455142Y-78675752D01*
X117359904Y-78651942D01*
X117288476Y-78651942D01*
X117193238Y-78675752D01*
X117145619Y-78699561D01*
X117098000Y-78747180D01*
X117074190Y-78818609D01*
X117074190Y-78866228D01*
X117098000Y-78937657D01*
X117121809Y-78961466D01*
X117574190Y-79437657D02*
X117574190Y-79151942D01*
X117574190Y-79294800D02*
X117074190Y-79294800D01*
X117145619Y-79247180D01*
X117193238Y-79199561D01*
X117217047Y-79151942D01*
G04 #@! TO.C,C34*
X84700228Y-106147371D02*
X84724038Y-106171180D01*
X84795466Y-106194990D01*
X84843085Y-106194990D01*
X84914514Y-106171180D01*
X84962133Y-106123561D01*
X84985942Y-106075942D01*
X85009752Y-105980704D01*
X85009752Y-105909276D01*
X84985942Y-105814038D01*
X84962133Y-105766419D01*
X84914514Y-105718800D01*
X84843085Y-105694990D01*
X84795466Y-105694990D01*
X84724038Y-105718800D01*
X84700228Y-105742609D01*
X84533561Y-105694990D02*
X84224038Y-105694990D01*
X84390704Y-105885466D01*
X84319276Y-105885466D01*
X84271657Y-105909276D01*
X84247847Y-105933085D01*
X84224038Y-105980704D01*
X84224038Y-106099752D01*
X84247847Y-106147371D01*
X84271657Y-106171180D01*
X84319276Y-106194990D01*
X84462133Y-106194990D01*
X84509752Y-106171180D01*
X84533561Y-106147371D01*
X83795466Y-105861657D02*
X83795466Y-106194990D01*
X83914514Y-105671180D02*
X84033561Y-106028323D01*
X83724038Y-106028323D01*
G04 #@! TO.C,C32*
X87061428Y-75328571D02*
X87085238Y-75352380D01*
X87156666Y-75376190D01*
X87204285Y-75376190D01*
X87275714Y-75352380D01*
X87323333Y-75304761D01*
X87347142Y-75257142D01*
X87370952Y-75161904D01*
X87370952Y-75090476D01*
X87347142Y-74995238D01*
X87323333Y-74947619D01*
X87275714Y-74900000D01*
X87204285Y-74876190D01*
X87156666Y-74876190D01*
X87085238Y-74900000D01*
X87061428Y-74923809D01*
X86894761Y-74876190D02*
X86585238Y-74876190D01*
X86751904Y-75066666D01*
X86680476Y-75066666D01*
X86632857Y-75090476D01*
X86609047Y-75114285D01*
X86585238Y-75161904D01*
X86585238Y-75280952D01*
X86609047Y-75328571D01*
X86632857Y-75352380D01*
X86680476Y-75376190D01*
X86823333Y-75376190D01*
X86870952Y-75352380D01*
X86894761Y-75328571D01*
X86394761Y-74923809D02*
X86370952Y-74900000D01*
X86323333Y-74876190D01*
X86204285Y-74876190D01*
X86156666Y-74900000D01*
X86132857Y-74923809D01*
X86109047Y-74971428D01*
X86109047Y-75019047D01*
X86132857Y-75090476D01*
X86418571Y-75376190D01*
X86109047Y-75376190D01*
G04 #@! TO.C,C31*
X114275371Y-108898571D02*
X114299180Y-108874761D01*
X114322990Y-108803333D01*
X114322990Y-108755714D01*
X114299180Y-108684285D01*
X114251561Y-108636666D01*
X114203942Y-108612857D01*
X114108704Y-108589047D01*
X114037276Y-108589047D01*
X113942038Y-108612857D01*
X113894419Y-108636666D01*
X113846800Y-108684285D01*
X113822990Y-108755714D01*
X113822990Y-108803333D01*
X113846800Y-108874761D01*
X113870609Y-108898571D01*
X113822990Y-109065238D02*
X113822990Y-109374761D01*
X114013466Y-109208095D01*
X114013466Y-109279523D01*
X114037276Y-109327142D01*
X114061085Y-109350952D01*
X114108704Y-109374761D01*
X114227752Y-109374761D01*
X114275371Y-109350952D01*
X114299180Y-109327142D01*
X114322990Y-109279523D01*
X114322990Y-109136666D01*
X114299180Y-109089047D01*
X114275371Y-109065238D01*
X114322990Y-109850952D02*
X114322990Y-109565238D01*
X114322990Y-109708095D02*
X113822990Y-109708095D01*
X113894419Y-109660476D01*
X113942038Y-109612857D01*
X113965847Y-109565238D01*
G04 #@! TO.C,C29*
X97840571Y-98227771D02*
X97864380Y-98203961D01*
X97888190Y-98132533D01*
X97888190Y-98084914D01*
X97864380Y-98013485D01*
X97816761Y-97965866D01*
X97769142Y-97942057D01*
X97673904Y-97918247D01*
X97602476Y-97918247D01*
X97507238Y-97942057D01*
X97459619Y-97965866D01*
X97412000Y-98013485D01*
X97388190Y-98084914D01*
X97388190Y-98132533D01*
X97412000Y-98203961D01*
X97435809Y-98227771D01*
X97435809Y-98418247D02*
X97412000Y-98442057D01*
X97388190Y-98489676D01*
X97388190Y-98608723D01*
X97412000Y-98656342D01*
X97435809Y-98680152D01*
X97483428Y-98703961D01*
X97531047Y-98703961D01*
X97602476Y-98680152D01*
X97888190Y-98394438D01*
X97888190Y-98703961D01*
X97888190Y-98942057D02*
X97888190Y-99037295D01*
X97864380Y-99084914D01*
X97840571Y-99108723D01*
X97769142Y-99156342D01*
X97673904Y-99180152D01*
X97483428Y-99180152D01*
X97435809Y-99156342D01*
X97412000Y-99132533D01*
X97388190Y-99084914D01*
X97388190Y-98989676D01*
X97412000Y-98942057D01*
X97435809Y-98918247D01*
X97483428Y-98894438D01*
X97602476Y-98894438D01*
X97650095Y-98918247D01*
X97673904Y-98942057D01*
X97697714Y-98989676D01*
X97697714Y-99084914D01*
X97673904Y-99132533D01*
X97650095Y-99156342D01*
X97602476Y-99180152D01*
G04 #@! TO.C,C28*
X79578971Y-90712171D02*
X79602780Y-90688361D01*
X79626590Y-90616933D01*
X79626590Y-90569314D01*
X79602780Y-90497885D01*
X79555161Y-90450266D01*
X79507542Y-90426457D01*
X79412304Y-90402647D01*
X79340876Y-90402647D01*
X79245638Y-90426457D01*
X79198019Y-90450266D01*
X79150400Y-90497885D01*
X79126590Y-90569314D01*
X79126590Y-90616933D01*
X79150400Y-90688361D01*
X79174209Y-90712171D01*
X79174209Y-90902647D02*
X79150400Y-90926457D01*
X79126590Y-90974076D01*
X79126590Y-91093123D01*
X79150400Y-91140742D01*
X79174209Y-91164552D01*
X79221828Y-91188361D01*
X79269447Y-91188361D01*
X79340876Y-91164552D01*
X79626590Y-90878838D01*
X79626590Y-91188361D01*
X79340876Y-91474076D02*
X79317066Y-91426457D01*
X79293257Y-91402647D01*
X79245638Y-91378838D01*
X79221828Y-91378838D01*
X79174209Y-91402647D01*
X79150400Y-91426457D01*
X79126590Y-91474076D01*
X79126590Y-91569314D01*
X79150400Y-91616933D01*
X79174209Y-91640742D01*
X79221828Y-91664552D01*
X79245638Y-91664552D01*
X79293257Y-91640742D01*
X79317066Y-91616933D01*
X79340876Y-91569314D01*
X79340876Y-91474076D01*
X79364685Y-91426457D01*
X79388495Y-91402647D01*
X79436114Y-91378838D01*
X79531352Y-91378838D01*
X79578971Y-91402647D01*
X79602780Y-91426457D01*
X79626590Y-91474076D01*
X79626590Y-91569314D01*
X79602780Y-91616933D01*
X79578971Y-91640742D01*
X79531352Y-91664552D01*
X79436114Y-91664552D01*
X79388495Y-91640742D01*
X79364685Y-91616933D01*
X79340876Y-91569314D01*
G04 #@! TO.C,C22*
X119202971Y-103666171D02*
X119226780Y-103642361D01*
X119250590Y-103570933D01*
X119250590Y-103523314D01*
X119226780Y-103451885D01*
X119179161Y-103404266D01*
X119131542Y-103380457D01*
X119036304Y-103356647D01*
X118964876Y-103356647D01*
X118869638Y-103380457D01*
X118822019Y-103404266D01*
X118774400Y-103451885D01*
X118750590Y-103523314D01*
X118750590Y-103570933D01*
X118774400Y-103642361D01*
X118798209Y-103666171D01*
X118798209Y-103856647D02*
X118774400Y-103880457D01*
X118750590Y-103928076D01*
X118750590Y-104047123D01*
X118774400Y-104094742D01*
X118798209Y-104118552D01*
X118845828Y-104142361D01*
X118893447Y-104142361D01*
X118964876Y-104118552D01*
X119250590Y-103832838D01*
X119250590Y-104142361D01*
X118798209Y-104332838D02*
X118774400Y-104356647D01*
X118750590Y-104404266D01*
X118750590Y-104523314D01*
X118774400Y-104570933D01*
X118798209Y-104594742D01*
X118845828Y-104618552D01*
X118893447Y-104618552D01*
X118964876Y-104594742D01*
X119250590Y-104309028D01*
X119250590Y-104618552D01*
G04 #@! TO.C,C20*
X119650628Y-107061771D02*
X119674438Y-107085580D01*
X119745866Y-107109390D01*
X119793485Y-107109390D01*
X119864914Y-107085580D01*
X119912533Y-107037961D01*
X119936342Y-106990342D01*
X119960152Y-106895104D01*
X119960152Y-106823676D01*
X119936342Y-106728438D01*
X119912533Y-106680819D01*
X119864914Y-106633200D01*
X119793485Y-106609390D01*
X119745866Y-106609390D01*
X119674438Y-106633200D01*
X119650628Y-106657009D01*
X119460152Y-106657009D02*
X119436342Y-106633200D01*
X119388723Y-106609390D01*
X119269676Y-106609390D01*
X119222057Y-106633200D01*
X119198247Y-106657009D01*
X119174438Y-106704628D01*
X119174438Y-106752247D01*
X119198247Y-106823676D01*
X119483961Y-107109390D01*
X119174438Y-107109390D01*
X118864914Y-106609390D02*
X118817295Y-106609390D01*
X118769676Y-106633200D01*
X118745866Y-106657009D01*
X118722057Y-106704628D01*
X118698247Y-106799866D01*
X118698247Y-106918914D01*
X118722057Y-107014152D01*
X118745866Y-107061771D01*
X118769676Y-107085580D01*
X118817295Y-107109390D01*
X118864914Y-107109390D01*
X118912533Y-107085580D01*
X118936342Y-107061771D01*
X118960152Y-107014152D01*
X118983961Y-106918914D01*
X118983961Y-106799866D01*
X118960152Y-106704628D01*
X118936342Y-106657009D01*
X118912533Y-106633200D01*
X118864914Y-106609390D01*
G04 #@! TO.C,C19*
X112548171Y-98535371D02*
X112571980Y-98511561D01*
X112595790Y-98440133D01*
X112595790Y-98392514D01*
X112571980Y-98321085D01*
X112524361Y-98273466D01*
X112476742Y-98249657D01*
X112381504Y-98225847D01*
X112310076Y-98225847D01*
X112214838Y-98249657D01*
X112167219Y-98273466D01*
X112119600Y-98321085D01*
X112095790Y-98392514D01*
X112095790Y-98440133D01*
X112119600Y-98511561D01*
X112143409Y-98535371D01*
X112595790Y-99011561D02*
X112595790Y-98725847D01*
X112595790Y-98868704D02*
X112095790Y-98868704D01*
X112167219Y-98821085D01*
X112214838Y-98773466D01*
X112238647Y-98725847D01*
X112595790Y-99249657D02*
X112595790Y-99344895D01*
X112571980Y-99392514D01*
X112548171Y-99416323D01*
X112476742Y-99463942D01*
X112381504Y-99487752D01*
X112191028Y-99487752D01*
X112143409Y-99463942D01*
X112119600Y-99440133D01*
X112095790Y-99392514D01*
X112095790Y-99297276D01*
X112119600Y-99249657D01*
X112143409Y-99225847D01*
X112191028Y-99202038D01*
X112310076Y-99202038D01*
X112357695Y-99225847D01*
X112381504Y-99249657D01*
X112405314Y-99297276D01*
X112405314Y-99392514D01*
X112381504Y-99440133D01*
X112357695Y-99463942D01*
X112310076Y-99487752D01*
G04 #@! TO.C,C18*
X112090971Y-103361371D02*
X112114780Y-103337561D01*
X112138590Y-103266133D01*
X112138590Y-103218514D01*
X112114780Y-103147085D01*
X112067161Y-103099466D01*
X112019542Y-103075657D01*
X111924304Y-103051847D01*
X111852876Y-103051847D01*
X111757638Y-103075657D01*
X111710019Y-103099466D01*
X111662400Y-103147085D01*
X111638590Y-103218514D01*
X111638590Y-103266133D01*
X111662400Y-103337561D01*
X111686209Y-103361371D01*
X112138590Y-103837561D02*
X112138590Y-103551847D01*
X112138590Y-103694704D02*
X111638590Y-103694704D01*
X111710019Y-103647085D01*
X111757638Y-103599466D01*
X111781447Y-103551847D01*
X111852876Y-104123276D02*
X111829066Y-104075657D01*
X111805257Y-104051847D01*
X111757638Y-104028038D01*
X111733828Y-104028038D01*
X111686209Y-104051847D01*
X111662400Y-104075657D01*
X111638590Y-104123276D01*
X111638590Y-104218514D01*
X111662400Y-104266133D01*
X111686209Y-104289942D01*
X111733828Y-104313752D01*
X111757638Y-104313752D01*
X111805257Y-104289942D01*
X111829066Y-104266133D01*
X111852876Y-104218514D01*
X111852876Y-104123276D01*
X111876685Y-104075657D01*
X111900495Y-104051847D01*
X111948114Y-104028038D01*
X112043352Y-104028038D01*
X112090971Y-104051847D01*
X112114780Y-104075657D01*
X112138590Y-104123276D01*
X112138590Y-104218514D01*
X112114780Y-104266133D01*
X112090971Y-104289942D01*
X112043352Y-104313752D01*
X111948114Y-104313752D01*
X111900495Y-104289942D01*
X111876685Y-104266133D01*
X111852876Y-104218514D01*
G04 #@! TO.C,C17*
X112090971Y-101888171D02*
X112114780Y-101864361D01*
X112138590Y-101792933D01*
X112138590Y-101745314D01*
X112114780Y-101673885D01*
X112067161Y-101626266D01*
X112019542Y-101602457D01*
X111924304Y-101578647D01*
X111852876Y-101578647D01*
X111757638Y-101602457D01*
X111710019Y-101626266D01*
X111662400Y-101673885D01*
X111638590Y-101745314D01*
X111638590Y-101792933D01*
X111662400Y-101864361D01*
X111686209Y-101888171D01*
X112138590Y-102364361D02*
X112138590Y-102078647D01*
X112138590Y-102221504D02*
X111638590Y-102221504D01*
X111710019Y-102173885D01*
X111757638Y-102126266D01*
X111781447Y-102078647D01*
X111638590Y-102531028D02*
X111638590Y-102864361D01*
X112138590Y-102650076D01*
G04 #@! TO.C,C16*
X115180228Y-108179371D02*
X115204038Y-108203180D01*
X115275466Y-108226990D01*
X115323085Y-108226990D01*
X115394514Y-108203180D01*
X115442133Y-108155561D01*
X115465942Y-108107942D01*
X115489752Y-108012704D01*
X115489752Y-107941276D01*
X115465942Y-107846038D01*
X115442133Y-107798419D01*
X115394514Y-107750800D01*
X115323085Y-107726990D01*
X115275466Y-107726990D01*
X115204038Y-107750800D01*
X115180228Y-107774609D01*
X114704038Y-108226990D02*
X114989752Y-108226990D01*
X114846895Y-108226990D02*
X114846895Y-107726990D01*
X114894514Y-107798419D01*
X114942133Y-107846038D01*
X114989752Y-107869847D01*
X114275466Y-107726990D02*
X114370704Y-107726990D01*
X114418323Y-107750800D01*
X114442133Y-107774609D01*
X114489752Y-107846038D01*
X114513561Y-107941276D01*
X114513561Y-108131752D01*
X114489752Y-108179371D01*
X114465942Y-108203180D01*
X114418323Y-108226990D01*
X114323085Y-108226990D01*
X114275466Y-108203180D01*
X114251657Y-108179371D01*
X114227847Y-108131752D01*
X114227847Y-108012704D01*
X114251657Y-107965085D01*
X114275466Y-107941276D01*
X114323085Y-107917466D01*
X114418323Y-107917466D01*
X114465942Y-107941276D01*
X114489752Y-107965085D01*
X114513561Y-108012704D01*
G04 #@! TO.C,C14*
X113919771Y-81415771D02*
X113943580Y-81391961D01*
X113967390Y-81320533D01*
X113967390Y-81272914D01*
X113943580Y-81201485D01*
X113895961Y-81153866D01*
X113848342Y-81130057D01*
X113753104Y-81106247D01*
X113681676Y-81106247D01*
X113586438Y-81130057D01*
X113538819Y-81153866D01*
X113491200Y-81201485D01*
X113467390Y-81272914D01*
X113467390Y-81320533D01*
X113491200Y-81391961D01*
X113515009Y-81415771D01*
X113967390Y-81891961D02*
X113967390Y-81606247D01*
X113967390Y-81749104D02*
X113467390Y-81749104D01*
X113538819Y-81701485D01*
X113586438Y-81653866D01*
X113610247Y-81606247D01*
X113634057Y-82320533D02*
X113967390Y-82320533D01*
X113443580Y-82201485D02*
X113800723Y-82082438D01*
X113800723Y-82391961D01*
G04 #@! TO.C,C12*
X119926228Y-88539771D02*
X119950038Y-88563580D01*
X120021466Y-88587390D01*
X120069085Y-88587390D01*
X120140514Y-88563580D01*
X120188133Y-88515961D01*
X120211942Y-88468342D01*
X120235752Y-88373104D01*
X120235752Y-88301676D01*
X120211942Y-88206438D01*
X120188133Y-88158819D01*
X120140514Y-88111200D01*
X120069085Y-88087390D01*
X120021466Y-88087390D01*
X119950038Y-88111200D01*
X119926228Y-88135009D01*
X119450038Y-88587390D02*
X119735752Y-88587390D01*
X119592895Y-88587390D02*
X119592895Y-88087390D01*
X119640514Y-88158819D01*
X119688133Y-88206438D01*
X119735752Y-88230247D01*
X119259561Y-88135009D02*
X119235752Y-88111200D01*
X119188133Y-88087390D01*
X119069085Y-88087390D01*
X119021466Y-88111200D01*
X118997657Y-88135009D01*
X118973847Y-88182628D01*
X118973847Y-88230247D01*
X118997657Y-88301676D01*
X119283371Y-88587390D01*
X118973847Y-88587390D01*
G04 #@! TO.C,R6*
X97543333Y-81616190D02*
X97710000Y-81378095D01*
X97829047Y-81616190D02*
X97829047Y-81116190D01*
X97638571Y-81116190D01*
X97590952Y-81140000D01*
X97567142Y-81163809D01*
X97543333Y-81211428D01*
X97543333Y-81282857D01*
X97567142Y-81330476D01*
X97590952Y-81354285D01*
X97638571Y-81378095D01*
X97829047Y-81378095D01*
X97114761Y-81116190D02*
X97210000Y-81116190D01*
X97257619Y-81140000D01*
X97281428Y-81163809D01*
X97329047Y-81235238D01*
X97352857Y-81330476D01*
X97352857Y-81520952D01*
X97329047Y-81568571D01*
X97305238Y-81592380D01*
X97257619Y-81616190D01*
X97162380Y-81616190D01*
X97114761Y-81592380D01*
X97090952Y-81568571D01*
X97067142Y-81520952D01*
X97067142Y-81401904D01*
X97090952Y-81354285D01*
X97114761Y-81330476D01*
X97162380Y-81306666D01*
X97257619Y-81306666D01*
X97305238Y-81330476D01*
X97329047Y-81354285D01*
X97352857Y-81401904D01*
G04 #@! TO.C,R4*
X104874190Y-79418666D02*
X104636095Y-79252000D01*
X104874190Y-79132952D02*
X104374190Y-79132952D01*
X104374190Y-79323428D01*
X104398000Y-79371047D01*
X104421809Y-79394857D01*
X104469428Y-79418666D01*
X104540857Y-79418666D01*
X104588476Y-79394857D01*
X104612285Y-79371047D01*
X104636095Y-79323428D01*
X104636095Y-79132952D01*
X104540857Y-79847238D02*
X104874190Y-79847238D01*
X104350380Y-79728190D02*
X104707523Y-79609142D01*
X104707523Y-79918666D01*
G04 #@! TO.C,R1*
X97353333Y-94786190D02*
X97520000Y-94548095D01*
X97639047Y-94786190D02*
X97639047Y-94286190D01*
X97448571Y-94286190D01*
X97400952Y-94310000D01*
X97377142Y-94333809D01*
X97353333Y-94381428D01*
X97353333Y-94452857D01*
X97377142Y-94500476D01*
X97400952Y-94524285D01*
X97448571Y-94548095D01*
X97639047Y-94548095D01*
X96877142Y-94786190D02*
X97162857Y-94786190D01*
X97020000Y-94786190D02*
X97020000Y-94286190D01*
X97067619Y-94357619D01*
X97115238Y-94405238D01*
X97162857Y-94429047D01*
G04 #@! TO.C,R8*
X97813333Y-83956190D02*
X97980000Y-83718095D01*
X98099047Y-83956190D02*
X98099047Y-83456190D01*
X97908571Y-83456190D01*
X97860952Y-83480000D01*
X97837142Y-83503809D01*
X97813333Y-83551428D01*
X97813333Y-83622857D01*
X97837142Y-83670476D01*
X97860952Y-83694285D01*
X97908571Y-83718095D01*
X98099047Y-83718095D01*
X97527619Y-83670476D02*
X97575238Y-83646666D01*
X97599047Y-83622857D01*
X97622857Y-83575238D01*
X97622857Y-83551428D01*
X97599047Y-83503809D01*
X97575238Y-83480000D01*
X97527619Y-83456190D01*
X97432380Y-83456190D01*
X97384761Y-83480000D01*
X97360952Y-83503809D01*
X97337142Y-83551428D01*
X97337142Y-83575238D01*
X97360952Y-83622857D01*
X97384761Y-83646666D01*
X97432380Y-83670476D01*
X97527619Y-83670476D01*
X97575238Y-83694285D01*
X97599047Y-83718095D01*
X97622857Y-83765714D01*
X97622857Y-83860952D01*
X97599047Y-83908571D01*
X97575238Y-83932380D01*
X97527619Y-83956190D01*
X97432380Y-83956190D01*
X97384761Y-83932380D01*
X97360952Y-83908571D01*
X97337142Y-83860952D01*
X97337142Y-83765714D01*
X97360952Y-83718095D01*
X97384761Y-83694285D01*
X97432380Y-83670476D01*
G04 #@! TO.C,R10*
X100087225Y-82662656D02*
X100036717Y-82376446D01*
X100289255Y-82460625D02*
X99935702Y-82107072D01*
X99801015Y-82241759D01*
X99784179Y-82292267D01*
X99784179Y-82325938D01*
X99801015Y-82376446D01*
X99851522Y-82426954D01*
X99902030Y-82443790D01*
X99935702Y-82443790D01*
X99986209Y-82426954D01*
X100120896Y-82292267D01*
X99750507Y-82999374D02*
X99952538Y-82797343D01*
X99851522Y-82898358D02*
X99497969Y-82544805D01*
X99582148Y-82561641D01*
X99649492Y-82561641D01*
X99699999Y-82544805D01*
X99178087Y-82864687D02*
X99144416Y-82898358D01*
X99127580Y-82948866D01*
X99127580Y-82982538D01*
X99144416Y-83033045D01*
X99194923Y-83117225D01*
X99279103Y-83201404D01*
X99363282Y-83251912D01*
X99413790Y-83268748D01*
X99447461Y-83268748D01*
X99497969Y-83251912D01*
X99531641Y-83218240D01*
X99548477Y-83167732D01*
X99548477Y-83134061D01*
X99531641Y-83083553D01*
X99481133Y-82999374D01*
X99396954Y-82915194D01*
X99312774Y-82864687D01*
X99262267Y-82847851D01*
X99228595Y-82847851D01*
X99178087Y-82864687D01*
G04 #@! TO.C,R11*
X99737028Y-79169390D02*
X99903695Y-78931295D01*
X100022742Y-79169390D02*
X100022742Y-78669390D01*
X99832266Y-78669390D01*
X99784647Y-78693200D01*
X99760838Y-78717009D01*
X99737028Y-78764628D01*
X99737028Y-78836057D01*
X99760838Y-78883676D01*
X99784647Y-78907485D01*
X99832266Y-78931295D01*
X100022742Y-78931295D01*
X99260838Y-79169390D02*
X99546552Y-79169390D01*
X99403695Y-79169390D02*
X99403695Y-78669390D01*
X99451314Y-78740819D01*
X99498933Y-78788438D01*
X99546552Y-78812247D01*
X98784647Y-79169390D02*
X99070361Y-79169390D01*
X98927504Y-79169390D02*
X98927504Y-78669390D01*
X98975123Y-78740819D01*
X99022742Y-78788438D01*
X99070361Y-78812247D01*
G04 #@! TO.C,R12*
X104410628Y-78661390D02*
X104577295Y-78423295D01*
X104696342Y-78661390D02*
X104696342Y-78161390D01*
X104505866Y-78161390D01*
X104458247Y-78185200D01*
X104434438Y-78209009D01*
X104410628Y-78256628D01*
X104410628Y-78328057D01*
X104434438Y-78375676D01*
X104458247Y-78399485D01*
X104505866Y-78423295D01*
X104696342Y-78423295D01*
X103934438Y-78661390D02*
X104220152Y-78661390D01*
X104077295Y-78661390D02*
X104077295Y-78161390D01*
X104124914Y-78232819D01*
X104172533Y-78280438D01*
X104220152Y-78304247D01*
X103743961Y-78209009D02*
X103720152Y-78185200D01*
X103672533Y-78161390D01*
X103553485Y-78161390D01*
X103505866Y-78185200D01*
X103482057Y-78209009D01*
X103458247Y-78256628D01*
X103458247Y-78304247D01*
X103482057Y-78375676D01*
X103767771Y-78661390D01*
X103458247Y-78661390D01*
G04 #@! TO.C,R7*
X95739733Y-89227790D02*
X95906400Y-88989695D01*
X96025447Y-89227790D02*
X96025447Y-88727790D01*
X95834971Y-88727790D01*
X95787352Y-88751600D01*
X95763542Y-88775409D01*
X95739733Y-88823028D01*
X95739733Y-88894457D01*
X95763542Y-88942076D01*
X95787352Y-88965885D01*
X95834971Y-88989695D01*
X96025447Y-88989695D01*
X95573066Y-88727790D02*
X95239733Y-88727790D01*
X95454019Y-89227790D01*
G04 #@! TO.C,R23*
X119926228Y-89298590D02*
X120092895Y-89060495D01*
X120211942Y-89298590D02*
X120211942Y-88798590D01*
X120021466Y-88798590D01*
X119973847Y-88822400D01*
X119950038Y-88846209D01*
X119926228Y-88893828D01*
X119926228Y-88965257D01*
X119950038Y-89012876D01*
X119973847Y-89036685D01*
X120021466Y-89060495D01*
X120211942Y-89060495D01*
X119735752Y-88846209D02*
X119711942Y-88822400D01*
X119664323Y-88798590D01*
X119545276Y-88798590D01*
X119497657Y-88822400D01*
X119473847Y-88846209D01*
X119450038Y-88893828D01*
X119450038Y-88941447D01*
X119473847Y-89012876D01*
X119759561Y-89298590D01*
X119450038Y-89298590D01*
X119283371Y-88798590D02*
X118973847Y-88798590D01*
X119140514Y-88989066D01*
X119069085Y-88989066D01*
X119021466Y-89012876D01*
X118997657Y-89036685D01*
X118973847Y-89084304D01*
X118973847Y-89203352D01*
X118997657Y-89250971D01*
X119021466Y-89274780D01*
X119069085Y-89298590D01*
X119211942Y-89298590D01*
X119259561Y-89274780D01*
X119283371Y-89250971D01*
G04 #@! TO.C,R22*
X120897790Y-88395371D02*
X120659695Y-88228704D01*
X120897790Y-88109657D02*
X120397790Y-88109657D01*
X120397790Y-88300133D01*
X120421600Y-88347752D01*
X120445409Y-88371561D01*
X120493028Y-88395371D01*
X120564457Y-88395371D01*
X120612076Y-88371561D01*
X120635885Y-88347752D01*
X120659695Y-88300133D01*
X120659695Y-88109657D01*
X120445409Y-88585847D02*
X120421600Y-88609657D01*
X120397790Y-88657276D01*
X120397790Y-88776323D01*
X120421600Y-88823942D01*
X120445409Y-88847752D01*
X120493028Y-88871561D01*
X120540647Y-88871561D01*
X120612076Y-88847752D01*
X120897790Y-88562038D01*
X120897790Y-88871561D01*
X120445409Y-89062038D02*
X120421600Y-89085847D01*
X120397790Y-89133466D01*
X120397790Y-89252514D01*
X120421600Y-89300133D01*
X120445409Y-89323942D01*
X120493028Y-89347752D01*
X120540647Y-89347752D01*
X120612076Y-89323942D01*
X120897790Y-89038228D01*
X120897790Y-89347752D01*
G04 #@! TO.C,R21*
X88836190Y-82828571D02*
X88598095Y-82661904D01*
X88836190Y-82542857D02*
X88336190Y-82542857D01*
X88336190Y-82733333D01*
X88360000Y-82780952D01*
X88383809Y-82804761D01*
X88431428Y-82828571D01*
X88502857Y-82828571D01*
X88550476Y-82804761D01*
X88574285Y-82780952D01*
X88598095Y-82733333D01*
X88598095Y-82542857D01*
X88383809Y-83019047D02*
X88360000Y-83042857D01*
X88336190Y-83090476D01*
X88336190Y-83209523D01*
X88360000Y-83257142D01*
X88383809Y-83280952D01*
X88431428Y-83304761D01*
X88479047Y-83304761D01*
X88550476Y-83280952D01*
X88836190Y-82995238D01*
X88836190Y-83304761D01*
X88836190Y-83780952D02*
X88836190Y-83495238D01*
X88836190Y-83638095D02*
X88336190Y-83638095D01*
X88407619Y-83590476D01*
X88455238Y-83542857D01*
X88479047Y-83495238D01*
G04 #@! TO.C,R20*
X87436190Y-84388571D02*
X87198095Y-84221904D01*
X87436190Y-84102857D02*
X86936190Y-84102857D01*
X86936190Y-84293333D01*
X86960000Y-84340952D01*
X86983809Y-84364761D01*
X87031428Y-84388571D01*
X87102857Y-84388571D01*
X87150476Y-84364761D01*
X87174285Y-84340952D01*
X87198095Y-84293333D01*
X87198095Y-84102857D01*
X86983809Y-84579047D02*
X86960000Y-84602857D01*
X86936190Y-84650476D01*
X86936190Y-84769523D01*
X86960000Y-84817142D01*
X86983809Y-84840952D01*
X87031428Y-84864761D01*
X87079047Y-84864761D01*
X87150476Y-84840952D01*
X87436190Y-84555238D01*
X87436190Y-84864761D01*
X86936190Y-85174285D02*
X86936190Y-85221904D01*
X86960000Y-85269523D01*
X86983809Y-85293333D01*
X87031428Y-85317142D01*
X87126666Y-85340952D01*
X87245714Y-85340952D01*
X87340952Y-85317142D01*
X87388571Y-85293333D01*
X87412380Y-85269523D01*
X87436190Y-85221904D01*
X87436190Y-85174285D01*
X87412380Y-85126666D01*
X87388571Y-85102857D01*
X87340952Y-85079047D01*
X87245714Y-85055238D01*
X87126666Y-85055238D01*
X87031428Y-85079047D01*
X86983809Y-85102857D01*
X86960000Y-85126666D01*
X86936190Y-85174285D01*
G04 #@! TO.C,R19*
X101057828Y-80032990D02*
X101224495Y-79794895D01*
X101343542Y-80032990D02*
X101343542Y-79532990D01*
X101153066Y-79532990D01*
X101105447Y-79556800D01*
X101081638Y-79580609D01*
X101057828Y-79628228D01*
X101057828Y-79699657D01*
X101081638Y-79747276D01*
X101105447Y-79771085D01*
X101153066Y-79794895D01*
X101343542Y-79794895D01*
X100581638Y-80032990D02*
X100867352Y-80032990D01*
X100724495Y-80032990D02*
X100724495Y-79532990D01*
X100772114Y-79604419D01*
X100819733Y-79652038D01*
X100867352Y-79675847D01*
X100343542Y-80032990D02*
X100248304Y-80032990D01*
X100200685Y-80009180D01*
X100176876Y-79985371D01*
X100129257Y-79913942D01*
X100105447Y-79818704D01*
X100105447Y-79628228D01*
X100129257Y-79580609D01*
X100153066Y-79556800D01*
X100200685Y-79532990D01*
X100295923Y-79532990D01*
X100343542Y-79556800D01*
X100367352Y-79580609D01*
X100391161Y-79628228D01*
X100391161Y-79747276D01*
X100367352Y-79794895D01*
X100343542Y-79818704D01*
X100295923Y-79842514D01*
X100200685Y-79842514D01*
X100153066Y-79818704D01*
X100129257Y-79794895D01*
X100105447Y-79747276D01*
G04 #@! TO.C,R18*
X106188628Y-86484590D02*
X106355295Y-86246495D01*
X106474342Y-86484590D02*
X106474342Y-85984590D01*
X106283866Y-85984590D01*
X106236247Y-86008400D01*
X106212438Y-86032209D01*
X106188628Y-86079828D01*
X106188628Y-86151257D01*
X106212438Y-86198876D01*
X106236247Y-86222685D01*
X106283866Y-86246495D01*
X106474342Y-86246495D01*
X105712438Y-86484590D02*
X105998152Y-86484590D01*
X105855295Y-86484590D02*
X105855295Y-85984590D01*
X105902914Y-86056019D01*
X105950533Y-86103638D01*
X105998152Y-86127447D01*
X105426723Y-86198876D02*
X105474342Y-86175066D01*
X105498152Y-86151257D01*
X105521961Y-86103638D01*
X105521961Y-86079828D01*
X105498152Y-86032209D01*
X105474342Y-86008400D01*
X105426723Y-85984590D01*
X105331485Y-85984590D01*
X105283866Y-86008400D01*
X105260057Y-86032209D01*
X105236247Y-86079828D01*
X105236247Y-86103638D01*
X105260057Y-86151257D01*
X105283866Y-86175066D01*
X105331485Y-86198876D01*
X105426723Y-86198876D01*
X105474342Y-86222685D01*
X105498152Y-86246495D01*
X105521961Y-86294114D01*
X105521961Y-86389352D01*
X105498152Y-86436971D01*
X105474342Y-86460780D01*
X105426723Y-86484590D01*
X105331485Y-86484590D01*
X105283866Y-86460780D01*
X105260057Y-86436971D01*
X105236247Y-86389352D01*
X105236247Y-86294114D01*
X105260057Y-86246495D01*
X105283866Y-86222685D01*
X105331485Y-86198876D01*
G04 #@! TO.C,R17*
X94691428Y-77006190D02*
X94858095Y-76768095D01*
X94977142Y-77006190D02*
X94977142Y-76506190D01*
X94786666Y-76506190D01*
X94739047Y-76530000D01*
X94715238Y-76553809D01*
X94691428Y-76601428D01*
X94691428Y-76672857D01*
X94715238Y-76720476D01*
X94739047Y-76744285D01*
X94786666Y-76768095D01*
X94977142Y-76768095D01*
X94215238Y-77006190D02*
X94500952Y-77006190D01*
X94358095Y-77006190D02*
X94358095Y-76506190D01*
X94405714Y-76577619D01*
X94453333Y-76625238D01*
X94500952Y-76649047D01*
X94048571Y-76506190D02*
X93715238Y-76506190D01*
X93929523Y-77006190D01*
G04 #@! TO.C,R16*
X96561428Y-76786190D02*
X96728095Y-76548095D01*
X96847142Y-76786190D02*
X96847142Y-76286190D01*
X96656666Y-76286190D01*
X96609047Y-76310000D01*
X96585238Y-76333809D01*
X96561428Y-76381428D01*
X96561428Y-76452857D01*
X96585238Y-76500476D01*
X96609047Y-76524285D01*
X96656666Y-76548095D01*
X96847142Y-76548095D01*
X96085238Y-76786190D02*
X96370952Y-76786190D01*
X96228095Y-76786190D02*
X96228095Y-76286190D01*
X96275714Y-76357619D01*
X96323333Y-76405238D01*
X96370952Y-76429047D01*
X95656666Y-76286190D02*
X95751904Y-76286190D01*
X95799523Y-76310000D01*
X95823333Y-76333809D01*
X95870952Y-76405238D01*
X95894761Y-76500476D01*
X95894761Y-76690952D01*
X95870952Y-76738571D01*
X95847142Y-76762380D01*
X95799523Y-76786190D01*
X95704285Y-76786190D01*
X95656666Y-76762380D01*
X95632857Y-76738571D01*
X95609047Y-76690952D01*
X95609047Y-76571904D01*
X95632857Y-76524285D01*
X95656666Y-76500476D01*
X95704285Y-76476666D01*
X95799523Y-76476666D01*
X95847142Y-76500476D01*
X95870952Y-76524285D01*
X95894761Y-76571904D01*
G04 #@! TO.C,R5*
X97763333Y-80986190D02*
X97930000Y-80748095D01*
X98049047Y-80986190D02*
X98049047Y-80486190D01*
X97858571Y-80486190D01*
X97810952Y-80510000D01*
X97787142Y-80533809D01*
X97763333Y-80581428D01*
X97763333Y-80652857D01*
X97787142Y-80700476D01*
X97810952Y-80724285D01*
X97858571Y-80748095D01*
X98049047Y-80748095D01*
X97310952Y-80486190D02*
X97549047Y-80486190D01*
X97572857Y-80724285D01*
X97549047Y-80700476D01*
X97501428Y-80676666D01*
X97382380Y-80676666D01*
X97334761Y-80700476D01*
X97310952Y-80724285D01*
X97287142Y-80771904D01*
X97287142Y-80890952D01*
X97310952Y-80938571D01*
X97334761Y-80962380D01*
X97382380Y-80986190D01*
X97501428Y-80986190D01*
X97549047Y-80962380D01*
X97572857Y-80938571D01*
G04 #@! TO.C,R40*
X108023790Y-86698971D02*
X107785695Y-86532304D01*
X108023790Y-86413257D02*
X107523790Y-86413257D01*
X107523790Y-86603733D01*
X107547600Y-86651352D01*
X107571409Y-86675161D01*
X107619028Y-86698971D01*
X107690457Y-86698971D01*
X107738076Y-86675161D01*
X107761885Y-86651352D01*
X107785695Y-86603733D01*
X107785695Y-86413257D01*
X107690457Y-87127542D02*
X108023790Y-87127542D01*
X107499980Y-87008495D02*
X107857123Y-86889447D01*
X107857123Y-87198971D01*
X107523790Y-87484685D02*
X107523790Y-87532304D01*
X107547600Y-87579923D01*
X107571409Y-87603733D01*
X107619028Y-87627542D01*
X107714266Y-87651352D01*
X107833314Y-87651352D01*
X107928552Y-87627542D01*
X107976171Y-87603733D01*
X107999980Y-87579923D01*
X108023790Y-87532304D01*
X108023790Y-87484685D01*
X107999980Y-87437066D01*
X107976171Y-87413257D01*
X107928552Y-87389447D01*
X107833314Y-87365638D01*
X107714266Y-87365638D01*
X107619028Y-87389447D01*
X107571409Y-87413257D01*
X107547600Y-87437066D01*
X107523790Y-87484685D01*
G04 #@! TO.C,R27*
X105477428Y-91615390D02*
X105644095Y-91377295D01*
X105763142Y-91615390D02*
X105763142Y-91115390D01*
X105572666Y-91115390D01*
X105525047Y-91139200D01*
X105501238Y-91163009D01*
X105477428Y-91210628D01*
X105477428Y-91282057D01*
X105501238Y-91329676D01*
X105525047Y-91353485D01*
X105572666Y-91377295D01*
X105763142Y-91377295D01*
X105286952Y-91163009D02*
X105263142Y-91139200D01*
X105215523Y-91115390D01*
X105096476Y-91115390D01*
X105048857Y-91139200D01*
X105025047Y-91163009D01*
X105001238Y-91210628D01*
X105001238Y-91258247D01*
X105025047Y-91329676D01*
X105310761Y-91615390D01*
X105001238Y-91615390D01*
X104834571Y-91115390D02*
X104501238Y-91115390D01*
X104715523Y-91615390D01*
G04 #@! TO.C,R29*
X104004228Y-89430990D02*
X104170895Y-89192895D01*
X104289942Y-89430990D02*
X104289942Y-88930990D01*
X104099466Y-88930990D01*
X104051847Y-88954800D01*
X104028038Y-88978609D01*
X104004228Y-89026228D01*
X104004228Y-89097657D01*
X104028038Y-89145276D01*
X104051847Y-89169085D01*
X104099466Y-89192895D01*
X104289942Y-89192895D01*
X103813752Y-88978609D02*
X103789942Y-88954800D01*
X103742323Y-88930990D01*
X103623276Y-88930990D01*
X103575657Y-88954800D01*
X103551847Y-88978609D01*
X103528038Y-89026228D01*
X103528038Y-89073847D01*
X103551847Y-89145276D01*
X103837561Y-89430990D01*
X103528038Y-89430990D01*
X103289942Y-89430990D02*
X103194704Y-89430990D01*
X103147085Y-89407180D01*
X103123276Y-89383371D01*
X103075657Y-89311942D01*
X103051847Y-89216704D01*
X103051847Y-89026228D01*
X103075657Y-88978609D01*
X103099466Y-88954800D01*
X103147085Y-88930990D01*
X103242323Y-88930990D01*
X103289942Y-88954800D01*
X103313752Y-88978609D01*
X103337561Y-89026228D01*
X103337561Y-89145276D01*
X103313752Y-89192895D01*
X103289942Y-89216704D01*
X103242323Y-89240514D01*
X103147085Y-89240514D01*
X103099466Y-89216704D01*
X103075657Y-89192895D01*
X103051847Y-89145276D01*
G04 #@! TO.C,R25*
X103851828Y-95323790D02*
X104018495Y-95085695D01*
X104137542Y-95323790D02*
X104137542Y-94823790D01*
X103947066Y-94823790D01*
X103899447Y-94847600D01*
X103875638Y-94871409D01*
X103851828Y-94919028D01*
X103851828Y-94990457D01*
X103875638Y-95038076D01*
X103899447Y-95061885D01*
X103947066Y-95085695D01*
X104137542Y-95085695D01*
X103661352Y-94871409D02*
X103637542Y-94847600D01*
X103589923Y-94823790D01*
X103470876Y-94823790D01*
X103423257Y-94847600D01*
X103399447Y-94871409D01*
X103375638Y-94919028D01*
X103375638Y-94966647D01*
X103399447Y-95038076D01*
X103685161Y-95323790D01*
X103375638Y-95323790D01*
X102923257Y-94823790D02*
X103161352Y-94823790D01*
X103185161Y-95061885D01*
X103161352Y-95038076D01*
X103113733Y-95014266D01*
X102994685Y-95014266D01*
X102947066Y-95038076D01*
X102923257Y-95061885D01*
X102899447Y-95109504D01*
X102899447Y-95228552D01*
X102923257Y-95276171D01*
X102947066Y-95299980D01*
X102994685Y-95323790D01*
X103113733Y-95323790D01*
X103161352Y-95299980D01*
X103185161Y-95276171D01*
G04 #@! TO.C,R30*
X113560990Y-101888171D02*
X113322895Y-101721504D01*
X113560990Y-101602457D02*
X113060990Y-101602457D01*
X113060990Y-101792933D01*
X113084800Y-101840552D01*
X113108609Y-101864361D01*
X113156228Y-101888171D01*
X113227657Y-101888171D01*
X113275276Y-101864361D01*
X113299085Y-101840552D01*
X113322895Y-101792933D01*
X113322895Y-101602457D01*
X113060990Y-102054838D02*
X113060990Y-102364361D01*
X113251466Y-102197695D01*
X113251466Y-102269123D01*
X113275276Y-102316742D01*
X113299085Y-102340552D01*
X113346704Y-102364361D01*
X113465752Y-102364361D01*
X113513371Y-102340552D01*
X113537180Y-102316742D01*
X113560990Y-102269123D01*
X113560990Y-102126266D01*
X113537180Y-102078647D01*
X113513371Y-102054838D01*
X113060990Y-102673885D02*
X113060990Y-102721504D01*
X113084800Y-102769123D01*
X113108609Y-102792933D01*
X113156228Y-102816742D01*
X113251466Y-102840552D01*
X113370514Y-102840552D01*
X113465752Y-102816742D01*
X113513371Y-102792933D01*
X113537180Y-102769123D01*
X113560990Y-102721504D01*
X113560990Y-102673885D01*
X113537180Y-102626266D01*
X113513371Y-102602457D01*
X113465752Y-102578647D01*
X113370514Y-102554838D01*
X113251466Y-102554838D01*
X113156228Y-102578647D01*
X113108609Y-102602457D01*
X113084800Y-102626266D01*
X113060990Y-102673885D01*
G04 #@! TO.C,R31*
X113560990Y-103310571D02*
X113322895Y-103143904D01*
X113560990Y-103024857D02*
X113060990Y-103024857D01*
X113060990Y-103215333D01*
X113084800Y-103262952D01*
X113108609Y-103286761D01*
X113156228Y-103310571D01*
X113227657Y-103310571D01*
X113275276Y-103286761D01*
X113299085Y-103262952D01*
X113322895Y-103215333D01*
X113322895Y-103024857D01*
X113060990Y-103477238D02*
X113060990Y-103786761D01*
X113251466Y-103620095D01*
X113251466Y-103691523D01*
X113275276Y-103739142D01*
X113299085Y-103762952D01*
X113346704Y-103786761D01*
X113465752Y-103786761D01*
X113513371Y-103762952D01*
X113537180Y-103739142D01*
X113560990Y-103691523D01*
X113560990Y-103548666D01*
X113537180Y-103501047D01*
X113513371Y-103477238D01*
X113560990Y-104262952D02*
X113560990Y-103977238D01*
X113560990Y-104120095D02*
X113060990Y-104120095D01*
X113132419Y-104072476D01*
X113180038Y-104024857D01*
X113203847Y-103977238D01*
G04 #@! TO.C,R32*
X100499028Y-90142190D02*
X100665695Y-89904095D01*
X100784742Y-90142190D02*
X100784742Y-89642190D01*
X100594266Y-89642190D01*
X100546647Y-89666000D01*
X100522838Y-89689809D01*
X100499028Y-89737428D01*
X100499028Y-89808857D01*
X100522838Y-89856476D01*
X100546647Y-89880285D01*
X100594266Y-89904095D01*
X100784742Y-89904095D01*
X100332361Y-89642190D02*
X100022838Y-89642190D01*
X100189504Y-89832666D01*
X100118076Y-89832666D01*
X100070457Y-89856476D01*
X100046647Y-89880285D01*
X100022838Y-89927904D01*
X100022838Y-90046952D01*
X100046647Y-90094571D01*
X100070457Y-90118380D01*
X100118076Y-90142190D01*
X100260933Y-90142190D01*
X100308552Y-90118380D01*
X100332361Y-90094571D01*
X99832361Y-89689809D02*
X99808552Y-89666000D01*
X99760933Y-89642190D01*
X99641885Y-89642190D01*
X99594266Y-89666000D01*
X99570457Y-89689809D01*
X99546647Y-89737428D01*
X99546647Y-89785047D01*
X99570457Y-89856476D01*
X99856171Y-90142190D01*
X99546647Y-90142190D01*
G04 #@! TO.C,R37*
X112849790Y-101888171D02*
X112611695Y-101721504D01*
X112849790Y-101602457D02*
X112349790Y-101602457D01*
X112349790Y-101792933D01*
X112373600Y-101840552D01*
X112397409Y-101864361D01*
X112445028Y-101888171D01*
X112516457Y-101888171D01*
X112564076Y-101864361D01*
X112587885Y-101840552D01*
X112611695Y-101792933D01*
X112611695Y-101602457D01*
X112349790Y-102054838D02*
X112349790Y-102364361D01*
X112540266Y-102197695D01*
X112540266Y-102269123D01*
X112564076Y-102316742D01*
X112587885Y-102340552D01*
X112635504Y-102364361D01*
X112754552Y-102364361D01*
X112802171Y-102340552D01*
X112825980Y-102316742D01*
X112849790Y-102269123D01*
X112849790Y-102126266D01*
X112825980Y-102078647D01*
X112802171Y-102054838D01*
X112349790Y-102531028D02*
X112349790Y-102864361D01*
X112849790Y-102650076D01*
G04 #@! TO.C,R38*
X112849790Y-103310571D02*
X112611695Y-103143904D01*
X112849790Y-103024857D02*
X112349790Y-103024857D01*
X112349790Y-103215333D01*
X112373600Y-103262952D01*
X112397409Y-103286761D01*
X112445028Y-103310571D01*
X112516457Y-103310571D01*
X112564076Y-103286761D01*
X112587885Y-103262952D01*
X112611695Y-103215333D01*
X112611695Y-103024857D01*
X112349790Y-103477238D02*
X112349790Y-103786761D01*
X112540266Y-103620095D01*
X112540266Y-103691523D01*
X112564076Y-103739142D01*
X112587885Y-103762952D01*
X112635504Y-103786761D01*
X112754552Y-103786761D01*
X112802171Y-103762952D01*
X112825980Y-103739142D01*
X112849790Y-103691523D01*
X112849790Y-103548666D01*
X112825980Y-103501047D01*
X112802171Y-103477238D01*
X112564076Y-104072476D02*
X112540266Y-104024857D01*
X112516457Y-104001047D01*
X112468838Y-103977238D01*
X112445028Y-103977238D01*
X112397409Y-104001047D01*
X112373600Y-104024857D01*
X112349790Y-104072476D01*
X112349790Y-104167714D01*
X112373600Y-104215333D01*
X112397409Y-104239142D01*
X112445028Y-104262952D01*
X112468838Y-104262952D01*
X112516457Y-104239142D01*
X112540266Y-104215333D01*
X112564076Y-104167714D01*
X112564076Y-104072476D01*
X112587885Y-104024857D01*
X112611695Y-104001047D01*
X112659314Y-103977238D01*
X112754552Y-103977238D01*
X112802171Y-104001047D01*
X112825980Y-104024857D01*
X112849790Y-104072476D01*
X112849790Y-104167714D01*
X112825980Y-104215333D01*
X112802171Y-104239142D01*
X112754552Y-104262952D01*
X112659314Y-104262952D01*
X112611695Y-104239142D01*
X112587885Y-104215333D01*
X112564076Y-104167714D01*
G04 #@! TO.C,R39*
X102277028Y-88465790D02*
X102443695Y-88227695D01*
X102562742Y-88465790D02*
X102562742Y-87965790D01*
X102372266Y-87965790D01*
X102324647Y-87989600D01*
X102300838Y-88013409D01*
X102277028Y-88061028D01*
X102277028Y-88132457D01*
X102300838Y-88180076D01*
X102324647Y-88203885D01*
X102372266Y-88227695D01*
X102562742Y-88227695D01*
X102110361Y-87965790D02*
X101800838Y-87965790D01*
X101967504Y-88156266D01*
X101896076Y-88156266D01*
X101848457Y-88180076D01*
X101824647Y-88203885D01*
X101800838Y-88251504D01*
X101800838Y-88370552D01*
X101824647Y-88418171D01*
X101848457Y-88441980D01*
X101896076Y-88465790D01*
X102038933Y-88465790D01*
X102086552Y-88441980D01*
X102110361Y-88418171D01*
X101562742Y-88465790D02*
X101467504Y-88465790D01*
X101419885Y-88441980D01*
X101396076Y-88418171D01*
X101348457Y-88346742D01*
X101324647Y-88251504D01*
X101324647Y-88061028D01*
X101348457Y-88013409D01*
X101372266Y-87989600D01*
X101419885Y-87965790D01*
X101515123Y-87965790D01*
X101562742Y-87989600D01*
X101586552Y-88013409D01*
X101610361Y-88061028D01*
X101610361Y-88180076D01*
X101586552Y-88227695D01*
X101562742Y-88251504D01*
X101515123Y-88275314D01*
X101419885Y-88275314D01*
X101372266Y-88251504D01*
X101348457Y-88227695D01*
X101324647Y-88180076D01*
G04 #@! TO.C,R41*
X112595790Y-100364171D02*
X112357695Y-100197504D01*
X112595790Y-100078457D02*
X112095790Y-100078457D01*
X112095790Y-100268933D01*
X112119600Y-100316552D01*
X112143409Y-100340361D01*
X112191028Y-100364171D01*
X112262457Y-100364171D01*
X112310076Y-100340361D01*
X112333885Y-100316552D01*
X112357695Y-100268933D01*
X112357695Y-100078457D01*
X112262457Y-100792742D02*
X112595790Y-100792742D01*
X112071980Y-100673695D02*
X112429123Y-100554647D01*
X112429123Y-100864171D01*
X112595790Y-101316552D02*
X112595790Y-101030838D01*
X112595790Y-101173695D02*
X112095790Y-101173695D01*
X112167219Y-101126076D01*
X112214838Y-101078457D01*
X112238647Y-101030838D01*
G04 #@! TO.C,R26*
X105934628Y-95323790D02*
X106101295Y-95085695D01*
X106220342Y-95323790D02*
X106220342Y-94823790D01*
X106029866Y-94823790D01*
X105982247Y-94847600D01*
X105958438Y-94871409D01*
X105934628Y-94919028D01*
X105934628Y-94990457D01*
X105958438Y-95038076D01*
X105982247Y-95061885D01*
X106029866Y-95085695D01*
X106220342Y-95085695D01*
X105744152Y-94871409D02*
X105720342Y-94847600D01*
X105672723Y-94823790D01*
X105553676Y-94823790D01*
X105506057Y-94847600D01*
X105482247Y-94871409D01*
X105458438Y-94919028D01*
X105458438Y-94966647D01*
X105482247Y-95038076D01*
X105767961Y-95323790D01*
X105458438Y-95323790D01*
X105029866Y-94823790D02*
X105125104Y-94823790D01*
X105172723Y-94847600D01*
X105196533Y-94871409D01*
X105244152Y-94942838D01*
X105267961Y-95038076D01*
X105267961Y-95228552D01*
X105244152Y-95276171D01*
X105220342Y-95299980D01*
X105172723Y-95323790D01*
X105077485Y-95323790D01*
X105029866Y-95299980D01*
X105006057Y-95276171D01*
X104982247Y-95228552D01*
X104982247Y-95109504D01*
X105006057Y-95061885D01*
X105029866Y-95038076D01*
X105077485Y-95014266D01*
X105172723Y-95014266D01*
X105220342Y-95038076D01*
X105244152Y-95061885D01*
X105267961Y-95109504D01*
G04 #@! TO.C,R3*
X104823390Y-80688666D02*
X104585295Y-80522000D01*
X104823390Y-80402952D02*
X104323390Y-80402952D01*
X104323390Y-80593428D01*
X104347200Y-80641047D01*
X104371009Y-80664857D01*
X104418628Y-80688666D01*
X104490057Y-80688666D01*
X104537676Y-80664857D01*
X104561485Y-80641047D01*
X104585295Y-80593428D01*
X104585295Y-80402952D01*
X104323390Y-80855333D02*
X104323390Y-81164857D01*
X104513866Y-80998190D01*
X104513866Y-81069619D01*
X104537676Y-81117238D01*
X104561485Y-81141047D01*
X104609104Y-81164857D01*
X104728152Y-81164857D01*
X104775771Y-81141047D01*
X104799580Y-81117238D01*
X104823390Y-81069619D01*
X104823390Y-80926761D01*
X104799580Y-80879142D01*
X104775771Y-80855333D01*
G04 #@! TO.C,R51*
X79626590Y-92286971D02*
X79388495Y-92120304D01*
X79626590Y-92001257D02*
X79126590Y-92001257D01*
X79126590Y-92191733D01*
X79150400Y-92239352D01*
X79174209Y-92263161D01*
X79221828Y-92286971D01*
X79293257Y-92286971D01*
X79340876Y-92263161D01*
X79364685Y-92239352D01*
X79388495Y-92191733D01*
X79388495Y-92001257D01*
X79126590Y-92739352D02*
X79126590Y-92501257D01*
X79364685Y-92477447D01*
X79340876Y-92501257D01*
X79317066Y-92548876D01*
X79317066Y-92667923D01*
X79340876Y-92715542D01*
X79364685Y-92739352D01*
X79412304Y-92763161D01*
X79531352Y-92763161D01*
X79578971Y-92739352D01*
X79602780Y-92715542D01*
X79626590Y-92667923D01*
X79626590Y-92548876D01*
X79602780Y-92501257D01*
X79578971Y-92477447D01*
X79626590Y-93239352D02*
X79626590Y-92953638D01*
X79626590Y-93096495D02*
X79126590Y-93096495D01*
X79198019Y-93048876D01*
X79245638Y-93001257D01*
X79269447Y-92953638D01*
G04 #@! TO.C,R49*
X88586190Y-74898571D02*
X88348095Y-74731904D01*
X88586190Y-74612857D02*
X88086190Y-74612857D01*
X88086190Y-74803333D01*
X88110000Y-74850952D01*
X88133809Y-74874761D01*
X88181428Y-74898571D01*
X88252857Y-74898571D01*
X88300476Y-74874761D01*
X88324285Y-74850952D01*
X88348095Y-74803333D01*
X88348095Y-74612857D01*
X88252857Y-75327142D02*
X88586190Y-75327142D01*
X88062380Y-75208095D02*
X88419523Y-75089047D01*
X88419523Y-75398571D01*
X88586190Y-75612857D02*
X88586190Y-75708095D01*
X88562380Y-75755714D01*
X88538571Y-75779523D01*
X88467142Y-75827142D01*
X88371904Y-75850952D01*
X88181428Y-75850952D01*
X88133809Y-75827142D01*
X88110000Y-75803333D01*
X88086190Y-75755714D01*
X88086190Y-75660476D01*
X88110000Y-75612857D01*
X88133809Y-75589047D01*
X88181428Y-75565238D01*
X88300476Y-75565238D01*
X88348095Y-75589047D01*
X88371904Y-75612857D01*
X88395714Y-75660476D01*
X88395714Y-75755714D01*
X88371904Y-75803333D01*
X88348095Y-75827142D01*
X88300476Y-75850952D01*
G04 #@! TO.C,R48*
X88576190Y-76348571D02*
X88338095Y-76181904D01*
X88576190Y-76062857D02*
X88076190Y-76062857D01*
X88076190Y-76253333D01*
X88100000Y-76300952D01*
X88123809Y-76324761D01*
X88171428Y-76348571D01*
X88242857Y-76348571D01*
X88290476Y-76324761D01*
X88314285Y-76300952D01*
X88338095Y-76253333D01*
X88338095Y-76062857D01*
X88242857Y-76777142D02*
X88576190Y-76777142D01*
X88052380Y-76658095D02*
X88409523Y-76539047D01*
X88409523Y-76848571D01*
X88290476Y-77110476D02*
X88266666Y-77062857D01*
X88242857Y-77039047D01*
X88195238Y-77015238D01*
X88171428Y-77015238D01*
X88123809Y-77039047D01*
X88100000Y-77062857D01*
X88076190Y-77110476D01*
X88076190Y-77205714D01*
X88100000Y-77253333D01*
X88123809Y-77277142D01*
X88171428Y-77300952D01*
X88195238Y-77300952D01*
X88242857Y-77277142D01*
X88266666Y-77253333D01*
X88290476Y-77205714D01*
X88290476Y-77110476D01*
X88314285Y-77062857D01*
X88338095Y-77039047D01*
X88385714Y-77015238D01*
X88480952Y-77015238D01*
X88528571Y-77039047D01*
X88552380Y-77062857D01*
X88576190Y-77110476D01*
X88576190Y-77205714D01*
X88552380Y-77253333D01*
X88528571Y-77277142D01*
X88480952Y-77300952D01*
X88385714Y-77300952D01*
X88338095Y-77277142D01*
X88314285Y-77253333D01*
X88290476Y-77205714D01*
G04 #@! TO.C,R46*
X104969428Y-74698990D02*
X105136095Y-74460895D01*
X105255142Y-74698990D02*
X105255142Y-74198990D01*
X105064666Y-74198990D01*
X105017047Y-74222800D01*
X104993238Y-74246609D01*
X104969428Y-74294228D01*
X104969428Y-74365657D01*
X104993238Y-74413276D01*
X105017047Y-74437085D01*
X105064666Y-74460895D01*
X105255142Y-74460895D01*
X104540857Y-74365657D02*
X104540857Y-74698990D01*
X104659904Y-74175180D02*
X104778952Y-74532323D01*
X104469428Y-74532323D01*
X104064666Y-74198990D02*
X104159904Y-74198990D01*
X104207523Y-74222800D01*
X104231333Y-74246609D01*
X104278952Y-74318038D01*
X104302761Y-74413276D01*
X104302761Y-74603752D01*
X104278952Y-74651371D01*
X104255142Y-74675180D01*
X104207523Y-74698990D01*
X104112285Y-74698990D01*
X104064666Y-74675180D01*
X104040857Y-74651371D01*
X104017047Y-74603752D01*
X104017047Y-74484704D01*
X104040857Y-74437085D01*
X104064666Y-74413276D01*
X104112285Y-74389466D01*
X104207523Y-74389466D01*
X104255142Y-74413276D01*
X104278952Y-74437085D01*
X104302761Y-74484704D01*
G04 #@! TO.C,R45*
X107364990Y-74811771D02*
X107126895Y-74645104D01*
X107364990Y-74526057D02*
X106864990Y-74526057D01*
X106864990Y-74716533D01*
X106888800Y-74764152D01*
X106912609Y-74787961D01*
X106960228Y-74811771D01*
X107031657Y-74811771D01*
X107079276Y-74787961D01*
X107103085Y-74764152D01*
X107126895Y-74716533D01*
X107126895Y-74526057D01*
X107031657Y-75240342D02*
X107364990Y-75240342D01*
X106841180Y-75121295D02*
X107198323Y-75002247D01*
X107198323Y-75311771D01*
X106864990Y-75740342D02*
X106864990Y-75502247D01*
X107103085Y-75478438D01*
X107079276Y-75502247D01*
X107055466Y-75549866D01*
X107055466Y-75668914D01*
X107079276Y-75716533D01*
X107103085Y-75740342D01*
X107150704Y-75764152D01*
X107269752Y-75764152D01*
X107317371Y-75740342D01*
X107341180Y-75716533D01*
X107364990Y-75668914D01*
X107364990Y-75549866D01*
X107341180Y-75502247D01*
X107317371Y-75478438D01*
G04 #@! TO.C,R44*
X121942990Y-102345371D02*
X121704895Y-102178704D01*
X121942990Y-102059657D02*
X121442990Y-102059657D01*
X121442990Y-102250133D01*
X121466800Y-102297752D01*
X121490609Y-102321561D01*
X121538228Y-102345371D01*
X121609657Y-102345371D01*
X121657276Y-102321561D01*
X121681085Y-102297752D01*
X121704895Y-102250133D01*
X121704895Y-102059657D01*
X121609657Y-102773942D02*
X121942990Y-102773942D01*
X121419180Y-102654895D02*
X121776323Y-102535847D01*
X121776323Y-102845371D01*
X121609657Y-103250133D02*
X121942990Y-103250133D01*
X121419180Y-103131085D02*
X121776323Y-103012038D01*
X121776323Y-103321561D01*
G04 #@! TO.C,R43*
X117777390Y-96350971D02*
X117539295Y-96184304D01*
X117777390Y-96065257D02*
X117277390Y-96065257D01*
X117277390Y-96255733D01*
X117301200Y-96303352D01*
X117325009Y-96327161D01*
X117372628Y-96350971D01*
X117444057Y-96350971D01*
X117491676Y-96327161D01*
X117515485Y-96303352D01*
X117539295Y-96255733D01*
X117539295Y-96065257D01*
X117444057Y-96779542D02*
X117777390Y-96779542D01*
X117253580Y-96660495D02*
X117610723Y-96541447D01*
X117610723Y-96850971D01*
X117277390Y-96993828D02*
X117277390Y-97303352D01*
X117467866Y-97136685D01*
X117467866Y-97208114D01*
X117491676Y-97255733D01*
X117515485Y-97279542D01*
X117563104Y-97303352D01*
X117682152Y-97303352D01*
X117729771Y-97279542D01*
X117753580Y-97255733D01*
X117777390Y-97208114D01*
X117777390Y-97065257D01*
X117753580Y-97017638D01*
X117729771Y-96993828D01*
G04 #@! TO.C,R42*
X118177428Y-107109390D02*
X118344095Y-106871295D01*
X118463142Y-107109390D02*
X118463142Y-106609390D01*
X118272666Y-106609390D01*
X118225047Y-106633200D01*
X118201238Y-106657009D01*
X118177428Y-106704628D01*
X118177428Y-106776057D01*
X118201238Y-106823676D01*
X118225047Y-106847485D01*
X118272666Y-106871295D01*
X118463142Y-106871295D01*
X117748857Y-106776057D02*
X117748857Y-107109390D01*
X117867904Y-106585580D02*
X117986952Y-106942723D01*
X117677428Y-106942723D01*
X117510761Y-106657009D02*
X117486952Y-106633200D01*
X117439333Y-106609390D01*
X117320285Y-106609390D01*
X117272666Y-106633200D01*
X117248857Y-106657009D01*
X117225047Y-106704628D01*
X117225047Y-106752247D01*
X117248857Y-106823676D01*
X117534571Y-107109390D01*
X117225047Y-107109390D01*
G04 #@! TO.C,U1*
X91737790Y-95085047D02*
X92142552Y-95085047D01*
X92190171Y-95108857D01*
X92213980Y-95132666D01*
X92237790Y-95180285D01*
X92237790Y-95275523D01*
X92213980Y-95323142D01*
X92190171Y-95346952D01*
X92142552Y-95370761D01*
X91737790Y-95370761D01*
X92237790Y-95870761D02*
X92237790Y-95585047D01*
X92237790Y-95727904D02*
X91737790Y-95727904D01*
X91809219Y-95680285D01*
X91856838Y-95632666D01*
X91880647Y-95585047D01*
G04 #@! TO.C,J2*
X122035866Y-76840590D02*
X122035866Y-77197733D01*
X122059676Y-77269161D01*
X122107295Y-77316780D01*
X122178723Y-77340590D01*
X122226342Y-77340590D01*
X121821580Y-76888209D02*
X121797771Y-76864400D01*
X121750152Y-76840590D01*
X121631104Y-76840590D01*
X121583485Y-76864400D01*
X121559676Y-76888209D01*
X121535866Y-76935828D01*
X121535866Y-76983447D01*
X121559676Y-77054876D01*
X121845390Y-77340590D01*
X121535866Y-77340590D01*
G04 #@! TO.C,SW1*
X80069980Y-98553333D02*
X80093790Y-98624761D01*
X80093790Y-98743809D01*
X80069980Y-98791428D01*
X80046171Y-98815238D01*
X79998552Y-98839047D01*
X79950933Y-98839047D01*
X79903314Y-98815238D01*
X79879504Y-98791428D01*
X79855695Y-98743809D01*
X79831885Y-98648571D01*
X79808076Y-98600952D01*
X79784266Y-98577142D01*
X79736647Y-98553333D01*
X79689028Y-98553333D01*
X79641409Y-98577142D01*
X79617600Y-98600952D01*
X79593790Y-98648571D01*
X79593790Y-98767619D01*
X79617600Y-98839047D01*
X79593790Y-99005714D02*
X80093790Y-99124761D01*
X79736647Y-99220000D01*
X80093790Y-99315238D01*
X79593790Y-99434285D01*
X80093790Y-99886666D02*
X80093790Y-99600952D01*
X80093790Y-99743809D02*
X79593790Y-99743809D01*
X79665219Y-99696190D01*
X79712838Y-99648571D01*
X79736647Y-99600952D01*
G04 #@! TO.C,C30*
X80704171Y-84666971D02*
X80727980Y-84643161D01*
X80751790Y-84571733D01*
X80751790Y-84524114D01*
X80727980Y-84452685D01*
X80680361Y-84405066D01*
X80632742Y-84381257D01*
X80537504Y-84357447D01*
X80466076Y-84357447D01*
X80370838Y-84381257D01*
X80323219Y-84405066D01*
X80275600Y-84452685D01*
X80251790Y-84524114D01*
X80251790Y-84571733D01*
X80275600Y-84643161D01*
X80299409Y-84666971D01*
X80251790Y-84833638D02*
X80251790Y-85143161D01*
X80442266Y-84976495D01*
X80442266Y-85047923D01*
X80466076Y-85095542D01*
X80489885Y-85119352D01*
X80537504Y-85143161D01*
X80656552Y-85143161D01*
X80704171Y-85119352D01*
X80727980Y-85095542D01*
X80751790Y-85047923D01*
X80751790Y-84905066D01*
X80727980Y-84857447D01*
X80704171Y-84833638D01*
X80251790Y-85452685D02*
X80251790Y-85500304D01*
X80275600Y-85547923D01*
X80299409Y-85571733D01*
X80347028Y-85595542D01*
X80442266Y-85619352D01*
X80561314Y-85619352D01*
X80656552Y-85595542D01*
X80704171Y-85571733D01*
X80727980Y-85547923D01*
X80751790Y-85500304D01*
X80751790Y-85452685D01*
X80727980Y-85405066D01*
X80704171Y-85381257D01*
X80656552Y-85357447D01*
X80561314Y-85333638D01*
X80442266Y-85333638D01*
X80347028Y-85357447D01*
X80299409Y-85381257D01*
X80275600Y-85405066D01*
X80251790Y-85452685D01*
G04 #@! TO.C,C27*
X82372971Y-92794971D02*
X82396780Y-92771161D01*
X82420590Y-92699733D01*
X82420590Y-92652114D01*
X82396780Y-92580685D01*
X82349161Y-92533066D01*
X82301542Y-92509257D01*
X82206304Y-92485447D01*
X82134876Y-92485447D01*
X82039638Y-92509257D01*
X81992019Y-92533066D01*
X81944400Y-92580685D01*
X81920590Y-92652114D01*
X81920590Y-92699733D01*
X81944400Y-92771161D01*
X81968209Y-92794971D01*
X81968209Y-92985447D02*
X81944400Y-93009257D01*
X81920590Y-93056876D01*
X81920590Y-93175923D01*
X81944400Y-93223542D01*
X81968209Y-93247352D01*
X82015828Y-93271161D01*
X82063447Y-93271161D01*
X82134876Y-93247352D01*
X82420590Y-92961638D01*
X82420590Y-93271161D01*
X81920590Y-93437828D02*
X81920590Y-93771161D01*
X82420590Y-93556876D01*
G04 #@! TO.C,C26*
X80687028Y-82677771D02*
X80710838Y-82701580D01*
X80782266Y-82725390D01*
X80829885Y-82725390D01*
X80901314Y-82701580D01*
X80948933Y-82653961D01*
X80972742Y-82606342D01*
X80996552Y-82511104D01*
X80996552Y-82439676D01*
X80972742Y-82344438D01*
X80948933Y-82296819D01*
X80901314Y-82249200D01*
X80829885Y-82225390D01*
X80782266Y-82225390D01*
X80710838Y-82249200D01*
X80687028Y-82273009D01*
X80496552Y-82273009D02*
X80472742Y-82249200D01*
X80425123Y-82225390D01*
X80306076Y-82225390D01*
X80258457Y-82249200D01*
X80234647Y-82273009D01*
X80210838Y-82320628D01*
X80210838Y-82368247D01*
X80234647Y-82439676D01*
X80520361Y-82725390D01*
X80210838Y-82725390D01*
X79782266Y-82225390D02*
X79877504Y-82225390D01*
X79925123Y-82249200D01*
X79948933Y-82273009D01*
X79996552Y-82344438D01*
X80020361Y-82439676D01*
X80020361Y-82630152D01*
X79996552Y-82677771D01*
X79972742Y-82701580D01*
X79925123Y-82725390D01*
X79829885Y-82725390D01*
X79782266Y-82701580D01*
X79758457Y-82677771D01*
X79734647Y-82630152D01*
X79734647Y-82511104D01*
X79758457Y-82463485D01*
X79782266Y-82439676D01*
X79829885Y-82415866D01*
X79925123Y-82415866D01*
X79972742Y-82439676D01*
X79996552Y-82463485D01*
X80020361Y-82511104D01*
G04 #@! TO.C,C3*
X88368571Y-80676666D02*
X88392380Y-80652857D01*
X88416190Y-80581428D01*
X88416190Y-80533809D01*
X88392380Y-80462380D01*
X88344761Y-80414761D01*
X88297142Y-80390952D01*
X88201904Y-80367142D01*
X88130476Y-80367142D01*
X88035238Y-80390952D01*
X87987619Y-80414761D01*
X87940000Y-80462380D01*
X87916190Y-80533809D01*
X87916190Y-80581428D01*
X87940000Y-80652857D01*
X87963809Y-80676666D01*
X87916190Y-80843333D02*
X87916190Y-81152857D01*
X88106666Y-80986190D01*
X88106666Y-81057619D01*
X88130476Y-81105238D01*
X88154285Y-81129047D01*
X88201904Y-81152857D01*
X88320952Y-81152857D01*
X88368571Y-81129047D01*
X88392380Y-81105238D01*
X88416190Y-81057619D01*
X88416190Y-80914761D01*
X88392380Y-80867142D01*
X88368571Y-80843333D01*
G04 #@! TO.C,C25*
X86938571Y-80768571D02*
X86962380Y-80744761D01*
X86986190Y-80673333D01*
X86986190Y-80625714D01*
X86962380Y-80554285D01*
X86914761Y-80506666D01*
X86867142Y-80482857D01*
X86771904Y-80459047D01*
X86700476Y-80459047D01*
X86605238Y-80482857D01*
X86557619Y-80506666D01*
X86510000Y-80554285D01*
X86486190Y-80625714D01*
X86486190Y-80673333D01*
X86510000Y-80744761D01*
X86533809Y-80768571D01*
X86533809Y-80959047D02*
X86510000Y-80982857D01*
X86486190Y-81030476D01*
X86486190Y-81149523D01*
X86510000Y-81197142D01*
X86533809Y-81220952D01*
X86581428Y-81244761D01*
X86629047Y-81244761D01*
X86700476Y-81220952D01*
X86986190Y-80935238D01*
X86986190Y-81244761D01*
X86486190Y-81697142D02*
X86486190Y-81459047D01*
X86724285Y-81435238D01*
X86700476Y-81459047D01*
X86676666Y-81506666D01*
X86676666Y-81625714D01*
X86700476Y-81673333D01*
X86724285Y-81697142D01*
X86771904Y-81720952D01*
X86890952Y-81720952D01*
X86938571Y-81697142D01*
X86962380Y-81673333D01*
X86986190Y-81625714D01*
X86986190Y-81506666D01*
X86962380Y-81459047D01*
X86938571Y-81435238D01*
G04 #@! TO.C,C15*
X105232971Y-87105371D02*
X105256780Y-87081561D01*
X105280590Y-87010133D01*
X105280590Y-86962514D01*
X105256780Y-86891085D01*
X105209161Y-86843466D01*
X105161542Y-86819657D01*
X105066304Y-86795847D01*
X104994876Y-86795847D01*
X104899638Y-86819657D01*
X104852019Y-86843466D01*
X104804400Y-86891085D01*
X104780590Y-86962514D01*
X104780590Y-87010133D01*
X104804400Y-87081561D01*
X104828209Y-87105371D01*
X105280590Y-87581561D02*
X105280590Y-87295847D01*
X105280590Y-87438704D02*
X104780590Y-87438704D01*
X104852019Y-87391085D01*
X104899638Y-87343466D01*
X104923447Y-87295847D01*
X104780590Y-88033942D02*
X104780590Y-87795847D01*
X105018685Y-87772038D01*
X104994876Y-87795847D01*
X104971066Y-87843466D01*
X104971066Y-87962514D01*
X104994876Y-88010133D01*
X105018685Y-88033942D01*
X105066304Y-88057752D01*
X105185352Y-88057752D01*
X105232971Y-88033942D01*
X105256780Y-88010133D01*
X105280590Y-87962514D01*
X105280590Y-87843466D01*
X105256780Y-87795847D01*
X105232971Y-87772038D01*
G04 #@! TO.C,J3*
X122747066Y-94772990D02*
X122747066Y-95130133D01*
X122770876Y-95201561D01*
X122818495Y-95249180D01*
X122889923Y-95272990D01*
X122937542Y-95272990D01*
X122556590Y-94772990D02*
X122247066Y-94772990D01*
X122413733Y-94963466D01*
X122342304Y-94963466D01*
X122294685Y-94987276D01*
X122270876Y-95011085D01*
X122247066Y-95058704D01*
X122247066Y-95177752D01*
X122270876Y-95225371D01*
X122294685Y-95249180D01*
X122342304Y-95272990D01*
X122485161Y-95272990D01*
X122532780Y-95249180D01*
X122556590Y-95225371D01*
G04 #@! TO.C,FB1*
X110093866Y-82158685D02*
X110260533Y-82158685D01*
X110260533Y-82420590D02*
X110260533Y-81920590D01*
X110022438Y-81920590D01*
X109665295Y-82158685D02*
X109593866Y-82182495D01*
X109570057Y-82206304D01*
X109546247Y-82253923D01*
X109546247Y-82325352D01*
X109570057Y-82372971D01*
X109593866Y-82396780D01*
X109641485Y-82420590D01*
X109831961Y-82420590D01*
X109831961Y-81920590D01*
X109665295Y-81920590D01*
X109617676Y-81944400D01*
X109593866Y-81968209D01*
X109570057Y-82015828D01*
X109570057Y-82063447D01*
X109593866Y-82111066D01*
X109617676Y-82134876D01*
X109665295Y-82158685D01*
X109831961Y-82158685D01*
X109070057Y-82420590D02*
X109355771Y-82420590D01*
X109212914Y-82420590D02*
X109212914Y-81920590D01*
X109260533Y-81992019D01*
X109308152Y-82039638D01*
X109355771Y-82063447D01*
G04 #@! TO.C,L2*
X81566533Y-87257390D02*
X81804628Y-87257390D01*
X81804628Y-86757390D01*
X81423676Y-86805009D02*
X81399866Y-86781200D01*
X81352247Y-86757390D01*
X81233200Y-86757390D01*
X81185580Y-86781200D01*
X81161771Y-86805009D01*
X81137961Y-86852628D01*
X81137961Y-86900247D01*
X81161771Y-86971676D01*
X81447485Y-87257390D01*
X81137961Y-87257390D01*
G04 #@! TO.C,U12*
X111718647Y-81920590D02*
X111718647Y-82325352D01*
X111694838Y-82372971D01*
X111671028Y-82396780D01*
X111623409Y-82420590D01*
X111528171Y-82420590D01*
X111480552Y-82396780D01*
X111456742Y-82372971D01*
X111432933Y-82325352D01*
X111432933Y-81920590D01*
X110932933Y-82420590D02*
X111218647Y-82420590D01*
X111075790Y-82420590D02*
X111075790Y-81920590D01*
X111123409Y-81992019D01*
X111171028Y-82039638D01*
X111218647Y-82063447D01*
X110742457Y-81968209D02*
X110718647Y-81944400D01*
X110671028Y-81920590D01*
X110551980Y-81920590D01*
X110504361Y-81944400D01*
X110480552Y-81968209D01*
X110456742Y-82015828D01*
X110456742Y-82063447D01*
X110480552Y-82134876D01*
X110766266Y-82420590D01*
X110456742Y-82420590D01*
G04 #@! TO.C,U6*
X101117352Y-95331790D02*
X101117352Y-95736552D01*
X101093542Y-95784171D01*
X101069733Y-95807980D01*
X101022114Y-95831790D01*
X100926876Y-95831790D01*
X100879257Y-95807980D01*
X100855447Y-95784171D01*
X100831638Y-95736552D01*
X100831638Y-95331790D01*
X100379257Y-95331790D02*
X100474495Y-95331790D01*
X100522114Y-95355600D01*
X100545923Y-95379409D01*
X100593542Y-95450838D01*
X100617352Y-95546076D01*
X100617352Y-95736552D01*
X100593542Y-95784171D01*
X100569733Y-95807980D01*
X100522114Y-95831790D01*
X100426876Y-95831790D01*
X100379257Y-95807980D01*
X100355447Y-95784171D01*
X100331638Y-95736552D01*
X100331638Y-95617504D01*
X100355447Y-95569885D01*
X100379257Y-95546076D01*
X100426876Y-95522266D01*
X100522114Y-95522266D01*
X100569733Y-95546076D01*
X100593542Y-95569885D01*
X100617352Y-95617504D01*
G04 #@! TO.C,U13*
X83219847Y-75367390D02*
X83219847Y-75772152D01*
X83196038Y-75819771D01*
X83172228Y-75843580D01*
X83124609Y-75867390D01*
X83029371Y-75867390D01*
X82981752Y-75843580D01*
X82957942Y-75819771D01*
X82934133Y-75772152D01*
X82934133Y-75367390D01*
X82434133Y-75867390D02*
X82719847Y-75867390D01*
X82576990Y-75867390D02*
X82576990Y-75367390D01*
X82624609Y-75438819D01*
X82672228Y-75486438D01*
X82719847Y-75510247D01*
X82267466Y-75367390D02*
X81957942Y-75367390D01*
X82124609Y-75557866D01*
X82053180Y-75557866D01*
X82005561Y-75581676D01*
X81981752Y-75605485D01*
X81957942Y-75653104D01*
X81957942Y-75772152D01*
X81981752Y-75819771D01*
X82005561Y-75843580D01*
X82053180Y-75867390D01*
X82196038Y-75867390D01*
X82243657Y-75843580D01*
X82267466Y-75819771D01*
G04 #@! TO.C,U2*
X111277352Y-80447390D02*
X111277352Y-80852152D01*
X111253542Y-80899771D01*
X111229733Y-80923580D01*
X111182114Y-80947390D01*
X111086876Y-80947390D01*
X111039257Y-80923580D01*
X111015447Y-80899771D01*
X110991638Y-80852152D01*
X110991638Y-80447390D01*
X110777352Y-80495009D02*
X110753542Y-80471200D01*
X110705923Y-80447390D01*
X110586876Y-80447390D01*
X110539257Y-80471200D01*
X110515447Y-80495009D01*
X110491638Y-80542628D01*
X110491638Y-80590247D01*
X110515447Y-80661676D01*
X110801161Y-80947390D01*
X110491638Y-80947390D01*
G04 #@! TO.C,U11*
X116595447Y-105390190D02*
X116595447Y-105794952D01*
X116571638Y-105842571D01*
X116547828Y-105866380D01*
X116500209Y-105890190D01*
X116404971Y-105890190D01*
X116357352Y-105866380D01*
X116333542Y-105842571D01*
X116309733Y-105794952D01*
X116309733Y-105390190D01*
X115809733Y-105890190D02*
X116095447Y-105890190D01*
X115952590Y-105890190D02*
X115952590Y-105390190D01*
X116000209Y-105461619D01*
X116047828Y-105509238D01*
X116095447Y-105533047D01*
X115333542Y-105890190D02*
X115619257Y-105890190D01*
X115476400Y-105890190D02*
X115476400Y-105390190D01*
X115524019Y-105461619D01*
X115571638Y-105509238D01*
X115619257Y-105533047D01*
G04 #@! TO.C,U10*
X114280190Y-97628152D02*
X114684952Y-97628152D01*
X114732571Y-97651961D01*
X114756380Y-97675771D01*
X114780190Y-97723390D01*
X114780190Y-97818628D01*
X114756380Y-97866247D01*
X114732571Y-97890057D01*
X114684952Y-97913866D01*
X114280190Y-97913866D01*
X114780190Y-98413866D02*
X114780190Y-98128152D01*
X114780190Y-98271009D02*
X114280190Y-98271009D01*
X114351619Y-98223390D01*
X114399238Y-98175771D01*
X114423047Y-98128152D01*
X114280190Y-98723390D02*
X114280190Y-98771009D01*
X114304000Y-98818628D01*
X114327809Y-98842438D01*
X114375428Y-98866247D01*
X114470666Y-98890057D01*
X114589714Y-98890057D01*
X114684952Y-98866247D01*
X114732571Y-98842438D01*
X114756380Y-98818628D01*
X114780190Y-98771009D01*
X114780190Y-98723390D01*
X114756380Y-98675771D01*
X114732571Y-98651961D01*
X114684952Y-98628152D01*
X114589714Y-98604342D01*
X114470666Y-98604342D01*
X114375428Y-98628152D01*
X114327809Y-98651961D01*
X114304000Y-98675771D01*
X114280190Y-98723390D01*
G04 #@! TO.C,Q9*
X117802019Y-102889809D02*
X117849638Y-102866000D01*
X117897257Y-102818380D01*
X117968685Y-102746952D01*
X118016304Y-102723142D01*
X118063923Y-102723142D01*
X118040114Y-102842190D02*
X118087733Y-102818380D01*
X118135352Y-102770761D01*
X118159161Y-102675523D01*
X118159161Y-102508857D01*
X118135352Y-102413619D01*
X118087733Y-102366000D01*
X118040114Y-102342190D01*
X117944876Y-102342190D01*
X117897257Y-102366000D01*
X117849638Y-102413619D01*
X117825828Y-102508857D01*
X117825828Y-102675523D01*
X117849638Y-102770761D01*
X117897257Y-102818380D01*
X117944876Y-102842190D01*
X118040114Y-102842190D01*
X117587733Y-102842190D02*
X117492495Y-102842190D01*
X117444876Y-102818380D01*
X117421066Y-102794571D01*
X117373447Y-102723142D01*
X117349638Y-102627904D01*
X117349638Y-102437428D01*
X117373447Y-102389809D01*
X117397257Y-102366000D01*
X117444876Y-102342190D01*
X117540114Y-102342190D01*
X117587733Y-102366000D01*
X117611542Y-102389809D01*
X117635352Y-102437428D01*
X117635352Y-102556476D01*
X117611542Y-102604095D01*
X117587733Y-102627904D01*
X117540114Y-102651714D01*
X117444876Y-102651714D01*
X117397257Y-102627904D01*
X117373447Y-102604095D01*
X117349638Y-102556476D01*
G04 #@! TO.C,U5*
X115595352Y-85984590D02*
X115595352Y-86389352D01*
X115571542Y-86436971D01*
X115547733Y-86460780D01*
X115500114Y-86484590D01*
X115404876Y-86484590D01*
X115357257Y-86460780D01*
X115333447Y-86436971D01*
X115309638Y-86389352D01*
X115309638Y-85984590D01*
X114833447Y-85984590D02*
X115071542Y-85984590D01*
X115095352Y-86222685D01*
X115071542Y-86198876D01*
X115023923Y-86175066D01*
X114904876Y-86175066D01*
X114857257Y-86198876D01*
X114833447Y-86222685D01*
X114809638Y-86270304D01*
X114809638Y-86389352D01*
X114833447Y-86436971D01*
X114857257Y-86460780D01*
X114904876Y-86484590D01*
X115023923Y-86484590D01*
X115071542Y-86460780D01*
X115095352Y-86436971D01*
G04 #@! TO.C,Q5*
X99869619Y-76880209D02*
X99917238Y-76856400D01*
X99964857Y-76808780D01*
X100036285Y-76737352D01*
X100083904Y-76713542D01*
X100131523Y-76713542D01*
X100107714Y-76832590D02*
X100155333Y-76808780D01*
X100202952Y-76761161D01*
X100226761Y-76665923D01*
X100226761Y-76499257D01*
X100202952Y-76404019D01*
X100155333Y-76356400D01*
X100107714Y-76332590D01*
X100012476Y-76332590D01*
X99964857Y-76356400D01*
X99917238Y-76404019D01*
X99893428Y-76499257D01*
X99893428Y-76665923D01*
X99917238Y-76761161D01*
X99964857Y-76808780D01*
X100012476Y-76832590D01*
X100107714Y-76832590D01*
X99441047Y-76332590D02*
X99679142Y-76332590D01*
X99702952Y-76570685D01*
X99679142Y-76546876D01*
X99631523Y-76523066D01*
X99512476Y-76523066D01*
X99464857Y-76546876D01*
X99441047Y-76570685D01*
X99417238Y-76618304D01*
X99417238Y-76737352D01*
X99441047Y-76784971D01*
X99464857Y-76808780D01*
X99512476Y-76832590D01*
X99631523Y-76832590D01*
X99679142Y-76808780D01*
X99702952Y-76784971D01*
G04 #@! TO.C,Q7*
X107766609Y-89411180D02*
X107742800Y-89363561D01*
X107695180Y-89315942D01*
X107623752Y-89244514D01*
X107599942Y-89196895D01*
X107599942Y-89149276D01*
X107718990Y-89173085D02*
X107695180Y-89125466D01*
X107647561Y-89077847D01*
X107552323Y-89054038D01*
X107385657Y-89054038D01*
X107290419Y-89077847D01*
X107242800Y-89125466D01*
X107218990Y-89173085D01*
X107218990Y-89268323D01*
X107242800Y-89315942D01*
X107290419Y-89363561D01*
X107385657Y-89387371D01*
X107552323Y-89387371D01*
X107647561Y-89363561D01*
X107695180Y-89315942D01*
X107718990Y-89268323D01*
X107718990Y-89173085D01*
X107218990Y-89554038D02*
X107218990Y-89887371D01*
X107718990Y-89673085D01*
G04 #@! TO.C,Q8*
X119478419Y-93237809D02*
X119526038Y-93214000D01*
X119573657Y-93166380D01*
X119645085Y-93094952D01*
X119692704Y-93071142D01*
X119740323Y-93071142D01*
X119716514Y-93190190D02*
X119764133Y-93166380D01*
X119811752Y-93118761D01*
X119835561Y-93023523D01*
X119835561Y-92856857D01*
X119811752Y-92761619D01*
X119764133Y-92714000D01*
X119716514Y-92690190D01*
X119621276Y-92690190D01*
X119573657Y-92714000D01*
X119526038Y-92761619D01*
X119502228Y-92856857D01*
X119502228Y-93023523D01*
X119526038Y-93118761D01*
X119573657Y-93166380D01*
X119621276Y-93190190D01*
X119716514Y-93190190D01*
X119216514Y-92904476D02*
X119264133Y-92880666D01*
X119287942Y-92856857D01*
X119311752Y-92809238D01*
X119311752Y-92785428D01*
X119287942Y-92737809D01*
X119264133Y-92714000D01*
X119216514Y-92690190D01*
X119121276Y-92690190D01*
X119073657Y-92714000D01*
X119049847Y-92737809D01*
X119026038Y-92785428D01*
X119026038Y-92809238D01*
X119049847Y-92856857D01*
X119073657Y-92880666D01*
X119121276Y-92904476D01*
X119216514Y-92904476D01*
X119264133Y-92928285D01*
X119287942Y-92952095D01*
X119311752Y-92999714D01*
X119311752Y-93094952D01*
X119287942Y-93142571D01*
X119264133Y-93166380D01*
X119216514Y-93190190D01*
X119121276Y-93190190D01*
X119073657Y-93166380D01*
X119049847Y-93142571D01*
X119026038Y-93094952D01*
X119026038Y-92999714D01*
X119049847Y-92952095D01*
X119073657Y-92928285D01*
X119121276Y-92904476D01*
G04 #@! TO.C,Q6*
X94144609Y-87893180D02*
X94120800Y-87845561D01*
X94073180Y-87797942D01*
X94001752Y-87726514D01*
X93977942Y-87678895D01*
X93977942Y-87631276D01*
X94096990Y-87655085D02*
X94073180Y-87607466D01*
X94025561Y-87559847D01*
X93930323Y-87536038D01*
X93763657Y-87536038D01*
X93668419Y-87559847D01*
X93620800Y-87607466D01*
X93596990Y-87655085D01*
X93596990Y-87750323D01*
X93620800Y-87797942D01*
X93668419Y-87845561D01*
X93763657Y-87869371D01*
X93930323Y-87869371D01*
X94025561Y-87845561D01*
X94073180Y-87797942D01*
X94096990Y-87750323D01*
X94096990Y-87655085D01*
X93596990Y-88297942D02*
X93596990Y-88202704D01*
X93620800Y-88155085D01*
X93644609Y-88131276D01*
X93716038Y-88083657D01*
X93811276Y-88059847D01*
X94001752Y-88059847D01*
X94049371Y-88083657D01*
X94073180Y-88107466D01*
X94096990Y-88155085D01*
X94096990Y-88250323D01*
X94073180Y-88297942D01*
X94049371Y-88321752D01*
X94001752Y-88345561D01*
X93882704Y-88345561D01*
X93835085Y-88321752D01*
X93811276Y-88297942D01*
X93787466Y-88250323D01*
X93787466Y-88155085D01*
X93811276Y-88107466D01*
X93835085Y-88083657D01*
X93882704Y-88059847D01*
G04 #@! TO.C,Q4*
X86864819Y-104617009D02*
X86912438Y-104593200D01*
X86960057Y-104545580D01*
X87031485Y-104474152D01*
X87079104Y-104450342D01*
X87126723Y-104450342D01*
X87102914Y-104569390D02*
X87150533Y-104545580D01*
X87198152Y-104497961D01*
X87221961Y-104402723D01*
X87221961Y-104236057D01*
X87198152Y-104140819D01*
X87150533Y-104093200D01*
X87102914Y-104069390D01*
X87007676Y-104069390D01*
X86960057Y-104093200D01*
X86912438Y-104140819D01*
X86888628Y-104236057D01*
X86888628Y-104402723D01*
X86912438Y-104497961D01*
X86960057Y-104545580D01*
X87007676Y-104569390D01*
X87102914Y-104569390D01*
X86460057Y-104236057D02*
X86460057Y-104569390D01*
X86579104Y-104045580D02*
X86698152Y-104402723D01*
X86388628Y-104402723D01*
G04 #@! TO.C,Q3*
X91284419Y-104261409D02*
X91332038Y-104237600D01*
X91379657Y-104189980D01*
X91451085Y-104118552D01*
X91498704Y-104094742D01*
X91546323Y-104094742D01*
X91522514Y-104213790D02*
X91570133Y-104189980D01*
X91617752Y-104142361D01*
X91641561Y-104047123D01*
X91641561Y-103880457D01*
X91617752Y-103785219D01*
X91570133Y-103737600D01*
X91522514Y-103713790D01*
X91427276Y-103713790D01*
X91379657Y-103737600D01*
X91332038Y-103785219D01*
X91308228Y-103880457D01*
X91308228Y-104047123D01*
X91332038Y-104142361D01*
X91379657Y-104189980D01*
X91427276Y-104213790D01*
X91522514Y-104213790D01*
X91141561Y-103713790D02*
X90832038Y-103713790D01*
X90998704Y-103904266D01*
X90927276Y-103904266D01*
X90879657Y-103928076D01*
X90855847Y-103951885D01*
X90832038Y-103999504D01*
X90832038Y-104118552D01*
X90855847Y-104166171D01*
X90879657Y-104189980D01*
X90927276Y-104213790D01*
X91070133Y-104213790D01*
X91117752Y-104189980D01*
X91141561Y-104166171D01*
G04 #@! TO.C,Q2*
X104746419Y-82011009D02*
X104794038Y-81987200D01*
X104841657Y-81939580D01*
X104913085Y-81868152D01*
X104960704Y-81844342D01*
X105008323Y-81844342D01*
X104984514Y-81963390D02*
X105032133Y-81939580D01*
X105079752Y-81891961D01*
X105103561Y-81796723D01*
X105103561Y-81630057D01*
X105079752Y-81534819D01*
X105032133Y-81487200D01*
X104984514Y-81463390D01*
X104889276Y-81463390D01*
X104841657Y-81487200D01*
X104794038Y-81534819D01*
X104770228Y-81630057D01*
X104770228Y-81796723D01*
X104794038Y-81891961D01*
X104841657Y-81939580D01*
X104889276Y-81963390D01*
X104984514Y-81963390D01*
X104579752Y-81511009D02*
X104555942Y-81487200D01*
X104508323Y-81463390D01*
X104389276Y-81463390D01*
X104341657Y-81487200D01*
X104317847Y-81511009D01*
X104294038Y-81558628D01*
X104294038Y-81606247D01*
X104317847Y-81677676D01*
X104603561Y-81963390D01*
X104294038Y-81963390D01*
G04 #@! TO.C,Q1*
X107472609Y-78438380D02*
X107448800Y-78390761D01*
X107401180Y-78343142D01*
X107329752Y-78271714D01*
X107305942Y-78224095D01*
X107305942Y-78176476D01*
X107424990Y-78200285D02*
X107401180Y-78152666D01*
X107353561Y-78105047D01*
X107258323Y-78081238D01*
X107091657Y-78081238D01*
X106996419Y-78105047D01*
X106948800Y-78152666D01*
X106924990Y-78200285D01*
X106924990Y-78295523D01*
X106948800Y-78343142D01*
X106996419Y-78390761D01*
X107091657Y-78414571D01*
X107258323Y-78414571D01*
X107353561Y-78390761D01*
X107401180Y-78343142D01*
X107424990Y-78295523D01*
X107424990Y-78200285D01*
X107424990Y-78890761D02*
X107424990Y-78605047D01*
X107424990Y-78747904D02*
X106924990Y-78747904D01*
X106996419Y-78700285D01*
X107044038Y-78652666D01*
X107067847Y-78605047D01*
G04 #@! TO.C,U9*
X117709190Y-97815447D02*
X118113952Y-97815447D01*
X118161571Y-97839257D01*
X118185380Y-97863066D01*
X118209190Y-97910685D01*
X118209190Y-98005923D01*
X118185380Y-98053542D01*
X118161571Y-98077352D01*
X118113952Y-98101161D01*
X117709190Y-98101161D01*
X118209190Y-98363066D02*
X118209190Y-98458304D01*
X118185380Y-98505923D01*
X118161571Y-98529733D01*
X118090142Y-98577352D01*
X117994904Y-98601161D01*
X117804428Y-98601161D01*
X117756809Y-98577352D01*
X117733000Y-98553542D01*
X117709190Y-98505923D01*
X117709190Y-98410685D01*
X117733000Y-98363066D01*
X117756809Y-98339257D01*
X117804428Y-98315447D01*
X117923476Y-98315447D01*
X117971095Y-98339257D01*
X117994904Y-98363066D01*
X118018714Y-98410685D01*
X118018714Y-98505923D01*
X117994904Y-98553542D01*
X117971095Y-98577352D01*
X117923476Y-98601161D01*
G04 #@! TO.C,R33*
X125905390Y-95944571D02*
X125667295Y-95777904D01*
X125905390Y-95658857D02*
X125405390Y-95658857D01*
X125405390Y-95849333D01*
X125429200Y-95896952D01*
X125453009Y-95920761D01*
X125500628Y-95944571D01*
X125572057Y-95944571D01*
X125619676Y-95920761D01*
X125643485Y-95896952D01*
X125667295Y-95849333D01*
X125667295Y-95658857D01*
X125405390Y-96111238D02*
X125405390Y-96420761D01*
X125595866Y-96254095D01*
X125595866Y-96325523D01*
X125619676Y-96373142D01*
X125643485Y-96396952D01*
X125691104Y-96420761D01*
X125810152Y-96420761D01*
X125857771Y-96396952D01*
X125881580Y-96373142D01*
X125905390Y-96325523D01*
X125905390Y-96182666D01*
X125881580Y-96135047D01*
X125857771Y-96111238D01*
X125405390Y-96587428D02*
X125405390Y-96896952D01*
X125595866Y-96730285D01*
X125595866Y-96801714D01*
X125619676Y-96849333D01*
X125643485Y-96873142D01*
X125691104Y-96896952D01*
X125810152Y-96896952D01*
X125857771Y-96873142D01*
X125881580Y-96849333D01*
X125905390Y-96801714D01*
X125905390Y-96658857D01*
X125881580Y-96611238D01*
X125857771Y-96587428D01*
G04 #@! TO.C,R34*
X125905390Y-101024571D02*
X125667295Y-100857904D01*
X125905390Y-100738857D02*
X125405390Y-100738857D01*
X125405390Y-100929333D01*
X125429200Y-100976952D01*
X125453009Y-101000761D01*
X125500628Y-101024571D01*
X125572057Y-101024571D01*
X125619676Y-101000761D01*
X125643485Y-100976952D01*
X125667295Y-100929333D01*
X125667295Y-100738857D01*
X125405390Y-101191238D02*
X125405390Y-101500761D01*
X125595866Y-101334095D01*
X125595866Y-101405523D01*
X125619676Y-101453142D01*
X125643485Y-101476952D01*
X125691104Y-101500761D01*
X125810152Y-101500761D01*
X125857771Y-101476952D01*
X125881580Y-101453142D01*
X125905390Y-101405523D01*
X125905390Y-101262666D01*
X125881580Y-101215047D01*
X125857771Y-101191238D01*
X125572057Y-101929333D02*
X125905390Y-101929333D01*
X125381580Y-101810285D02*
X125738723Y-101691238D01*
X125738723Y-102000761D01*
G04 #@! TO.C,R35*
X121942990Y-99551371D02*
X121704895Y-99384704D01*
X121942990Y-99265657D02*
X121442990Y-99265657D01*
X121442990Y-99456133D01*
X121466800Y-99503752D01*
X121490609Y-99527561D01*
X121538228Y-99551371D01*
X121609657Y-99551371D01*
X121657276Y-99527561D01*
X121681085Y-99503752D01*
X121704895Y-99456133D01*
X121704895Y-99265657D01*
X121442990Y-99718038D02*
X121442990Y-100027561D01*
X121633466Y-99860895D01*
X121633466Y-99932323D01*
X121657276Y-99979942D01*
X121681085Y-100003752D01*
X121728704Y-100027561D01*
X121847752Y-100027561D01*
X121895371Y-100003752D01*
X121919180Y-99979942D01*
X121942990Y-99932323D01*
X121942990Y-99789466D01*
X121919180Y-99741847D01*
X121895371Y-99718038D01*
X121442990Y-100479942D02*
X121442990Y-100241847D01*
X121681085Y-100218038D01*
X121657276Y-100241847D01*
X121633466Y-100289466D01*
X121633466Y-100408514D01*
X121657276Y-100456133D01*
X121681085Y-100479942D01*
X121728704Y-100503752D01*
X121847752Y-100503752D01*
X121895371Y-100479942D01*
X121919180Y-100456133D01*
X121942990Y-100408514D01*
X121942990Y-100289466D01*
X121919180Y-100241847D01*
X121895371Y-100218038D01*
G04 #@! TO.C,R36*
X121885828Y-105940990D02*
X122052495Y-105702895D01*
X122171542Y-105940990D02*
X122171542Y-105440990D01*
X121981066Y-105440990D01*
X121933447Y-105464800D01*
X121909638Y-105488609D01*
X121885828Y-105536228D01*
X121885828Y-105607657D01*
X121909638Y-105655276D01*
X121933447Y-105679085D01*
X121981066Y-105702895D01*
X122171542Y-105702895D01*
X121719161Y-105440990D02*
X121409638Y-105440990D01*
X121576304Y-105631466D01*
X121504876Y-105631466D01*
X121457257Y-105655276D01*
X121433447Y-105679085D01*
X121409638Y-105726704D01*
X121409638Y-105845752D01*
X121433447Y-105893371D01*
X121457257Y-105917180D01*
X121504876Y-105940990D01*
X121647733Y-105940990D01*
X121695352Y-105917180D01*
X121719161Y-105893371D01*
X120981066Y-105440990D02*
X121076304Y-105440990D01*
X121123923Y-105464800D01*
X121147733Y-105488609D01*
X121195352Y-105560038D01*
X121219161Y-105655276D01*
X121219161Y-105845752D01*
X121195352Y-105893371D01*
X121171542Y-105917180D01*
X121123923Y-105940990D01*
X121028685Y-105940990D01*
X120981066Y-105917180D01*
X120957257Y-105893371D01*
X120933447Y-105845752D01*
X120933447Y-105726704D01*
X120957257Y-105679085D01*
X120981066Y-105655276D01*
X121028685Y-105631466D01*
X121123923Y-105631466D01*
X121171542Y-105655276D01*
X121195352Y-105679085D01*
X121219161Y-105726704D01*
G04 #@! TO.C,J4*
X111647266Y-74362690D02*
X111647266Y-74719833D01*
X111671076Y-74791261D01*
X111718695Y-74838880D01*
X111790123Y-74862690D01*
X111837742Y-74862690D01*
X111194885Y-74529357D02*
X111194885Y-74862690D01*
X111313933Y-74338880D02*
X111432980Y-74696023D01*
X111123457Y-74696023D01*
G04 #@! TO.C,S1*
X121789380Y-85674247D02*
X121813190Y-85745676D01*
X121813190Y-85864723D01*
X121789380Y-85912342D01*
X121765571Y-85936152D01*
X121717952Y-85959961D01*
X121670333Y-85959961D01*
X121622714Y-85936152D01*
X121598904Y-85912342D01*
X121575095Y-85864723D01*
X121551285Y-85769485D01*
X121527476Y-85721866D01*
X121503666Y-85698057D01*
X121456047Y-85674247D01*
X121408428Y-85674247D01*
X121360809Y-85698057D01*
X121337000Y-85721866D01*
X121313190Y-85769485D01*
X121313190Y-85888533D01*
X121337000Y-85959961D01*
X121813190Y-86436152D02*
X121813190Y-86150438D01*
X121813190Y-86293295D02*
X121313190Y-86293295D01*
X121384619Y-86245676D01*
X121432238Y-86198057D01*
X121456047Y-86150438D01*
G04 #@! TO.C,L1*
X91218533Y-74229790D02*
X91456628Y-74229790D01*
X91456628Y-73729790D01*
X90789961Y-74229790D02*
X91075676Y-74229790D01*
X90932819Y-74229790D02*
X90932819Y-73729790D01*
X90980438Y-73801219D01*
X91028057Y-73848838D01*
X91075676Y-73872647D01*
G04 #@! TD*
M02*
