M48
;DRILL file {KiCad 5.0.2-bee76a0~70~ubuntu18.04.1} date Mo 08 Apr 2019 17:38:36 CEST
;FORMAT={-:-/ absolute / inch / decimal}
FMAT,2
INCH,TZ
T1C0.0118
T2C0.0236
%
G90
G05
T1
X3.094Y-3.484
X3.1024Y-3.2795
X3.122Y-3.424
X3.124Y-3.2657
X3.124Y-3.5531
X3.13Y-3.4
X3.138Y-3.168
X3.1382Y-3.8039
X3.14Y-3.22
X3.146Y-2.962
X3.15Y-3.579
X3.1575Y-3.4665
X3.1575Y-3.5
X3.1791Y-3.6693
X3.187Y-3.466
X3.187Y-3.4996
X3.188Y-3.576
X3.2008Y-3.6476
X3.206Y-3.244
X3.2087Y-3.0079
X3.2087Y-3.0381
X3.2087Y-3.0641
X3.2087Y-3.0901
X3.2087Y-3.1181
X3.218Y-3.182
X3.2185Y-3.4665
X3.2185Y-3.5
X3.234Y-3.008
X3.234Y-3.038
X3.234Y-3.064
X3.234Y-3.09
X3.234Y-3.118
X3.238Y-4.016
X3.244Y-3.244
X3.246Y-3.406
X3.258Y-3.008
X3.258Y-3.038
X3.258Y-3.064
X3.258Y-3.09
X3.258Y-3.118
X3.258Y-3.118
X3.26Y-4.038
X3.264Y-3.644
X3.264Y-3.672
X3.2677Y-3.4232
X3.2835Y-3.0079
X3.284Y-3.038
X3.284Y-3.064
X3.284Y-3.09
X3.284Y-3.118
X3.298Y-2.938
X3.33Y-4.168
X3.346Y-2.934
X3.354Y-3.162
X3.3606Y-3.2906
X3.368Y-3.22
X3.374Y-2.824
X3.3817Y-3.174
X3.392Y-4.316
X3.418Y-2.828
X3.4258Y-2.954
X3.4313Y-4.2835
X3.4366Y-3.2256
X3.4496Y-3.3449
X3.45Y-3.172
X3.4505Y-2.9215
X3.452Y-4.146
X3.4579Y-3.4457
X3.4633Y-3.3198
X3.4681Y-3.2236
X3.4687Y-3.0582
X3.476Y-3.174
X3.482Y-4.002
X3.4906Y-3.0364
X3.4907Y-3.4666
X3.4913Y-2.914
X3.4917Y-3.3234
X3.4921Y-3.1496
X3.4932Y-3.2379
X3.494Y-4.214
X3.5004Y-3.2795
X3.5105Y-2.9659
X3.514Y-4.254
X3.5148Y-3.3064
X3.515Y-3.4913
X3.5256Y-3.398
X3.5391Y-3.3215
X3.548Y-4.096
X3.5569Y-3.4552
X3.5818Y-3.5005
X3.5862Y-3.1165
X3.5862Y-3.1461
X3.5862Y-3.1756
X3.5862Y-3.2051
X3.5862Y-3.2346
X3.5862Y-3.2642
X3.588Y-4.228
X3.596Y-4.134
X3.6004Y-3.0547
X3.604Y-4.052
X3.6075Y-3.4878
X3.6098Y-3.4071
X3.6102Y-3.6378
X3.6157Y-3.1165
X3.6157Y-3.1461
X3.6157Y-3.1756
X3.6157Y-3.2051
X3.6157Y-3.2346
X3.6157Y-3.2642
X3.6306Y-3.7265
X3.6311Y-3.0264
X3.6453Y-3.1165
X3.6453Y-3.1461
X3.6453Y-3.1756
X3.6453Y-3.2051
X3.6453Y-3.2346
X3.6453Y-3.2642
X3.6575Y-3.7362
X3.6748Y-3.1165
X3.6748Y-3.1461
X3.6748Y-3.1756
X3.6748Y-3.2051
X3.6748Y-3.2346
X3.6748Y-3.2642
X3.6895Y-3.0323
X3.69Y-3.7892
X3.6901Y-3.8179
X3.6969Y-3.9252
X3.698Y-4.246
X3.7043Y-3.1165
X3.7043Y-3.1461
X3.7043Y-3.1756
X3.7043Y-3.2051
X3.7043Y-3.2346
X3.7043Y-3.2642
X3.7154Y-2.9657
X3.7327Y-3.3878
X3.7339Y-3.1165
X3.7339Y-3.1461
X3.7339Y-3.1756
X3.7339Y-3.2051
X3.7339Y-3.2346
X3.7339Y-3.2642
X3.734Y-4.106
X3.734Y-4.142
X3.734Y-4.178
X3.734Y-4.214
X3.7402Y-3.9252
X3.7403Y-3.4158
X3.7518Y-3.5709
X3.7717Y-3.6772
X3.7744Y-2.9808
X3.7753Y-3.3886
X3.7764Y-3.4601
X3.7835Y-3.5945
X3.7835Y-3.9252
X3.786Y-3.564
X3.7962Y-3.4808
X3.7971Y-3.0417
X3.8187Y-3.4993
X3.8224Y-3.0739
X3.8236Y-3.3327
X3.8257Y-3.0343
X3.8263Y-3.1728
X3.83Y-3.608
X3.836Y-3.726
X3.8446Y-3.2739
X3.8504Y-3.2059
X3.856Y-3.762
X3.8567Y-3.6183
X3.86Y-3.584
X3.8639Y-3.7178
X3.8836Y-3.1723
X3.8843Y-3.1045
X3.888Y-3.144
X3.888Y-3.8742
X3.8922Y-3.722
X3.91Y-3.808
X3.916Y-3.0976
X3.9224Y-3.8458
X3.9276Y-3.8739
X3.928Y-3.614
X3.9311Y-3.2406
X3.954Y-3.64
X3.956Y-3.818
X3.969Y-3.1924
X3.978Y-3.866
X3.9963Y-3.1397
X4.Y-3.614
X4.Y-3.64
X4.Y-3.666
X4.018Y-3.18
X4.038Y-3.51
X4.044Y-2.974
X4.044Y-3.
X4.048Y-3.722
X4.072Y-3.248
X4.108Y-3.612
X4.13Y-3.292
X4.154Y-3.844
X4.166Y-3.4598
X4.178Y-3.6
X4.1847Y-3.332
X4.188Y-3.2522
X4.194Y-3.536
X4.2119Y-3.6808
X4.2137Y-3.6052
X4.222Y-3.24
X4.2258Y-3.336
X4.23Y-3.85
X4.2338Y-3.6557
X4.236Y-3.124
X4.246Y-2.908
X4.252Y-2.842
X4.254Y-2.732
X4.2656Y-3.4411
X4.27Y-3.122
X4.274Y-3.4138
X4.2799Y-3.5725
X4.2842Y-3.658
X4.286Y-3.692
X4.294Y-3.144
X4.2942Y-3.3858
X4.312Y-3.528
X4.3121Y-3.6645
X4.316Y-2.944
X4.316Y-3.5804
X4.316Y-3.71
X4.318Y-3.122
X4.3358Y-3.452
X4.354Y-3.136
X4.362Y-3.424
X4.362Y-3.478
X4.362Y-3.5296
X4.388Y-3.452
X4.388Y-3.844
X4.418Y-3.51
X4.43Y-3.372
X4.438Y-3.644
X4.44Y-3.45
X4.444Y-3.6116
X4.462Y-2.91
X4.462Y-2.944
X4.462Y-4.124
X4.478Y-4.034
X4.484Y-3.802
X4.486Y-4.33
X4.494Y-4.248
X4.494Y-4.278
X4.4997Y-3.91
X4.5Y-2.732
X4.5282Y-3.908
X4.5304Y-3.4224
X4.534Y-2.868
X4.534Y-4.134
X4.538Y-3.45
X4.538Y-3.752
X4.544Y-4.19
X4.546Y-3.864
X4.55Y-3.386
X4.552Y-3.354
X4.5787Y-3.782
X4.586Y-4.114
X4.594Y-4.04
X4.598Y-3.974
X4.6Y-3.838
X4.606Y-3.77
X4.624Y-2.814
X4.63Y-4.078
X4.634Y-4.322
X4.636Y-3.904
X4.648Y-3.134
X4.65Y-3.044
X4.654Y-2.936
X4.658Y-3.742
X4.664Y-3.982
X4.684Y-3.044
X4.684Y-3.134
X4.684Y-3.8542
X4.696Y-3.462
X4.702Y-3.326
X4.7085Y-3.9115
X4.71Y-2.94
X4.712Y-3.388
X4.712Y-3.7202
X4.73Y-3.566
X4.748Y-3.624
X4.778Y-3.168
X4.778Y-3.21
X4.834Y-3.244
X4.882Y-3.734
X4.882Y-3.856
X4.884Y-3.244
X4.906Y-3.046
X4.914Y-2.942
X3.4913Y-2.914
T2
X4.2189Y-2.7851G85X4.2189Y-2.8087
G05
X4.2189Y-2.9398G85X4.2189Y-2.9831
G05
X4.5591Y-2.7851G85X4.5591Y-2.8087
G05
X4.5591Y-2.9398G85X4.5591Y-2.9831
G05
T0
M30
